%TF.GenerationSoftware,KiCad,Pcbnew,7.0.9*%
%TF.CreationDate,2024-04-27T17:18:48+10:00*%
%TF.ProjectId,eurorack_panel,6575726f-7261-4636-9b5f-70616e656c2e,rev?*%
%TF.SameCoordinates,Original*%
%TF.FileFunction,Legend,Top*%
%TF.FilePolarity,Positive*%
%FSLAX46Y46*%
G04 Gerber Fmt 4.6, Leading zero omitted, Abs format (unit mm)*
G04 Created by KiCad (PCBNEW 7.0.9) date 2024-04-27 17:18:48*
%MOMM*%
%LPD*%
G01*
G04 APERTURE LIST*
%ADD10C,0.350000*%
%ADD11C,0.050000*%
%ADD12C,0.450000*%
%ADD13C,0.200000*%
%ADD14C,0.400000*%
%ADD15C,0.500000*%
%ADD16C,0.600000*%
%ADD17C,0.300000*%
G04 APERTURE END LIST*
D10*
X88550000Y-136500000D02*
X86650000Y-134300000D01*
X96750000Y-82575000D02*
X93050000Y-85825000D01*
X96400000Y-75100000D02*
X93150000Y-71400000D01*
D11*
X70450000Y-158700000D02*
G75*
G03*
X70450000Y-158700000I-1600000J0D01*
G01*
X70450000Y-37150000D02*
G75*
G03*
X70450000Y-37150000I-1600000J0D01*
G01*
X158100000Y-158750000D02*
G75*
G03*
X158100000Y-158750000I-1600000J0D01*
G01*
D10*
X137400000Y-137000000D02*
X139700000Y-133800000D01*
X144300000Y-98100000D02*
X144300000Y-123700000D01*
X130100000Y-85850000D02*
X126400000Y-82600000D01*
D11*
X158100000Y-37200000D02*
G75*
G03*
X158100000Y-37200000I-1600000J0D01*
G01*
D10*
X81100000Y-98200000D02*
X81100000Y-123800000D01*
X129450000Y-71350000D02*
X126200000Y-75050000D01*
D12*
X135900000Y-132058314D02*
X135785714Y-132172600D01*
X135785714Y-132172600D02*
X135442857Y-132286885D01*
X135442857Y-132286885D02*
X135214285Y-132286885D01*
X135214285Y-132286885D02*
X134871428Y-132172600D01*
X134871428Y-132172600D02*
X134642857Y-131944028D01*
X134642857Y-131944028D02*
X134528571Y-131715457D01*
X134528571Y-131715457D02*
X134414285Y-131258314D01*
X134414285Y-131258314D02*
X134414285Y-130915457D01*
X134414285Y-130915457D02*
X134528571Y-130458314D01*
X134528571Y-130458314D02*
X134642857Y-130229742D01*
X134642857Y-130229742D02*
X134871428Y-130001171D01*
X134871428Y-130001171D02*
X135214285Y-129886885D01*
X135214285Y-129886885D02*
X135442857Y-129886885D01*
X135442857Y-129886885D02*
X135785714Y-130001171D01*
X135785714Y-130001171D02*
X135900000Y-130115457D01*
X137385714Y-129886885D02*
X137842857Y-129886885D01*
X137842857Y-129886885D02*
X138071428Y-130001171D01*
X138071428Y-130001171D02*
X138300000Y-130229742D01*
X138300000Y-130229742D02*
X138414285Y-130686885D01*
X138414285Y-130686885D02*
X138414285Y-131486885D01*
X138414285Y-131486885D02*
X138300000Y-131944028D01*
X138300000Y-131944028D02*
X138071428Y-132172600D01*
X138071428Y-132172600D02*
X137842857Y-132286885D01*
X137842857Y-132286885D02*
X137385714Y-132286885D01*
X137385714Y-132286885D02*
X137157143Y-132172600D01*
X137157143Y-132172600D02*
X136928571Y-131944028D01*
X136928571Y-131944028D02*
X136814285Y-131486885D01*
X136814285Y-131486885D02*
X136814285Y-130686885D01*
X136814285Y-130686885D02*
X136928571Y-130229742D01*
X136928571Y-130229742D02*
X137157143Y-130001171D01*
X137157143Y-130001171D02*
X137385714Y-129886885D01*
X140585714Y-132286885D02*
X139442857Y-132286885D01*
X139442857Y-132286885D02*
X139442857Y-129886885D01*
X141842857Y-129886885D02*
X142300000Y-129886885D01*
X142300000Y-129886885D02*
X142528571Y-130001171D01*
X142528571Y-130001171D02*
X142757143Y-130229742D01*
X142757143Y-130229742D02*
X142871428Y-130686885D01*
X142871428Y-130686885D02*
X142871428Y-131486885D01*
X142871428Y-131486885D02*
X142757143Y-131944028D01*
X142757143Y-131944028D02*
X142528571Y-132172600D01*
X142528571Y-132172600D02*
X142300000Y-132286885D01*
X142300000Y-132286885D02*
X141842857Y-132286885D01*
X141842857Y-132286885D02*
X141614286Y-132172600D01*
X141614286Y-132172600D02*
X141385714Y-131944028D01*
X141385714Y-131944028D02*
X141271428Y-131486885D01*
X141271428Y-131486885D02*
X141271428Y-130686885D01*
X141271428Y-130686885D02*
X141385714Y-130229742D01*
X141385714Y-130229742D02*
X141614286Y-130001171D01*
X141614286Y-130001171D02*
X141842857Y-129886885D01*
X145271429Y-132286885D02*
X144471429Y-131144028D01*
X143900000Y-132286885D02*
X143900000Y-129886885D01*
X143900000Y-129886885D02*
X144814286Y-129886885D01*
X144814286Y-129886885D02*
X145042857Y-130001171D01*
X145042857Y-130001171D02*
X145157143Y-130115457D01*
X145157143Y-130115457D02*
X145271429Y-130344028D01*
X145271429Y-130344028D02*
X145271429Y-130686885D01*
X145271429Y-130686885D02*
X145157143Y-130915457D01*
X145157143Y-130915457D02*
X145042857Y-131029742D01*
X145042857Y-131029742D02*
X144814286Y-131144028D01*
X144814286Y-131144028D02*
X143900000Y-131144028D01*
X145728572Y-132515457D02*
X147557143Y-132515457D01*
X147785714Y-129886885D02*
X149157143Y-129886885D01*
X148471428Y-132286885D02*
X148471428Y-129886885D01*
X149728571Y-129886885D02*
X150299999Y-132286885D01*
X150299999Y-132286885D02*
X150757142Y-130572600D01*
X150757142Y-130572600D02*
X151214285Y-132286885D01*
X151214285Y-132286885D02*
X151785714Y-129886885D01*
X153157142Y-129886885D02*
X153614285Y-129886885D01*
X153614285Y-129886885D02*
X153842856Y-130001171D01*
X153842856Y-130001171D02*
X154071428Y-130229742D01*
X154071428Y-130229742D02*
X154185713Y-130686885D01*
X154185713Y-130686885D02*
X154185713Y-131486885D01*
X154185713Y-131486885D02*
X154071428Y-131944028D01*
X154071428Y-131944028D02*
X153842856Y-132172600D01*
X153842856Y-132172600D02*
X153614285Y-132286885D01*
X153614285Y-132286885D02*
X153157142Y-132286885D01*
X153157142Y-132286885D02*
X152928571Y-132172600D01*
X152928571Y-132172600D02*
X152699999Y-131944028D01*
X152699999Y-131944028D02*
X152585713Y-131486885D01*
X152585713Y-131486885D02*
X152585713Y-130686885D01*
X152585713Y-130686885D02*
X152699999Y-130229742D01*
X152699999Y-130229742D02*
X152928571Y-130001171D01*
X152928571Y-130001171D02*
X153157142Y-129886885D01*
D13*
X159080952Y-119252219D02*
X159271428Y-119252219D01*
X159271428Y-119252219D02*
X159366666Y-119299838D01*
X159366666Y-119299838D02*
X159461904Y-119395076D01*
X159461904Y-119395076D02*
X159509523Y-119585552D01*
X159509523Y-119585552D02*
X159509523Y-119918885D01*
X159509523Y-119918885D02*
X159461904Y-120109361D01*
X159461904Y-120109361D02*
X159366666Y-120204600D01*
X159366666Y-120204600D02*
X159271428Y-120252219D01*
X159271428Y-120252219D02*
X159080952Y-120252219D01*
X159080952Y-120252219D02*
X158985714Y-120204600D01*
X158985714Y-120204600D02*
X158890476Y-120109361D01*
X158890476Y-120109361D02*
X158842857Y-119918885D01*
X158842857Y-119918885D02*
X158842857Y-119585552D01*
X158842857Y-119585552D02*
X158890476Y-119395076D01*
X158890476Y-119395076D02*
X158985714Y-119299838D01*
X158985714Y-119299838D02*
X159080952Y-119252219D01*
X159938095Y-120252219D02*
X159938095Y-119252219D01*
X159938095Y-119252219D02*
X160509523Y-120252219D01*
X160509523Y-120252219D02*
X160509523Y-119252219D01*
D14*
X101371429Y-79981342D02*
X101228572Y-80124200D01*
X101228572Y-80124200D02*
X100800000Y-80267057D01*
X100800000Y-80267057D02*
X100514286Y-80267057D01*
X100514286Y-80267057D02*
X100085715Y-80124200D01*
X100085715Y-80124200D02*
X99800000Y-79838485D01*
X99800000Y-79838485D02*
X99657143Y-79552771D01*
X99657143Y-79552771D02*
X99514286Y-78981342D01*
X99514286Y-78981342D02*
X99514286Y-78552771D01*
X99514286Y-78552771D02*
X99657143Y-77981342D01*
X99657143Y-77981342D02*
X99800000Y-77695628D01*
X99800000Y-77695628D02*
X100085715Y-77409914D01*
X100085715Y-77409914D02*
X100514286Y-77267057D01*
X100514286Y-77267057D02*
X100800000Y-77267057D01*
X100800000Y-77267057D02*
X101228572Y-77409914D01*
X101228572Y-77409914D02*
X101371429Y-77552771D01*
X103228572Y-77267057D02*
X103800000Y-77267057D01*
X103800000Y-77267057D02*
X104085715Y-77409914D01*
X104085715Y-77409914D02*
X104371429Y-77695628D01*
X104371429Y-77695628D02*
X104514286Y-78267057D01*
X104514286Y-78267057D02*
X104514286Y-79267057D01*
X104514286Y-79267057D02*
X104371429Y-79838485D01*
X104371429Y-79838485D02*
X104085715Y-80124200D01*
X104085715Y-80124200D02*
X103800000Y-80267057D01*
X103800000Y-80267057D02*
X103228572Y-80267057D01*
X103228572Y-80267057D02*
X102942858Y-80124200D01*
X102942858Y-80124200D02*
X102657143Y-79838485D01*
X102657143Y-79838485D02*
X102514286Y-79267057D01*
X102514286Y-79267057D02*
X102514286Y-78267057D01*
X102514286Y-78267057D02*
X102657143Y-77695628D01*
X102657143Y-77695628D02*
X102942858Y-77409914D01*
X102942858Y-77409914D02*
X103228572Y-77267057D01*
X107228572Y-80267057D02*
X105800000Y-80267057D01*
X105800000Y-80267057D02*
X105800000Y-77267057D01*
X108800000Y-77267057D02*
X109371428Y-77267057D01*
X109371428Y-77267057D02*
X109657143Y-77409914D01*
X109657143Y-77409914D02*
X109942857Y-77695628D01*
X109942857Y-77695628D02*
X110085714Y-78267057D01*
X110085714Y-78267057D02*
X110085714Y-79267057D01*
X110085714Y-79267057D02*
X109942857Y-79838485D01*
X109942857Y-79838485D02*
X109657143Y-80124200D01*
X109657143Y-80124200D02*
X109371428Y-80267057D01*
X109371428Y-80267057D02*
X108800000Y-80267057D01*
X108800000Y-80267057D02*
X108514286Y-80124200D01*
X108514286Y-80124200D02*
X108228571Y-79838485D01*
X108228571Y-79838485D02*
X108085714Y-79267057D01*
X108085714Y-79267057D02*
X108085714Y-78267057D01*
X108085714Y-78267057D02*
X108228571Y-77695628D01*
X108228571Y-77695628D02*
X108514286Y-77409914D01*
X108514286Y-77409914D02*
X108800000Y-77267057D01*
X113085714Y-80267057D02*
X112085714Y-78838485D01*
X111371428Y-80267057D02*
X111371428Y-77267057D01*
X111371428Y-77267057D02*
X112514285Y-77267057D01*
X112514285Y-77267057D02*
X112800000Y-77409914D01*
X112800000Y-77409914D02*
X112942857Y-77552771D01*
X112942857Y-77552771D02*
X113085714Y-77838485D01*
X113085714Y-77838485D02*
X113085714Y-78267057D01*
X113085714Y-78267057D02*
X112942857Y-78552771D01*
X112942857Y-78552771D02*
X112800000Y-78695628D01*
X112800000Y-78695628D02*
X112514285Y-78838485D01*
X112514285Y-78838485D02*
X111371428Y-78838485D01*
X114371428Y-80267057D02*
X114371428Y-77267057D01*
X115514285Y-77267057D02*
X117514285Y-77267057D01*
X117514285Y-77267057D02*
X115514285Y-80267057D01*
X115514285Y-80267057D02*
X117514285Y-80267057D01*
X118657142Y-78695628D02*
X119657142Y-78695628D01*
X120085714Y-80267057D02*
X118657142Y-80267057D01*
X118657142Y-80267057D02*
X118657142Y-77267057D01*
X118657142Y-77267057D02*
X120085714Y-77267057D01*
X123085714Y-80267057D02*
X122085714Y-78838485D01*
X121371428Y-80267057D02*
X121371428Y-77267057D01*
X121371428Y-77267057D02*
X122514285Y-77267057D01*
X122514285Y-77267057D02*
X122800000Y-77409914D01*
X122800000Y-77409914D02*
X122942857Y-77552771D01*
X122942857Y-77552771D02*
X123085714Y-77838485D01*
X123085714Y-77838485D02*
X123085714Y-78267057D01*
X123085714Y-78267057D02*
X122942857Y-78552771D01*
X122942857Y-78552771D02*
X122800000Y-78695628D01*
X122800000Y-78695628D02*
X122514285Y-78838485D01*
X122514285Y-78838485D02*
X121371428Y-78838485D01*
D13*
X64857143Y-104352219D02*
X64857143Y-103352219D01*
X64857143Y-103352219D02*
X65428571Y-104352219D01*
X65428571Y-104352219D02*
X65428571Y-103352219D01*
X65761905Y-103352219D02*
X66333333Y-103352219D01*
X66047619Y-104352219D02*
X66047619Y-103352219D01*
X66619048Y-104304600D02*
X66761905Y-104352219D01*
X66761905Y-104352219D02*
X67000000Y-104352219D01*
X67000000Y-104352219D02*
X67095238Y-104304600D01*
X67095238Y-104304600D02*
X67142857Y-104256980D01*
X67142857Y-104256980D02*
X67190476Y-104161742D01*
X67190476Y-104161742D02*
X67190476Y-104066504D01*
X67190476Y-104066504D02*
X67142857Y-103971266D01*
X67142857Y-103971266D02*
X67095238Y-103923647D01*
X67095238Y-103923647D02*
X67000000Y-103876028D01*
X67000000Y-103876028D02*
X66809524Y-103828409D01*
X66809524Y-103828409D02*
X66714286Y-103780790D01*
X66714286Y-103780790D02*
X66666667Y-103733171D01*
X66666667Y-103733171D02*
X66619048Y-103637933D01*
X66619048Y-103637933D02*
X66619048Y-103542695D01*
X66619048Y-103542695D02*
X66666667Y-103447457D01*
X66666667Y-103447457D02*
X66714286Y-103399838D01*
X66714286Y-103399838D02*
X66809524Y-103352219D01*
X66809524Y-103352219D02*
X67047619Y-103352219D01*
X67047619Y-103352219D02*
X67190476Y-103399838D01*
X68190476Y-104256980D02*
X68142857Y-104304600D01*
X68142857Y-104304600D02*
X68000000Y-104352219D01*
X68000000Y-104352219D02*
X67904762Y-104352219D01*
X67904762Y-104352219D02*
X67761905Y-104304600D01*
X67761905Y-104304600D02*
X67666667Y-104209361D01*
X67666667Y-104209361D02*
X67619048Y-104114123D01*
X67619048Y-104114123D02*
X67571429Y-103923647D01*
X67571429Y-103923647D02*
X67571429Y-103780790D01*
X67571429Y-103780790D02*
X67619048Y-103590314D01*
X67619048Y-103590314D02*
X67666667Y-103495076D01*
X67666667Y-103495076D02*
X67761905Y-103399838D01*
X67761905Y-103399838D02*
X67904762Y-103352219D01*
X67904762Y-103352219D02*
X68000000Y-103352219D01*
X68000000Y-103352219D02*
X68142857Y-103399838D01*
X68142857Y-103399838D02*
X68190476Y-103447457D01*
D10*
X76135713Y-95175728D02*
X75421427Y-95175728D01*
X75421427Y-95175728D02*
X75421427Y-93675728D01*
X76635713Y-94390014D02*
X77135713Y-94390014D01*
X77349999Y-95175728D02*
X76635713Y-95175728D01*
X76635713Y-95175728D02*
X76635713Y-93675728D01*
X76635713Y-93675728D02*
X77349999Y-93675728D01*
X77778571Y-93675728D02*
X78278571Y-95175728D01*
X78278571Y-95175728D02*
X78778571Y-93675728D01*
X79278570Y-94390014D02*
X79778570Y-94390014D01*
X79992856Y-95175728D02*
X79278570Y-95175728D01*
X79278570Y-95175728D02*
X79278570Y-93675728D01*
X79278570Y-93675728D02*
X79992856Y-93675728D01*
X81349999Y-95175728D02*
X80635713Y-95175728D01*
X80635713Y-95175728D02*
X80635713Y-93675728D01*
X81492857Y-95318585D02*
X82635714Y-95318585D01*
X83278571Y-93675728D02*
X83564285Y-93675728D01*
X83564285Y-93675728D02*
X83707142Y-93747157D01*
X83707142Y-93747157D02*
X83849999Y-93890014D01*
X83849999Y-93890014D02*
X83921428Y-94175728D01*
X83921428Y-94175728D02*
X83921428Y-94675728D01*
X83921428Y-94675728D02*
X83849999Y-94961442D01*
X83849999Y-94961442D02*
X83707142Y-95104300D01*
X83707142Y-95104300D02*
X83564285Y-95175728D01*
X83564285Y-95175728D02*
X83278571Y-95175728D01*
X83278571Y-95175728D02*
X83135714Y-95104300D01*
X83135714Y-95104300D02*
X82992856Y-94961442D01*
X82992856Y-94961442D02*
X82921428Y-94675728D01*
X82921428Y-94675728D02*
X82921428Y-94175728D01*
X82921428Y-94175728D02*
X82992856Y-93890014D01*
X82992856Y-93890014D02*
X83135714Y-93747157D01*
X83135714Y-93747157D02*
X83278571Y-93675728D01*
X84564285Y-95175728D02*
X84564285Y-93675728D01*
X84564285Y-93675728D02*
X85421428Y-95175728D01*
X85421428Y-95175728D02*
X85421428Y-93675728D01*
X86135714Y-94390014D02*
X86635714Y-94390014D01*
X86850000Y-95175728D02*
X86135714Y-95175728D01*
X86135714Y-95175728D02*
X86135714Y-93675728D01*
X86135714Y-93675728D02*
X86850000Y-93675728D01*
D15*
X100216666Y-42859834D02*
X100049999Y-43026501D01*
X100049999Y-43026501D02*
X99549999Y-43193167D01*
X99549999Y-43193167D02*
X99216666Y-43193167D01*
X99216666Y-43193167D02*
X98716666Y-43026501D01*
X98716666Y-43026501D02*
X98383333Y-42693167D01*
X98383333Y-42693167D02*
X98216666Y-42359834D01*
X98216666Y-42359834D02*
X98049999Y-41693167D01*
X98049999Y-41693167D02*
X98049999Y-41193167D01*
X98049999Y-41193167D02*
X98216666Y-40526501D01*
X98216666Y-40526501D02*
X98383333Y-40193167D01*
X98383333Y-40193167D02*
X98716666Y-39859834D01*
X98716666Y-39859834D02*
X99216666Y-39693167D01*
X99216666Y-39693167D02*
X99549999Y-39693167D01*
X99549999Y-39693167D02*
X100049999Y-39859834D01*
X100049999Y-39859834D02*
X100216666Y-40026501D01*
X102383333Y-39693167D02*
X103049999Y-39693167D01*
X103049999Y-39693167D02*
X103383333Y-39859834D01*
X103383333Y-39859834D02*
X103716666Y-40193167D01*
X103716666Y-40193167D02*
X103883333Y-40859834D01*
X103883333Y-40859834D02*
X103883333Y-42026501D01*
X103883333Y-42026501D02*
X103716666Y-42693167D01*
X103716666Y-42693167D02*
X103383333Y-43026501D01*
X103383333Y-43026501D02*
X103049999Y-43193167D01*
X103049999Y-43193167D02*
X102383333Y-43193167D01*
X102383333Y-43193167D02*
X102049999Y-43026501D01*
X102049999Y-43026501D02*
X101716666Y-42693167D01*
X101716666Y-42693167D02*
X101549999Y-42026501D01*
X101549999Y-42026501D02*
X101549999Y-40859834D01*
X101549999Y-40859834D02*
X101716666Y-40193167D01*
X101716666Y-40193167D02*
X102049999Y-39859834D01*
X102049999Y-39859834D02*
X102383333Y-39693167D01*
X107050000Y-43193167D02*
X105383333Y-43193167D01*
X105383333Y-43193167D02*
X105383333Y-39693167D01*
X108883333Y-39693167D02*
X109549999Y-39693167D01*
X109549999Y-39693167D02*
X109883333Y-39859834D01*
X109883333Y-39859834D02*
X110216666Y-40193167D01*
X110216666Y-40193167D02*
X110383333Y-40859834D01*
X110383333Y-40859834D02*
X110383333Y-42026501D01*
X110383333Y-42026501D02*
X110216666Y-42693167D01*
X110216666Y-42693167D02*
X109883333Y-43026501D01*
X109883333Y-43026501D02*
X109549999Y-43193167D01*
X109549999Y-43193167D02*
X108883333Y-43193167D01*
X108883333Y-43193167D02*
X108549999Y-43026501D01*
X108549999Y-43026501D02*
X108216666Y-42693167D01*
X108216666Y-42693167D02*
X108049999Y-42026501D01*
X108049999Y-42026501D02*
X108049999Y-40859834D01*
X108049999Y-40859834D02*
X108216666Y-40193167D01*
X108216666Y-40193167D02*
X108549999Y-39859834D01*
X108549999Y-39859834D02*
X108883333Y-39693167D01*
X113883333Y-43193167D02*
X112716666Y-41526501D01*
X111883333Y-43193167D02*
X111883333Y-39693167D01*
X111883333Y-39693167D02*
X113216666Y-39693167D01*
X113216666Y-39693167D02*
X113550000Y-39859834D01*
X113550000Y-39859834D02*
X113716666Y-40026501D01*
X113716666Y-40026501D02*
X113883333Y-40359834D01*
X113883333Y-40359834D02*
X113883333Y-40859834D01*
X113883333Y-40859834D02*
X113716666Y-41193167D01*
X113716666Y-41193167D02*
X113550000Y-41359834D01*
X113550000Y-41359834D02*
X113216666Y-41526501D01*
X113216666Y-41526501D02*
X111883333Y-41526501D01*
X115383333Y-43193167D02*
X115383333Y-39693167D01*
X116716667Y-39693167D02*
X119050000Y-39693167D01*
X119050000Y-39693167D02*
X116716667Y-43193167D01*
X116716667Y-43193167D02*
X119050000Y-43193167D01*
X120383333Y-41359834D02*
X121550000Y-41359834D01*
X122050000Y-43193167D02*
X120383333Y-43193167D01*
X120383333Y-43193167D02*
X120383333Y-39693167D01*
X120383333Y-39693167D02*
X122050000Y-39693167D01*
X125550000Y-43193167D02*
X124383333Y-41526501D01*
X123550000Y-43193167D02*
X123550000Y-39693167D01*
X123550000Y-39693167D02*
X124883333Y-39693167D01*
X124883333Y-39693167D02*
X125216667Y-39859834D01*
X125216667Y-39859834D02*
X125383333Y-40026501D01*
X125383333Y-40026501D02*
X125550000Y-40359834D01*
X125550000Y-40359834D02*
X125550000Y-40859834D01*
X125550000Y-40859834D02*
X125383333Y-41193167D01*
X125383333Y-41193167D02*
X125216667Y-41359834D01*
X125216667Y-41359834D02*
X124883333Y-41526501D01*
X124883333Y-41526501D02*
X123550000Y-41526501D01*
D16*
X102000000Y-157908085D02*
X105809523Y-157908085D01*
X106285714Y-152908085D02*
X107238095Y-152193800D01*
X107238095Y-152193800D02*
X108190476Y-152908085D01*
X114619048Y-152431895D02*
X115095238Y-152431895D01*
X115095238Y-152431895D02*
X115571429Y-152669990D01*
X115571429Y-152669990D02*
X115809524Y-152908085D01*
X115809524Y-152908085D02*
X116047619Y-153384276D01*
X116047619Y-153384276D02*
X116285714Y-154336657D01*
X116285714Y-154336657D02*
X116285714Y-155527133D01*
X116285714Y-155527133D02*
X116047619Y-156479514D01*
X116047619Y-156479514D02*
X115809524Y-156955704D01*
X115809524Y-156955704D02*
X115571429Y-157193800D01*
X115571429Y-157193800D02*
X115095238Y-157431895D01*
X115095238Y-157431895D02*
X114619048Y-157431895D01*
X114619048Y-157431895D02*
X114142857Y-157193800D01*
X114142857Y-157193800D02*
X113904762Y-156955704D01*
X113904762Y-156955704D02*
X113666667Y-156479514D01*
X113666667Y-156479514D02*
X113428571Y-155527133D01*
X113428571Y-155527133D02*
X113428571Y-154336657D01*
X113428571Y-154336657D02*
X113666667Y-153384276D01*
X113666667Y-153384276D02*
X113904762Y-152908085D01*
X113904762Y-152908085D02*
X114142857Y-152669990D01*
X114142857Y-152669990D02*
X114619048Y-152431895D01*
X118666667Y-157431895D02*
X119619048Y-157431895D01*
X119619048Y-157431895D02*
X120095238Y-157193800D01*
X120095238Y-157193800D02*
X120333334Y-156955704D01*
X120333334Y-156955704D02*
X120809524Y-156241419D01*
X120809524Y-156241419D02*
X121047619Y-155289038D01*
X121047619Y-155289038D02*
X121047619Y-153384276D01*
X121047619Y-153384276D02*
X120809524Y-152908085D01*
X120809524Y-152908085D02*
X120571429Y-152669990D01*
X120571429Y-152669990D02*
X120095238Y-152431895D01*
X120095238Y-152431895D02*
X119142857Y-152431895D01*
X119142857Y-152431895D02*
X118666667Y-152669990D01*
X118666667Y-152669990D02*
X118428572Y-152908085D01*
X118428572Y-152908085D02*
X118190476Y-153384276D01*
X118190476Y-153384276D02*
X118190476Y-154574752D01*
X118190476Y-154574752D02*
X118428572Y-155050942D01*
X118428572Y-155050942D02*
X118666667Y-155289038D01*
X118666667Y-155289038D02*
X119142857Y-155527133D01*
X119142857Y-155527133D02*
X120095238Y-155527133D01*
X120095238Y-155527133D02*
X120571429Y-155289038D01*
X120571429Y-155289038D02*
X120809524Y-155050942D01*
X120809524Y-155050942D02*
X121047619Y-154574752D01*
D12*
X72642857Y-132158314D02*
X72528571Y-132272600D01*
X72528571Y-132272600D02*
X72185714Y-132386885D01*
X72185714Y-132386885D02*
X71957142Y-132386885D01*
X71957142Y-132386885D02*
X71614285Y-132272600D01*
X71614285Y-132272600D02*
X71385714Y-132044028D01*
X71385714Y-132044028D02*
X71271428Y-131815457D01*
X71271428Y-131815457D02*
X71157142Y-131358314D01*
X71157142Y-131358314D02*
X71157142Y-131015457D01*
X71157142Y-131015457D02*
X71271428Y-130558314D01*
X71271428Y-130558314D02*
X71385714Y-130329742D01*
X71385714Y-130329742D02*
X71614285Y-130101171D01*
X71614285Y-130101171D02*
X71957142Y-129986885D01*
X71957142Y-129986885D02*
X72185714Y-129986885D01*
X72185714Y-129986885D02*
X72528571Y-130101171D01*
X72528571Y-130101171D02*
X72642857Y-130215457D01*
X74128571Y-129986885D02*
X74585714Y-129986885D01*
X74585714Y-129986885D02*
X74814285Y-130101171D01*
X74814285Y-130101171D02*
X75042857Y-130329742D01*
X75042857Y-130329742D02*
X75157142Y-130786885D01*
X75157142Y-130786885D02*
X75157142Y-131586885D01*
X75157142Y-131586885D02*
X75042857Y-132044028D01*
X75042857Y-132044028D02*
X74814285Y-132272600D01*
X74814285Y-132272600D02*
X74585714Y-132386885D01*
X74585714Y-132386885D02*
X74128571Y-132386885D01*
X74128571Y-132386885D02*
X73900000Y-132272600D01*
X73900000Y-132272600D02*
X73671428Y-132044028D01*
X73671428Y-132044028D02*
X73557142Y-131586885D01*
X73557142Y-131586885D02*
X73557142Y-130786885D01*
X73557142Y-130786885D02*
X73671428Y-130329742D01*
X73671428Y-130329742D02*
X73900000Y-130101171D01*
X73900000Y-130101171D02*
X74128571Y-129986885D01*
X77328571Y-132386885D02*
X76185714Y-132386885D01*
X76185714Y-132386885D02*
X76185714Y-129986885D01*
X78585714Y-129986885D02*
X79042857Y-129986885D01*
X79042857Y-129986885D02*
X79271428Y-130101171D01*
X79271428Y-130101171D02*
X79500000Y-130329742D01*
X79500000Y-130329742D02*
X79614285Y-130786885D01*
X79614285Y-130786885D02*
X79614285Y-131586885D01*
X79614285Y-131586885D02*
X79500000Y-132044028D01*
X79500000Y-132044028D02*
X79271428Y-132272600D01*
X79271428Y-132272600D02*
X79042857Y-132386885D01*
X79042857Y-132386885D02*
X78585714Y-132386885D01*
X78585714Y-132386885D02*
X78357143Y-132272600D01*
X78357143Y-132272600D02*
X78128571Y-132044028D01*
X78128571Y-132044028D02*
X78014285Y-131586885D01*
X78014285Y-131586885D02*
X78014285Y-130786885D01*
X78014285Y-130786885D02*
X78128571Y-130329742D01*
X78128571Y-130329742D02*
X78357143Y-130101171D01*
X78357143Y-130101171D02*
X78585714Y-129986885D01*
X82014286Y-132386885D02*
X81214286Y-131244028D01*
X80642857Y-132386885D02*
X80642857Y-129986885D01*
X80642857Y-129986885D02*
X81557143Y-129986885D01*
X81557143Y-129986885D02*
X81785714Y-130101171D01*
X81785714Y-130101171D02*
X81900000Y-130215457D01*
X81900000Y-130215457D02*
X82014286Y-130444028D01*
X82014286Y-130444028D02*
X82014286Y-130786885D01*
X82014286Y-130786885D02*
X81900000Y-131015457D01*
X81900000Y-131015457D02*
X81785714Y-131129742D01*
X81785714Y-131129742D02*
X81557143Y-131244028D01*
X81557143Y-131244028D02*
X80642857Y-131244028D01*
X82471429Y-132615457D02*
X84300000Y-132615457D01*
X85328571Y-129986885D02*
X85785714Y-129986885D01*
X85785714Y-129986885D02*
X86014285Y-130101171D01*
X86014285Y-130101171D02*
X86242857Y-130329742D01*
X86242857Y-130329742D02*
X86357142Y-130786885D01*
X86357142Y-130786885D02*
X86357142Y-131586885D01*
X86357142Y-131586885D02*
X86242857Y-132044028D01*
X86242857Y-132044028D02*
X86014285Y-132272600D01*
X86014285Y-132272600D02*
X85785714Y-132386885D01*
X85785714Y-132386885D02*
X85328571Y-132386885D01*
X85328571Y-132386885D02*
X85100000Y-132272600D01*
X85100000Y-132272600D02*
X84871428Y-132044028D01*
X84871428Y-132044028D02*
X84757142Y-131586885D01*
X84757142Y-131586885D02*
X84757142Y-130786885D01*
X84757142Y-130786885D02*
X84871428Y-130329742D01*
X84871428Y-130329742D02*
X85100000Y-130101171D01*
X85100000Y-130101171D02*
X85328571Y-129986885D01*
X87385714Y-132386885D02*
X87385714Y-129986885D01*
X87385714Y-129986885D02*
X88757143Y-132386885D01*
X88757143Y-132386885D02*
X88757143Y-129986885D01*
X89900000Y-131129742D02*
X90700000Y-131129742D01*
X91042857Y-132386885D02*
X89900000Y-132386885D01*
X89900000Y-132386885D02*
X89900000Y-129986885D01*
X89900000Y-129986885D02*
X91042857Y-129986885D01*
D13*
X65404762Y-120552219D02*
X65404762Y-119552219D01*
X65404762Y-119552219D02*
X65785714Y-119552219D01*
X65785714Y-119552219D02*
X65880952Y-119599838D01*
X65880952Y-119599838D02*
X65928571Y-119647457D01*
X65928571Y-119647457D02*
X65976190Y-119742695D01*
X65976190Y-119742695D02*
X65976190Y-119885552D01*
X65976190Y-119885552D02*
X65928571Y-119980790D01*
X65928571Y-119980790D02*
X65880952Y-120028409D01*
X65880952Y-120028409D02*
X65785714Y-120076028D01*
X65785714Y-120076028D02*
X65404762Y-120076028D01*
X66357143Y-120266504D02*
X66833333Y-120266504D01*
X66261905Y-120552219D02*
X66595238Y-119552219D01*
X66595238Y-119552219D02*
X66928571Y-120552219D01*
X67738095Y-120552219D02*
X67261905Y-120552219D01*
X67261905Y-120552219D02*
X67261905Y-119552219D01*
D17*
X103085713Y-36078328D02*
X103942856Y-36078328D01*
X103514284Y-37578328D02*
X103514284Y-36078328D01*
X104299998Y-36078328D02*
X104657141Y-37578328D01*
X104657141Y-37578328D02*
X104942855Y-36506900D01*
X104942855Y-36506900D02*
X105228570Y-37578328D01*
X105228570Y-37578328D02*
X105585713Y-36078328D01*
X106442856Y-36078328D02*
X106728570Y-36078328D01*
X106728570Y-36078328D02*
X106871427Y-36149757D01*
X106871427Y-36149757D02*
X107014284Y-36292614D01*
X107014284Y-36292614D02*
X107085713Y-36578328D01*
X107085713Y-36578328D02*
X107085713Y-37078328D01*
X107085713Y-37078328D02*
X107014284Y-37364042D01*
X107014284Y-37364042D02*
X106871427Y-37506900D01*
X106871427Y-37506900D02*
X106728570Y-37578328D01*
X106728570Y-37578328D02*
X106442856Y-37578328D01*
X106442856Y-37578328D02*
X106299999Y-37506900D01*
X106299999Y-37506900D02*
X106157141Y-37364042D01*
X106157141Y-37364042D02*
X106085713Y-37078328D01*
X106085713Y-37078328D02*
X106085713Y-36578328D01*
X106085713Y-36578328D02*
X106157141Y-36292614D01*
X106157141Y-36292614D02*
X106299999Y-36149757D01*
X106299999Y-36149757D02*
X106442856Y-36078328D01*
X107371428Y-37721185D02*
X108514285Y-37721185D01*
X108871427Y-37578328D02*
X108871427Y-36078328D01*
X108871427Y-36078328D02*
X109442856Y-36078328D01*
X109442856Y-36078328D02*
X109585713Y-36149757D01*
X109585713Y-36149757D02*
X109657142Y-36221185D01*
X109657142Y-36221185D02*
X109728570Y-36364042D01*
X109728570Y-36364042D02*
X109728570Y-36578328D01*
X109728570Y-36578328D02*
X109657142Y-36721185D01*
X109657142Y-36721185D02*
X109585713Y-36792614D01*
X109585713Y-36792614D02*
X109442856Y-36864042D01*
X109442856Y-36864042D02*
X108871427Y-36864042D01*
X110657142Y-36078328D02*
X110942856Y-36078328D01*
X110942856Y-36078328D02*
X111085713Y-36149757D01*
X111085713Y-36149757D02*
X111228570Y-36292614D01*
X111228570Y-36292614D02*
X111299999Y-36578328D01*
X111299999Y-36578328D02*
X111299999Y-37078328D01*
X111299999Y-37078328D02*
X111228570Y-37364042D01*
X111228570Y-37364042D02*
X111085713Y-37506900D01*
X111085713Y-37506900D02*
X110942856Y-37578328D01*
X110942856Y-37578328D02*
X110657142Y-37578328D01*
X110657142Y-37578328D02*
X110514285Y-37506900D01*
X110514285Y-37506900D02*
X110371427Y-37364042D01*
X110371427Y-37364042D02*
X110299999Y-37078328D01*
X110299999Y-37078328D02*
X110299999Y-36578328D01*
X110299999Y-36578328D02*
X110371427Y-36292614D01*
X110371427Y-36292614D02*
X110514285Y-36149757D01*
X110514285Y-36149757D02*
X110657142Y-36078328D01*
X111942856Y-37578328D02*
X111942856Y-36078328D01*
X112657142Y-37578328D02*
X112657142Y-36078328D01*
X112657142Y-36078328D02*
X113514285Y-37578328D01*
X113514285Y-37578328D02*
X113514285Y-36078328D01*
X114014286Y-36078328D02*
X114871429Y-36078328D01*
X114442857Y-37578328D02*
X114442857Y-36078328D01*
X115014286Y-37721185D02*
X116157143Y-37721185D01*
X116800000Y-36078328D02*
X117085714Y-36078328D01*
X117085714Y-36078328D02*
X117228571Y-36149757D01*
X117228571Y-36149757D02*
X117371428Y-36292614D01*
X117371428Y-36292614D02*
X117442857Y-36578328D01*
X117442857Y-36578328D02*
X117442857Y-37078328D01*
X117442857Y-37078328D02*
X117371428Y-37364042D01*
X117371428Y-37364042D02*
X117228571Y-37506900D01*
X117228571Y-37506900D02*
X117085714Y-37578328D01*
X117085714Y-37578328D02*
X116800000Y-37578328D01*
X116800000Y-37578328D02*
X116657143Y-37506900D01*
X116657143Y-37506900D02*
X116514285Y-37364042D01*
X116514285Y-37364042D02*
X116442857Y-37078328D01*
X116442857Y-37078328D02*
X116442857Y-36578328D01*
X116442857Y-36578328D02*
X116514285Y-36292614D01*
X116514285Y-36292614D02*
X116657143Y-36149757D01*
X116657143Y-36149757D02*
X116800000Y-36078328D01*
X118085714Y-37578328D02*
X118085714Y-36078328D01*
X118085714Y-36078328D02*
X118942857Y-37578328D01*
X118942857Y-37578328D02*
X118942857Y-36078328D01*
X119657143Y-36792614D02*
X120157143Y-36792614D01*
X120371429Y-37578328D02*
X119657143Y-37578328D01*
X119657143Y-37578328D02*
X119657143Y-36078328D01*
X119657143Y-36078328D02*
X120371429Y-36078328D01*
D10*
X139371428Y-95075728D02*
X138657142Y-95075728D01*
X138657142Y-95075728D02*
X138657142Y-93575728D01*
X139871428Y-94290014D02*
X140371428Y-94290014D01*
X140585714Y-95075728D02*
X139871428Y-95075728D01*
X139871428Y-95075728D02*
X139871428Y-93575728D01*
X139871428Y-93575728D02*
X140585714Y-93575728D01*
X141014286Y-93575728D02*
X141514286Y-95075728D01*
X141514286Y-95075728D02*
X142014286Y-93575728D01*
X142514285Y-94290014D02*
X143014285Y-94290014D01*
X143228571Y-95075728D02*
X142514285Y-95075728D01*
X142514285Y-95075728D02*
X142514285Y-93575728D01*
X142514285Y-93575728D02*
X143228571Y-93575728D01*
X144585714Y-95075728D02*
X143871428Y-95075728D01*
X143871428Y-95075728D02*
X143871428Y-93575728D01*
X144728572Y-95218585D02*
X145871429Y-95218585D01*
X146014286Y-93575728D02*
X146871429Y-93575728D01*
X146442857Y-95075728D02*
X146442857Y-93575728D01*
X147228571Y-93575728D02*
X147585714Y-95075728D01*
X147585714Y-95075728D02*
X147871428Y-94004300D01*
X147871428Y-94004300D02*
X148157143Y-95075728D01*
X148157143Y-95075728D02*
X148514286Y-93575728D01*
X149371429Y-93575728D02*
X149657143Y-93575728D01*
X149657143Y-93575728D02*
X149800000Y-93647157D01*
X149800000Y-93647157D02*
X149942857Y-93790014D01*
X149942857Y-93790014D02*
X150014286Y-94075728D01*
X150014286Y-94075728D02*
X150014286Y-94575728D01*
X150014286Y-94575728D02*
X149942857Y-94861442D01*
X149942857Y-94861442D02*
X149800000Y-95004300D01*
X149800000Y-95004300D02*
X149657143Y-95075728D01*
X149657143Y-95075728D02*
X149371429Y-95075728D01*
X149371429Y-95075728D02*
X149228572Y-95004300D01*
X149228572Y-95004300D02*
X149085714Y-94861442D01*
X149085714Y-94861442D02*
X149014286Y-94575728D01*
X149014286Y-94575728D02*
X149014286Y-94075728D01*
X149014286Y-94075728D02*
X149085714Y-93790014D01*
X149085714Y-93790014D02*
X149228572Y-93647157D01*
X149228572Y-93647157D02*
X149371429Y-93575728D01*
X92542857Y-49190014D02*
X92757143Y-49261442D01*
X92757143Y-49261442D02*
X92828572Y-49332871D01*
X92828572Y-49332871D02*
X92900000Y-49475728D01*
X92900000Y-49475728D02*
X92900000Y-49690014D01*
X92900000Y-49690014D02*
X92828572Y-49832871D01*
X92828572Y-49832871D02*
X92757143Y-49904300D01*
X92757143Y-49904300D02*
X92614286Y-49975728D01*
X92614286Y-49975728D02*
X92042857Y-49975728D01*
X92042857Y-49975728D02*
X92042857Y-48475728D01*
X92042857Y-48475728D02*
X92542857Y-48475728D01*
X92542857Y-48475728D02*
X92685715Y-48547157D01*
X92685715Y-48547157D02*
X92757143Y-48618585D01*
X92757143Y-48618585D02*
X92828572Y-48761442D01*
X92828572Y-48761442D02*
X92828572Y-48904300D01*
X92828572Y-48904300D02*
X92757143Y-49047157D01*
X92757143Y-49047157D02*
X92685715Y-49118585D01*
X92685715Y-49118585D02*
X92542857Y-49190014D01*
X92542857Y-49190014D02*
X92042857Y-49190014D01*
X93828572Y-49261442D02*
X93828572Y-49975728D01*
X93328572Y-48475728D02*
X93828572Y-49261442D01*
X93828572Y-49261442D02*
X94328572Y-48475728D01*
X94828571Y-49975728D02*
X94828571Y-48475728D01*
X94828571Y-48475728D02*
X95400000Y-48475728D01*
X95400000Y-48475728D02*
X95542857Y-48547157D01*
X95542857Y-48547157D02*
X95614286Y-48618585D01*
X95614286Y-48618585D02*
X95685714Y-48761442D01*
X95685714Y-48761442D02*
X95685714Y-48975728D01*
X95685714Y-48975728D02*
X95614286Y-49118585D01*
X95614286Y-49118585D02*
X95542857Y-49190014D01*
X95542857Y-49190014D02*
X95400000Y-49261442D01*
X95400000Y-49261442D02*
X94828571Y-49261442D01*
X96257143Y-49547157D02*
X96971429Y-49547157D01*
X96114286Y-49975728D02*
X96614286Y-48475728D01*
X96614286Y-48475728D02*
X97114286Y-49975728D01*
X97542857Y-49904300D02*
X97757143Y-49975728D01*
X97757143Y-49975728D02*
X98114285Y-49975728D01*
X98114285Y-49975728D02*
X98257143Y-49904300D01*
X98257143Y-49904300D02*
X98328571Y-49832871D01*
X98328571Y-49832871D02*
X98400000Y-49690014D01*
X98400000Y-49690014D02*
X98400000Y-49547157D01*
X98400000Y-49547157D02*
X98328571Y-49404300D01*
X98328571Y-49404300D02*
X98257143Y-49332871D01*
X98257143Y-49332871D02*
X98114285Y-49261442D01*
X98114285Y-49261442D02*
X97828571Y-49190014D01*
X97828571Y-49190014D02*
X97685714Y-49118585D01*
X97685714Y-49118585D02*
X97614285Y-49047157D01*
X97614285Y-49047157D02*
X97542857Y-48904300D01*
X97542857Y-48904300D02*
X97542857Y-48761442D01*
X97542857Y-48761442D02*
X97614285Y-48618585D01*
X97614285Y-48618585D02*
X97685714Y-48547157D01*
X97685714Y-48547157D02*
X97828571Y-48475728D01*
X97828571Y-48475728D02*
X98185714Y-48475728D01*
X98185714Y-48475728D02*
X98400000Y-48547157D01*
X98971428Y-49904300D02*
X99185714Y-49975728D01*
X99185714Y-49975728D02*
X99542856Y-49975728D01*
X99542856Y-49975728D02*
X99685714Y-49904300D01*
X99685714Y-49904300D02*
X99757142Y-49832871D01*
X99757142Y-49832871D02*
X99828571Y-49690014D01*
X99828571Y-49690014D02*
X99828571Y-49547157D01*
X99828571Y-49547157D02*
X99757142Y-49404300D01*
X99757142Y-49404300D02*
X99685714Y-49332871D01*
X99685714Y-49332871D02*
X99542856Y-49261442D01*
X99542856Y-49261442D02*
X99257142Y-49190014D01*
X99257142Y-49190014D02*
X99114285Y-49118585D01*
X99114285Y-49118585D02*
X99042856Y-49047157D01*
X99042856Y-49047157D02*
X98971428Y-48904300D01*
X98971428Y-48904300D02*
X98971428Y-48761442D01*
X98971428Y-48761442D02*
X99042856Y-48618585D01*
X99042856Y-48618585D02*
X99114285Y-48547157D01*
X99114285Y-48547157D02*
X99257142Y-48475728D01*
X99257142Y-48475728D02*
X99614285Y-48475728D01*
X99614285Y-48475728D02*
X99828571Y-48547157D01*
D17*
X103014286Y-159578328D02*
X103014286Y-160578328D01*
X102371428Y-159578328D02*
X102371428Y-160364042D01*
X102371428Y-160364042D02*
X102442857Y-160506900D01*
X102442857Y-160506900D02*
X102585714Y-160578328D01*
X102585714Y-160578328D02*
X102800000Y-160578328D01*
X102800000Y-160578328D02*
X102942857Y-160506900D01*
X102942857Y-160506900D02*
X103014286Y-160435471D01*
X103728571Y-159578328D02*
X103728571Y-160578328D01*
X103728571Y-159721185D02*
X103800000Y-159649757D01*
X103800000Y-159649757D02*
X103942857Y-159578328D01*
X103942857Y-159578328D02*
X104157143Y-159578328D01*
X104157143Y-159578328D02*
X104300000Y-159649757D01*
X104300000Y-159649757D02*
X104371429Y-159792614D01*
X104371429Y-159792614D02*
X104371429Y-160578328D01*
X105728572Y-160578328D02*
X105728572Y-159078328D01*
X105728572Y-160506900D02*
X105585714Y-160578328D01*
X105585714Y-160578328D02*
X105300000Y-160578328D01*
X105300000Y-160578328D02*
X105157143Y-160506900D01*
X105157143Y-160506900D02*
X105085714Y-160435471D01*
X105085714Y-160435471D02*
X105014286Y-160292614D01*
X105014286Y-160292614D02*
X105014286Y-159864042D01*
X105014286Y-159864042D02*
X105085714Y-159721185D01*
X105085714Y-159721185D02*
X105157143Y-159649757D01*
X105157143Y-159649757D02*
X105300000Y-159578328D01*
X105300000Y-159578328D02*
X105585714Y-159578328D01*
X105585714Y-159578328D02*
X105728572Y-159649757D01*
X107014286Y-160506900D02*
X106871429Y-160578328D01*
X106871429Y-160578328D02*
X106585715Y-160578328D01*
X106585715Y-160578328D02*
X106442857Y-160506900D01*
X106442857Y-160506900D02*
X106371429Y-160364042D01*
X106371429Y-160364042D02*
X106371429Y-159792614D01*
X106371429Y-159792614D02*
X106442857Y-159649757D01*
X106442857Y-159649757D02*
X106585715Y-159578328D01*
X106585715Y-159578328D02*
X106871429Y-159578328D01*
X106871429Y-159578328D02*
X107014286Y-159649757D01*
X107014286Y-159649757D02*
X107085715Y-159792614D01*
X107085715Y-159792614D02*
X107085715Y-159935471D01*
X107085715Y-159935471D02*
X106371429Y-160078328D01*
X107728571Y-160578328D02*
X107728571Y-159578328D01*
X107728571Y-159864042D02*
X107800000Y-159721185D01*
X107800000Y-159721185D02*
X107871429Y-159649757D01*
X107871429Y-159649757D02*
X108014286Y-159578328D01*
X108014286Y-159578328D02*
X108157143Y-159578328D01*
X108585714Y-160506900D02*
X108728571Y-160578328D01*
X108728571Y-160578328D02*
X109014285Y-160578328D01*
X109014285Y-160578328D02*
X109157142Y-160506900D01*
X109157142Y-160506900D02*
X109228571Y-160364042D01*
X109228571Y-160364042D02*
X109228571Y-160292614D01*
X109228571Y-160292614D02*
X109157142Y-160149757D01*
X109157142Y-160149757D02*
X109014285Y-160078328D01*
X109014285Y-160078328D02*
X108800000Y-160078328D01*
X108800000Y-160078328D02*
X108657142Y-160006900D01*
X108657142Y-160006900D02*
X108585714Y-159864042D01*
X108585714Y-159864042D02*
X108585714Y-159792614D01*
X108585714Y-159792614D02*
X108657142Y-159649757D01*
X108657142Y-159649757D02*
X108800000Y-159578328D01*
X108800000Y-159578328D02*
X109014285Y-159578328D01*
X109014285Y-159578328D02*
X109157142Y-159649757D01*
X110514286Y-160506900D02*
X110371428Y-160578328D01*
X110371428Y-160578328D02*
X110085714Y-160578328D01*
X110085714Y-160578328D02*
X109942857Y-160506900D01*
X109942857Y-160506900D02*
X109871428Y-160435471D01*
X109871428Y-160435471D02*
X109800000Y-160292614D01*
X109800000Y-160292614D02*
X109800000Y-159864042D01*
X109800000Y-159864042D02*
X109871428Y-159721185D01*
X109871428Y-159721185D02*
X109942857Y-159649757D01*
X109942857Y-159649757D02*
X110085714Y-159578328D01*
X110085714Y-159578328D02*
X110371428Y-159578328D01*
X110371428Y-159578328D02*
X110514286Y-159649757D01*
X111371428Y-160578328D02*
X111228571Y-160506900D01*
X111228571Y-160506900D02*
X111157142Y-160435471D01*
X111157142Y-160435471D02*
X111085714Y-160292614D01*
X111085714Y-160292614D02*
X111085714Y-159864042D01*
X111085714Y-159864042D02*
X111157142Y-159721185D01*
X111157142Y-159721185D02*
X111228571Y-159649757D01*
X111228571Y-159649757D02*
X111371428Y-159578328D01*
X111371428Y-159578328D02*
X111585714Y-159578328D01*
X111585714Y-159578328D02*
X111728571Y-159649757D01*
X111728571Y-159649757D02*
X111800000Y-159721185D01*
X111800000Y-159721185D02*
X111871428Y-159864042D01*
X111871428Y-159864042D02*
X111871428Y-160292614D01*
X111871428Y-160292614D02*
X111800000Y-160435471D01*
X111800000Y-160435471D02*
X111728571Y-160506900D01*
X111728571Y-160506900D02*
X111585714Y-160578328D01*
X111585714Y-160578328D02*
X111371428Y-160578328D01*
X112514285Y-160578328D02*
X112514285Y-159578328D01*
X112514285Y-159864042D02*
X112585714Y-159721185D01*
X112585714Y-159721185D02*
X112657143Y-159649757D01*
X112657143Y-159649757D02*
X112800000Y-159578328D01*
X112800000Y-159578328D02*
X112942857Y-159578328D01*
X114014285Y-160506900D02*
X113871428Y-160578328D01*
X113871428Y-160578328D02*
X113585714Y-160578328D01*
X113585714Y-160578328D02*
X113442856Y-160506900D01*
X113442856Y-160506900D02*
X113371428Y-160364042D01*
X113371428Y-160364042D02*
X113371428Y-159792614D01*
X113371428Y-159792614D02*
X113442856Y-159649757D01*
X113442856Y-159649757D02*
X113585714Y-159578328D01*
X113585714Y-159578328D02*
X113871428Y-159578328D01*
X113871428Y-159578328D02*
X114014285Y-159649757D01*
X114014285Y-159649757D02*
X114085714Y-159792614D01*
X114085714Y-159792614D02*
X114085714Y-159935471D01*
X114085714Y-159935471D02*
X113371428Y-160078328D01*
X114657142Y-160506900D02*
X114799999Y-160578328D01*
X114799999Y-160578328D02*
X115085713Y-160578328D01*
X115085713Y-160578328D02*
X115228570Y-160506900D01*
X115228570Y-160506900D02*
X115299999Y-160364042D01*
X115299999Y-160364042D02*
X115299999Y-160292614D01*
X115299999Y-160292614D02*
X115228570Y-160149757D01*
X115228570Y-160149757D02*
X115085713Y-160078328D01*
X115085713Y-160078328D02*
X114871428Y-160078328D01*
X114871428Y-160078328D02*
X114728570Y-160006900D01*
X114728570Y-160006900D02*
X114657142Y-159864042D01*
X114657142Y-159864042D02*
X114657142Y-159792614D01*
X114657142Y-159792614D02*
X114728570Y-159649757D01*
X114728570Y-159649757D02*
X114871428Y-159578328D01*
X114871428Y-159578328D02*
X115085713Y-159578328D01*
X115085713Y-159578328D02*
X115228570Y-159649757D01*
X115942856Y-160435471D02*
X116014285Y-160506900D01*
X116014285Y-160506900D02*
X115942856Y-160578328D01*
X115942856Y-160578328D02*
X115871428Y-160506900D01*
X115871428Y-160506900D02*
X115942856Y-160435471D01*
X115942856Y-160435471D02*
X115942856Y-160578328D01*
X116585714Y-160506900D02*
X116728571Y-160578328D01*
X116728571Y-160578328D02*
X117014285Y-160578328D01*
X117014285Y-160578328D02*
X117157142Y-160506900D01*
X117157142Y-160506900D02*
X117228571Y-160364042D01*
X117228571Y-160364042D02*
X117228571Y-160292614D01*
X117228571Y-160292614D02*
X117157142Y-160149757D01*
X117157142Y-160149757D02*
X117014285Y-160078328D01*
X117014285Y-160078328D02*
X116800000Y-160078328D01*
X116800000Y-160078328D02*
X116657142Y-160006900D01*
X116657142Y-160006900D02*
X116585714Y-159864042D01*
X116585714Y-159864042D02*
X116585714Y-159792614D01*
X116585714Y-159792614D02*
X116657142Y-159649757D01*
X116657142Y-159649757D02*
X116800000Y-159578328D01*
X116800000Y-159578328D02*
X117014285Y-159578328D01*
X117014285Y-159578328D02*
X117157142Y-159649757D01*
X117871428Y-160578328D02*
X117871428Y-159078328D01*
X118514286Y-160578328D02*
X118514286Y-159792614D01*
X118514286Y-159792614D02*
X118442857Y-159649757D01*
X118442857Y-159649757D02*
X118300000Y-159578328D01*
X118300000Y-159578328D02*
X118085714Y-159578328D01*
X118085714Y-159578328D02*
X117942857Y-159649757D01*
X117942857Y-159649757D02*
X117871428Y-159721185D01*
X119442857Y-160578328D02*
X119300000Y-160506900D01*
X119300000Y-160506900D02*
X119228571Y-160435471D01*
X119228571Y-160435471D02*
X119157143Y-160292614D01*
X119157143Y-160292614D02*
X119157143Y-159864042D01*
X119157143Y-159864042D02*
X119228571Y-159721185D01*
X119228571Y-159721185D02*
X119300000Y-159649757D01*
X119300000Y-159649757D02*
X119442857Y-159578328D01*
X119442857Y-159578328D02*
X119657143Y-159578328D01*
X119657143Y-159578328D02*
X119800000Y-159649757D01*
X119800000Y-159649757D02*
X119871429Y-159721185D01*
X119871429Y-159721185D02*
X119942857Y-159864042D01*
X119942857Y-159864042D02*
X119942857Y-160292614D01*
X119942857Y-160292614D02*
X119871429Y-160435471D01*
X119871429Y-160435471D02*
X119800000Y-160506900D01*
X119800000Y-160506900D02*
X119657143Y-160578328D01*
X119657143Y-160578328D02*
X119442857Y-160578328D01*
X120585714Y-159578328D02*
X120585714Y-161078328D01*
X120585714Y-159649757D02*
X120728572Y-159578328D01*
X120728572Y-159578328D02*
X121014286Y-159578328D01*
X121014286Y-159578328D02*
X121157143Y-159649757D01*
X121157143Y-159649757D02*
X121228572Y-159721185D01*
X121228572Y-159721185D02*
X121300000Y-159864042D01*
X121300000Y-159864042D02*
X121300000Y-160292614D01*
X121300000Y-160292614D02*
X121228572Y-160435471D01*
X121228572Y-160435471D02*
X121157143Y-160506900D01*
X121157143Y-160506900D02*
X121014286Y-160578328D01*
X121014286Y-160578328D02*
X120728572Y-160578328D01*
X120728572Y-160578328D02*
X120585714Y-160506900D01*
D12*
X76342857Y-62886885D02*
X77142857Y-65286885D01*
X77142857Y-65286885D02*
X77942857Y-62886885D01*
X78742857Y-65286885D02*
X78742857Y-62886885D01*
X79885714Y-65286885D02*
X79885714Y-62886885D01*
X79885714Y-62886885D02*
X80457143Y-62886885D01*
X80457143Y-62886885D02*
X80800000Y-63001171D01*
X80800000Y-63001171D02*
X81028571Y-63229742D01*
X81028571Y-63229742D02*
X81142857Y-63458314D01*
X81142857Y-63458314D02*
X81257143Y-63915457D01*
X81257143Y-63915457D02*
X81257143Y-64258314D01*
X81257143Y-64258314D02*
X81142857Y-64715457D01*
X81142857Y-64715457D02*
X81028571Y-64944028D01*
X81028571Y-64944028D02*
X80800000Y-65172600D01*
X80800000Y-65172600D02*
X80457143Y-65286885D01*
X80457143Y-65286885D02*
X79885714Y-65286885D01*
X82285714Y-64029742D02*
X83085714Y-64029742D01*
X83428571Y-65286885D02*
X82285714Y-65286885D01*
X82285714Y-65286885D02*
X82285714Y-62886885D01*
X82285714Y-62886885D02*
X83428571Y-62886885D01*
X84914286Y-62886885D02*
X85371429Y-62886885D01*
X85371429Y-62886885D02*
X85600000Y-63001171D01*
X85600000Y-63001171D02*
X85828572Y-63229742D01*
X85828572Y-63229742D02*
X85942857Y-63686885D01*
X85942857Y-63686885D02*
X85942857Y-64486885D01*
X85942857Y-64486885D02*
X85828572Y-64944028D01*
X85828572Y-64944028D02*
X85600000Y-65172600D01*
X85600000Y-65172600D02*
X85371429Y-65286885D01*
X85371429Y-65286885D02*
X84914286Y-65286885D01*
X84914286Y-65286885D02*
X84685715Y-65172600D01*
X84685715Y-65172600D02*
X84457143Y-64944028D01*
X84457143Y-64944028D02*
X84342857Y-64486885D01*
X84342857Y-64486885D02*
X84342857Y-63686885D01*
X84342857Y-63686885D02*
X84457143Y-63229742D01*
X84457143Y-63229742D02*
X84685715Y-63001171D01*
X84685715Y-63001171D02*
X84914286Y-62886885D01*
X86400001Y-65515457D02*
X88228572Y-65515457D01*
X88800000Y-65286885D02*
X88800000Y-62886885D01*
X89942857Y-65286885D02*
X89942857Y-62886885D01*
X89942857Y-62886885D02*
X91314286Y-65286885D01*
X91314286Y-65286885D02*
X91314286Y-62886885D01*
D13*
X70678409Y-114411904D02*
X70678409Y-114745237D01*
X71202219Y-114745237D02*
X70202219Y-114745237D01*
X70202219Y-114745237D02*
X70202219Y-114269047D01*
X70202219Y-113697618D02*
X70202219Y-113507142D01*
X70202219Y-113507142D02*
X70249838Y-113411904D01*
X70249838Y-113411904D02*
X70345076Y-113316666D01*
X70345076Y-113316666D02*
X70535552Y-113269047D01*
X70535552Y-113269047D02*
X70868885Y-113269047D01*
X70868885Y-113269047D02*
X71059361Y-113316666D01*
X71059361Y-113316666D02*
X71154600Y-113411904D01*
X71154600Y-113411904D02*
X71202219Y-113507142D01*
X71202219Y-113507142D02*
X71202219Y-113697618D01*
X71202219Y-113697618D02*
X71154600Y-113792856D01*
X71154600Y-113792856D02*
X71059361Y-113888094D01*
X71059361Y-113888094D02*
X70868885Y-113935713D01*
X70868885Y-113935713D02*
X70535552Y-113935713D01*
X70535552Y-113935713D02*
X70345076Y-113888094D01*
X70345076Y-113888094D02*
X70249838Y-113792856D01*
X70249838Y-113792856D02*
X70202219Y-113697618D01*
X71202219Y-112269047D02*
X70726028Y-112602380D01*
X71202219Y-112840475D02*
X70202219Y-112840475D01*
X70202219Y-112840475D02*
X70202219Y-112459523D01*
X70202219Y-112459523D02*
X70249838Y-112364285D01*
X70249838Y-112364285D02*
X70297457Y-112316666D01*
X70297457Y-112316666D02*
X70392695Y-112269047D01*
X70392695Y-112269047D02*
X70535552Y-112269047D01*
X70535552Y-112269047D02*
X70630790Y-112316666D01*
X70630790Y-112316666D02*
X70678409Y-112364285D01*
X70678409Y-112364285D02*
X70726028Y-112459523D01*
X70726028Y-112459523D02*
X70726028Y-112840475D01*
X71202219Y-111840475D02*
X70202219Y-111840475D01*
X70202219Y-111840475D02*
X70916504Y-111507142D01*
X70916504Y-111507142D02*
X70202219Y-111173809D01*
X70202219Y-111173809D02*
X71202219Y-111173809D01*
X70916504Y-110745237D02*
X70916504Y-110269047D01*
X71202219Y-110840475D02*
X70202219Y-110507142D01*
X70202219Y-110507142D02*
X71202219Y-110173809D01*
X70202219Y-109983332D02*
X70202219Y-109411904D01*
X71202219Y-109697618D02*
X70202219Y-109697618D01*
D10*
X107371427Y-133132871D02*
X107299999Y-133204300D01*
X107299999Y-133204300D02*
X107085713Y-133275728D01*
X107085713Y-133275728D02*
X106942856Y-133275728D01*
X106942856Y-133275728D02*
X106728570Y-133204300D01*
X106728570Y-133204300D02*
X106585713Y-133061442D01*
X106585713Y-133061442D02*
X106514284Y-132918585D01*
X106514284Y-132918585D02*
X106442856Y-132632871D01*
X106442856Y-132632871D02*
X106442856Y-132418585D01*
X106442856Y-132418585D02*
X106514284Y-132132871D01*
X106514284Y-132132871D02*
X106585713Y-131990014D01*
X106585713Y-131990014D02*
X106728570Y-131847157D01*
X106728570Y-131847157D02*
X106942856Y-131775728D01*
X106942856Y-131775728D02*
X107085713Y-131775728D01*
X107085713Y-131775728D02*
X107299999Y-131847157D01*
X107299999Y-131847157D02*
X107371427Y-131918585D01*
X108299999Y-131775728D02*
X108585713Y-131775728D01*
X108585713Y-131775728D02*
X108728570Y-131847157D01*
X108728570Y-131847157D02*
X108871427Y-131990014D01*
X108871427Y-131990014D02*
X108942856Y-132275728D01*
X108942856Y-132275728D02*
X108942856Y-132775728D01*
X108942856Y-132775728D02*
X108871427Y-133061442D01*
X108871427Y-133061442D02*
X108728570Y-133204300D01*
X108728570Y-133204300D02*
X108585713Y-133275728D01*
X108585713Y-133275728D02*
X108299999Y-133275728D01*
X108299999Y-133275728D02*
X108157142Y-133204300D01*
X108157142Y-133204300D02*
X108014284Y-133061442D01*
X108014284Y-133061442D02*
X107942856Y-132775728D01*
X107942856Y-132775728D02*
X107942856Y-132275728D01*
X107942856Y-132275728D02*
X108014284Y-131990014D01*
X108014284Y-131990014D02*
X108157142Y-131847157D01*
X108157142Y-131847157D02*
X108299999Y-131775728D01*
X110299999Y-133275728D02*
X109585713Y-133275728D01*
X109585713Y-133275728D02*
X109585713Y-131775728D01*
X111085714Y-131775728D02*
X111371428Y-131775728D01*
X111371428Y-131775728D02*
X111514285Y-131847157D01*
X111514285Y-131847157D02*
X111657142Y-131990014D01*
X111657142Y-131990014D02*
X111728571Y-132275728D01*
X111728571Y-132275728D02*
X111728571Y-132775728D01*
X111728571Y-132775728D02*
X111657142Y-133061442D01*
X111657142Y-133061442D02*
X111514285Y-133204300D01*
X111514285Y-133204300D02*
X111371428Y-133275728D01*
X111371428Y-133275728D02*
X111085714Y-133275728D01*
X111085714Y-133275728D02*
X110942857Y-133204300D01*
X110942857Y-133204300D02*
X110799999Y-133061442D01*
X110799999Y-133061442D02*
X110728571Y-132775728D01*
X110728571Y-132775728D02*
X110728571Y-132275728D01*
X110728571Y-132275728D02*
X110799999Y-131990014D01*
X110799999Y-131990014D02*
X110942857Y-131847157D01*
X110942857Y-131847157D02*
X111085714Y-131775728D01*
X113228571Y-133275728D02*
X112728571Y-132561442D01*
X112371428Y-133275728D02*
X112371428Y-131775728D01*
X112371428Y-131775728D02*
X112942857Y-131775728D01*
X112942857Y-131775728D02*
X113085714Y-131847157D01*
X113085714Y-131847157D02*
X113157143Y-131918585D01*
X113157143Y-131918585D02*
X113228571Y-132061442D01*
X113228571Y-132061442D02*
X113228571Y-132275728D01*
X113228571Y-132275728D02*
X113157143Y-132418585D01*
X113157143Y-132418585D02*
X113085714Y-132490014D01*
X113085714Y-132490014D02*
X112942857Y-132561442D01*
X112942857Y-132561442D02*
X112371428Y-132561442D01*
X113514286Y-133418585D02*
X114657143Y-133418585D01*
X115514285Y-132490014D02*
X115728571Y-132561442D01*
X115728571Y-132561442D02*
X115800000Y-132632871D01*
X115800000Y-132632871D02*
X115871428Y-132775728D01*
X115871428Y-132775728D02*
X115871428Y-132990014D01*
X115871428Y-132990014D02*
X115800000Y-133132871D01*
X115800000Y-133132871D02*
X115728571Y-133204300D01*
X115728571Y-133204300D02*
X115585714Y-133275728D01*
X115585714Y-133275728D02*
X115014285Y-133275728D01*
X115014285Y-133275728D02*
X115014285Y-131775728D01*
X115014285Y-131775728D02*
X115514285Y-131775728D01*
X115514285Y-131775728D02*
X115657143Y-131847157D01*
X115657143Y-131847157D02*
X115728571Y-131918585D01*
X115728571Y-131918585D02*
X115800000Y-132061442D01*
X115800000Y-132061442D02*
X115800000Y-132204300D01*
X115800000Y-132204300D02*
X115728571Y-132347157D01*
X115728571Y-132347157D02*
X115657143Y-132418585D01*
X115657143Y-132418585D02*
X115514285Y-132490014D01*
X115514285Y-132490014D02*
X115014285Y-132490014D01*
X116800000Y-131775728D02*
X117085714Y-131775728D01*
X117085714Y-131775728D02*
X117228571Y-131847157D01*
X117228571Y-131847157D02*
X117371428Y-131990014D01*
X117371428Y-131990014D02*
X117442857Y-132275728D01*
X117442857Y-132275728D02*
X117442857Y-132775728D01*
X117442857Y-132775728D02*
X117371428Y-133061442D01*
X117371428Y-133061442D02*
X117228571Y-133204300D01*
X117228571Y-133204300D02*
X117085714Y-133275728D01*
X117085714Y-133275728D02*
X116800000Y-133275728D01*
X116800000Y-133275728D02*
X116657143Y-133204300D01*
X116657143Y-133204300D02*
X116514285Y-133061442D01*
X116514285Y-133061442D02*
X116442857Y-132775728D01*
X116442857Y-132775728D02*
X116442857Y-132275728D01*
X116442857Y-132275728D02*
X116514285Y-131990014D01*
X116514285Y-131990014D02*
X116657143Y-131847157D01*
X116657143Y-131847157D02*
X116800000Y-131775728D01*
X117871429Y-131775728D02*
X118728572Y-131775728D01*
X118300000Y-133275728D02*
X118300000Y-131775728D01*
X119228571Y-133275728D02*
X119228571Y-131775728D01*
X119228571Y-132490014D02*
X120085714Y-132490014D01*
X120085714Y-133275728D02*
X120085714Y-131775728D01*
D12*
X130642857Y-62886885D02*
X131442857Y-65286885D01*
X131442857Y-65286885D02*
X132242857Y-62886885D01*
X133042857Y-65286885D02*
X133042857Y-62886885D01*
X134185714Y-65286885D02*
X134185714Y-62886885D01*
X134185714Y-62886885D02*
X134757143Y-62886885D01*
X134757143Y-62886885D02*
X135100000Y-63001171D01*
X135100000Y-63001171D02*
X135328571Y-63229742D01*
X135328571Y-63229742D02*
X135442857Y-63458314D01*
X135442857Y-63458314D02*
X135557143Y-63915457D01*
X135557143Y-63915457D02*
X135557143Y-64258314D01*
X135557143Y-64258314D02*
X135442857Y-64715457D01*
X135442857Y-64715457D02*
X135328571Y-64944028D01*
X135328571Y-64944028D02*
X135100000Y-65172600D01*
X135100000Y-65172600D02*
X134757143Y-65286885D01*
X134757143Y-65286885D02*
X134185714Y-65286885D01*
X136585714Y-64029742D02*
X137385714Y-64029742D01*
X137728571Y-65286885D02*
X136585714Y-65286885D01*
X136585714Y-65286885D02*
X136585714Y-62886885D01*
X136585714Y-62886885D02*
X137728571Y-62886885D01*
X139214286Y-62886885D02*
X139671429Y-62886885D01*
X139671429Y-62886885D02*
X139900000Y-63001171D01*
X139900000Y-63001171D02*
X140128572Y-63229742D01*
X140128572Y-63229742D02*
X140242857Y-63686885D01*
X140242857Y-63686885D02*
X140242857Y-64486885D01*
X140242857Y-64486885D02*
X140128572Y-64944028D01*
X140128572Y-64944028D02*
X139900000Y-65172600D01*
X139900000Y-65172600D02*
X139671429Y-65286885D01*
X139671429Y-65286885D02*
X139214286Y-65286885D01*
X139214286Y-65286885D02*
X138985715Y-65172600D01*
X138985715Y-65172600D02*
X138757143Y-64944028D01*
X138757143Y-64944028D02*
X138642857Y-64486885D01*
X138642857Y-64486885D02*
X138642857Y-63686885D01*
X138642857Y-63686885D02*
X138757143Y-63229742D01*
X138757143Y-63229742D02*
X138985715Y-63001171D01*
X138985715Y-63001171D02*
X139214286Y-62886885D01*
X140700001Y-65515457D02*
X142528572Y-65515457D01*
X143557143Y-62886885D02*
X144014286Y-62886885D01*
X144014286Y-62886885D02*
X144242857Y-63001171D01*
X144242857Y-63001171D02*
X144471429Y-63229742D01*
X144471429Y-63229742D02*
X144585714Y-63686885D01*
X144585714Y-63686885D02*
X144585714Y-64486885D01*
X144585714Y-64486885D02*
X144471429Y-64944028D01*
X144471429Y-64944028D02*
X144242857Y-65172600D01*
X144242857Y-65172600D02*
X144014286Y-65286885D01*
X144014286Y-65286885D02*
X143557143Y-65286885D01*
X143557143Y-65286885D02*
X143328572Y-65172600D01*
X143328572Y-65172600D02*
X143100000Y-64944028D01*
X143100000Y-64944028D02*
X142985714Y-64486885D01*
X142985714Y-64486885D02*
X142985714Y-63686885D01*
X142985714Y-63686885D02*
X143100000Y-63229742D01*
X143100000Y-63229742D02*
X143328572Y-63001171D01*
X143328572Y-63001171D02*
X143557143Y-62886885D01*
X145614286Y-62886885D02*
X145614286Y-64829742D01*
X145614286Y-64829742D02*
X145728572Y-65058314D01*
X145728572Y-65058314D02*
X145842858Y-65172600D01*
X145842858Y-65172600D02*
X146071429Y-65286885D01*
X146071429Y-65286885D02*
X146528572Y-65286885D01*
X146528572Y-65286885D02*
X146757143Y-65172600D01*
X146757143Y-65172600D02*
X146871429Y-65058314D01*
X146871429Y-65058314D02*
X146985715Y-64829742D01*
X146985715Y-64829742D02*
X146985715Y-62886885D01*
X147785715Y-62886885D02*
X149157144Y-62886885D01*
X148471429Y-65286885D02*
X148471429Y-62886885D01*
D13*
X155566504Y-118038095D02*
X155566504Y-117561905D01*
X155852219Y-118133333D02*
X154852219Y-117800000D01*
X154852219Y-117800000D02*
X155852219Y-117466667D01*
X155852219Y-116657143D02*
X155852219Y-117133333D01*
X155852219Y-117133333D02*
X154852219Y-117133333D01*
X154852219Y-116466666D02*
X154852219Y-115895238D01*
X155852219Y-116180952D02*
X154852219Y-116180952D01*
X155328409Y-115561904D02*
X155328409Y-115228571D01*
X155852219Y-115085714D02*
X155852219Y-115561904D01*
X155852219Y-115561904D02*
X154852219Y-115561904D01*
X154852219Y-115561904D02*
X154852219Y-115085714D01*
X155852219Y-114085714D02*
X155376028Y-114419047D01*
X155852219Y-114657142D02*
X154852219Y-114657142D01*
X154852219Y-114657142D02*
X154852219Y-114276190D01*
X154852219Y-114276190D02*
X154899838Y-114180952D01*
X154899838Y-114180952D02*
X154947457Y-114133333D01*
X154947457Y-114133333D02*
X155042695Y-114085714D01*
X155042695Y-114085714D02*
X155185552Y-114085714D01*
X155185552Y-114085714D02*
X155280790Y-114133333D01*
X155280790Y-114133333D02*
X155328409Y-114180952D01*
X155328409Y-114180952D02*
X155376028Y-114276190D01*
X155376028Y-114276190D02*
X155376028Y-114657142D01*
X155852219Y-113657142D02*
X154852219Y-113657142D01*
X154852219Y-113657142D02*
X155852219Y-113085714D01*
X155852219Y-113085714D02*
X154852219Y-113085714D01*
X155566504Y-112657142D02*
X155566504Y-112180952D01*
X155852219Y-112752380D02*
X154852219Y-112419047D01*
X154852219Y-112419047D02*
X155852219Y-112085714D01*
X154852219Y-111895237D02*
X154852219Y-111323809D01*
X155852219Y-111609523D02*
X154852219Y-111609523D01*
X155328409Y-110990475D02*
X155328409Y-110657142D01*
X155852219Y-110514285D02*
X155852219Y-110990475D01*
X155852219Y-110990475D02*
X154852219Y-110990475D01*
X154852219Y-110990475D02*
X154852219Y-110514285D01*
X155852219Y-108847618D02*
X155852219Y-109323808D01*
X155852219Y-109323808D02*
X154852219Y-109323808D01*
X155852219Y-108514284D02*
X154852219Y-108514284D01*
X155852219Y-108038094D02*
X154852219Y-108038094D01*
X154852219Y-108038094D02*
X155852219Y-107466666D01*
X155852219Y-107466666D02*
X154852219Y-107466666D01*
X155328409Y-106990475D02*
X155328409Y-106657142D01*
X155852219Y-106514285D02*
X155852219Y-106990475D01*
X155852219Y-106990475D02*
X154852219Y-106990475D01*
X154852219Y-106990475D02*
X154852219Y-106514285D01*
X155804600Y-106133332D02*
X155852219Y-105990475D01*
X155852219Y-105990475D02*
X155852219Y-105752380D01*
X155852219Y-105752380D02*
X155804600Y-105657142D01*
X155804600Y-105657142D02*
X155756980Y-105609523D01*
X155756980Y-105609523D02*
X155661742Y-105561904D01*
X155661742Y-105561904D02*
X155566504Y-105561904D01*
X155566504Y-105561904D02*
X155471266Y-105609523D01*
X155471266Y-105609523D02*
X155423647Y-105657142D01*
X155423647Y-105657142D02*
X155376028Y-105752380D01*
X155376028Y-105752380D02*
X155328409Y-105942856D01*
X155328409Y-105942856D02*
X155280790Y-106038094D01*
X155280790Y-106038094D02*
X155233171Y-106085713D01*
X155233171Y-106085713D02*
X155137933Y-106133332D01*
X155137933Y-106133332D02*
X155042695Y-106133332D01*
X155042695Y-106133332D02*
X154947457Y-106085713D01*
X154947457Y-106085713D02*
X154899838Y-106038094D01*
X154899838Y-106038094D02*
X154852219Y-105942856D01*
X154852219Y-105942856D02*
X154852219Y-105704761D01*
X154852219Y-105704761D02*
X154899838Y-105561904D01*
X158647619Y-103452219D02*
X158838095Y-103452219D01*
X158838095Y-103452219D02*
X158933333Y-103499838D01*
X158933333Y-103499838D02*
X159028571Y-103595076D01*
X159028571Y-103595076D02*
X159076190Y-103785552D01*
X159076190Y-103785552D02*
X159076190Y-104118885D01*
X159076190Y-104118885D02*
X159028571Y-104309361D01*
X159028571Y-104309361D02*
X158933333Y-104404600D01*
X158933333Y-104404600D02*
X158838095Y-104452219D01*
X158838095Y-104452219D02*
X158647619Y-104452219D01*
X158647619Y-104452219D02*
X158552381Y-104404600D01*
X158552381Y-104404600D02*
X158457143Y-104309361D01*
X158457143Y-104309361D02*
X158409524Y-104118885D01*
X158409524Y-104118885D02*
X158409524Y-103785552D01*
X158409524Y-103785552D02*
X158457143Y-103595076D01*
X158457143Y-103595076D02*
X158552381Y-103499838D01*
X158552381Y-103499838D02*
X158647619Y-103452219D01*
X159838095Y-103928409D02*
X159504762Y-103928409D01*
X159504762Y-104452219D02*
X159504762Y-103452219D01*
X159504762Y-103452219D02*
X159980952Y-103452219D01*
X160695238Y-103928409D02*
X160361905Y-103928409D01*
X160361905Y-104452219D02*
X160361905Y-103452219D01*
X160361905Y-103452219D02*
X160838095Y-103452219D01*
M02*
