%TF.GenerationSoftware,KiCad,Pcbnew,7.0.9*%
%TF.CreationDate,2024-04-27T17:18:48+10:00*%
%TF.ProjectId,eurorack_panel,6575726f-7261-4636-9b5f-70616e656c2e,rev?*%
%TF.SameCoordinates,Original*%
%TF.FileFunction,Legend,Bot*%
%TF.FilePolarity,Positive*%
%FSLAX46Y46*%
G04 Gerber Fmt 4.6, Leading zero omitted, Abs format (unit mm)*
G04 Created by KiCad (PCBNEW 7.0.9) date 2024-04-27 17:18:48*
%MOMM*%
%LPD*%
G01*
G04 APERTURE LIST*
%ADD10C,0.037750*%
%ADD11C,0.200000*%
G04 APERTURE END LIST*
D10*
X162841428Y-161012758D02*
X162841428Y-161591329D01*
X162841428Y-161591329D02*
X162879999Y-161707044D01*
X162879999Y-161707044D02*
X162957142Y-161784187D01*
X162957142Y-161784187D02*
X163072856Y-161822758D01*
X163072856Y-161822758D02*
X163149999Y-161822758D01*
X162069999Y-161822758D02*
X162455713Y-161822758D01*
X162455713Y-161822758D02*
X162455713Y-161012758D01*
X161337142Y-161745615D02*
X161375714Y-161784187D01*
X161375714Y-161784187D02*
X161491428Y-161822758D01*
X161491428Y-161822758D02*
X161568571Y-161822758D01*
X161568571Y-161822758D02*
X161684285Y-161784187D01*
X161684285Y-161784187D02*
X161761428Y-161707044D01*
X161761428Y-161707044D02*
X161799999Y-161629901D01*
X161799999Y-161629901D02*
X161838571Y-161475615D01*
X161838571Y-161475615D02*
X161838571Y-161359901D01*
X161838571Y-161359901D02*
X161799999Y-161205615D01*
X161799999Y-161205615D02*
X161761428Y-161128472D01*
X161761428Y-161128472D02*
X161684285Y-161051329D01*
X161684285Y-161051329D02*
X161568571Y-161012758D01*
X161568571Y-161012758D02*
X161491428Y-161012758D01*
X161491428Y-161012758D02*
X161375714Y-161051329D01*
X161375714Y-161051329D02*
X161337142Y-161089901D01*
X160758571Y-161012758D02*
X160758571Y-161591329D01*
X160758571Y-161591329D02*
X160797142Y-161707044D01*
X160797142Y-161707044D02*
X160874285Y-161784187D01*
X160874285Y-161784187D02*
X160989999Y-161822758D01*
X160989999Y-161822758D02*
X161067142Y-161822758D01*
X159987142Y-161822758D02*
X160372856Y-161822758D01*
X160372856Y-161822758D02*
X160372856Y-161012758D01*
X159254285Y-161745615D02*
X159292857Y-161784187D01*
X159292857Y-161784187D02*
X159408571Y-161822758D01*
X159408571Y-161822758D02*
X159485714Y-161822758D01*
X159485714Y-161822758D02*
X159601428Y-161784187D01*
X159601428Y-161784187D02*
X159678571Y-161707044D01*
X159678571Y-161707044D02*
X159717142Y-161629901D01*
X159717142Y-161629901D02*
X159755714Y-161475615D01*
X159755714Y-161475615D02*
X159755714Y-161359901D01*
X159755714Y-161359901D02*
X159717142Y-161205615D01*
X159717142Y-161205615D02*
X159678571Y-161128472D01*
X159678571Y-161128472D02*
X159601428Y-161051329D01*
X159601428Y-161051329D02*
X159485714Y-161012758D01*
X159485714Y-161012758D02*
X159408571Y-161012758D01*
X159408571Y-161012758D02*
X159292857Y-161051329D01*
X159292857Y-161051329D02*
X159254285Y-161089901D01*
X158675714Y-161012758D02*
X158675714Y-161591329D01*
X158675714Y-161591329D02*
X158714285Y-161707044D01*
X158714285Y-161707044D02*
X158791428Y-161784187D01*
X158791428Y-161784187D02*
X158907142Y-161822758D01*
X158907142Y-161822758D02*
X158984285Y-161822758D01*
X157904285Y-161822758D02*
X158289999Y-161822758D01*
X158289999Y-161822758D02*
X158289999Y-161012758D01*
X157171428Y-161745615D02*
X157210000Y-161784187D01*
X157210000Y-161784187D02*
X157325714Y-161822758D01*
X157325714Y-161822758D02*
X157402857Y-161822758D01*
X157402857Y-161822758D02*
X157518571Y-161784187D01*
X157518571Y-161784187D02*
X157595714Y-161707044D01*
X157595714Y-161707044D02*
X157634285Y-161629901D01*
X157634285Y-161629901D02*
X157672857Y-161475615D01*
X157672857Y-161475615D02*
X157672857Y-161359901D01*
X157672857Y-161359901D02*
X157634285Y-161205615D01*
X157634285Y-161205615D02*
X157595714Y-161128472D01*
X157595714Y-161128472D02*
X157518571Y-161051329D01*
X157518571Y-161051329D02*
X157402857Y-161012758D01*
X157402857Y-161012758D02*
X157325714Y-161012758D01*
X157325714Y-161012758D02*
X157210000Y-161051329D01*
X157210000Y-161051329D02*
X157171428Y-161089901D01*
X156592857Y-161012758D02*
X156592857Y-161591329D01*
X156592857Y-161591329D02*
X156631428Y-161707044D01*
X156631428Y-161707044D02*
X156708571Y-161784187D01*
X156708571Y-161784187D02*
X156824285Y-161822758D01*
X156824285Y-161822758D02*
X156901428Y-161822758D01*
X155821428Y-161822758D02*
X156207142Y-161822758D01*
X156207142Y-161822758D02*
X156207142Y-161012758D01*
X155088571Y-161745615D02*
X155127143Y-161784187D01*
X155127143Y-161784187D02*
X155242857Y-161822758D01*
X155242857Y-161822758D02*
X155320000Y-161822758D01*
X155320000Y-161822758D02*
X155435714Y-161784187D01*
X155435714Y-161784187D02*
X155512857Y-161707044D01*
X155512857Y-161707044D02*
X155551428Y-161629901D01*
X155551428Y-161629901D02*
X155590000Y-161475615D01*
X155590000Y-161475615D02*
X155590000Y-161359901D01*
X155590000Y-161359901D02*
X155551428Y-161205615D01*
X155551428Y-161205615D02*
X155512857Y-161128472D01*
X155512857Y-161128472D02*
X155435714Y-161051329D01*
X155435714Y-161051329D02*
X155320000Y-161012758D01*
X155320000Y-161012758D02*
X155242857Y-161012758D01*
X155242857Y-161012758D02*
X155127143Y-161051329D01*
X155127143Y-161051329D02*
X155088571Y-161089901D01*
D11*
X155589600Y-71374435D02*
X155646742Y-71260149D01*
X155646742Y-71260149D02*
X155646742Y-71031578D01*
X155646742Y-71031578D02*
X155589600Y-70917292D01*
X155589600Y-70917292D02*
X155475314Y-70860149D01*
X155475314Y-70860149D02*
X155018171Y-70860149D01*
X155018171Y-70860149D02*
X154903885Y-70917292D01*
X154903885Y-70917292D02*
X154846742Y-71031578D01*
X154846742Y-71031578D02*
X154846742Y-71260149D01*
X154846742Y-71260149D02*
X154903885Y-71374435D01*
X154903885Y-71374435D02*
X155018171Y-71431578D01*
X155018171Y-71431578D02*
X155132457Y-71431578D01*
X155132457Y-71431578D02*
X155246742Y-70860149D01*
X154846742Y-72460149D02*
X155646742Y-72460149D01*
X154846742Y-71945863D02*
X155475314Y-71945863D01*
X155475314Y-71945863D02*
X155589600Y-72003006D01*
X155589600Y-72003006D02*
X155646742Y-72117291D01*
X155646742Y-72117291D02*
X155646742Y-72288720D01*
X155646742Y-72288720D02*
X155589600Y-72403006D01*
X155589600Y-72403006D02*
X155532457Y-72460149D01*
X155646742Y-73031577D02*
X154846742Y-73031577D01*
X155075314Y-73031577D02*
X154961028Y-73088720D01*
X154961028Y-73088720D02*
X154903885Y-73145863D01*
X154903885Y-73145863D02*
X154846742Y-73260148D01*
X154846742Y-73260148D02*
X154846742Y-73374434D01*
X155646742Y-73945862D02*
X155589600Y-73831577D01*
X155589600Y-73831577D02*
X155532457Y-73774434D01*
X155532457Y-73774434D02*
X155418171Y-73717291D01*
X155418171Y-73717291D02*
X155075314Y-73717291D01*
X155075314Y-73717291D02*
X154961028Y-73774434D01*
X154961028Y-73774434D02*
X154903885Y-73831577D01*
X154903885Y-73831577D02*
X154846742Y-73945862D01*
X154846742Y-73945862D02*
X154846742Y-74117291D01*
X154846742Y-74117291D02*
X154903885Y-74231577D01*
X154903885Y-74231577D02*
X154961028Y-74288720D01*
X154961028Y-74288720D02*
X155075314Y-74345862D01*
X155075314Y-74345862D02*
X155418171Y-74345862D01*
X155418171Y-74345862D02*
X155532457Y-74288720D01*
X155532457Y-74288720D02*
X155589600Y-74231577D01*
X155589600Y-74231577D02*
X155646742Y-74117291D01*
X155646742Y-74117291D02*
X155646742Y-73945862D01*
X155646742Y-74860148D02*
X154846742Y-74860148D01*
X155075314Y-74860148D02*
X154961028Y-74917291D01*
X154961028Y-74917291D02*
X154903885Y-74974434D01*
X154903885Y-74974434D02*
X154846742Y-75088719D01*
X154846742Y-75088719D02*
X154846742Y-75203005D01*
X155646742Y-76117291D02*
X155018171Y-76117291D01*
X155018171Y-76117291D02*
X154903885Y-76060148D01*
X154903885Y-76060148D02*
X154846742Y-75945862D01*
X154846742Y-75945862D02*
X154846742Y-75717291D01*
X154846742Y-75717291D02*
X154903885Y-75603005D01*
X155589600Y-76117291D02*
X155646742Y-76003005D01*
X155646742Y-76003005D02*
X155646742Y-75717291D01*
X155646742Y-75717291D02*
X155589600Y-75603005D01*
X155589600Y-75603005D02*
X155475314Y-75545862D01*
X155475314Y-75545862D02*
X155361028Y-75545862D01*
X155361028Y-75545862D02*
X155246742Y-75603005D01*
X155246742Y-75603005D02*
X155189600Y-75717291D01*
X155189600Y-75717291D02*
X155189600Y-76003005D01*
X155189600Y-76003005D02*
X155132457Y-76117291D01*
X155589600Y-77203005D02*
X155646742Y-77088719D01*
X155646742Y-77088719D02*
X155646742Y-76860147D01*
X155646742Y-76860147D02*
X155589600Y-76745862D01*
X155589600Y-76745862D02*
X155532457Y-76688719D01*
X155532457Y-76688719D02*
X155418171Y-76631576D01*
X155418171Y-76631576D02*
X155075314Y-76631576D01*
X155075314Y-76631576D02*
X154961028Y-76688719D01*
X154961028Y-76688719D02*
X154903885Y-76745862D01*
X154903885Y-76745862D02*
X154846742Y-76860147D01*
X154846742Y-76860147D02*
X154846742Y-77088719D01*
X154846742Y-77088719D02*
X154903885Y-77203005D01*
X155646742Y-77717290D02*
X154446742Y-77717290D01*
X155189600Y-77831576D02*
X155646742Y-78174433D01*
X154846742Y-78174433D02*
X155303885Y-77717290D01*
X155761028Y-78403005D02*
X155761028Y-79317290D01*
X154846742Y-79603005D02*
X156046742Y-79603005D01*
X154903885Y-79603005D02*
X154846742Y-79717291D01*
X154846742Y-79717291D02*
X154846742Y-79945862D01*
X154846742Y-79945862D02*
X154903885Y-80060148D01*
X154903885Y-80060148D02*
X154961028Y-80117291D01*
X154961028Y-80117291D02*
X155075314Y-80174433D01*
X155075314Y-80174433D02*
X155418171Y-80174433D01*
X155418171Y-80174433D02*
X155532457Y-80117291D01*
X155532457Y-80117291D02*
X155589600Y-80060148D01*
X155589600Y-80060148D02*
X155646742Y-79945862D01*
X155646742Y-79945862D02*
X155646742Y-79717291D01*
X155646742Y-79717291D02*
X155589600Y-79603005D01*
X155646742Y-81203005D02*
X155018171Y-81203005D01*
X155018171Y-81203005D02*
X154903885Y-81145862D01*
X154903885Y-81145862D02*
X154846742Y-81031576D01*
X154846742Y-81031576D02*
X154846742Y-80803005D01*
X154846742Y-80803005D02*
X154903885Y-80688719D01*
X155589600Y-81203005D02*
X155646742Y-81088719D01*
X155646742Y-81088719D02*
X155646742Y-80803005D01*
X155646742Y-80803005D02*
X155589600Y-80688719D01*
X155589600Y-80688719D02*
X155475314Y-80631576D01*
X155475314Y-80631576D02*
X155361028Y-80631576D01*
X155361028Y-80631576D02*
X155246742Y-80688719D01*
X155246742Y-80688719D02*
X155189600Y-80803005D01*
X155189600Y-80803005D02*
X155189600Y-81088719D01*
X155189600Y-81088719D02*
X155132457Y-81203005D01*
X154846742Y-81774433D02*
X155646742Y-81774433D01*
X154961028Y-81774433D02*
X154903885Y-81831576D01*
X154903885Y-81831576D02*
X154846742Y-81945861D01*
X154846742Y-81945861D02*
X154846742Y-82117290D01*
X154846742Y-82117290D02*
X154903885Y-82231576D01*
X154903885Y-82231576D02*
X155018171Y-82288719D01*
X155018171Y-82288719D02*
X155646742Y-82288719D01*
X155589600Y-83317290D02*
X155646742Y-83203004D01*
X155646742Y-83203004D02*
X155646742Y-82974433D01*
X155646742Y-82974433D02*
X155589600Y-82860147D01*
X155589600Y-82860147D02*
X155475314Y-82803004D01*
X155475314Y-82803004D02*
X155018171Y-82803004D01*
X155018171Y-82803004D02*
X154903885Y-82860147D01*
X154903885Y-82860147D02*
X154846742Y-82974433D01*
X154846742Y-82974433D02*
X154846742Y-83203004D01*
X154846742Y-83203004D02*
X154903885Y-83317290D01*
X154903885Y-83317290D02*
X155018171Y-83374433D01*
X155018171Y-83374433D02*
X155132457Y-83374433D01*
X155132457Y-83374433D02*
X155246742Y-82803004D01*
X155646742Y-84060146D02*
X155589600Y-83945861D01*
X155589600Y-83945861D02*
X155475314Y-83888718D01*
X155475314Y-83888718D02*
X154446742Y-83888718D01*
X156778742Y-70745863D02*
X156778742Y-71203006D01*
X156378742Y-70917292D02*
X157407314Y-70917292D01*
X157407314Y-70917292D02*
X157521600Y-70974435D01*
X157521600Y-70974435D02*
X157578742Y-71088720D01*
X157578742Y-71088720D02*
X157578742Y-71203006D01*
X156778742Y-71488720D02*
X157578742Y-71717292D01*
X157578742Y-71717292D02*
X157007314Y-71945863D01*
X157007314Y-71945863D02*
X157578742Y-72174434D01*
X157578742Y-72174434D02*
X156778742Y-72403006D01*
X157578742Y-73031577D02*
X157521600Y-72917292D01*
X157521600Y-72917292D02*
X157464457Y-72860149D01*
X157464457Y-72860149D02*
X157350171Y-72803006D01*
X157350171Y-72803006D02*
X157007314Y-72803006D01*
X157007314Y-72803006D02*
X156893028Y-72860149D01*
X156893028Y-72860149D02*
X156835885Y-72917292D01*
X156835885Y-72917292D02*
X156778742Y-73031577D01*
X156778742Y-73031577D02*
X156778742Y-73203006D01*
X156778742Y-73203006D02*
X156835885Y-73317292D01*
X156835885Y-73317292D02*
X156893028Y-73374435D01*
X156893028Y-73374435D02*
X157007314Y-73431577D01*
X157007314Y-73431577D02*
X157350171Y-73431577D01*
X157350171Y-73431577D02*
X157464457Y-73374435D01*
X157464457Y-73374435D02*
X157521600Y-73317292D01*
X157521600Y-73317292D02*
X157578742Y-73203006D01*
X157578742Y-73203006D02*
X157578742Y-73031577D01*
X157693028Y-73660149D02*
X157693028Y-74574434D01*
X156778742Y-74860149D02*
X157978742Y-74860149D01*
X156835885Y-74860149D02*
X156778742Y-74974435D01*
X156778742Y-74974435D02*
X156778742Y-75203006D01*
X156778742Y-75203006D02*
X156835885Y-75317292D01*
X156835885Y-75317292D02*
X156893028Y-75374435D01*
X156893028Y-75374435D02*
X157007314Y-75431577D01*
X157007314Y-75431577D02*
X157350171Y-75431577D01*
X157350171Y-75431577D02*
X157464457Y-75374435D01*
X157464457Y-75374435D02*
X157521600Y-75317292D01*
X157521600Y-75317292D02*
X157578742Y-75203006D01*
X157578742Y-75203006D02*
X157578742Y-74974435D01*
X157578742Y-74974435D02*
X157521600Y-74860149D01*
X157578742Y-76117291D02*
X157521600Y-76003006D01*
X157521600Y-76003006D02*
X157464457Y-75945863D01*
X157464457Y-75945863D02*
X157350171Y-75888720D01*
X157350171Y-75888720D02*
X157007314Y-75888720D01*
X157007314Y-75888720D02*
X156893028Y-75945863D01*
X156893028Y-75945863D02*
X156835885Y-76003006D01*
X156835885Y-76003006D02*
X156778742Y-76117291D01*
X156778742Y-76117291D02*
X156778742Y-76288720D01*
X156778742Y-76288720D02*
X156835885Y-76403006D01*
X156835885Y-76403006D02*
X156893028Y-76460149D01*
X156893028Y-76460149D02*
X157007314Y-76517291D01*
X157007314Y-76517291D02*
X157350171Y-76517291D01*
X157350171Y-76517291D02*
X157464457Y-76460149D01*
X157464457Y-76460149D02*
X157521600Y-76403006D01*
X157521600Y-76403006D02*
X157578742Y-76288720D01*
X157578742Y-76288720D02*
X157578742Y-76117291D01*
X157578742Y-77031577D02*
X156778742Y-77031577D01*
X156378742Y-77031577D02*
X156435885Y-76974434D01*
X156435885Y-76974434D02*
X156493028Y-77031577D01*
X156493028Y-77031577D02*
X156435885Y-77088720D01*
X156435885Y-77088720D02*
X156378742Y-77031577D01*
X156378742Y-77031577D02*
X156493028Y-77031577D01*
X156778742Y-77603006D02*
X157578742Y-77603006D01*
X156893028Y-77603006D02*
X156835885Y-77660149D01*
X156835885Y-77660149D02*
X156778742Y-77774434D01*
X156778742Y-77774434D02*
X156778742Y-77945863D01*
X156778742Y-77945863D02*
X156835885Y-78060149D01*
X156835885Y-78060149D02*
X156950171Y-78117292D01*
X156950171Y-78117292D02*
X157578742Y-78117292D01*
X156778742Y-78517291D02*
X156778742Y-78974434D01*
X156378742Y-78688720D02*
X157407314Y-78688720D01*
X157407314Y-78688720D02*
X157521600Y-78745863D01*
X157521600Y-78745863D02*
X157578742Y-78860148D01*
X157578742Y-78860148D02*
X157578742Y-78974434D01*
X157693028Y-79088720D02*
X157693028Y-80003005D01*
X157578742Y-80460148D02*
X157521600Y-80345863D01*
X157521600Y-80345863D02*
X157464457Y-80288720D01*
X157464457Y-80288720D02*
X157350171Y-80231577D01*
X157350171Y-80231577D02*
X157007314Y-80231577D01*
X157007314Y-80231577D02*
X156893028Y-80288720D01*
X156893028Y-80288720D02*
X156835885Y-80345863D01*
X156835885Y-80345863D02*
X156778742Y-80460148D01*
X156778742Y-80460148D02*
X156778742Y-80631577D01*
X156778742Y-80631577D02*
X156835885Y-80745863D01*
X156835885Y-80745863D02*
X156893028Y-80803006D01*
X156893028Y-80803006D02*
X157007314Y-80860148D01*
X157007314Y-80860148D02*
X157350171Y-80860148D01*
X157350171Y-80860148D02*
X157464457Y-80803006D01*
X157464457Y-80803006D02*
X157521600Y-80745863D01*
X157521600Y-80745863D02*
X157578742Y-80631577D01*
X157578742Y-80631577D02*
X157578742Y-80460148D01*
X156778742Y-81374434D02*
X157578742Y-81374434D01*
X156893028Y-81374434D02*
X156835885Y-81431577D01*
X156835885Y-81431577D02*
X156778742Y-81545862D01*
X156778742Y-81545862D02*
X156778742Y-81717291D01*
X156778742Y-81717291D02*
X156835885Y-81831577D01*
X156835885Y-81831577D02*
X156950171Y-81888720D01*
X156950171Y-81888720D02*
X157578742Y-81888720D01*
X157521600Y-82917291D02*
X157578742Y-82803005D01*
X157578742Y-82803005D02*
X157578742Y-82574434D01*
X157578742Y-82574434D02*
X157521600Y-82460148D01*
X157521600Y-82460148D02*
X157407314Y-82403005D01*
X157407314Y-82403005D02*
X156950171Y-82403005D01*
X156950171Y-82403005D02*
X156835885Y-82460148D01*
X156835885Y-82460148D02*
X156778742Y-82574434D01*
X156778742Y-82574434D02*
X156778742Y-82803005D01*
X156778742Y-82803005D02*
X156835885Y-82917291D01*
X156835885Y-82917291D02*
X156950171Y-82974434D01*
X156950171Y-82974434D02*
X157064457Y-82974434D01*
X157064457Y-82974434D02*
X157178742Y-82403005D01*
X157693028Y-83203005D02*
X157693028Y-84117290D01*
X157521600Y-84917291D02*
X157578742Y-84803005D01*
X157578742Y-84803005D02*
X157578742Y-84574433D01*
X157578742Y-84574433D02*
X157521600Y-84460148D01*
X157521600Y-84460148D02*
X157464457Y-84403005D01*
X157464457Y-84403005D02*
X157350171Y-84345862D01*
X157350171Y-84345862D02*
X157007314Y-84345862D01*
X157007314Y-84345862D02*
X156893028Y-84403005D01*
X156893028Y-84403005D02*
X156835885Y-84460148D01*
X156835885Y-84460148D02*
X156778742Y-84574433D01*
X156778742Y-84574433D02*
X156778742Y-84803005D01*
X156778742Y-84803005D02*
X156835885Y-84917291D01*
X157578742Y-85603004D02*
X157521600Y-85488719D01*
X157521600Y-85488719D02*
X157464457Y-85431576D01*
X157464457Y-85431576D02*
X157350171Y-85374433D01*
X157350171Y-85374433D02*
X157007314Y-85374433D01*
X157007314Y-85374433D02*
X156893028Y-85431576D01*
X156893028Y-85431576D02*
X156835885Y-85488719D01*
X156835885Y-85488719D02*
X156778742Y-85603004D01*
X156778742Y-85603004D02*
X156778742Y-85774433D01*
X156778742Y-85774433D02*
X156835885Y-85888719D01*
X156835885Y-85888719D02*
X156893028Y-85945862D01*
X156893028Y-85945862D02*
X157007314Y-86003004D01*
X157007314Y-86003004D02*
X157350171Y-86003004D01*
X157350171Y-86003004D02*
X157464457Y-85945862D01*
X157464457Y-85945862D02*
X157521600Y-85888719D01*
X157521600Y-85888719D02*
X157578742Y-85774433D01*
X157578742Y-85774433D02*
X157578742Y-85603004D01*
X157578742Y-86688718D02*
X157521600Y-86574433D01*
X157521600Y-86574433D02*
X157407314Y-86517290D01*
X157407314Y-86517290D02*
X156378742Y-86517290D01*
X157578742Y-87317289D02*
X157521600Y-87203004D01*
X157521600Y-87203004D02*
X157464457Y-87145861D01*
X157464457Y-87145861D02*
X157350171Y-87088718D01*
X157350171Y-87088718D02*
X157007314Y-87088718D01*
X157007314Y-87088718D02*
X156893028Y-87145861D01*
X156893028Y-87145861D02*
X156835885Y-87203004D01*
X156835885Y-87203004D02*
X156778742Y-87317289D01*
X156778742Y-87317289D02*
X156778742Y-87488718D01*
X156778742Y-87488718D02*
X156835885Y-87603004D01*
X156835885Y-87603004D02*
X156893028Y-87660147D01*
X156893028Y-87660147D02*
X157007314Y-87717289D01*
X157007314Y-87717289D02*
X157350171Y-87717289D01*
X157350171Y-87717289D02*
X157464457Y-87660147D01*
X157464457Y-87660147D02*
X157521600Y-87603004D01*
X157521600Y-87603004D02*
X157578742Y-87488718D01*
X157578742Y-87488718D02*
X157578742Y-87317289D01*
X157578742Y-88231575D02*
X156778742Y-88231575D01*
X157007314Y-88231575D02*
X156893028Y-88288718D01*
X156893028Y-88288718D02*
X156835885Y-88345861D01*
X156835885Y-88345861D02*
X156778742Y-88460146D01*
X156778742Y-88460146D02*
X156778742Y-88574432D01*
X157578742Y-88974432D02*
X156778742Y-88974432D01*
X156378742Y-88974432D02*
X156435885Y-88917289D01*
X156435885Y-88917289D02*
X156493028Y-88974432D01*
X156493028Y-88974432D02*
X156435885Y-89031575D01*
X156435885Y-89031575D02*
X156378742Y-88974432D01*
X156378742Y-88974432D02*
X156493028Y-88974432D01*
X156778742Y-89431575D02*
X156778742Y-90060147D01*
X156778742Y-90060147D02*
X157578742Y-89431575D01*
X157578742Y-89431575D02*
X157578742Y-90060147D01*
X157521600Y-90974433D02*
X157578742Y-90860147D01*
X157578742Y-90860147D02*
X157578742Y-90631576D01*
X157578742Y-90631576D02*
X157521600Y-90517290D01*
X157521600Y-90517290D02*
X157407314Y-90460147D01*
X157407314Y-90460147D02*
X156950171Y-90460147D01*
X156950171Y-90460147D02*
X156835885Y-90517290D01*
X156835885Y-90517290D02*
X156778742Y-90631576D01*
X156778742Y-90631576D02*
X156778742Y-90860147D01*
X156778742Y-90860147D02*
X156835885Y-90974433D01*
X156835885Y-90974433D02*
X156950171Y-91031576D01*
X156950171Y-91031576D02*
X157064457Y-91031576D01*
X157064457Y-91031576D02*
X157178742Y-90460147D01*
X157578742Y-91545861D02*
X156778742Y-91545861D01*
X157007314Y-91545861D02*
X156893028Y-91603004D01*
X156893028Y-91603004D02*
X156835885Y-91660147D01*
X156835885Y-91660147D02*
X156778742Y-91774432D01*
X156778742Y-91774432D02*
X156778742Y-91888718D01*
X156778742Y-94003004D02*
X157578742Y-94288718D01*
X157578742Y-94288718D02*
X156778742Y-94574433D01*
X157578742Y-95660147D02*
X157578742Y-94974433D01*
X157578742Y-95317290D02*
X156378742Y-95317290D01*
X156378742Y-95317290D02*
X156550171Y-95203004D01*
X156550171Y-95203004D02*
X156664457Y-95088719D01*
X156664457Y-95088719D02*
X156721600Y-94974433D01*
X157693028Y-95888719D02*
X157693028Y-96803004D01*
X156378742Y-97317290D02*
X156378742Y-97431576D01*
X156378742Y-97431576D02*
X156435885Y-97545862D01*
X156435885Y-97545862D02*
X156493028Y-97603005D01*
X156493028Y-97603005D02*
X156607314Y-97660147D01*
X156607314Y-97660147D02*
X156835885Y-97717290D01*
X156835885Y-97717290D02*
X157121600Y-97717290D01*
X157121600Y-97717290D02*
X157350171Y-97660147D01*
X157350171Y-97660147D02*
X157464457Y-97603005D01*
X157464457Y-97603005D02*
X157521600Y-97545862D01*
X157521600Y-97545862D02*
X157578742Y-97431576D01*
X157578742Y-97431576D02*
X157578742Y-97317290D01*
X157578742Y-97317290D02*
X157521600Y-97203005D01*
X157521600Y-97203005D02*
X157464457Y-97145862D01*
X157464457Y-97145862D02*
X157350171Y-97088719D01*
X157350171Y-97088719D02*
X157121600Y-97031576D01*
X157121600Y-97031576D02*
X156835885Y-97031576D01*
X156835885Y-97031576D02*
X156607314Y-97088719D01*
X156607314Y-97088719D02*
X156493028Y-97145862D01*
X156493028Y-97145862D02*
X156435885Y-97203005D01*
X156435885Y-97203005D02*
X156378742Y-97317290D01*
X157693028Y-97945862D02*
X157693028Y-98860147D01*
X156378742Y-99374433D02*
X156378742Y-99488719D01*
X156378742Y-99488719D02*
X156435885Y-99603005D01*
X156435885Y-99603005D02*
X156493028Y-99660148D01*
X156493028Y-99660148D02*
X156607314Y-99717290D01*
X156607314Y-99717290D02*
X156835885Y-99774433D01*
X156835885Y-99774433D02*
X157121600Y-99774433D01*
X157121600Y-99774433D02*
X157350171Y-99717290D01*
X157350171Y-99717290D02*
X157464457Y-99660148D01*
X157464457Y-99660148D02*
X157521600Y-99603005D01*
X157521600Y-99603005D02*
X157578742Y-99488719D01*
X157578742Y-99488719D02*
X157578742Y-99374433D01*
X157578742Y-99374433D02*
X157521600Y-99260148D01*
X157521600Y-99260148D02*
X157464457Y-99203005D01*
X157464457Y-99203005D02*
X157350171Y-99145862D01*
X157350171Y-99145862D02*
X157121600Y-99088719D01*
X157121600Y-99088719D02*
X156835885Y-99088719D01*
X156835885Y-99088719D02*
X156607314Y-99145862D01*
X156607314Y-99145862D02*
X156493028Y-99203005D01*
X156493028Y-99203005D02*
X156435885Y-99260148D01*
X156435885Y-99260148D02*
X156378742Y-99374433D01*
X159510742Y-70917292D02*
X158310742Y-70917292D01*
X158767885Y-70917292D02*
X158710742Y-71031578D01*
X158710742Y-71031578D02*
X158710742Y-71260149D01*
X158710742Y-71260149D02*
X158767885Y-71374435D01*
X158767885Y-71374435D02*
X158825028Y-71431578D01*
X158825028Y-71431578D02*
X158939314Y-71488720D01*
X158939314Y-71488720D02*
X159282171Y-71488720D01*
X159282171Y-71488720D02*
X159396457Y-71431578D01*
X159396457Y-71431578D02*
X159453600Y-71374435D01*
X159453600Y-71374435D02*
X159510742Y-71260149D01*
X159510742Y-71260149D02*
X159510742Y-71031578D01*
X159510742Y-71031578D02*
X159453600Y-70917292D01*
X159510742Y-72517292D02*
X158882171Y-72517292D01*
X158882171Y-72517292D02*
X158767885Y-72460149D01*
X158767885Y-72460149D02*
X158710742Y-72345863D01*
X158710742Y-72345863D02*
X158710742Y-72117292D01*
X158710742Y-72117292D02*
X158767885Y-72003006D01*
X159453600Y-72517292D02*
X159510742Y-72403006D01*
X159510742Y-72403006D02*
X159510742Y-72117292D01*
X159510742Y-72117292D02*
X159453600Y-72003006D01*
X159453600Y-72003006D02*
X159339314Y-71945863D01*
X159339314Y-71945863D02*
X159225028Y-71945863D01*
X159225028Y-71945863D02*
X159110742Y-72003006D01*
X159110742Y-72003006D02*
X159053600Y-72117292D01*
X159053600Y-72117292D02*
X159053600Y-72403006D01*
X159053600Y-72403006D02*
X158996457Y-72517292D01*
X159453600Y-73031577D02*
X159510742Y-73145863D01*
X159510742Y-73145863D02*
X159510742Y-73374434D01*
X159510742Y-73374434D02*
X159453600Y-73488720D01*
X159453600Y-73488720D02*
X159339314Y-73545863D01*
X159339314Y-73545863D02*
X159282171Y-73545863D01*
X159282171Y-73545863D02*
X159167885Y-73488720D01*
X159167885Y-73488720D02*
X159110742Y-73374434D01*
X159110742Y-73374434D02*
X159110742Y-73203006D01*
X159110742Y-73203006D02*
X159053600Y-73088720D01*
X159053600Y-73088720D02*
X158939314Y-73031577D01*
X158939314Y-73031577D02*
X158882171Y-73031577D01*
X158882171Y-73031577D02*
X158767885Y-73088720D01*
X158767885Y-73088720D02*
X158710742Y-73203006D01*
X158710742Y-73203006D02*
X158710742Y-73374434D01*
X158710742Y-73374434D02*
X158767885Y-73488720D01*
X159453600Y-74517292D02*
X159510742Y-74403006D01*
X159510742Y-74403006D02*
X159510742Y-74174435D01*
X159510742Y-74174435D02*
X159453600Y-74060149D01*
X159453600Y-74060149D02*
X159339314Y-74003006D01*
X159339314Y-74003006D02*
X158882171Y-74003006D01*
X158882171Y-74003006D02*
X158767885Y-74060149D01*
X158767885Y-74060149D02*
X158710742Y-74174435D01*
X158710742Y-74174435D02*
X158710742Y-74403006D01*
X158710742Y-74403006D02*
X158767885Y-74517292D01*
X158767885Y-74517292D02*
X158882171Y-74574435D01*
X158882171Y-74574435D02*
X158996457Y-74574435D01*
X158996457Y-74574435D02*
X159110742Y-74003006D01*
X159510742Y-75603006D02*
X158310742Y-75603006D01*
X159453600Y-75603006D02*
X159510742Y-75488720D01*
X159510742Y-75488720D02*
X159510742Y-75260148D01*
X159510742Y-75260148D02*
X159453600Y-75145863D01*
X159453600Y-75145863D02*
X159396457Y-75088720D01*
X159396457Y-75088720D02*
X159282171Y-75031577D01*
X159282171Y-75031577D02*
X158939314Y-75031577D01*
X158939314Y-75031577D02*
X158825028Y-75088720D01*
X158825028Y-75088720D02*
X158767885Y-75145863D01*
X158767885Y-75145863D02*
X158710742Y-75260148D01*
X158710742Y-75260148D02*
X158710742Y-75488720D01*
X158710742Y-75488720D02*
X158767885Y-75603006D01*
X159510742Y-77260148D02*
X159453600Y-77145863D01*
X159453600Y-77145863D02*
X159396457Y-77088720D01*
X159396457Y-77088720D02*
X159282171Y-77031577D01*
X159282171Y-77031577D02*
X158939314Y-77031577D01*
X158939314Y-77031577D02*
X158825028Y-77088720D01*
X158825028Y-77088720D02*
X158767885Y-77145863D01*
X158767885Y-77145863D02*
X158710742Y-77260148D01*
X158710742Y-77260148D02*
X158710742Y-77431577D01*
X158710742Y-77431577D02*
X158767885Y-77545863D01*
X158767885Y-77545863D02*
X158825028Y-77603006D01*
X158825028Y-77603006D02*
X158939314Y-77660148D01*
X158939314Y-77660148D02*
X159282171Y-77660148D01*
X159282171Y-77660148D02*
X159396457Y-77603006D01*
X159396457Y-77603006D02*
X159453600Y-77545863D01*
X159453600Y-77545863D02*
X159510742Y-77431577D01*
X159510742Y-77431577D02*
X159510742Y-77260148D01*
X158710742Y-78174434D02*
X159510742Y-78174434D01*
X158825028Y-78174434D02*
X158767885Y-78231577D01*
X158767885Y-78231577D02*
X158710742Y-78345862D01*
X158710742Y-78345862D02*
X158710742Y-78517291D01*
X158710742Y-78517291D02*
X158767885Y-78631577D01*
X158767885Y-78631577D02*
X158882171Y-78688720D01*
X158882171Y-78688720D02*
X159510742Y-78688720D01*
X159510742Y-80174434D02*
X158710742Y-80174434D01*
X158939314Y-80174434D02*
X158825028Y-80231577D01*
X158825028Y-80231577D02*
X158767885Y-80288720D01*
X158767885Y-80288720D02*
X158710742Y-80403005D01*
X158710742Y-80403005D02*
X158710742Y-80517291D01*
X159510742Y-81088719D02*
X159453600Y-80974434D01*
X159453600Y-80974434D02*
X159396457Y-80917291D01*
X159396457Y-80917291D02*
X159282171Y-80860148D01*
X159282171Y-80860148D02*
X158939314Y-80860148D01*
X158939314Y-80860148D02*
X158825028Y-80917291D01*
X158825028Y-80917291D02*
X158767885Y-80974434D01*
X158767885Y-80974434D02*
X158710742Y-81088719D01*
X158710742Y-81088719D02*
X158710742Y-81260148D01*
X158710742Y-81260148D02*
X158767885Y-81374434D01*
X158767885Y-81374434D02*
X158825028Y-81431577D01*
X158825028Y-81431577D02*
X158939314Y-81488719D01*
X158939314Y-81488719D02*
X159282171Y-81488719D01*
X159282171Y-81488719D02*
X159396457Y-81431577D01*
X159396457Y-81431577D02*
X159453600Y-81374434D01*
X159453600Y-81374434D02*
X159510742Y-81260148D01*
X159510742Y-81260148D02*
X159510742Y-81088719D01*
X159510742Y-82003005D02*
X158310742Y-82003005D01*
X158767885Y-82003005D02*
X158710742Y-82117291D01*
X158710742Y-82117291D02*
X158710742Y-82345862D01*
X158710742Y-82345862D02*
X158767885Y-82460148D01*
X158767885Y-82460148D02*
X158825028Y-82517291D01*
X158825028Y-82517291D02*
X158939314Y-82574433D01*
X158939314Y-82574433D02*
X159282171Y-82574433D01*
X159282171Y-82574433D02*
X159396457Y-82517291D01*
X159396457Y-82517291D02*
X159453600Y-82460148D01*
X159453600Y-82460148D02*
X159510742Y-82345862D01*
X159510742Y-82345862D02*
X159510742Y-82117291D01*
X159510742Y-82117291D02*
X159453600Y-82003005D01*
X159453600Y-83945862D02*
X159510742Y-84060148D01*
X159510742Y-84060148D02*
X159510742Y-84288719D01*
X159510742Y-84288719D02*
X159453600Y-84403005D01*
X159453600Y-84403005D02*
X159339314Y-84460148D01*
X159339314Y-84460148D02*
X159282171Y-84460148D01*
X159282171Y-84460148D02*
X159167885Y-84403005D01*
X159167885Y-84403005D02*
X159110742Y-84288719D01*
X159110742Y-84288719D02*
X159110742Y-84117291D01*
X159110742Y-84117291D02*
X159053600Y-84003005D01*
X159053600Y-84003005D02*
X158939314Y-83945862D01*
X158939314Y-83945862D02*
X158882171Y-83945862D01*
X158882171Y-83945862D02*
X158767885Y-84003005D01*
X158767885Y-84003005D02*
X158710742Y-84117291D01*
X158710742Y-84117291D02*
X158710742Y-84288719D01*
X158710742Y-84288719D02*
X158767885Y-84403005D01*
X159453600Y-85488720D02*
X159510742Y-85374434D01*
X159510742Y-85374434D02*
X159510742Y-85145862D01*
X159510742Y-85145862D02*
X159453600Y-85031577D01*
X159453600Y-85031577D02*
X159396457Y-84974434D01*
X159396457Y-84974434D02*
X159282171Y-84917291D01*
X159282171Y-84917291D02*
X158939314Y-84917291D01*
X158939314Y-84917291D02*
X158825028Y-84974434D01*
X158825028Y-84974434D02*
X158767885Y-85031577D01*
X158767885Y-85031577D02*
X158710742Y-85145862D01*
X158710742Y-85145862D02*
X158710742Y-85374434D01*
X158710742Y-85374434D02*
X158767885Y-85488720D01*
X159510742Y-86003005D02*
X158310742Y-86003005D01*
X159510742Y-86517291D02*
X158882171Y-86517291D01*
X158882171Y-86517291D02*
X158767885Y-86460148D01*
X158767885Y-86460148D02*
X158710742Y-86345862D01*
X158710742Y-86345862D02*
X158710742Y-86174433D01*
X158710742Y-86174433D02*
X158767885Y-86060148D01*
X158767885Y-86060148D02*
X158825028Y-86003005D01*
X159510742Y-87603005D02*
X158882171Y-87603005D01*
X158882171Y-87603005D02*
X158767885Y-87545862D01*
X158767885Y-87545862D02*
X158710742Y-87431576D01*
X158710742Y-87431576D02*
X158710742Y-87203005D01*
X158710742Y-87203005D02*
X158767885Y-87088719D01*
X159453600Y-87603005D02*
X159510742Y-87488719D01*
X159510742Y-87488719D02*
X159510742Y-87203005D01*
X159510742Y-87203005D02*
X159453600Y-87088719D01*
X159453600Y-87088719D02*
X159339314Y-87031576D01*
X159339314Y-87031576D02*
X159225028Y-87031576D01*
X159225028Y-87031576D02*
X159110742Y-87088719D01*
X159110742Y-87088719D02*
X159053600Y-87203005D01*
X159053600Y-87203005D02*
X159053600Y-87488719D01*
X159053600Y-87488719D02*
X158996457Y-87603005D01*
X158710742Y-88003004D02*
X158710742Y-88460147D01*
X159510742Y-88174433D02*
X158482171Y-88174433D01*
X158482171Y-88174433D02*
X158367885Y-88231576D01*
X158367885Y-88231576D02*
X158310742Y-88345861D01*
X158310742Y-88345861D02*
X158310742Y-88460147D01*
X159453600Y-89317290D02*
X159510742Y-89203004D01*
X159510742Y-89203004D02*
X159510742Y-88974433D01*
X159510742Y-88974433D02*
X159453600Y-88860147D01*
X159453600Y-88860147D02*
X159339314Y-88803004D01*
X159339314Y-88803004D02*
X158882171Y-88803004D01*
X158882171Y-88803004D02*
X158767885Y-88860147D01*
X158767885Y-88860147D02*
X158710742Y-88974433D01*
X158710742Y-88974433D02*
X158710742Y-89203004D01*
X158710742Y-89203004D02*
X158767885Y-89317290D01*
X158767885Y-89317290D02*
X158882171Y-89374433D01*
X158882171Y-89374433D02*
X158996457Y-89374433D01*
X158996457Y-89374433D02*
X159110742Y-88803004D01*
X159510742Y-89888718D02*
X158710742Y-89888718D01*
X158939314Y-89888718D02*
X158825028Y-89945861D01*
X158825028Y-89945861D02*
X158767885Y-90003004D01*
X158767885Y-90003004D02*
X158710742Y-90117289D01*
X158710742Y-90117289D02*
X158710742Y-90231575D01*
X159510742Y-92060147D02*
X158310742Y-92060147D01*
X159453600Y-92060147D02*
X159510742Y-91945861D01*
X159510742Y-91945861D02*
X159510742Y-91717289D01*
X159510742Y-91717289D02*
X159453600Y-91603004D01*
X159453600Y-91603004D02*
X159396457Y-91545861D01*
X159396457Y-91545861D02*
X159282171Y-91488718D01*
X159282171Y-91488718D02*
X158939314Y-91488718D01*
X158939314Y-91488718D02*
X158825028Y-91545861D01*
X158825028Y-91545861D02*
X158767885Y-91603004D01*
X158767885Y-91603004D02*
X158710742Y-91717289D01*
X158710742Y-91717289D02*
X158710742Y-91945861D01*
X158710742Y-91945861D02*
X158767885Y-92060147D01*
X159453600Y-93088718D02*
X159510742Y-92974432D01*
X159510742Y-92974432D02*
X159510742Y-92745861D01*
X159510742Y-92745861D02*
X159453600Y-92631575D01*
X159453600Y-92631575D02*
X159339314Y-92574432D01*
X159339314Y-92574432D02*
X158882171Y-92574432D01*
X158882171Y-92574432D02*
X158767885Y-92631575D01*
X158767885Y-92631575D02*
X158710742Y-92745861D01*
X158710742Y-92745861D02*
X158710742Y-92974432D01*
X158710742Y-92974432D02*
X158767885Y-93088718D01*
X158767885Y-93088718D02*
X158882171Y-93145861D01*
X158882171Y-93145861D02*
X158996457Y-93145861D01*
X158996457Y-93145861D02*
X159110742Y-92574432D01*
X159453600Y-93603003D02*
X159510742Y-93717289D01*
X159510742Y-93717289D02*
X159510742Y-93945860D01*
X159510742Y-93945860D02*
X159453600Y-94060146D01*
X159453600Y-94060146D02*
X159339314Y-94117289D01*
X159339314Y-94117289D02*
X159282171Y-94117289D01*
X159282171Y-94117289D02*
X159167885Y-94060146D01*
X159167885Y-94060146D02*
X159110742Y-93945860D01*
X159110742Y-93945860D02*
X159110742Y-93774432D01*
X159110742Y-93774432D02*
X159053600Y-93660146D01*
X159053600Y-93660146D02*
X158939314Y-93603003D01*
X158939314Y-93603003D02*
X158882171Y-93603003D01*
X158882171Y-93603003D02*
X158767885Y-93660146D01*
X158767885Y-93660146D02*
X158710742Y-93774432D01*
X158710742Y-93774432D02*
X158710742Y-93945860D01*
X158710742Y-93945860D02*
X158767885Y-94060146D01*
X159510742Y-94631575D02*
X158710742Y-94631575D01*
X158310742Y-94631575D02*
X158367885Y-94574432D01*
X158367885Y-94574432D02*
X158425028Y-94631575D01*
X158425028Y-94631575D02*
X158367885Y-94688718D01*
X158367885Y-94688718D02*
X158310742Y-94631575D01*
X158310742Y-94631575D02*
X158425028Y-94631575D01*
X158710742Y-95717290D02*
X159682171Y-95717290D01*
X159682171Y-95717290D02*
X159796457Y-95660147D01*
X159796457Y-95660147D02*
X159853600Y-95603004D01*
X159853600Y-95603004D02*
X159910742Y-95488718D01*
X159910742Y-95488718D02*
X159910742Y-95317290D01*
X159910742Y-95317290D02*
X159853600Y-95203004D01*
X159453600Y-95717290D02*
X159510742Y-95603004D01*
X159510742Y-95603004D02*
X159510742Y-95374432D01*
X159510742Y-95374432D02*
X159453600Y-95260147D01*
X159453600Y-95260147D02*
X159396457Y-95203004D01*
X159396457Y-95203004D02*
X159282171Y-95145861D01*
X159282171Y-95145861D02*
X158939314Y-95145861D01*
X158939314Y-95145861D02*
X158825028Y-95203004D01*
X158825028Y-95203004D02*
X158767885Y-95260147D01*
X158767885Y-95260147D02*
X158710742Y-95374432D01*
X158710742Y-95374432D02*
X158710742Y-95603004D01*
X158710742Y-95603004D02*
X158767885Y-95717290D01*
X158710742Y-96288718D02*
X159510742Y-96288718D01*
X158825028Y-96288718D02*
X158767885Y-96345861D01*
X158767885Y-96345861D02*
X158710742Y-96460146D01*
X158710742Y-96460146D02*
X158710742Y-96631575D01*
X158710742Y-96631575D02*
X158767885Y-96745861D01*
X158767885Y-96745861D02*
X158882171Y-96803004D01*
X158882171Y-96803004D02*
X159510742Y-96803004D01*
X160642742Y-71431578D02*
X161442742Y-71431578D01*
X160642742Y-70917292D02*
X161271314Y-70917292D01*
X161271314Y-70917292D02*
X161385600Y-70974435D01*
X161385600Y-70974435D02*
X161442742Y-71088720D01*
X161442742Y-71088720D02*
X161442742Y-71260149D01*
X161442742Y-71260149D02*
X161385600Y-71374435D01*
X161385600Y-71374435D02*
X161328457Y-71431578D01*
X160642742Y-72003006D02*
X161842742Y-72003006D01*
X160699885Y-72003006D02*
X160642742Y-72117292D01*
X160642742Y-72117292D02*
X160642742Y-72345863D01*
X160642742Y-72345863D02*
X160699885Y-72460149D01*
X160699885Y-72460149D02*
X160757028Y-72517292D01*
X160757028Y-72517292D02*
X160871314Y-72574434D01*
X160871314Y-72574434D02*
X161214171Y-72574434D01*
X161214171Y-72574434D02*
X161328457Y-72517292D01*
X161328457Y-72517292D02*
X161385600Y-72460149D01*
X161385600Y-72460149D02*
X161442742Y-72345863D01*
X161442742Y-72345863D02*
X161442742Y-72117292D01*
X161442742Y-72117292D02*
X161385600Y-72003006D01*
X161442742Y-73603006D02*
X160242742Y-73603006D01*
X161385600Y-73603006D02*
X161442742Y-73488720D01*
X161442742Y-73488720D02*
X161442742Y-73260148D01*
X161442742Y-73260148D02*
X161385600Y-73145863D01*
X161385600Y-73145863D02*
X161328457Y-73088720D01*
X161328457Y-73088720D02*
X161214171Y-73031577D01*
X161214171Y-73031577D02*
X160871314Y-73031577D01*
X160871314Y-73031577D02*
X160757028Y-73088720D01*
X160757028Y-73088720D02*
X160699885Y-73145863D01*
X160699885Y-73145863D02*
X160642742Y-73260148D01*
X160642742Y-73260148D02*
X160642742Y-73488720D01*
X160642742Y-73488720D02*
X160699885Y-73603006D01*
X161442742Y-74688720D02*
X160814171Y-74688720D01*
X160814171Y-74688720D02*
X160699885Y-74631577D01*
X160699885Y-74631577D02*
X160642742Y-74517291D01*
X160642742Y-74517291D02*
X160642742Y-74288720D01*
X160642742Y-74288720D02*
X160699885Y-74174434D01*
X161385600Y-74688720D02*
X161442742Y-74574434D01*
X161442742Y-74574434D02*
X161442742Y-74288720D01*
X161442742Y-74288720D02*
X161385600Y-74174434D01*
X161385600Y-74174434D02*
X161271314Y-74117291D01*
X161271314Y-74117291D02*
X161157028Y-74117291D01*
X161157028Y-74117291D02*
X161042742Y-74174434D01*
X161042742Y-74174434D02*
X160985600Y-74288720D01*
X160985600Y-74288720D02*
X160985600Y-74574434D01*
X160985600Y-74574434D02*
X160928457Y-74688720D01*
X160642742Y-75088719D02*
X160642742Y-75545862D01*
X160242742Y-75260148D02*
X161271314Y-75260148D01*
X161271314Y-75260148D02*
X161385600Y-75317291D01*
X161385600Y-75317291D02*
X161442742Y-75431576D01*
X161442742Y-75431576D02*
X161442742Y-75545862D01*
X161385600Y-76403005D02*
X161442742Y-76288719D01*
X161442742Y-76288719D02*
X161442742Y-76060148D01*
X161442742Y-76060148D02*
X161385600Y-75945862D01*
X161385600Y-75945862D02*
X161271314Y-75888719D01*
X161271314Y-75888719D02*
X160814171Y-75888719D01*
X160814171Y-75888719D02*
X160699885Y-75945862D01*
X160699885Y-75945862D02*
X160642742Y-76060148D01*
X160642742Y-76060148D02*
X160642742Y-76288719D01*
X160642742Y-76288719D02*
X160699885Y-76403005D01*
X160699885Y-76403005D02*
X160814171Y-76460148D01*
X160814171Y-76460148D02*
X160928457Y-76460148D01*
X160928457Y-76460148D02*
X161042742Y-75888719D01*
X161442742Y-77488719D02*
X160242742Y-77488719D01*
X161385600Y-77488719D02*
X161442742Y-77374433D01*
X161442742Y-77374433D02*
X161442742Y-77145861D01*
X161442742Y-77145861D02*
X161385600Y-77031576D01*
X161385600Y-77031576D02*
X161328457Y-76974433D01*
X161328457Y-76974433D02*
X161214171Y-76917290D01*
X161214171Y-76917290D02*
X160871314Y-76917290D01*
X160871314Y-76917290D02*
X160757028Y-76974433D01*
X160757028Y-76974433D02*
X160699885Y-77031576D01*
X160699885Y-77031576D02*
X160642742Y-77145861D01*
X160642742Y-77145861D02*
X160642742Y-77374433D01*
X160642742Y-77374433D02*
X160699885Y-77488719D01*
X161442742Y-78974433D02*
X160242742Y-78974433D01*
X160699885Y-78974433D02*
X160642742Y-79088719D01*
X160642742Y-79088719D02*
X160642742Y-79317290D01*
X160642742Y-79317290D02*
X160699885Y-79431576D01*
X160699885Y-79431576D02*
X160757028Y-79488719D01*
X160757028Y-79488719D02*
X160871314Y-79545861D01*
X160871314Y-79545861D02*
X161214171Y-79545861D01*
X161214171Y-79545861D02*
X161328457Y-79488719D01*
X161328457Y-79488719D02*
X161385600Y-79431576D01*
X161385600Y-79431576D02*
X161442742Y-79317290D01*
X161442742Y-79317290D02*
X161442742Y-79088719D01*
X161442742Y-79088719D02*
X161385600Y-78974433D01*
X160642742Y-79945861D02*
X161442742Y-80231575D01*
X160642742Y-80517290D02*
X161442742Y-80231575D01*
X161442742Y-80231575D02*
X161728457Y-80117290D01*
X161728457Y-80117290D02*
X161785600Y-80060147D01*
X161785600Y-80060147D02*
X161842742Y-79945861D01*
X161385600Y-82403005D02*
X161442742Y-82288719D01*
X161442742Y-82288719D02*
X161442742Y-82060147D01*
X161442742Y-82060147D02*
X161385600Y-81945862D01*
X161385600Y-81945862D02*
X161328457Y-81888719D01*
X161328457Y-81888719D02*
X161214171Y-81831576D01*
X161214171Y-81831576D02*
X160871314Y-81831576D01*
X160871314Y-81831576D02*
X160757028Y-81888719D01*
X160757028Y-81888719D02*
X160699885Y-81945862D01*
X160699885Y-81945862D02*
X160642742Y-82060147D01*
X160642742Y-82060147D02*
X160642742Y-82288719D01*
X160642742Y-82288719D02*
X160699885Y-82403005D01*
X160642742Y-82803004D02*
X161442742Y-83088718D01*
X160642742Y-83374433D02*
X161442742Y-83088718D01*
X161442742Y-83088718D02*
X161728457Y-82974433D01*
X161728457Y-82974433D02*
X161785600Y-82917290D01*
X161785600Y-82917290D02*
X161842742Y-82803004D01*
X161442742Y-83831576D02*
X160242742Y-83831576D01*
X160699885Y-83831576D02*
X160642742Y-83945862D01*
X160642742Y-83945862D02*
X160642742Y-84174433D01*
X160642742Y-84174433D02*
X160699885Y-84288719D01*
X160699885Y-84288719D02*
X160757028Y-84345862D01*
X160757028Y-84345862D02*
X160871314Y-84403004D01*
X160871314Y-84403004D02*
X161214171Y-84403004D01*
X161214171Y-84403004D02*
X161328457Y-84345862D01*
X161328457Y-84345862D02*
X161385600Y-84288719D01*
X161385600Y-84288719D02*
X161442742Y-84174433D01*
X161442742Y-84174433D02*
X161442742Y-83945862D01*
X161442742Y-83945862D02*
X161385600Y-83831576D01*
X161385600Y-85374433D02*
X161442742Y-85260147D01*
X161442742Y-85260147D02*
X161442742Y-85031576D01*
X161442742Y-85031576D02*
X161385600Y-84917290D01*
X161385600Y-84917290D02*
X161271314Y-84860147D01*
X161271314Y-84860147D02*
X160814171Y-84860147D01*
X160814171Y-84860147D02*
X160699885Y-84917290D01*
X160699885Y-84917290D02*
X160642742Y-85031576D01*
X160642742Y-85031576D02*
X160642742Y-85260147D01*
X160642742Y-85260147D02*
X160699885Y-85374433D01*
X160699885Y-85374433D02*
X160814171Y-85431576D01*
X160814171Y-85431576D02*
X160928457Y-85431576D01*
X160928457Y-85431576D02*
X161042742Y-84860147D01*
X161442742Y-85945861D02*
X160642742Y-85945861D01*
X160871314Y-85945861D02*
X160757028Y-86003004D01*
X160757028Y-86003004D02*
X160699885Y-86060147D01*
X160699885Y-86060147D02*
X160642742Y-86174432D01*
X160642742Y-86174432D02*
X160642742Y-86288718D01*
X161442742Y-86688718D02*
X160242742Y-86688718D01*
X160699885Y-86688718D02*
X160642742Y-86803004D01*
X160642742Y-86803004D02*
X160642742Y-87031575D01*
X160642742Y-87031575D02*
X160699885Y-87145861D01*
X160699885Y-87145861D02*
X160757028Y-87203004D01*
X160757028Y-87203004D02*
X160871314Y-87260146D01*
X160871314Y-87260146D02*
X161214171Y-87260146D01*
X161214171Y-87260146D02*
X161328457Y-87203004D01*
X161328457Y-87203004D02*
X161385600Y-87145861D01*
X161385600Y-87145861D02*
X161442742Y-87031575D01*
X161442742Y-87031575D02*
X161442742Y-86803004D01*
X161442742Y-86803004D02*
X161385600Y-86688718D01*
X161442742Y-87945860D02*
X161385600Y-87831575D01*
X161385600Y-87831575D02*
X161328457Y-87774432D01*
X161328457Y-87774432D02*
X161214171Y-87717289D01*
X161214171Y-87717289D02*
X160871314Y-87717289D01*
X160871314Y-87717289D02*
X160757028Y-87774432D01*
X160757028Y-87774432D02*
X160699885Y-87831575D01*
X160699885Y-87831575D02*
X160642742Y-87945860D01*
X160642742Y-87945860D02*
X160642742Y-88117289D01*
X160642742Y-88117289D02*
X160699885Y-88231575D01*
X160699885Y-88231575D02*
X160757028Y-88288718D01*
X160757028Y-88288718D02*
X160871314Y-88345860D01*
X160871314Y-88345860D02*
X161214171Y-88345860D01*
X161214171Y-88345860D02*
X161328457Y-88288718D01*
X161328457Y-88288718D02*
X161385600Y-88231575D01*
X161385600Y-88231575D02*
X161442742Y-88117289D01*
X161442742Y-88117289D02*
X161442742Y-87945860D01*
X160642742Y-88745860D02*
X161442742Y-89031574D01*
X160642742Y-89317289D02*
X161442742Y-89031574D01*
X161442742Y-89031574D02*
X161728457Y-88917289D01*
X161728457Y-88917289D02*
X161785600Y-88860146D01*
X161785600Y-88860146D02*
X161842742Y-88745860D01*
X160242742Y-90288718D02*
X160242742Y-90060146D01*
X160242742Y-90060146D02*
X160299885Y-89945860D01*
X160299885Y-89945860D02*
X160357028Y-89888718D01*
X160357028Y-89888718D02*
X160528457Y-89774432D01*
X160528457Y-89774432D02*
X160757028Y-89717289D01*
X160757028Y-89717289D02*
X161214171Y-89717289D01*
X161214171Y-89717289D02*
X161328457Y-89774432D01*
X161328457Y-89774432D02*
X161385600Y-89831575D01*
X161385600Y-89831575D02*
X161442742Y-89945860D01*
X161442742Y-89945860D02*
X161442742Y-90174432D01*
X161442742Y-90174432D02*
X161385600Y-90288718D01*
X161385600Y-90288718D02*
X161328457Y-90345860D01*
X161328457Y-90345860D02*
X161214171Y-90403003D01*
X161214171Y-90403003D02*
X160928457Y-90403003D01*
X160928457Y-90403003D02*
X160814171Y-90345860D01*
X160814171Y-90345860D02*
X160757028Y-90288718D01*
X160757028Y-90288718D02*
X160699885Y-90174432D01*
X160699885Y-90174432D02*
X160699885Y-89945860D01*
X160699885Y-89945860D02*
X160757028Y-89831575D01*
X160757028Y-89831575D02*
X160814171Y-89774432D01*
X160814171Y-89774432D02*
X160928457Y-89717289D01*
X160242742Y-91431575D02*
X160242742Y-91203003D01*
X160242742Y-91203003D02*
X160299885Y-91088717D01*
X160299885Y-91088717D02*
X160357028Y-91031575D01*
X160357028Y-91031575D02*
X160528457Y-90917289D01*
X160528457Y-90917289D02*
X160757028Y-90860146D01*
X160757028Y-90860146D02*
X161214171Y-90860146D01*
X161214171Y-90860146D02*
X161328457Y-90917289D01*
X161328457Y-90917289D02*
X161385600Y-90974432D01*
X161385600Y-90974432D02*
X161442742Y-91088717D01*
X161442742Y-91088717D02*
X161442742Y-91317289D01*
X161442742Y-91317289D02*
X161385600Y-91431575D01*
X161385600Y-91431575D02*
X161328457Y-91488717D01*
X161328457Y-91488717D02*
X161214171Y-91545860D01*
X161214171Y-91545860D02*
X160928457Y-91545860D01*
X160928457Y-91545860D02*
X160814171Y-91488717D01*
X160814171Y-91488717D02*
X160757028Y-91431575D01*
X160757028Y-91431575D02*
X160699885Y-91317289D01*
X160699885Y-91317289D02*
X160699885Y-91088717D01*
X160699885Y-91088717D02*
X160757028Y-90974432D01*
X160757028Y-90974432D02*
X160814171Y-90917289D01*
X160814171Y-90917289D02*
X160928457Y-90860146D01*
X160242742Y-92574432D02*
X160242742Y-92345860D01*
X160242742Y-92345860D02*
X160299885Y-92231574D01*
X160299885Y-92231574D02*
X160357028Y-92174432D01*
X160357028Y-92174432D02*
X160528457Y-92060146D01*
X160528457Y-92060146D02*
X160757028Y-92003003D01*
X160757028Y-92003003D02*
X161214171Y-92003003D01*
X161214171Y-92003003D02*
X161328457Y-92060146D01*
X161328457Y-92060146D02*
X161385600Y-92117289D01*
X161385600Y-92117289D02*
X161442742Y-92231574D01*
X161442742Y-92231574D02*
X161442742Y-92460146D01*
X161442742Y-92460146D02*
X161385600Y-92574432D01*
X161385600Y-92574432D02*
X161328457Y-92631574D01*
X161328457Y-92631574D02*
X161214171Y-92688717D01*
X161214171Y-92688717D02*
X160928457Y-92688717D01*
X160928457Y-92688717D02*
X160814171Y-92631574D01*
X160814171Y-92631574D02*
X160757028Y-92574432D01*
X160757028Y-92574432D02*
X160699885Y-92460146D01*
X160699885Y-92460146D02*
X160699885Y-92231574D01*
X160699885Y-92231574D02*
X160757028Y-92117289D01*
X160757028Y-92117289D02*
X160814171Y-92060146D01*
X160814171Y-92060146D02*
X160928457Y-92003003D01*
M02*
