<?xml version="1.0" standalone="no"?>
 <!DOCTYPE svg PUBLIC "-//W3C//DTD SVG 1.1//EN" 
 "http://www.w3.org/Graphics/SVG/1.1/DTD/svg11.dtd"> 
<svg
  xmlns:svg="http://www.w3.org/2000/svg"
  xmlns="http://www.w3.org/2000/svg"
  xmlns:xlink="http://www.w3.org/1999/xlink"
  version="1.1"
  width="10.012680cm" height="10.012680cm" viewBox="0 0 100126800 100126800">
<title>SVG Picture created as default_panel-F_Silkscreen.svg date 2023/07/12 17:08:05 </title>
  <desc>Picture generated by PCBNEW </desc>
<g style="fill:#000000; fill-opacity:1.000000;stroke:#000000; stroke-opacity:1.000000;
stroke-linecap:round; stroke-linejoin:round;"
 transform="translate(0 0) scale(1 1)">
</g>
<g style="fill:#000000; fill-opacity:0.0; 
stroke:#000000; stroke-width:0.000000; stroke-opacity:1; 
stroke-linecap:round; stroke-linejoin:round;">
</g>
<g style="fill:#000000; fill-opacity:0.0; 
stroke:#000000; stroke-width:350000.000000; stroke-opacity:1; 
stroke-linecap:round; stroke-linejoin:round;">
<path d="M25925000 88575000
L24025000 86375000
" />
<path d="M34125000 34650000
L30425000 37900000
" />
<path d="M33775000 27175000
L30525000 23475000
" />
<path d="M74775000 89075000
L77075000 85875000
" />
<path d="M81675000 50175000
L81675000 75775000
" />
<path d="M67475000 37925000
L63775000 34675000
" />
<path d="M18475000 50275000
L18475000 75875000
" />
<path d="M66825000 23425000
L63575000 27125000
" />
</g>
<g style="fill:#000000; fill-opacity:0.0; 
stroke:#000000; stroke-width:450000.000000; stroke-opacity:1; 
stroke-linecap:round; stroke-linejoin:round;">
<text x="81675000.000000" y="84475000.000000"
textLength="21075714.000000" font-size="3200000.000000" lengthAdjust="spacingAndGlyphs"
text-anchor="middle" opacity="0">COLOR_TWO</text>
<g class="stroked-text"><desc>COLOR_TWO</desc>
<path d="M73275000 84132142
L73160714 84246428
L72817857 84360714
L72589285 84360714
L72246428 84246428
L72017857 84017857
L71903571 83789285
L71789285 83332142
L71789285 82989285
L71903571 82532142
L72017857 82303571
L72246428 82075000
L72589285 81960714
L72817857 81960714
L73160714 82075000
L73275000 82189285
" />
<path d="M74760714 81960714
L75217857 81960714
L75446428 82075000
L75675000 82303571
L75789285 82760714
L75789285 83560714
L75675000 84017857
L75446428 84246428
L75217857 84360714
L74760714 84360714
L74532142 84246428
L74303571 84017857
L74189285 83560714
L74189285 82760714
L74303571 82303571
L74532142 82075000
L74760714 81960714
" />
<path d="M77960714 84360714
L76817857 84360714
L76817857 81960714
" />
<path d="M79217857 81960714
L79675000 81960714
L79903571 82075000
L80132142 82303571
L80246428 82760714
L80246428 83560714
L80132142 84017857
L79903571 84246428
L79675000 84360714
L79217857 84360714
L78989285 84246428
L78760714 84017857
L78646428 83560714
L78646428 82760714
L78760714 82303571
L78989285 82075000
L79217857 81960714
" />
<path d="M82646428 84360714
L81846428 83217857
" />
<path d="M81275000 84360714
L81275000 81960714
L82189285 81960714
L82417857 82075000
L82532142 82189285
L82646428 82417857
L82646428 82760714
L82532142 82989285
L82417857 83103571
L82189285 83217857
L81275000 83217857
" />
<path d="M83103571 84589285
L84932142 84589285
" />
<path d="M85160714 81960714
L86532142 81960714
" />
<path d="M85846428 84360714
L85846428 81960714
" />
<path d="M87103571 81960714
L87675000 84360714
L88132142 82646428
L88589285 84360714
L89160714 81960714
" />
<path d="M90532142 81960714
L90989285 81960714
L91217857 82075000
L91446428 82303571
L91560714 82760714
L91560714 83560714
L91446428 84017857
L91217857 84246428
L90989285 84360714
L90532142 84360714
L90303571 84246428
L90075000 84017857
L89960714 83560714
L89960714 82760714
L90075000 82303571
L90303571 82075000
L90532142 81960714
" />
</g></g>
<g style="fill:#000000; fill-opacity:0.0; 
stroke:#000000; stroke-width:200000.000000; stroke-opacity:1; 
stroke-linecap:round; stroke-linejoin:round;">
<text x="97075000.000000" y="72375000.000000"
textLength="2680238.000000" font-size="1333333.000000" lengthAdjust="spacingAndGlyphs"
text-anchor="middle" opacity="0">ON</text>
<g class="stroked-text"><desc>ON</desc>
<path d="M96455952 71327380
L96646428 71327380
L96741666 71375000
L96836904 71470238
L96884523 71660714
L96884523 71994047
L96836904 72184523
L96741666 72279761
L96646428 72327380
L96455952 72327380
L96360714 72279761
L96265476 72184523
L96217857 71994047
L96217857 71660714
L96265476 71470238
L96360714 71375000
L96455952 71327380
" />
<path d="M97313095 72327380
L97313095 71327380
L97884523 72327380
L97884523 71327380
" />
</g></g>
<g style="fill:#000000; fill-opacity:0.0; 
stroke:#000000; stroke-width:500000.000000; stroke-opacity:1; 
stroke-linecap:round; stroke-linejoin:round;">
<text x="48675000.000000" y="32725000.000000"
textLength="29093333.000000" font-size="4666666.000000" lengthAdjust="spacingAndGlyphs"
text-anchor="middle" opacity="0">COLORIZER</text>
<g class="stroked-text"><desc>COLORIZER</desc>
<path d="M37091666 32225000
L36925000 32391666
L36425000 32558333
L36091666 32558333
L35591666 32391666
L35258333 32058333
L35091666 31725000
L34925000 31058333
L34925000 30558333
L35091666 29891666
L35258333 29558333
L35591666 29225000
L36091666 29058333
L36425000 29058333
L36925000 29225000
L37091666 29391666
" />
<path d="M39258333 29058333
L39925000 29058333
L40258333 29225000
L40591666 29558333
L40758333 30225000
L40758333 31391666
L40591666 32058333
L40258333 32391666
L39925000 32558333
L39258333 32558333
L38925000 32391666
L38591666 32058333
L38425000 31391666
L38425000 30225000
L38591666 29558333
L38925000 29225000
L39258333 29058333
" />
<path d="M43925000 32558333
L42258333 32558333
L42258333 29058333
" />
<path d="M45758333 29058333
L46425000 29058333
L46758333 29225000
L47091666 29558333
L47258333 30225000
L47258333 31391666
L47091666 32058333
L46758333 32391666
L46425000 32558333
L45758333 32558333
L45425000 32391666
L45091666 32058333
L44925000 31391666
L44925000 30225000
L45091666 29558333
L45425000 29225000
L45758333 29058333
" />
<path d="M50758333 32558333
L49591666 30891666
" />
<path d="M48758333 32558333
L48758333 29058333
L50091666 29058333
L50425000 29225000
L50591666 29391666
L50758333 29725000
L50758333 30225000
L50591666 30558333
L50425000 30725000
L50091666 30891666
L48758333 30891666
" />
<path d="M52258333 32558333
L52258333 29058333
" />
<path d="M53591666 29058333
L55925000 29058333
L53591666 32558333
L55925000 32558333
" />
<path d="M57258333 30725000
L58425000 30725000
" />
<path d="M58925000 32558333
L57258333 32558333
L57258333 29058333
L58925000 29058333
" />
<path d="M62425000 32558333
L61258333 30891666
" />
<path d="M60425000 32558333
L60425000 29058333
L61758333 29058333
L62091666 29225000
L62258333 29391666
L62425000 29725000
L62425000 30225000
L62258333 30558333
L62091666 30725000
L61758333 30891666
L60425000 30891666
" />
</g></g>
<g style="fill:#000000; fill-opacity:0.0; 
stroke:#000000; stroke-width:200000.000000; stroke-opacity:1; 
stroke-linecap:round; stroke-linejoin:round;">
<text x="3875000.000000" y="56475000.000000"
textLength="4411905.000000" font-size="1333333.000000" lengthAdjust="spacingAndGlyphs"
text-anchor="middle" opacity="0">NTSC</text>
<g class="stroked-text"><desc>NTSC</desc>
<path d="M2232142 56427380
L2232142 55427380
L2803571 56427380
L2803571 55427380
" />
<path d="M3136904 55427380
L3708333 55427380
" />
<path d="M3422619 56427380
L3422619 55427380
" />
<path d="M3994047 56379761
L4136904 56427380
L4375000 56427380
L4470238 56379761
L4517857 56332142
L4565476 56236904
L4565476 56141666
L4517857 56046428
L4470238 55998809
L4375000 55951190
L4184523 55903571
L4089285 55855952
L4041666 55808333
L3994047 55713095
L3994047 55617857
L4041666 55522619
L4089285 55475000
L4184523 55427380
L4422619 55427380
L4565476 55475000
" />
<path d="M5565476 56332142
L5517857 56379761
L5375000 56427380
L5279761 56427380
L5136904 56379761
L5041666 56284523
L4994047 56189285
L4946428 55998809
L4946428 55855952
L4994047 55665476
L5041666 55570238
L5136904 55475000
L5279761 55427380
L5375000 55427380
L5517857 55475000
L5565476 55522619
" />
</g></g>
<g style="fill:#000000; fill-opacity:0.0; 
stroke:#000000; stroke-width:350000.000000; stroke-opacity:1; 
stroke-linecap:round; stroke-linejoin:round;">
<text x="18475000.000000" y="47325000.000000"
textLength="12331429.000000" font-size="2000000.000000" lengthAdjust="spacingAndGlyphs"
text-anchor="middle" opacity="0">LEVEL_ONE</text>
<g class="stroked-text"><desc>LEVEL_ONE</desc>
<path d="M13510714 47253571
L12796428 47253571
L12796428 45753571
" />
<path d="M14010714 46467857
L14510714 46467857
" />
<path d="M14725000 47253571
L14010714 47253571
L14010714 45753571
L14725000 45753571
" />
<path d="M15153571 45753571
L15653571 47253571
L16153571 45753571
" />
<path d="M16653571 46467857
L17153571 46467857
" />
<path d="M17367857 47253571
L16653571 47253571
L16653571 45753571
L17367857 45753571
" />
<path d="M18725000 47253571
L18010714 47253571
L18010714 45753571
" />
<path d="M18867857 47396428
L20010714 47396428
" />
<path d="M20653571 45753571
L20939285 45753571
L21082142 45825000
L21225000 45967857
L21296428 46253571
L21296428 46753571
L21225000 47039285
L21082142 47182142
L20939285 47253571
L20653571 47253571
L20510714 47182142
L20367857 47039285
L20296428 46753571
L20296428 46253571
L20367857 45967857
L20510714 45825000
L20653571 45753571
" />
<path d="M21939285 47253571
L21939285 45753571
L22796428 47253571
L22796428 45753571
" />
<path d="M23510714 46467857
L24010714 46467857
" />
<path d="M24225000 47253571
L23510714 47253571
L23510714 45753571
L24225000 45753571
" />
</g></g>
<g style="fill:#000000; fill-opacity:0.0; 
stroke:#000000; stroke-width:450000.000000; stroke-opacity:1; 
stroke-linecap:round; stroke-linejoin:round;">
<text x="18475000.000000" y="84575000.000000"
textLength="21255000.000000" font-size="3200000.000000" lengthAdjust="spacingAndGlyphs"
text-anchor="middle" opacity="0">COLOR_ONE</text>
<g class="stroked-text"><desc>COLOR_ONE</desc>
<path d="M10017857 84232142
L9903571 84346428
L9560714 84460714
L9332142 84460714
L8989285 84346428
L8760714 84117857
L8646428 83889285
L8532142 83432142
L8532142 83089285
L8646428 82632142
L8760714 82403571
L8989285 82175000
L9332142 82060714
L9560714 82060714
L9903571 82175000
L10017857 82289285
" />
<path d="M11503571 82060714
L11960714 82060714
L12189285 82175000
L12417857 82403571
L12532142 82860714
L12532142 83660714
L12417857 84117857
L12189285 84346428
L11960714 84460714
L11503571 84460714
L11275000 84346428
L11046428 84117857
L10932142 83660714
L10932142 82860714
L11046428 82403571
L11275000 82175000
L11503571 82060714
" />
<path d="M14703571 84460714
L13560714 84460714
L13560714 82060714
" />
<path d="M15960714 82060714
L16417857 82060714
L16646428 82175000
L16875000 82403571
L16989285 82860714
L16989285 83660714
L16875000 84117857
L16646428 84346428
L16417857 84460714
L15960714 84460714
L15732142 84346428
L15503571 84117857
L15389285 83660714
L15389285 82860714
L15503571 82403571
L15732142 82175000
L15960714 82060714
" />
<path d="M19389285 84460714
L18589285 83317857
" />
<path d="M18017857 84460714
L18017857 82060714
L18932142 82060714
L19160714 82175000
L19275000 82289285
L19389285 82517857
L19389285 82860714
L19275000 83089285
L19160714 83203571
L18932142 83317857
L18017857 83317857
" />
<path d="M19846428 84689285
L21675000 84689285
" />
<path d="M22703571 82060714
L23160714 82060714
L23389285 82175000
L23617857 82403571
L23732142 82860714
L23732142 83660714
L23617857 84117857
L23389285 84346428
L23160714 84460714
L22703571 84460714
L22475000 84346428
L22246428 84117857
L22132142 83660714
L22132142 82860714
L22246428 82403571
L22475000 82175000
L22703571 82060714
" />
<path d="M24760714 84460714
L24760714 82060714
L26132142 84460714
L26132142 82060714
" />
<path d="M27275000 83203571
L28075000 83203571
" />
<path d="M28417857 84460714
L27275000 84460714
L27275000 82060714
L28417857 82060714
" />
</g></g>
<g style="fill:#000000; fill-opacity:0.0; 
stroke:#000000; stroke-width:200000.000000; stroke-opacity:1; 
stroke-linecap:round; stroke-linejoin:round;">
<text x="3875000.000000" y="72675000.000000"
textLength="3251667.000000" font-size="1333333.000000" lengthAdjust="spacingAndGlyphs"
text-anchor="middle" opacity="0">PAL</text>
<g class="stroked-text"><desc>PAL</desc>
<path d="M2779761 72627380
L2779761 71627380
L3160714 71627380
L3255952 71675000
L3303571 71722619
L3351190 71817857
L3351190 71960714
L3303571 72055952
L3255952 72103571
L3160714 72151190
L2779761 72151190
" />
<path d="M3732142 72341666
L4208333 72341666
" />
<path d="M3636904 72627380
L3970238 71627380
L4303571 72627380
" />
<path d="M5113095 72627380
L4636904 72627380
L4636904 71627380
" />
</g></g>
<g style="fill:#000000; fill-opacity:0.0; 
stroke:#000000; stroke-width:350000.000000; stroke-opacity:1; 
stroke-linecap:round; stroke-linejoin:round;">
<text x="81675000.000000" y="47225000.000000"
textLength="12260000.000000" font-size="2000000.000000" lengthAdjust="spacingAndGlyphs"
text-anchor="middle" opacity="0">LEVEL_TWO</text>
<g class="stroked-text"><desc>LEVEL_TWO</desc>
<path d="M76746428 47153571
L76032142 47153571
L76032142 45653571
" />
<path d="M77246428 46367857
L77746428 46367857
" />
<path d="M77960714 47153571
L77246428 47153571
L77246428 45653571
L77960714 45653571
" />
<path d="M78389285 45653571
L78889285 47153571
L79389285 45653571
" />
<path d="M79889285 46367857
L80389285 46367857
" />
<path d="M80603571 47153571
L79889285 47153571
L79889285 45653571
L80603571 45653571
" />
<path d="M81960714 47153571
L81246428 47153571
L81246428 45653571
" />
<path d="M82103571 47296428
L83246428 47296428
" />
<path d="M83389285 45653571
L84246428 45653571
" />
<path d="M83817857 47153571
L83817857 45653571
" />
<path d="M84603571 45653571
L84960714 47153571
L85246428 46082142
L85532142 47153571
L85889285 45653571
" />
<path d="M86746428 45653571
L87032142 45653571
L87175000 45725000
L87317857 45867857
L87389285 46153571
L87389285 46653571
L87317857 46939285
L87175000 47082142
L87032142 47153571
L86746428 47153571
L86603571 47082142
L86460714 46939285
L86389285 46653571
L86389285 46153571
L86460714 45867857
L86603571 45725000
L86746428 45653571
" />
</g><text x="33275000.000000" y="2825000.000000"
textLength="8883571.000000" font-size="2000000.000000" lengthAdjust="spacingAndGlyphs"
text-anchor="middle" opacity="0">BYPASS</text>
<g class="stroked-text"><desc>BYPASS</desc>
<path d="M29917857 1967857
L30132142 2039285
L30203571 2110714
L30275000 2253571
L30275000 2467857
L30203571 2610714
L30132142 2682142
L29989285 2753571
L29417857 2753571
L29417857 1253571
L29917857 1253571
L30060714 1325000
L30132142 1396428
L30203571 1539285
L30203571 1682142
L30132142 1825000
L30060714 1896428
L29917857 1967857
L29417857 1967857
" />
<path d="M31203571 2039285
L31203571 2753571
" />
<path d="M30703571 1253571
L31203571 2039285
L31703571 1253571
" />
<path d="M32203571 2753571
L32203571 1253571
L32775000 1253571
L32917857 1325000
L32989285 1396428
L33060714 1539285
L33060714 1753571
L32989285 1896428
L32917857 1967857
L32775000 2039285
L32203571 2039285
" />
<path d="M33632142 2325000
L34346428 2325000
" />
<path d="M33489285 2753571
L33989285 1253571
L34489285 2753571
" />
<path d="M34917857 2682142
L35132142 2753571
L35489285 2753571
L35632142 2682142
L35703571 2610714
L35775000 2467857
L35775000 2325000
L35703571 2182142
L35632142 2110714
L35489285 2039285
L35203571 1967857
L35060714 1896428
L34989285 1825000
L34917857 1682142
L34917857 1539285
L34989285 1396428
L35060714 1325000
L35203571 1253571
L35560714 1253571
L35775000 1325000
" />
<path d="M36346428 2682142
L36560714 2753571
L36917857 2753571
L37060714 2682142
L37132142 2610714
L37203571 2467857
L37203571 2325000
L37132142 2182142
L37060714 2110714
L36917857 2039285
L36632142 1967857
L36489285 1896428
L36417857 1825000
L36346428 1682142
L36346428 1539285
L36417857 1396428
L36489285 1325000
L36632142 1253571
L36989285 1253571
L37203571 1325000
" />
</g></g>
<g style="fill:#000000; fill-opacity:0.0; 
stroke:#000000; stroke-width:450000.000000; stroke-opacity:1; 
stroke-linecap:round; stroke-linejoin:round;">
<text x="50075000.000000" y="3925000.000000"
textLength="4740714.000000" font-size="3333333.000000" lengthAdjust="spacingAndGlyphs"
text-anchor="middle" opacity="0">5v</text>
<g class="stroked-text"><desc>5v</desc>
<path d="M49717857 1305952
L48527380 1305952
L48408333 2496428
L48527380 2377380
L48765476 2258333
L49360714 2258333
L49598809 2377380
L49717857 2496428
L49836904 2734523
L49836904 3329761
L49717857 3567857
L49598809 3686904
L49360714 3805952
L48765476 3805952
L48527380 3686904
L48408333 3567857
" />
<path d="M50670238 2139285
L51265476 3805952
L51860714 2139285
" />
</g></g>
<g style="fill:#000000; fill-opacity:0.0; 
stroke:#000000; stroke-width:300000.000000; stroke-opacity:1; 
stroke-linecap:round; stroke-linejoin:round;">
<text x="48675000.000000" y="27025000.000000"
textLength="18299286.000000" font-size="2000000.000000" lengthAdjust="spacingAndGlyphs"
text-anchor="middle" opacity="0">TWO_POINT_ONE</text>
<g class="stroked-text"><desc>TWO_POINT_ONE</desc>
<path d="M39960714 25453571
L40817857 25453571
" />
<path d="M40389285 26953571
L40389285 25453571
" />
<path d="M41174999 25453571
L41532142 26953571
L41817857 25882142
L42103571 26953571
L42460714 25453571
" />
<path d="M43317857 25453571
L43603571 25453571
L43746428 25525000
L43889285 25667857
L43960714 25953571
L43960714 26453571
L43889285 26739285
L43746428 26882142
L43603571 26953571
L43317857 26953571
L43174999 26882142
L43032142 26739285
L42960714 26453571
L42960714 25953571
L43032142 25667857
L43174999 25525000
L43317857 25453571
" />
<path d="M44246428 27096428
L45389285 27096428
" />
<path d="M45746428 26953571
L45746428 25453571
L46317857 25453571
L46460714 25525000
L46532142 25596428
L46603571 25739285
L46603571 25953571
L46532142 26096428
L46460714 26167857
L46317857 26239285
L45746428 26239285
" />
<path d="M47532142 25453571
L47817857 25453571
L47960714 25525000
L48103571 25667857
L48174999 25953571
L48174999 26453571
L48103571 26739285
L47960714 26882142
L47817857 26953571
L47532142 26953571
L47389285 26882142
L47246428 26739285
L47174999 26453571
L47174999 25953571
L47246428 25667857
L47389285 25525000
L47532142 25453571
" />
<path d="M48817857 26953571
L48817857 25453571
" />
<path d="M49532142 26953571
L49532142 25453571
L50389285 26953571
L50389285 25453571
" />
<path d="M50889285 25453571
L51746428 25453571
" />
<path d="M51317857 26953571
L51317857 25453571
" />
<path d="M51889285 27096428
L53032142 27096428
" />
<path d="M53674999 25453571
L53960714 25453571
L54103571 25525000
L54246428 25667857
L54317857 25953571
L54317857 26453571
L54246428 26739285
L54103571 26882142
L53960714 26953571
L53674999 26953571
L53532142 26882142
L53389285 26739285
L53317857 26453571
L53317857 25953571
L53389285 25667857
L53532142 25525000
L53674999 25453571
" />
<path d="M54960714 26953571
L54960714 25453571
L55817857 26953571
L55817857 25453571
" />
<path d="M56532142 26167857
L57032142 26167857
" />
<path d="M57246428 26953571
L56532142 26953571
L56532142 25453571
L57246428 25453571
" />
</g></g>
<g style="fill:#000000; fill-opacity:0.0; 
stroke:#000000; stroke-width:450000.000000; stroke-opacity:1; 
stroke-linecap:round; stroke-linejoin:round;">
<text x="21375000.000000" y="17475000.000000"
textLength="16161429.000000" font-size="3200000.000000" lengthAdjust="spacingAndGlyphs"
text-anchor="middle" opacity="0">VIDEO_IN</text>
<g class="stroked-text"><desc>VIDEO_IN</desc>
<path d="M13717857 14960714
L14517857 17360714
L15317857 14960714
" />
<path d="M16117857 17360714
L16117857 14960714
" />
<path d="M17260714 17360714
L17260714 14960714
L17832142 14960714
L18175000 15075000
L18403571 15303571
L18517857 15532142
L18632142 15989285
L18632142 16332142
L18517857 16789285
L18403571 17017857
L18175000 17246428
L17832142 17360714
L17260714 17360714
" />
<path d="M19660714 16103571
L20460714 16103571
" />
<path d="M20803571 17360714
L19660714 17360714
L19660714 14960714
L20803571 14960714
" />
<path d="M22289285 14960714
L22746428 14960714
L22975000 15075000
L23203571 15303571
L23317857 15760714
L23317857 16560714
L23203571 17017857
L22975000 17246428
L22746428 17360714
L22289285 17360714
L22060714 17246428
L21832142 17017857
L21717857 16560714
L21717857 15760714
L21832142 15303571
L22060714 15075000
L22289285 14960714
" />
<path d="M23775000 17589285
L25603571 17589285
" />
<path d="M26175000 17360714
L26175000 14960714
" />
<path d="M27317857 17360714
L27317857 14960714
L28689285 17360714
L28689285 14960714
" />
</g></g>
<g style="fill:#000000; fill-opacity:0.0; 
stroke:#000000; stroke-width:200000.000000; stroke-opacity:1; 
stroke-linecap:round; stroke-linejoin:round;">
<g transform="rotate(-90.000000 8125000.000000 64225000.000000)">
<text x="8125000.000000" y="64725000.000000"
textLength="6251667.000000" font-size="1333333.000000" lengthAdjust="spacingAndGlyphs"
text-anchor="middle" opacity="0">FORMAT</text>
</g>
<g class="stroked-text"><desc>FORMAT</desc>
<path d="M8053571 66486904
L8053571 66820238
" />
<path d="M8577380 66820238
L7577380 66820238
L7577380 66344047
" />
<path d="M7577380 65772619
L7577380 65582142
L7625000 65486904
L7720238 65391666
L7910714 65344047
L8244047 65344047
L8434523 65391666
L8529761 65486904
L8577380 65582142
L8577380 65772619
L8529761 65867857
L8434523 65963095
L8244047 66010714
L7910714 66010714
L7720238 65963095
L7625000 65867857
L7577380 65772619
" />
<path d="M8577380 64344047
L8101190 64677380
" />
<path d="M8577380 64915476
L7577380 64915476
L7577380 64534523
L7625000 64439285
L7672619 64391666
L7767857 64344047
L7910714 64344047
L8005952 64391666
L8053571 64439285
L8101190 64534523
L8101190 64915476
" />
<path d="M8577380 63915476
L7577380 63915476
L8291666 63582142
L7577380 63248809
L8577380 63248809
" />
<path d="M8291666 62820238
L8291666 62344047
" />
<path d="M8577380 62915476
L7577380 62582142
L8577380 62248809
" />
<path d="M7577380 62058333
L7577380 61486904
" />
<path d="M8577380 61772619
L7577380 61772619
" />
</g></g>
<g style="fill:#000000; fill-opacity:0.0; 
stroke:#000000; stroke-width:350000.000000; stroke-opacity:1; 
stroke-linecap:round; stroke-linejoin:round;">
<text x="50375000.000000" y="98325000.000000"
textLength="14545714.000000" font-size="2000000.000000" lengthAdjust="spacingAndGlyphs"
text-anchor="middle" opacity="0">COLOR_BOTH</text>
<g class="stroked-text"><desc>COLOR_BOTH</desc>
<path d="M44446428 98110714
L44375000 98182142
L44160714 98253571
L44017857 98253571
L43803571 98182142
L43660714 98039285
L43589285 97896428
L43517857 97610714
L43517857 97396428
L43589285 97110714
L43660714 96967857
L43803571 96825000
L44017857 96753571
L44160714 96753571
L44375000 96825000
L44446428 96896428
" />
<path d="M45375000 96753571
L45660714 96753571
L45803571 96825000
L45946428 96967857
L46017857 97253571
L46017857 97753571
L45946428 98039285
L45803571 98182142
L45660714 98253571
L45375000 98253571
L45232142 98182142
L45089285 98039285
L45017857 97753571
L45017857 97253571
L45089285 96967857
L45232142 96825000
L45375000 96753571
" />
<path d="M47375000 98253571
L46660714 98253571
L46660714 96753571
" />
<path d="M48160714 96753571
L48446428 96753571
L48589285 96825000
L48732142 96967857
L48803571 97253571
L48803571 97753571
L48732142 98039285
L48589285 98182142
L48446428 98253571
L48160714 98253571
L48017857 98182142
L47875000 98039285
L47803571 97753571
L47803571 97253571
L47875000 96967857
L48017857 96825000
L48160714 96753571
" />
<path d="M50303571 98253571
L49803571 97539285
" />
<path d="M49446428 98253571
L49446428 96753571
L50017857 96753571
L50160714 96825000
L50232142 96896428
L50303571 97039285
L50303571 97253571
L50232142 97396428
L50160714 97467857
L50017857 97539285
L49446428 97539285
" />
<path d="M50589285 98396428
L51732142 98396428
" />
<path d="M52589285 97467857
L52803571 97539285
L52875000 97610714
L52946428 97753571
L52946428 97967857
L52875000 98110714
L52803571 98182142
L52660714 98253571
L52089285 98253571
L52089285 96753571
L52589285 96753571
L52732142 96825000
L52803571 96896428
L52875000 97039285
L52875000 97182142
L52803571 97325000
L52732142 97396428
L52589285 97467857
L52089285 97467857
" />
<path d="M53875000 96753571
L54160714 96753571
L54303571 96825000
L54446428 96967857
L54517857 97253571
L54517857 97753571
L54446428 98039285
L54303571 98182142
L54160714 98253571
L53875000 98253571
L53732142 98182142
L53589285 98039285
L53517857 97753571
L53517857 97253571
L53589285 96967857
L53732142 96825000
L53875000 96753571
" />
<path d="M54946428 96753571
L55803571 96753571
" />
<path d="M55375000 98253571
L55375000 96753571
" />
<path d="M56303571 98253571
L56303571 96753571
" />
<path d="M56303571 97467857
L57160714 97467857
" />
<path d="M57160714 98253571
L57160714 96753571
" />
</g></g>
<g style="fill:#000000; fill-opacity:0.0; 
stroke:#000000; stroke-width:450000.000000; stroke-opacity:1; 
stroke-linecap:round; stroke-linejoin:round;">
<text x="77275000.000000" y="17475000.000000"
textLength="19426429.000000" font-size="3200000.000000" lengthAdjust="spacingAndGlyphs"
text-anchor="middle" opacity="0">VIDEO_OUT</text>
<g class="stroked-text"><desc>VIDEO_OUT</desc>
<path d="M68017857 14960714
L68817857 17360714
L69617857 14960714
" />
<path d="M70417857 17360714
L70417857 14960714
" />
<path d="M71560714 17360714
L71560714 14960714
L72132142 14960714
L72475000 15075000
L72703571 15303571
L72817857 15532142
L72932142 15989285
L72932142 16332142
L72817857 16789285
L72703571 17017857
L72475000 17246428
L72132142 17360714
L71560714 17360714
" />
<path d="M73960714 16103571
L74760714 16103571
" />
<path d="M75103571 17360714
L73960714 17360714
L73960714 14960714
L75103571 14960714
" />
<path d="M76589285 14960714
L77046428 14960714
L77275000 15075000
L77503571 15303571
L77617857 15760714
L77617857 16560714
L77503571 17017857
L77275000 17246428
L77046428 17360714
L76589285 17360714
L76360714 17246428
L76132142 17017857
L76017857 16560714
L76017857 15760714
L76132142 15303571
L76360714 15075000
L76589285 14960714
" />
<path d="M78075000 17589285
L79903571 17589285
" />
<path d="M80932142 14960714
L81389285 14960714
L81617857 15075000
L81846428 15303571
L81960714 15760714
L81960714 16560714
L81846428 17017857
L81617857 17246428
L81389285 17360714
L80932142 17360714
L80703571 17246428
L80475000 17017857
L80360714 16560714
L80360714 15760714
L80475000 15303571
L80703571 15075000
L80932142 14960714
" />
<path d="M82989285 14960714
L82989285 16903571
L83103571 17132142
L83217857 17246428
L83446428 17360714
L83903571 17360714
L84132142 17246428
L84246428 17132142
L84360714 16903571
L84360714 14960714
" />
<path d="M85160714 14960714
L86532142 14960714
" />
<path d="M85846428 17360714
L85846428 14960714
" />
</g></g>
<g style="fill:#000000; fill-opacity:0.0; 
stroke:#000000; stroke-width:200000.000000; stroke-opacity:1; 
stroke-linecap:round; stroke-linejoin:round;">
<g transform="rotate(-90.000000 92775000.000000 63875000.000000)">
<text x="92775000.000000" y="64375000.000000"
textLength="13442143.000000" font-size="1333333.000000" lengthAdjust="spacingAndGlyphs"
text-anchor="middle" opacity="0">ALTERNATE LINES</text>
</g>
<g class="stroked-text"><desc>ALTERNATE LINES</desc>
<path d="M92941666 70113095
L92941666 69636904
" />
<path d="M93227380 70208333
L92227380 69875000
L93227380 69541666
" />
<path d="M93227380 68732142
L93227380 69208333
L92227380 69208333
" />
<path d="M92227380 68541666
L92227380 67970238
" />
<path d="M93227380 68255952
L92227380 68255952
" />
<path d="M92703571 67636904
L92703571 67303571
" />
<path d="M93227380 67160714
L93227380 67636904
L92227380 67636904
L92227380 67160714
" />
<path d="M93227380 66160714
L92751190 66494047
" />
<path d="M93227380 66732142
L92227380 66732142
L92227380 66351190
L92275000 66255952
L92322619 66208333
L92417857 66160714
L92560714 66160714
L92655952 66208333
L92703571 66255952
L92751190 66351190
L92751190 66732142
" />
<path d="M93227380 65732142
L92227380 65732142
L93227380 65160714
L92227380 65160714
" />
<path d="M92941666 64732142
L92941666 64255952
" />
<path d="M93227380 64827380
L92227380 64494047
L93227380 64160714
" />
<path d="M92227380 63970238
L92227380 63398809
" />
<path d="M93227380 63684523
L92227380 63684523
" />
<path d="M92703571 63065476
L92703571 62732142
" />
<path d="M93227380 62589285
L93227380 63065476
L92227380 63065476
L92227380 62589285
" />
<path d="M93227380 60922619
L93227380 61398809
L92227380 61398809
" />
<path d="M93227380 60589285
L92227380 60589285
" />
<path d="M93227380 60113095
L92227380 60113095
L93227380 59541666
L92227380 59541666
" />
<path d="M92703571 59065476
L92703571 58732142
" />
<path d="M93227380 58589285
L93227380 59065476
L92227380 59065476
L92227380 58589285
" />
<path d="M93179761 58208333
L93227380 58065476
L93227380 57827380
L93179761 57732142
L93132142 57684523
L93036904 57636904
L92941666 57636904
L92846428 57684523
L92798809 57732142
L92751190 57827380
L92703571 58017857
L92655952 58113095
L92608333 58160714
L92513095 58208333
L92417857 58208333
L92322619 58160714
L92275000 58113095
L92227380 58017857
L92227380 57779761
L92275000 57636904
" />
</g><text x="96975000.000000" y="56575000.000000"
textLength="3021905.000000" font-size="1333333.000000" lengthAdjust="spacingAndGlyphs"
text-anchor="middle" opacity="0">OFF</text>
<g class="stroked-text"><desc>OFF</desc>
<path d="M96022619 55527380
L96213095 55527380
L96308333 55575000
L96403571 55670238
L96451190 55860714
L96451190 56194047
L96403571 56384523
L96308333 56479761
L96213095 56527380
L96022619 56527380
L95927380 56479761
L95832142 56384523
L95784523 56194047
L95784523 55860714
L95832142 55670238
L95927380 55575000
L96022619 55527380
" />
<path d="M97213095 56003571
L96879761 56003571
" />
<path d="M96879761 56527380
L96879761 55527380
L97355952 55527380
" />
<path d="M98070238 56003571
L97736904 56003571
" />
<path d="M97736904 56527380
L97736904 55527380
L98213095 55527380
" />
</g><g >
</g>
<g >
</g>
<g >
</g>
</g> 
</svg>
