<?xml version="1.0" standalone="no"?>
 <!DOCTYPE svg PUBLIC "-//W3C//DTD SVG 1.1//EN" 
 "http://www.w3.org/Graphics/SVG/1.1/DTD/svg11.dtd"> 
<svg
  xmlns:svg="http://www.w3.org/2000/svg"
  xmlns="http://www.w3.org/2000/svg"
  xmlns:xlink="http://www.w3.org/1999/xlink"
  version="1.1"
  width="100.1268mm" height="100.1268mm" viewBox="0.0000 0.0000 100.1268 100.1268">
<title>SVG Image created as default_panel-Edge_Cuts.svg date 2024/05/13 13:44:26 </title>
  <desc>Image generated by PCBNEW </desc>
<g style="fill:#000000; fill-opacity:1.0000;stroke:#000000; stroke-opacity:1.0000;
stroke-linecap:round; stroke-linejoin:round;"
 transform="translate(0 0) scale(1 1)">
</g>
<g style="fill:#000000; fill-opacity:0.0; 
stroke:#000000; stroke-width:0.0000; stroke-opacity:1; 
stroke-linecap:round; stroke-linejoin:round;">
</g>
<g style="fill:#000000; fill-opacity:1.0000; 
stroke:#000000; stroke-width:0.0212; stroke-opacity:1; 
stroke-linecap:round; stroke-linejoin:round;">
<rect x="-5.000000" y="-5.000000" width="110.150000" height="110.150000" rx="0.000000" />
</g>
<g style="fill:#FFFFFF; fill-opacity:1.0000; 
stroke:#FFFFFF; stroke-width:0.0212; stroke-opacity:1; 
stroke-linecap:round; stroke-linejoin:round;">
</g>
<g style="fill:#FFFFFF; fill-opacity:0.0; 
stroke:#FFFFFF; stroke-width:0.1000; stroke-opacity:1; 
stroke-linecap:round; stroke-linejoin:round;">
<circle cx="6.9750" cy="11.5250" r="6.5000" /> 
<circle cx="28.9750" cy="92.4750" r="4.0000" /> 
</g>
<g style="fill:#FFFFFF; fill-opacity:0.0; 
stroke:#FFFFFF; stroke-width:0.1500; stroke-opacity:1; 
stroke-linecap:round; stroke-linejoin:round;">
<path d="M0.0750 0.0750
L100.0750 0.0750
" />
</g>
<g style="fill:#FFFFFF; fill-opacity:0.0; 
stroke:#FFFFFF; stroke-width:0.1000; stroke-opacity:1; 
stroke-linecap:round; stroke-linejoin:round;">
<circle cx="73.1750" cy="76.3750" r="4.0000" /> 
<circle cx="7.5750" cy="76.8750" r="4.0000" /> 
<circle cx="50.0750" cy="90.9750" r="4.0000" /> 
<circle cx="3.5750" cy="96.5750" r="1.8000" /> 
<path d="M6.4750 70.5750
L0.0750 70.5750
" />
<circle cx="82.9750" cy="90.9750" r="4.0000" /> 
<circle cx="92.7750" cy="76.3750" r="4.0000" /> 
<circle cx="71.5750" cy="92.7750" r="4.0000" /> 
<path d="M0.0750 57.2750
L6.4750 57.2750
" />
<path d="M94.3250 70.4750
L94.3250 57.1750
" />
<circle cx="18.2750" cy="39.0750" r="4.0000" /> 
</g>
<g style="fill:#FFFFFF; fill-opacity:0.0; 
stroke:#FFFFFF; stroke-width:0.1500; stroke-opacity:1; 
stroke-linecap:round; stroke-linejoin:round;">
<path d="M0.0750 100.0750
L0.0750 70.5750
" />
</g>
<g style="fill:#FFFFFF; fill-opacity:0.0; 
stroke:#FFFFFF; stroke-width:0.1000; stroke-opacity:1; 
stroke-linecap:round; stroke-linejoin:round;">
<circle cx="17.8750" cy="90.9750" r="4.0000" /> 
</g>
<g style="fill:#FFFFFF; fill-opacity:0.0; 
stroke:#FFFFFF; stroke-width:0.1500; stroke-opacity:1; 
stroke-linecap:round; stroke-linejoin:round;">
<path d="M100.0750 0.0750
L100.0750 57.1750
" />
<path d="M100.0750 70.4750
L100.0750 100.0750
" />
</g>
<g style="fill:#FFFFFF; fill-opacity:0.0; 
stroke:#FFFFFF; stroke-width:0.1000; stroke-opacity:1; 
stroke-linecap:round; stroke-linejoin:round;">
<circle cx="96.5750" cy="96.5750" r="1.8000" /> 
<circle cx="28.4750" cy="76.8750" r="4.0000" /> 
<path d="M6.4750 57.2750
L6.4750 70.5750
" />
<path d="M94.3250 57.1750
L100.0750 57.1750
" />
</g>
<g style="fill:#FFFFFF; fill-opacity:0.0; 
stroke:#FFFFFF; stroke-width:0.1500; stroke-opacity:1; 
stroke-linecap:round; stroke-linejoin:round;">
<path d="M100.0750 100.0750
L0.0750 100.0750
" />
</g>
<g style="fill:#FFFFFF; fill-opacity:0.0; 
stroke:#FFFFFF; stroke-width:0.1000; stroke-opacity:1; 
stroke-linecap:round; stroke-linejoin:round;">
<path d="M100.0750 70.4750
L94.3250 70.4750
" />
</g>
<g style="fill:#FFFFFF; fill-opacity:0.0; 
stroke:#FFFFFF; stroke-width:0.1500; stroke-opacity:1; 
stroke-linecap:round; stroke-linejoin:round;">
<path d="M0.0750 57.2750
L0.0750 0.0750
" />
</g>
<g style="fill:#FFFFFF; fill-opacity:0.0; 
stroke:#FFFFFF; stroke-width:0.1000; stroke-opacity:1; 
stroke-linecap:round; stroke-linejoin:round;">
<circle cx="96.5750" cy="3.5750" r="1.8000" /> 
<circle cx="81.7750" cy="38.7750" r="4.0000" /> 
<circle cx="33.2750" cy="6.8750" r="4.0000" /> 
<circle cx="3.5750" cy="3.5750" r="1.8000" /> 
<circle cx="93.0750" cy="11.5250" r="6.5000" /> 
<g >
</g>
<g >
</g>
<g >
</g>
</g> 
</svg>
