  0
SECTION
  2
HEADER
  9
$ACADVER
  1
AC1014
  9
$HANDSEED
  5
FFFF
  9
$INSUNITS
 70
     5
  9
$MEASUREMENT
 70
     1
  0
ENDSEC
  0
SECTION
  2
TABLES
  0
TABLE
  2
VPORT
  5
8
330
0
100
AcDbSymbolTable
 70
     4
  0
VPORT
  5
2E
330
8
100
AcDbSymbolTableRecord
100
AcDbViewportTableRecord
  2
*ACTIVE
 70
     0
 10
0.0
 20
0.0
 11
1.0
 21
1.0
 12
210.0
 22
148.5
 13
0.0
 23
0.0
 14
10.0
 24
10.0
 15
10.0
 25
10.0
 16
0.0
 26
0.0
 36
1.0
 17
0.0
 27
0.0
 37
0.0
 40
341.0
 41
1.24
 42
50.0
 43
0.0
 44
0.0
 50
0.0
 51
0.0
 71
     0
 72
   100
 73
     1
 74
     3
 75
     0
 76
     0
 77
     0
 78
     0
  0
ENDTAB
  0
TABLE
  2
LTYPE
  5
5
330
0
100
AcDbSymbolTable
 70
     1
  0
LTYPE
  5
14
330
5
100
AcDbSymbolTableRecord
100
AcDbLinetypeTableRecord
  2
BYBLOCK
 70
     0
  3

 72
    65
 73
     0
 40
0.0
  0
LTYPE
  5
15
330
5
100
AcDbSymbolTableRecord
100
AcDbLinetypeTableRecord
  2
BYLAYER
 70
     0
  3

 72
    65
 73
     0
 40
0.0
  0
LTYPE
  5
16
330
5
100
AcDbSymbolTableRecord
100
AcDbLinetypeTableRecord
  2
CONTINUOUS
 70
     0
  3
Solid line
 72
    65
 73
     0
 40
0.0
  0
ENDTAB
  0
TABLE
  2
LAYER
  5
2
100
AcDbSymbolTable
 70
1
  0
LAYER
  5
50
100
AcDbSymbolTableRecord
100
AcDbLayerTableRecord
  2
0
 70
0
  6
CONTINUOUS
  0
ENDTAB
  0
TABLE
  2
STYLE
  5
3
330
0
100
AcDbSymbolTable
 70
     1
  0
STYLE
  5
11
330
3
100
AcDbSymbolTableRecord
100
AcDbTextStyleTableRecord
  2
STANDARD
 70
     0
 40
0.0
 41
1.0
 50
0.0
 71
     0
 42
2.5
  3
txt
  4

  0
ENDTAB
  0
TABLE
  2
VIEW
  5
6
330
0
100
AcDbSymbolTable
 70
     0
  0
ENDTAB
  0
TABLE
  2
UCS
  5
7
330
0
100
AcDbSymbolTable
 70
     0
  0
ENDTAB
  0
TABLE
  2
APPID
  5
9
330
0
100
AcDbSymbolTable
 70
     2
  0
APPID
  5
12
330
9
100
AcDbSymbolTableRecord
100
AcDbRegAppTableRecord
  2
ACAD
 70
     0
  0
ENDTAB
  0
TABLE
  2
DIMSTYLE
  5
A
330
0
100
AcDbSymbolTable
 70
     1
  0
DIMSTYLE
105
27
330
A
100
AcDbSymbolTableRecord
100
AcDbDimStyleTableRecord
  2
ISO-25
 70
     0
  3

  4

  5

  6

  7

 40
1.0
 41
2.5
 42
0.625
 43
3.75
 44
1.25
 45
0.0
 46
0.0
 47
0.0
 48
0.0
140
2.5
141
2.5
142
0.0
143
0.03937007874016
144
1.0
145
0.0
146
1.0
147
0.625
 71
     0
 72
     0
 73
     0
 74
     0
 75
     0
 76
     0
 77
     1
 78
     8
170
     0
171
     3
172
     1
173
     0
174
     0
175
     0
176
     0
177
     0
178
     0
270
     2
271
     2
272
     2
273
     2
274
     3
340
11
275
     0
280
     0
281
     0
282
     0
283
     0
284
     8
285
     0
286
     0
287
     3
288
     0
  0
ENDTAB
  0
TABLE
  2
BLOCK_RECORD
  5
1
330
0
100
AcDbSymbolTable
 70
     1
  0
BLOCK_RECORD
  5
1F
330
1
100
AcDbSymbolTableRecord
100
AcDbBlockTableRecord
  2
*MODEL_SPACE
  0
BLOCK_RECORD
  5
1B
330
1
100
AcDbSymbolTableRecord
100
AcDbBlockTableRecord
  2
*PAPER_SPACE
  0
ENDTAB
  0
ENDSEC
  0
SECTION
  2
BLOCKS
  0
BLOCK
  5
20
330
1F
100
AcDbEntity
  8
0
100
AcDbBlockBegin
  2
*MODEL_SPACE
 70
     0
 10
0.0
 20
0.0
 30
0.0
  3
*MODEL_SPACE
  1

  0
ENDBLK
  5
21
330
1F
100
AcDbEntity
  8
0
100
AcDbBlockEnd
  0
BLOCK
  5
1C
330
1B
100
AcDbEntity
 67
     1
  8
0
100
AcDbBlockBegin
  2
*PAPER_SPACE
  1

  0
ENDBLK
  5
1D
330
1B
100
AcDbEntity
 67
     1
  8
0
100
AcDbBlockEnd
  0
ENDSEC
  0
SECTION
  2
ENTITIES
  0
LWPOLYLINE
  5
100
100
AcDbEntity
  8
0
 62
7
100
AcDbPolyline
 90
2
 70
0
 10
0.647500
 20
2.955180
 30
0.0
 10
0.007500
 20
2.955180
 30
0.0
  0
LWPOLYLINE
  5
101
100
AcDbEntity
  8
0
 62
7
100
AcDbPolyline
 90
2
 70
0
 10
0.647500
 20
4.285180
 30
0.0
 10
0.647500
 20
2.955180
 30
0.0
  0
LWPOLYLINE
  5
102
100
AcDbEntity
  8
0
 62
7
100
AcDbPolyline
 90
2
 70
0
 10
0.007500
 20
4.285180
 30
0.0
 10
0.647500
 20
4.285180
 30
0.0
  0
LWPOLYLINE
  5
103
100
AcDbEntity
  8
0
 62
7
100
AcDbPolyline
 90
2
 70
0
 10
0.007500
 20
0.005180
 30
0.0
 10
0.007500
 20
2.955180
 30
0.0
  0
LWPOLYLINE
  5
104
100
AcDbEntity
  8
0
 62
7
100
AcDbPolyline
 90
2
 70
0
 10
9.432500
 20
4.295180
 30
0.0
 10
10.007500
 20
4.295180
 30
0.0
  0
LWPOLYLINE
  5
105
100
AcDbEntity
  8
0
 62
7
100
AcDbPolyline
 90
2
 70
0
 10
9.432500
 20
2.965180
 30
0.0
 10
9.432500
 20
4.295180
 30
0.0
  0
LWPOLYLINE
  5
106
100
AcDbEntity
  8
0
 62
7
100
AcDbPolyline
 90
2
 70
0
 10
10.007500
 20
2.965180
 30
0.0
 10
9.432500
 20
2.965180
 30
0.0
  0
SPLINE
  5
107
100
AcDbEntity
  8
0
 62
7
100
AcDbSpline
 70
8
 71
3
 72
8
 73
4
 74
0
 40
0
 40
0
 40
0
 40
0
 40
1
 40
1
 40
1
 40
1
 10
2.897500
 20
1.165180
 30
0.0
 10
2.676586
 20
1.165180
 30
0.0
 10
2.497500
 20
0.986094
 30
0.0
 10
2.497500
 20
0.765180
 30
0.0
  0
SPLINE
  5
108
100
AcDbEntity
  8
0
 62
7
100
AcDbSpline
 70
8
 71
3
 72
8
 73
4
 74
0
 40
0
 40
0
 40
0
 40
0
 40
1
 40
1
 40
1
 40
1
 10
2.497500
 20
0.765180
 30
0.0
 10
2.497500
 20
0.544266
 30
0.0
 10
2.676586
 20
0.365180
 30
0.0
 10
2.897500
 20
0.365180
 30
0.0
  0
SPLINE
  5
109
100
AcDbEntity
  8
0
 62
7
100
AcDbSpline
 70
8
 71
3
 72
8
 73
4
 74
0
 40
0
 40
0
 40
0
 40
0
 40
1
 40
1
 40
1
 40
1
 10
2.897500
 20
0.365180
 30
0.0
 10
3.118414
 20
0.365180
 30
0.0
 10
3.297500
 20
0.544266
 30
0.0
 10
3.297500
 20
0.765180
 30
0.0
  0
SPLINE
  5
10a
100
AcDbEntity
  8
0
 62
7
100
AcDbSpline
 70
8
 71
3
 72
8
 73
4
 74
0
 40
0
 40
0
 40
0
 40
0
 40
1
 40
1
 40
1
 40
1
 10
3.297500
 20
0.765180
 30
0.0
 10
3.297500
 20
0.871267
 30
0.0
 10
3.255357
 20
0.973008
 30
0.0
 10
3.180343
 20
1.048023
 30
0.0
  0
SPLINE
  5
10b
100
AcDbEntity
  8
0
 62
7
100
AcDbSpline
 70
8
 71
3
 72
8
 73
4
 74
0
 40
0
 40
0
 40
0
 40
0
 40
1
 40
1
 40
1
 40
1
 10
3.180343
 20
1.048023
 30
0.0
 10
3.105328
 20
1.123037
 30
0.0
 10
3.003587
 20
1.165180
 30
0.0
 10
2.897500
 20
1.165180
 30
0.0
  0
LWPOLYLINE
  5
10c
100
AcDbEntity
  8
0
 62
7
100
AcDbPolyline
 90
2
 70
0
 10
10.007500
 20
10.005180
 30
0.0
 10
10.007500
 20
4.295180
 30
0.0
  0
LWPOLYLINE
  5
10d
100
AcDbEntity
  8
0
 62
7
100
AcDbPolyline
 90
1
 70
1
 10
2.897500
 20
1.165180
 30
0.0
  0
SPLINE
  5
10e
100
AcDbEntity
  8
0
 62
7
100
AcDbSpline
 70
8
 71
3
 72
8
 73
4
 74
0
 40
0
 40
0
 40
0
 40
0
 40
1
 40
1
 40
1
 40
1
 10
7.317500
 20
2.775180
 30
0.0
 10
7.155715
 20
2.775180
 30
0.0
 10
7.009861
 20
2.677723
 30
0.0
 10
6.947948
 20
2.528253
 30
0.0
  0
SPLINE
  5
10f
100
AcDbEntity
  8
0
 62
7
100
AcDbSpline
 70
8
 71
3
 72
8
 73
4
 74
0
 40
0
 40
0
 40
0
 40
0
 40
1
 40
1
 40
1
 40
1
 10
6.947948
 20
2.528253
 30
0.0
 10
6.886036
 20
2.378784
 30
0.0
 10
6.920258
 20
2.206736
 30
0.0
 10
7.034657
 20
2.092337
 30
0.0
  0
SPLINE
  5
110
100
AcDbEntity
  8
0
 62
7
100
AcDbSpline
 70
8
 71
3
 72
8
 73
4
 74
0
 40
0
 40
0
 40
0
 40
0
 40
1
 40
1
 40
1
 40
1
 10
7.034657
 20
2.092337
 30
0.0
 10
7.149056
 20
1.977938
 30
0.0
 10
7.321104
 20
1.943716
 30
0.0
 10
7.470573
 20
2.005628
 30
0.0
  0
SPLINE
  5
111
100
AcDbEntity
  8
0
 62
7
100
AcDbSpline
 70
8
 71
3
 72
8
 73
4
 74
0
 40
0
 40
0
 40
0
 40
0
 40
1
 40
1
 40
1
 40
1
 10
7.470573
 20
2.005628
 30
0.0
 10
7.620043
 20
2.067541
 30
0.0
 10
7.717500
 20
2.213395
 30
0.0
 10
7.717500
 20
2.375180
 30
0.0
  0
SPLINE
  5
112
100
AcDbEntity
  8
0
 62
7
100
AcDbSpline
 70
8
 71
3
 72
8
 73
4
 74
0
 40
0
 40
0
 40
0
 40
0
 40
1
 40
1
 40
1
 40
1
 10
7.717500
 20
2.375180
 30
0.0
 10
7.717500
 20
2.481267
 30
0.0
 10
7.675357
 20
2.583008
 30
0.0
 10
7.600343
 20
2.658023
 30
0.0
  0
SPLINE
  5
113
100
AcDbEntity
  8
0
 62
7
100
AcDbSpline
 70
8
 71
3
 72
8
 73
4
 74
0
 40
0
 40
0
 40
0
 40
0
 40
1
 40
1
 40
1
 40
1
 10
7.600343
 20
2.658023
 30
0.0
 10
7.525328
 20
2.733037
 30
0.0
 10
7.423587
 20
2.775180
 30
0.0
 10
7.317500
 20
2.775180
 30
0.0
  0
LWPOLYLINE
  5
114
100
AcDbEntity
  8
0
 62
7
100
AcDbPolyline
 90
2
 70
0
 10
0.007500
 20
10.005180
 30
0.0
 10
10.007500
 20
10.005180
 30
0.0
  0
SPLINE
  5
115
100
AcDbEntity
  8
0
 62
7
100
AcDbSpline
 70
8
 71
3
 72
8
 73
4
 74
0
 40
0
 40
0
 40
0
 40
0
 40
1
 40
1
 40
1
 40
1
 10
0.757500
 20
2.725180
 30
0.0
 10
0.595715
 20
2.725180
 30
0.0
 10
0.449861
 20
2.627723
 30
0.0
 10
0.387948
 20
2.478253
 30
0.0
  0
SPLINE
  5
116
100
AcDbEntity
  8
0
 62
7
100
AcDbSpline
 70
8
 71
3
 72
8
 73
4
 74
0
 40
0
 40
0
 40
0
 40
0
 40
1
 40
1
 40
1
 40
1
 10
0.387948
 20
2.478253
 30
0.0
 10
0.326036
 20
2.328784
 30
0.0
 10
0.360258
 20
2.156736
 30
0.0
 10
0.474657
 20
2.042337
 30
0.0
  0
SPLINE
  5
117
100
AcDbEntity
  8
0
 62
7
100
AcDbSpline
 70
8
 71
3
 72
8
 73
4
 74
0
 40
0
 40
0
 40
0
 40
0
 40
1
 40
1
 40
1
 40
1
 10
0.474657
 20
2.042337
 30
0.0
 10
0.589056
 20
1.927938
 30
0.0
 10
0.761104
 20
1.893716
 30
0.0
 10
0.910573
 20
1.955628
 30
0.0
  0
SPLINE
  5
118
100
AcDbEntity
  8
0
 62
7
100
AcDbSpline
 70
8
 71
3
 72
8
 73
4
 74
0
 40
0
 40
0
 40
0
 40
0
 40
1
 40
1
 40
1
 40
1
 10
0.910573
 20
1.955628
 30
0.0
 10
1.060043
 20
2.017541
 30
0.0
 10
1.157500
 20
2.163395
 30
0.0
 10
1.157500
 20
2.325180
 30
0.0
  0
SPLINE
  5
119
100
AcDbEntity
  8
0
 62
7
100
AcDbSpline
 70
8
 71
3
 72
8
 73
4
 74
0
 40
0
 40
0
 40
0
 40
0
 40
1
 40
1
 40
1
 40
1
 10
1.157500
 20
2.325180
 30
0.0
 10
1.157500
 20
2.431267
 30
0.0
 10
1.115357
 20
2.533008
 30
0.0
 10
1.040343
 20
2.608023
 30
0.0
  0
SPLINE
  5
11a
100
AcDbEntity
  8
0
 62
7
100
AcDbSpline
 70
8
 71
3
 72
8
 73
4
 74
0
 40
0
 40
0
 40
0
 40
0
 40
1
 40
1
 40
1
 40
1
 10
1.040343
 20
2.608023
 30
0.0
 10
0.965328
 20
2.683037
 30
0.0
 10
0.863587
 20
2.725180
 30
0.0
 10
0.757500
 20
2.725180
 30
0.0
  0
LWPOLYLINE
  5
11b
100
AcDbEntity
  8
0
 62
7
100
AcDbPolyline
 90
1
 70
1
 10
7.317500
 20
2.775180
 30
0.0
  0
SPLINE
  5
11c
100
AcDbEntity
  8
0
 62
7
100
AcDbSpline
 70
8
 71
3
 72
8
 73
4
 74
0
 40
0
 40
0
 40
0
 40
0
 40
1
 40
1
 40
1
 40
1
 10
5.007500
 20
1.315180
 30
0.0
 10
4.845715
 20
1.315180
 30
0.0
 10
4.699861
 20
1.217723
 30
0.0
 10
4.637948
 20
1.068253
 30
0.0
  0
SPLINE
  5
11d
100
AcDbEntity
  8
0
 62
7
100
AcDbSpline
 70
8
 71
3
 72
8
 73
4
 74
0
 40
0
 40
0
 40
0
 40
0
 40
1
 40
1
 40
1
 40
1
 10
4.637948
 20
1.068253
 30
0.0
 10
4.576036
 20
0.918784
 30
0.0
 10
4.610258
 20
0.746736
 30
0.0
 10
4.724657
 20
0.632337
 30
0.0
  0
SPLINE
  5
11e
100
AcDbEntity
  8
0
 62
7
100
AcDbSpline
 70
8
 71
3
 72
8
 73
4
 74
0
 40
0
 40
0
 40
0
 40
0
 40
1
 40
1
 40
1
 40
1
 10
4.724657
 20
0.632337
 30
0.0
 10
4.839056
 20
0.517938
 30
0.0
 10
5.011104
 20
0.483716
 30
0.0
 10
5.160573
 20
0.545628
 30
0.0
  0
SPLINE
  5
11f
100
AcDbEntity
  8
0
 62
7
100
AcDbSpline
 70
8
 71
3
 72
8
 73
4
 74
0
 40
0
 40
0
 40
0
 40
0
 40
1
 40
1
 40
1
 40
1
 10
5.160573
 20
0.545628
 30
0.0
 10
5.310043
 20
0.607541
 30
0.0
 10
5.407500
 20
0.753395
 30
0.0
 10
5.407500
 20
0.915180
 30
0.0
  0
SPLINE
  5
120
100
AcDbEntity
  8
0
 62
7
100
AcDbSpline
 70
8
 71
3
 72
8
 73
4
 74
0
 40
0
 40
0
 40
0
 40
0
 40
1
 40
1
 40
1
 40
1
 10
5.407500
 20
0.915180
 30
0.0
 10
5.407500
 20
1.136094
 30
0.0
 10
5.228414
 20
1.315180
 30
0.0
 10
5.007500
 20
1.315180
 30
0.0
  0
LWPOLYLINE
  5
121
100
AcDbEntity
  8
0
 62
7
100
AcDbPolyline
 90
1
 70
1
 10
0.757500
 20
2.725180
 30
0.0
  0
SPLINE
  5
122
100
AcDbEntity
  8
0
 62
7
100
AcDbSpline
 70
8
 71
3
 72
8
 73
4
 74
0
 40
0
 40
0
 40
0
 40
0
 40
1
 40
1
 40
1
 40
1
 10
0.357500
 20
0.535180
 30
0.0
 10
0.284697
 20
0.535180
 30
0.0
 10
0.219062
 20
0.491324
 30
0.0
 10
0.191202
 20
0.424063
 30
0.0
  0
SPLINE
  5
123
100
AcDbEntity
  8
0
 62
7
100
AcDbSpline
 70
8
 71
3
 72
8
 73
4
 74
0
 40
0
 40
0
 40
0
 40
0
 40
1
 40
1
 40
1
 40
1
 10
0.191202
 20
0.424063
 30
0.0
 10
0.163341
 20
0.356802
 30
0.0
 10
0.178741
 20
0.279380
 30
0.0
 10
0.230221
 20
0.227901
 30
0.0
  0
SPLINE
  5
124
100
AcDbEntity
  8
0
 62
7
100
AcDbSpline
 70
8
 71
3
 72
8
 73
4
 74
0
 40
0
 40
0
 40
0
 40
0
 40
1
 40
1
 40
1
 40
1
 10
0.230221
 20
0.227901
 30
0.0
 10
0.281700
 20
0.176421
 30
0.0
 10
0.359122
 20
0.161021
 30
0.0
 10
0.426383
 20
0.188882
 30
0.0
  0
SPLINE
  5
125
100
AcDbEntity
  8
0
 62
7
100
AcDbSpline
 70
8
 71
3
 72
8
 73
4
 74
0
 40
0
 40
0
 40
0
 40
0
 40
1
 40
1
 40
1
 40
1
 10
0.426383
 20
0.188882
 30
0.0
 10
0.493644
 20
0.216742
 30
0.0
 10
0.537500
 20
0.282377
 30
0.0
 10
0.537500
 20
0.355180
 30
0.0
  0
SPLINE
  5
126
100
AcDbEntity
  8
0
 62
7
100
AcDbSpline
 70
8
 71
3
 72
8
 73
4
 74
0
 40
0
 40
0
 40
0
 40
0
 40
1
 40
1
 40
1
 40
1
 10
0.537500
 20
0.355180
 30
0.0
 10
0.537500
 20
0.454591
 30
0.0
 10
0.456911
 20
0.535180
 30
0.0
 10
0.357500
 20
0.535180
 30
0.0
  0
LWPOLYLINE
  5
127
100
AcDbEntity
  8
0
 62
7
100
AcDbPolyline
 90
1
 70
1
 10
5.007500
 20
1.315180
 30
0.0
  0
SPLINE
  5
128
100
AcDbEntity
  8
0
 62
7
100
AcDbSpline
 70
8
 71
3
 72
8
 73
4
 74
0
 40
0
 40
0
 40
0
 40
0
 40
1
 40
1
 40
1
 40
1
 10
8.297500
 20
1.315180
 30
0.0
 10
8.135715
 20
1.315180
 30
0.0
 10
7.989861
 20
1.217723
 30
0.0
 10
7.927948
 20
1.068253
 30
0.0
  0
SPLINE
  5
129
100
AcDbEntity
  8
0
 62
7
100
AcDbSpline
 70
8
 71
3
 72
8
 73
4
 74
0
 40
0
 40
0
 40
0
 40
0
 40
1
 40
1
 40
1
 40
1
 10
7.927948
 20
1.068253
 30
0.0
 10
7.866036
 20
0.918784
 30
0.0
 10
7.900258
 20
0.746736
 30
0.0
 10
8.014657
 20
0.632337
 30
0.0
  0
SPLINE
  5
12a
100
AcDbEntity
  8
0
 62
7
100
AcDbSpline
 70
8
 71
3
 72
8
 73
4
 74
0
 40
0
 40
0
 40
0
 40
0
 40
1
 40
1
 40
1
 40
1
 10
8.014657
 20
0.632337
 30
0.0
 10
8.129056
 20
0.517938
 30
0.0
 10
8.301104
 20
0.483716
 30
0.0
 10
8.450573
 20
0.545628
 30
0.0
  0
SPLINE
  5
12b
100
AcDbEntity
  8
0
 62
7
100
AcDbSpline
 70
8
 71
3
 72
8
 73
4
 74
0
 40
0
 40
0
 40
0
 40
0
 40
1
 40
1
 40
1
 40
1
 10
8.450573
 20
0.545628
 30
0.0
 10
8.600043
 20
0.607541
 30
0.0
 10
8.697500
 20
0.753395
 30
0.0
 10
8.697500
 20
0.915180
 30
0.0
  0
SPLINE
  5
12c
100
AcDbEntity
  8
0
 62
7
100
AcDbSpline
 70
8
 71
3
 72
8
 73
4
 74
0
 40
0
 40
0
 40
0
 40
0
 40
1
 40
1
 40
1
 40
1
 10
8.697500
 20
0.915180
 30
0.0
 10
8.697500
 20
1.021267
 30
0.0
 10
8.655357
 20
1.123008
 30
0.0
 10
8.580343
 20
1.198023
 30
0.0
  0
SPLINE
  5
12d
100
AcDbEntity
  8
0
 62
7
100
AcDbSpline
 70
8
 71
3
 72
8
 73
4
 74
0
 40
0
 40
0
 40
0
 40
0
 40
1
 40
1
 40
1
 40
1
 10
8.580343
 20
1.198023
 30
0.0
 10
8.505328
 20
1.273037
 30
0.0
 10
8.403587
 20
1.315180
 30
0.0
 10
8.297500
 20
1.315180
 30
0.0
  0
LWPOLYLINE
  5
12e
100
AcDbEntity
  8
0
 62
7
100
AcDbPolyline
 90
1
 70
1
 10
0.357500
 20
0.535180
 30
0.0
  0
SPLINE
  5
12f
100
AcDbEntity
  8
0
 62
7
100
AcDbSpline
 70
8
 71
3
 72
8
 73
4
 74
0
 40
0
 40
0
 40
0
 40
0
 40
1
 40
1
 40
1
 40
1
 10
9.277500
 20
2.775180
 30
0.0
 10
9.115715
 20
2.775180
 30
0.0
 10
8.969861
 20
2.677723
 30
0.0
 10
8.907948
 20
2.528253
 30
0.0
  0
SPLINE
  5
130
100
AcDbEntity
  8
0
 62
7
100
AcDbSpline
 70
8
 71
3
 72
8
 73
4
 74
0
 40
0
 40
0
 40
0
 40
0
 40
1
 40
1
 40
1
 40
1
 10
8.907948
 20
2.528253
 30
0.0
 10
8.846036
 20
2.378784
 30
0.0
 10
8.880258
 20
2.206736
 30
0.0
 10
8.994657
 20
2.092337
 30
0.0
  0
SPLINE
  5
131
100
AcDbEntity
  8
0
 62
7
100
AcDbSpline
 70
8
 71
3
 72
8
 73
4
 74
0
 40
0
 40
0
 40
0
 40
0
 40
1
 40
1
 40
1
 40
1
 10
8.994657
 20
2.092337
 30
0.0
 10
9.109056
 20
1.977938
 30
0.0
 10
9.281104
 20
1.943716
 30
0.0
 10
9.430573
 20
2.005628
 30
0.0
  0
SPLINE
  5
132
100
AcDbEntity
  8
0
 62
7
100
AcDbSpline
 70
8
 71
3
 72
8
 73
4
 74
0
 40
0
 40
0
 40
0
 40
0
 40
1
 40
1
 40
1
 40
1
 10
9.430573
 20
2.005628
 30
0.0
 10
9.580043
 20
2.067541
 30
0.0
 10
9.677500
 20
2.213395
 30
0.0
 10
9.677500
 20
2.375180
 30
0.0
  0
SPLINE
  5
133
100
AcDbEntity
  8
0
 62
7
100
AcDbSpline
 70
8
 71
3
 72
8
 73
4
 74
0
 40
0
 40
0
 40
0
 40
0
 40
1
 40
1
 40
1
 40
1
 10
9.677500
 20
2.375180
 30
0.0
 10
9.677500
 20
2.596094
 30
0.0
 10
9.498414
 20
2.775180
 30
0.0
 10
9.277500
 20
2.775180
 30
0.0
  0
LWPOLYLINE
  5
134
100
AcDbEntity
  8
0
 62
7
100
AcDbPolyline
 90
1
 70
1
 10
8.297500
 20
1.315180
 30
0.0
  0
SPLINE
  5
135
100
AcDbEntity
  8
0
 62
7
100
AcDbSpline
 70
8
 71
3
 72
8
 73
4
 74
0
 40
0
 40
0
 40
0
 40
0
 40
1
 40
1
 40
1
 40
1
 10
7.157500
 20
1.135180
 30
0.0
 10
6.995715
 20
1.135180
 30
0.0
 10
6.849861
 20
1.037723
 30
0.0
 10
6.787948
 20
0.888253
 30
0.0
  0
SPLINE
  5
136
100
AcDbEntity
  8
0
 62
7
100
AcDbSpline
 70
8
 71
3
 72
8
 73
4
 74
0
 40
0
 40
0
 40
0
 40
0
 40
1
 40
1
 40
1
 40
1
 10
6.787948
 20
0.888253
 30
0.0
 10
6.726036
 20
0.738784
 30
0.0
 10
6.760258
 20
0.566736
 30
0.0
 10
6.874657
 20
0.452337
 30
0.0
  0
SPLINE
  5
137
100
AcDbEntity
  8
0
 62
7
100
AcDbSpline
 70
8
 71
3
 72
8
 73
4
 74
0
 40
0
 40
0
 40
0
 40
0
 40
1
 40
1
 40
1
 40
1
 10
6.874657
 20
0.452337
 30
0.0
 10
6.989056
 20
0.337938
 30
0.0
 10
7.161104
 20
0.303716
 30
0.0
 10
7.310573
 20
0.365628
 30
0.0
  0
SPLINE
  5
138
100
AcDbEntity
  8
0
 62
7
100
AcDbSpline
 70
8
 71
3
 72
8
 73
4
 74
0
 40
0
 40
0
 40
0
 40
0
 40
1
 40
1
 40
1
 40
1
 10
7.310573
 20
0.365628
 30
0.0
 10
7.460043
 20
0.427541
 30
0.0
 10
7.557500
 20
0.573395
 30
0.0
 10
7.557500
 20
0.735180
 30
0.0
  0
SPLINE
  5
139
100
AcDbEntity
  8
0
 62
7
100
AcDbSpline
 70
8
 71
3
 72
8
 73
4
 74
0
 40
0
 40
0
 40
0
 40
0
 40
1
 40
1
 40
1
 40
1
 10
7.557500
 20
0.735180
 30
0.0
 10
7.557500
 20
0.841267
 30
0.0
 10
7.515357
 20
0.943008
 30
0.0
 10
7.440343
 20
1.018023
 30
0.0
  0
SPLINE
  5
13a
100
AcDbEntity
  8
0
 62
7
100
AcDbSpline
 70
8
 71
3
 72
8
 73
4
 74
0
 40
0
 40
0
 40
0
 40
0
 40
1
 40
1
 40
1
 40
1
 10
7.440343
 20
1.018023
 30
0.0
 10
7.365328
 20
1.093037
 30
0.0
 10
7.263587
 20
1.135180
 30
0.0
 10
7.157500
 20
1.135180
 30
0.0
  0
LWPOLYLINE
  5
13b
100
AcDbEntity
  8
0
 62
7
100
AcDbPolyline
 90
1
 70
1
 10
9.277500
 20
2.775180
 30
0.0
  0
SPLINE
  5
13c
100
AcDbEntity
  8
0
 62
7
100
AcDbSpline
 70
8
 71
3
 72
8
 73
4
 74
0
 40
0
 40
0
 40
0
 40
0
 40
1
 40
1
 40
1
 40
1
 10
1.827500
 20
6.505180
 30
0.0
 10
1.665715
 20
6.505180
 30
0.0
 10
1.519861
 20
6.407723
 30
0.0
 10
1.457948
 20
6.258253
 30
0.0
  0
SPLINE
  5
13d
100
AcDbEntity
  8
0
 62
7
100
AcDbSpline
 70
8
 71
3
 72
8
 73
4
 74
0
 40
0
 40
0
 40
0
 40
0
 40
1
 40
1
 40
1
 40
1
 10
1.457948
 20
6.258253
 30
0.0
 10
1.396036
 20
6.108784
 30
0.0
 10
1.430258
 20
5.936736
 30
0.0
 10
1.544657
 20
5.822337
 30
0.0
  0
SPLINE
  5
13e
100
AcDbEntity
  8
0
 62
7
100
AcDbSpline
 70
8
 71
3
 72
8
 73
4
 74
0
 40
0
 40
0
 40
0
 40
0
 40
1
 40
1
 40
1
 40
1
 10
1.544657
 20
5.822337
 30
0.0
 10
1.659056
 20
5.707938
 30
0.0
 10
1.831104
 20
5.673716
 30
0.0
 10
1.980573
 20
5.735628
 30
0.0
  0
SPLINE
  5
13f
100
AcDbEntity
  8
0
 62
7
100
AcDbSpline
 70
8
 71
3
 72
8
 73
4
 74
0
 40
0
 40
0
 40
0
 40
0
 40
1
 40
1
 40
1
 40
1
 10
1.980573
 20
5.735628
 30
0.0
 10
2.130043
 20
5.797541
 30
0.0
 10
2.227500
 20
5.943395
 30
0.0
 10
2.227500
 20
6.105180
 30
0.0
  0
SPLINE
  5
140
100
AcDbEntity
  8
0
 62
7
100
AcDbSpline
 70
8
 71
3
 72
8
 73
4
 74
0
 40
0
 40
0
 40
0
 40
0
 40
1
 40
1
 40
1
 40
1
 10
2.227500
 20
6.105180
 30
0.0
 10
2.227500
 20
6.211267
 30
0.0
 10
2.185357
 20
6.313008
 30
0.0
 10
2.110343
 20
6.388023
 30
0.0
  0
SPLINE
  5
141
100
AcDbEntity
  8
0
 62
7
100
AcDbSpline
 70
8
 71
3
 72
8
 73
4
 74
0
 40
0
 40
0
 40
0
 40
0
 40
1
 40
1
 40
1
 40
1
 10
2.110343
 20
6.388023
 30
0.0
 10
2.035328
 20
6.463037
 30
0.0
 10
1.933587
 20
6.505180
 30
0.0
 10
1.827500
 20
6.505180
 30
0.0
  0
LWPOLYLINE
  5
142
100
AcDbEntity
  8
0
 62
7
100
AcDbPolyline
 90
1
 70
1
 10
7.157500
 20
1.135180
 30
0.0
  0
SPLINE
  5
143
100
AcDbEntity
  8
0
 62
7
100
AcDbSpline
 70
8
 71
3
 72
8
 73
4
 74
0
 40
0
 40
0
 40
0
 40
0
 40
1
 40
1
 40
1
 40
1
 10
1.787500
 20
1.315180
 30
0.0
 10
1.625715
 20
1.315180
 30
0.0
 10
1.479861
 20
1.217723
 30
0.0
 10
1.417948
 20
1.068253
 30
0.0
  0
SPLINE
  5
144
100
AcDbEntity
  8
0
 62
7
100
AcDbSpline
 70
8
 71
3
 72
8
 73
4
 74
0
 40
0
 40
0
 40
0
 40
0
 40
1
 40
1
 40
1
 40
1
 10
1.417948
 20
1.068253
 30
0.0
 10
1.356036
 20
0.918784
 30
0.0
 10
1.390258
 20
0.746736
 30
0.0
 10
1.504657
 20
0.632337
 30
0.0
  0
SPLINE
  5
145
100
AcDbEntity
  8
0
 62
7
100
AcDbSpline
 70
8
 71
3
 72
8
 73
4
 74
0
 40
0
 40
0
 40
0
 40
0
 40
1
 40
1
 40
1
 40
1
 10
1.504657
 20
0.632337
 30
0.0
 10
1.619056
 20
0.517938
 30
0.0
 10
1.791104
 20
0.483716
 30
0.0
 10
1.940573
 20
0.545628
 30
0.0
  0
SPLINE
  5
146
100
AcDbEntity
  8
0
 62
7
100
AcDbSpline
 70
8
 71
3
 72
8
 73
4
 74
0
 40
0
 40
0
 40
0
 40
0
 40
1
 40
1
 40
1
 40
1
 10
1.940573
 20
0.545628
 30
0.0
 10
2.090043
 20
0.607541
 30
0.0
 10
2.187500
 20
0.753395
 30
0.0
 10
2.187500
 20
0.915180
 30
0.0
  0
SPLINE
  5
147
100
AcDbEntity
  8
0
 62
7
100
AcDbSpline
 70
8
 71
3
 72
8
 73
4
 74
0
 40
0
 40
0
 40
0
 40
0
 40
1
 40
1
 40
1
 40
1
 10
2.187500
 20
0.915180
 30
0.0
 10
2.187500
 20
1.021267
 30
0.0
 10
2.145357
 20
1.123008
 30
0.0
 10
2.070343
 20
1.198023
 30
0.0
  0
SPLINE
  5
148
100
AcDbEntity
  8
0
 62
7
100
AcDbSpline
 70
8
 71
3
 72
8
 73
4
 74
0
 40
0
 40
0
 40
0
 40
0
 40
1
 40
1
 40
1
 40
1
 10
2.070343
 20
1.198023
 30
0.0
 10
1.995328
 20
1.273037
 30
0.0
 10
1.893587
 20
1.315180
 30
0.0
 10
1.787500
 20
1.315180
 30
0.0
  0
LWPOLYLINE
  5
149
100
AcDbEntity
  8
0
 62
7
100
AcDbPolyline
 90
1
 70
1
 10
1.827500
 20
6.505180
 30
0.0
  0
LWPOLYLINE
  5
14a
100
AcDbEntity
  8
0
 62
7
100
AcDbPolyline
 90
1
 70
1
 10
1.787500
 20
1.315180
 30
0.0
  0
SPLINE
  5
14b
100
AcDbEntity
  8
0
 62
7
100
AcDbSpline
 70
8
 71
3
 72
8
 73
4
 74
0
 40
0
 40
0
 40
0
 40
0
 40
1
 40
1
 40
1
 40
1
 10
9.657500
 20
0.535180
 30
0.0
 10
9.584697
 20
0.535180
 30
0.0
 10
9.519062
 20
0.491324
 30
0.0
 10
9.491202
 20
0.424063
 30
0.0
  0
SPLINE
  5
14c
100
AcDbEntity
  8
0
 62
7
100
AcDbSpline
 70
8
 71
3
 72
8
 73
4
 74
0
 40
0
 40
0
 40
0
 40
0
 40
1
 40
1
 40
1
 40
1
 10
9.491202
 20
0.424063
 30
0.0
 10
9.463341
 20
0.356802
 30
0.0
 10
9.478741
 20
0.279380
 30
0.0
 10
9.530221
 20
0.227901
 30
0.0
  0
SPLINE
  5
14d
100
AcDbEntity
  8
0
 62
7
100
AcDbSpline
 70
8
 71
3
 72
8
 73
4
 74
0
 40
0
 40
0
 40
0
 40
0
 40
1
 40
1
 40
1
 40
1
 10
9.530221
 20
0.227901
 30
0.0
 10
9.581700
 20
0.176421
 30
0.0
 10
9.659122
 20
0.161021
 30
0.0
 10
9.726383
 20
0.188882
 30
0.0
  0
SPLINE
  5
14e
100
AcDbEntity
  8
0
 62
7
100
AcDbSpline
 70
8
 71
3
 72
8
 73
4
 74
0
 40
0
 40
0
 40
0
 40
0
 40
1
 40
1
 40
1
 40
1
 10
9.726383
 20
0.188882
 30
0.0
 10
9.793644
 20
0.216742
 30
0.0
 10
9.837500
 20
0.282377
 30
0.0
 10
9.837500
 20
0.355180
 30
0.0
  0
SPLINE
  5
14f
100
AcDbEntity
  8
0
 62
7
100
AcDbSpline
 70
8
 71
3
 72
8
 73
4
 74
0
 40
0
 40
0
 40
0
 40
0
 40
1
 40
1
 40
1
 40
1
 10
9.837500
 20
0.355180
 30
0.0
 10
9.837500
 20
0.402919
 30
0.0
 10
9.818536
 20
0.448703
 30
0.0
 10
9.784779
 20
0.482459
 30
0.0
  0
SPLINE
  5
150
100
AcDbEntity
  8
0
 62
7
100
AcDbSpline
 70
8
 71
3
 72
8
 73
4
 74
0
 40
0
 40
0
 40
0
 40
0
 40
1
 40
1
 40
1
 40
1
 10
9.784779
 20
0.482459
 30
0.0
 10
9.751023
 20
0.516216
 30
0.0
 10
9.705239
 20
0.535180
 30
0.0
 10
9.657500
 20
0.535180
 30
0.0
  0
LWPOLYLINE
  5
151
100
AcDbEntity
  8
0
 62
7
100
AcDbPolyline
 90
2
 70
0
 10
10.007500
 20
2.965180
 30
0.0
 10
10.007500
 20
0.005180
 30
0.0
  0
SPLINE
  5
152
100
AcDbEntity
  8
0
 62
7
100
AcDbSpline
 70
8
 71
3
 72
8
 73
4
 74
0
 40
0
 40
0
 40
0
 40
0
 40
1
 40
1
 40
1
 40
1
 10
2.847500
 20
2.725180
 30
0.0
 10
2.626586
 20
2.725180
 30
0.0
 10
2.447500
 20
2.546094
 30
0.0
 10
2.447500
 20
2.325180
 30
0.0
  0
SPLINE
  5
153
100
AcDbEntity
  8
0
 62
7
100
AcDbSpline
 70
8
 71
3
 72
8
 73
4
 74
0
 40
0
 40
0
 40
0
 40
0
 40
1
 40
1
 40
1
 40
1
 10
2.447500
 20
2.325180
 30
0.0
 10
2.447500
 20
2.104266
 30
0.0
 10
2.626586
 20
1.925180
 30
0.0
 10
2.847500
 20
1.925180
 30
0.0
  0
SPLINE
  5
154
100
AcDbEntity
  8
0
 62
7
100
AcDbSpline
 70
8
 71
3
 72
8
 73
4
 74
0
 40
0
 40
0
 40
0
 40
0
 40
1
 40
1
 40
1
 40
1
 10
2.847500
 20
1.925180
 30
0.0
 10
3.068414
 20
1.925180
 30
0.0
 10
3.247500
 20
2.104266
 30
0.0
 10
3.247500
 20
2.325180
 30
0.0
  0
SPLINE
  5
155
100
AcDbEntity
  8
0
 62
7
100
AcDbSpline
 70
8
 71
3
 72
8
 73
4
 74
0
 40
0
 40
0
 40
0
 40
0
 40
1
 40
1
 40
1
 40
1
 10
3.247500
 20
2.325180
 30
0.0
 10
3.247500
 20
2.431267
 30
0.0
 10
3.205357
 20
2.533008
 30
0.0
 10
3.130343
 20
2.608023
 30
0.0
  0
SPLINE
  5
156
100
AcDbEntity
  8
0
 62
7
100
AcDbSpline
 70
8
 71
3
 72
8
 73
4
 74
0
 40
0
 40
0
 40
0
 40
0
 40
1
 40
1
 40
1
 40
1
 10
3.130343
 20
2.608023
 30
0.0
 10
3.055328
 20
2.683037
 30
0.0
 10
2.953587
 20
2.725180
 30
0.0
 10
2.847500
 20
2.725180
 30
0.0
  0
LWPOLYLINE
  5
157
100
AcDbEntity
  8
0
 62
7
100
AcDbPolyline
 90
1
 70
1
 10
9.657500
 20
0.535180
 30
0.0
  0
LWPOLYLINE
  5
158
100
AcDbEntity
  8
0
 62
7
100
AcDbPolyline
 90
1
 70
1
 10
2.847500
 20
2.725180
 30
0.0
  0
LWPOLYLINE
  5
159
100
AcDbEntity
  8
0
 62
7
100
AcDbPolyline
 90
2
 70
0
 10
10.007500
 20
0.005180
 30
0.0
 10
0.007500
 20
0.005180
 30
0.0
  0
SPLINE
  5
15a
100
AcDbEntity
  8
0
 62
7
100
AcDbSpline
 70
8
 71
3
 72
8
 73
4
 74
0
 40
0
 40
0
 40
0
 40
0
 40
1
 40
1
 40
1
 40
1
 10
9.657500
 20
9.835180
 30
0.0
 10
9.584697
 20
9.835180
 30
0.0
 10
9.519062
 20
9.791324
 30
0.0
 10
9.491202
 20
9.724063
 30
0.0
  0
SPLINE
  5
15b
100
AcDbEntity
  8
0
 62
7
100
AcDbSpline
 70
8
 71
3
 72
8
 73
4
 74
0
 40
0
 40
0
 40
0
 40
0
 40
1
 40
1
 40
1
 40
1
 10
9.491202
 20
9.724063
 30
0.0
 10
9.463341
 20
9.656802
 30
0.0
 10
9.478741
 20
9.579380
 30
0.0
 10
9.530221
 20
9.527901
 30
0.0
  0
SPLINE
  5
15c
100
AcDbEntity
  8
0
 62
7
100
AcDbSpline
 70
8
 71
3
 72
8
 73
4
 74
0
 40
0
 40
0
 40
0
 40
0
 40
1
 40
1
 40
1
 40
1
 10
9.530221
 20
9.527901
 30
0.0
 10
9.581700
 20
9.476421
 30
0.0
 10
9.659122
 20
9.461021
 30
0.0
 10
9.726383
 20
9.488882
 30
0.0
  0
SPLINE
  5
15d
100
AcDbEntity
  8
0
 62
7
100
AcDbSpline
 70
8
 71
3
 72
8
 73
4
 74
0
 40
0
 40
0
 40
0
 40
0
 40
1
 40
1
 40
1
 40
1
 10
9.726383
 20
9.488882
 30
0.0
 10
9.793644
 20
9.516742
 30
0.0
 10
9.837500
 20
9.582377
 30
0.0
 10
9.837500
 20
9.655180
 30
0.0
  0
SPLINE
  5
15e
100
AcDbEntity
  8
0
 62
7
100
AcDbSpline
 70
8
 71
3
 72
8
 73
4
 74
0
 40
0
 40
0
 40
0
 40
0
 40
1
 40
1
 40
1
 40
1
 10
9.837500
 20
9.655180
 30
0.0
 10
9.837500
 20
9.702919
 30
0.0
 10
9.818536
 20
9.748703
 30
0.0
 10
9.784779
 20
9.782459
 30
0.0
  0
SPLINE
  5
15f
100
AcDbEntity
  8
0
 62
7
100
AcDbSpline
 70
8
 71
3
 72
8
 73
4
 74
0
 40
0
 40
0
 40
0
 40
0
 40
1
 40
1
 40
1
 40
1
 10
9.784779
 20
9.782459
 30
0.0
 10
9.751023
 20
9.816216
 30
0.0
 10
9.705239
 20
9.835180
 30
0.0
 10
9.657500
 20
9.835180
 30
0.0
  0
LWPOLYLINE
  5
160
100
AcDbEntity
  8
0
 62
7
100
AcDbPolyline
 90
2
 70
0
 10
0.007500
 20
4.285180
 30
0.0
 10
0.007500
 20
10.005180
 30
0.0
  0
SPLINE
  5
161
100
AcDbEntity
  8
0
 62
7
100
AcDbSpline
 70
8
 71
3
 72
8
 73
4
 74
0
 40
0
 40
0
 40
0
 40
0
 40
1
 40
1
 40
1
 40
1
 10
8.177500
 20
6.535180
 30
0.0
 10
8.015715
 20
6.535180
 30
0.0
 10
7.869861
 20
6.437723
 30
0.0
 10
7.807948
 20
6.288253
 30
0.0
  0
SPLINE
  5
162
100
AcDbEntity
  8
0
 62
7
100
AcDbSpline
 70
8
 71
3
 72
8
 73
4
 74
0
 40
0
 40
0
 40
0
 40
0
 40
1
 40
1
 40
1
 40
1
 10
7.807948
 20
6.288253
 30
0.0
 10
7.746036
 20
6.138784
 30
0.0
 10
7.780258
 20
5.966736
 30
0.0
 10
7.894657
 20
5.852337
 30
0.0
  0
SPLINE
  5
163
100
AcDbEntity
  8
0
 62
7
100
AcDbSpline
 70
8
 71
3
 72
8
 73
4
 74
0
 40
0
 40
0
 40
0
 40
0
 40
1
 40
1
 40
1
 40
1
 10
7.894657
 20
5.852337
 30
0.0
 10
8.009056
 20
5.737938
 30
0.0
 10
8.181104
 20
5.703716
 30
0.0
 10
8.330573
 20
5.765628
 30
0.0
  0
SPLINE
  5
164
100
AcDbEntity
  8
0
 62
7
100
AcDbSpline
 70
8
 71
3
 72
8
 73
4
 74
0
 40
0
 40
0
 40
0
 40
0
 40
1
 40
1
 40
1
 40
1
 10
8.330573
 20
5.765628
 30
0.0
 10
8.480043
 20
5.827541
 30
0.0
 10
8.577500
 20
5.973395
 30
0.0
 10
8.577500
 20
6.135180
 30
0.0
  0
SPLINE
  5
165
100
AcDbEntity
  8
0
 62
7
100
AcDbSpline
 70
8
 71
3
 72
8
 73
4
 74
0
 40
0
 40
0
 40
0
 40
0
 40
1
 40
1
 40
1
 40
1
 10
8.577500
 20
6.135180
 30
0.0
 10
8.577500
 20
6.356094
 30
0.0
 10
8.398414
 20
6.535180
 30
0.0
 10
8.177500
 20
6.535180
 30
0.0
  0
LWPOLYLINE
  5
166
100
AcDbEntity
  8
0
 62
7
100
AcDbPolyline
 90
1
 70
1
 10
9.657500
 20
9.835180
 30
0.0
  0
SPLINE
  5
167
100
AcDbEntity
  8
0
 62
7
100
AcDbSpline
 70
8
 71
3
 72
8
 73
4
 74
0
 40
0
 40
0
 40
0
 40
0
 40
1
 40
1
 40
1
 40
1
 10
3.327500
 20
9.725180
 30
0.0
 10
3.165715
 20
9.725180
 30
0.0
 10
3.019861
 20
9.627723
 30
0.0
 10
2.957948
 20
9.478253
 30
0.0
  0
SPLINE
  5
168
100
AcDbEntity
  8
0
 62
7
100
AcDbSpline
 70
8
 71
3
 72
8
 73
4
 74
0
 40
0
 40
0
 40
0
 40
0
 40
1
 40
1
 40
1
 40
1
 10
2.957948
 20
9.478253
 30
0.0
 10
2.896036
 20
9.328784
 30
0.0
 10
2.930258
 20
9.156736
 30
0.0
 10
3.044657
 20
9.042337
 30
0.0
  0
SPLINE
  5
169
100
AcDbEntity
  8
0
 62
7
100
AcDbSpline
 70
8
 71
3
 72
8
 73
4
 74
0
 40
0
 40
0
 40
0
 40
0
 40
1
 40
1
 40
1
 40
1
 10
3.044657
 20
9.042337
 30
0.0
 10
3.159056
 20
8.927938
 30
0.0
 10
3.331104
 20
8.893716
 30
0.0
 10
3.480573
 20
8.955628
 30
0.0
  0
SPLINE
  5
16a
100
AcDbEntity
  8
0
 62
7
100
AcDbSpline
 70
8
 71
3
 72
8
 73
4
 74
0
 40
0
 40
0
 40
0
 40
0
 40
1
 40
1
 40
1
 40
1
 10
3.480573
 20
8.955628
 30
0.0
 10
3.630043
 20
9.017541
 30
0.0
 10
3.727500
 20
9.163395
 30
0.0
 10
3.727500
 20
9.325180
 30
0.0
  0
SPLINE
  5
16b
100
AcDbEntity
  8
0
 62
7
100
AcDbSpline
 70
8
 71
3
 72
8
 73
4
 74
0
 40
0
 40
0
 40
0
 40
0
 40
1
 40
1
 40
1
 40
1
 10
3.727500
 20
9.325180
 30
0.0
 10
3.727500
 20
9.431267
 30
0.0
 10
3.685357
 20
9.533008
 30
0.0
 10
3.610343
 20
9.608023
 30
0.0
  0
SPLINE
  5
16c
100
AcDbEntity
  8
0
 62
7
100
AcDbSpline
 70
8
 71
3
 72
8
 73
4
 74
0
 40
0
 40
0
 40
0
 40
0
 40
1
 40
1
 40
1
 40
1
 10
3.610343
 20
9.608023
 30
0.0
 10
3.535328
 20
9.683037
 30
0.0
 10
3.433587
 20
9.725180
 30
0.0
 10
3.327500
 20
9.725180
 30
0.0
  0
LWPOLYLINE
  5
16d
100
AcDbEntity
  8
0
 62
7
100
AcDbPolyline
 90
1
 70
1
 10
8.177500
 20
6.535180
 30
0.0
  0
SPLINE
  5
16e
100
AcDbEntity
  8
0
 62
7
100
AcDbSpline
 70
8
 71
3
 72
8
 73
4
 74
0
 40
0
 40
0
 40
0
 40
0
 40
1
 40
1
 40
1
 40
1
 10
0.357500
 20
9.835180
 30
0.0
 10
0.284697
 20
9.835180
 30
0.0
 10
0.219062
 20
9.791324
 30
0.0
 10
0.191202
 20
9.724063
 30
0.0
  0
SPLINE
  5
16f
100
AcDbEntity
  8
0
 62
7
100
AcDbSpline
 70
8
 71
3
 72
8
 73
4
 74
0
 40
0
 40
0
 40
0
 40
0
 40
1
 40
1
 40
1
 40
1
 10
0.191202
 20
9.724063
 30
0.0
 10
0.163341
 20
9.656802
 30
0.0
 10
0.178741
 20
9.579380
 30
0.0
 10
0.230221
 20
9.527901
 30
0.0
  0
SPLINE
  5
170
100
AcDbEntity
  8
0
 62
7
100
AcDbSpline
 70
8
 71
3
 72
8
 73
4
 74
0
 40
0
 40
0
 40
0
 40
0
 40
1
 40
1
 40
1
 40
1
 10
0.230221
 20
9.527901
 30
0.0
 10
0.281700
 20
9.476421
 30
0.0
 10
0.359122
 20
9.461021
 30
0.0
 10
0.426383
 20
9.488882
 30
0.0
  0
SPLINE
  5
171
100
AcDbEntity
  8
0
 62
7
100
AcDbSpline
 70
8
 71
3
 72
8
 73
4
 74
0
 40
0
 40
0
 40
0
 40
0
 40
1
 40
1
 40
1
 40
1
 10
0.426383
 20
9.488882
 30
0.0
 10
0.493644
 20
9.516742
 30
0.0
 10
0.537500
 20
9.582377
 30
0.0
 10
0.537500
 20
9.655180
 30
0.0
  0
SPLINE
  5
172
100
AcDbEntity
  8
0
 62
7
100
AcDbSpline
 70
8
 71
3
 72
8
 73
4
 74
0
 40
0
 40
0
 40
0
 40
0
 40
1
 40
1
 40
1
 40
1
 10
0.537500
 20
9.655180
 30
0.0
 10
0.537500
 20
9.754591
 30
0.0
 10
0.456911
 20
9.835180
 30
0.0
 10
0.357500
 20
9.835180
 30
0.0
  0
LWPOLYLINE
  5
173
100
AcDbEntity
  8
0
 62
7
100
AcDbPolyline
 90
1
 70
1
 10
3.327500
 20
9.725180
 30
0.0
  0
SPLINE
  5
174
100
AcDbEntity
  8
0
 62
7
100
AcDbSpline
 70
8
 71
3
 72
8
 73
4
 74
0
 40
0
 40
0
 40
0
 40
0
 40
1
 40
1
 40
1
 40
1
 10
0.707500
 20
9.515180
 30
0.0
 10
0.444600
 20
9.515180
 30
0.0
 10
0.207586
 20
9.356813
 30
0.0
 10
0.106978
 20
9.113924
 30
0.0
  0
SPLINE
  5
175
100
AcDbEntity
  8
0
 62
7
100
AcDbSpline
 70
8
 71
3
 72
8
 73
4
 74
0
 40
0
 40
0
 40
0
 40
0
 40
1
 40
1
 40
1
 40
1
 10
0.106978
 20
9.113924
 30
0.0
 10
0.006371
 20
8.871036
 30
0.0
 10
0.061982
 20
8.591459
 30
0.0
 10
0.247881
 20
8.405561
 30
0.0
  0
SPLINE
  5
176
100
AcDbEntity
  8
0
 62
7
100
AcDbSpline
 70
8
 71
3
 72
8
 73
4
 74
0
 40
0
 40
0
 40
0
 40
0
 40
1
 40
1
 40
1
 40
1
 10
0.247881
 20
8.405561
 30
0.0
 10
0.433779
 20
8.219662
 30
0.0
 10
0.713356
 20
8.164051
 30
0.0
 10
0.956244
 20
8.264658
 30
0.0
  0
SPLINE
  5
177
100
AcDbEntity
  8
0
 62
7
100
AcDbSpline
 70
8
 71
3
 72
8
 73
4
 74
0
 40
0
 40
0
 40
0
 40
0
 40
1
 40
1
 40
1
 40
1
 10
0.956244
 20
8.264658
 30
0.0
 10
1.199133
 20
8.365266
 30
0.0
 10
1.357500
 20
8.602280
 30
0.0
 10
1.357500
 20
8.865180
 30
0.0
  0
SPLINE
  5
178
100
AcDbEntity
  8
0
 62
7
100
AcDbSpline
 70
8
 71
3
 72
8
 73
4
 74
0
 40
0
 40
0
 40
0
 40
0
 40
1
 40
1
 40
1
 40
1
 10
1.357500
 20
8.865180
 30
0.0
 10
1.357500
 20
9.037571
 30
0.0
 10
1.289018
 20
9.202901
 30
0.0
 10
1.167119
 20
9.324799
 30
0.0
  0
SPLINE
  5
179
100
AcDbEntity
  8
0
 62
7
100
AcDbSpline
 70
8
 71
3
 72
8
 73
4
 74
0
 40
0
 40
0
 40
0
 40
0
 40
1
 40
1
 40
1
 40
1
 10
1.167119
 20
9.324799
 30
0.0
 10
1.045221
 20
9.446698
 30
0.0
 10
0.879891
 20
9.515180
 30
0.0
 10
0.707500
 20
9.515180
 30
0.0
  0
LWPOLYLINE
  5
17a
100
AcDbEntity
  8
0
 62
7
100
AcDbPolyline
 90
1
 70
1
 10
0.357500
 20
9.835180
 30
0.0
  0
SPLINE
  5
17b
100
AcDbEntity
  8
0
 62
7
100
AcDbSpline
 70
8
 71
3
 72
8
 73
4
 74
0
 40
0
 40
0
 40
0
 40
0
 40
1
 40
1
 40
1
 40
1
 10
9.307500
 20
9.505180
 30
0.0
 10
9.044600
 20
9.505180
 30
0.0
 10
8.807586
 20
9.346813
 30
0.0
 10
8.706978
 20
9.103924
 30
0.0
  0
SPLINE
  5
17c
100
AcDbEntity
  8
0
 62
7
100
AcDbSpline
 70
8
 71
3
 72
8
 73
4
 74
0
 40
0
 40
0
 40
0
 40
0
 40
1
 40
1
 40
1
 40
1
 10
8.706978
 20
9.103924
 30
0.0
 10
8.606371
 20
8.861036
 30
0.0
 10
8.661982
 20
8.581459
 30
0.0
 10
8.847881
 20
8.395561
 30
0.0
  0
SPLINE
  5
17d
100
AcDbEntity
  8
0
 62
7
100
AcDbSpline
 70
8
 71
3
 72
8
 73
4
 74
0
 40
0
 40
0
 40
0
 40
0
 40
1
 40
1
 40
1
 40
1
 10
8.847881
 20
8.395561
 30
0.0
 10
9.033779
 20
8.209662
 30
0.0
 10
9.313356
 20
8.154051
 30
0.0
 10
9.556244
 20
8.254658
 30
0.0
  0
SPLINE
  5
17e
100
AcDbEntity
  8
0
 62
7
100
AcDbSpline
 70
8
 71
3
 72
8
 73
4
 74
0
 40
0
 40
0
 40
0
 40
0
 40
1
 40
1
 40
1
 40
1
 10
9.556244
 20
8.254658
 30
0.0
 10
9.799133
 20
8.355266
 30
0.0
 10
9.957500
 20
8.592280
 30
0.0
 10
9.957500
 20
8.855180
 30
0.0
  0
SPLINE
  5
17f
100
AcDbEntity
  8
0
 62
7
100
AcDbSpline
 70
8
 71
3
 72
8
 73
4
 74
0
 40
0
 40
0
 40
0
 40
0
 40
1
 40
1
 40
1
 40
1
 10
9.957500
 20
8.855180
 30
0.0
 10
9.957500
 20
9.027571
 30
0.0
 10
9.889018
 20
9.192901
 30
0.0
 10
9.767119
 20
9.314799
 30
0.0
  0
SPLINE
  5
180
100
AcDbEntity
  8
0
 62
7
100
AcDbSpline
 70
8
 71
3
 72
8
 73
4
 74
0
 40
0
 40
0
 40
0
 40
0
 40
1
 40
1
 40
1
 40
1
 10
9.767119
 20
9.314799
 30
0.0
 10
9.645221
 20
9.436698
 30
0.0
 10
9.479891
 20
9.505180
 30
0.0
 10
9.307500
 20
9.505180
 30
0.0
  0
LWPOLYLINE
  5
181
100
AcDbEntity
  8
0
 62
7
100
AcDbPolyline
 90
1
 70
1
 10
0.707500
 20
9.515180
 30
0.0
  0
LWPOLYLINE
  5
182
100
AcDbEntity
  8
0
 62
7
100
AcDbPolyline
 90
1
 70
1
 10
9.307500
 20
9.505180
 30
0.0
  0
ENDSEC
  0
SECTION
  2
OBJECTS
  0
DICTIONARY
  5
C
330
0
100
AcDbDictionary
  3
ACAD_GROUP
350
D
  3
ACAD_MLINESTYLE
350
17
  0
DICTIONARY
  5
D
330
C
100
AcDbDictionary
  0
DICTIONARY
  5
1A
330
C
100
AcDbDictionary
  0
DICTIONARY
  5
17
330
C
100
AcDbDictionary
  3
STANDARD
350
18
  0
DICTIONARY
  5
19
330
C
100
AcDbDictionary
  0
ENDSEC
  0
EOF
