<?xml version="1.0" standalone="no"?>
 <!DOCTYPE svg PUBLIC "-//W3C//DTD SVG 1.1//EN" 
 "http://www.w3.org/Graphics/SVG/1.1/DTD/svg11.dtd"> 
<svg
  xmlns:svg="http://www.w3.org/2000/svg"
  xmlns="http://www.w3.org/2000/svg"
  xmlns:xlink="http://www.w3.org/1999/xlink"
  version="1.1"
  width="100.1268mm" height="100.1268mm" viewBox="0.0000 0.0000 100.1268 100.1268">
<title>SVG Image created as default_panel-F_Silkscreen.svg date 2024/05/13 13:44:31 </title>
  <desc>Image generated by PCBNEW </desc>
<g style="fill:#000000; fill-opacity:1.0000;stroke:#000000; stroke-opacity:1.0000;
stroke-linecap:round; stroke-linejoin:round;"
 transform="translate(0 0) scale(1 1)">
</g>
<g style="fill:#000000; fill-opacity:0.0; 
stroke:#000000; stroke-width:0.0000; stroke-opacity:1; 
stroke-linecap:round; stroke-linejoin:round;">
</g>
<g style="fill:#000000; fill-opacity:1.0000; 
stroke:#000000; stroke-width:0.0212; stroke-opacity:1; 
stroke-linecap:round; stroke-linejoin:round;">
<rect x="-5.000000" y="-5.000000" width="110.150000" height="110.150000" rx="0.000000" />
</g>
<g style="fill:#FFFFFF; fill-opacity:1.0000; 
stroke:#FFFFFF; stroke-width:0.0212; stroke-opacity:1; 
stroke-linecap:round; stroke-linejoin:round;">
</g>
<g style="fill:#FFFFFF; fill-opacity:1.0000; 
stroke:#FFFFFF; stroke-width:0.3500; stroke-opacity:1; 
stroke-linecap:round; stroke-linejoin:round;">
</g>
<g style="fill:#FFFFFF; fill-opacity:0.0; 
stroke:#FFFFFF; stroke-width:0.3500; stroke-opacity:1; 
stroke-linecap:round; stroke-linejoin:round;">
<path d="M25.9250 88.5750
L24.0250 86.3750
" />
<path d="M34.1250 34.6500
L30.4250 37.9000
" />
<path d="M33.7750 27.1750
L30.5250 23.4750
" />
<path d="M74.7750 89.0750
L77.0750 85.8750
" />
<path d="M81.6750 50.1750
L81.6750 75.7750
" />
<path d="M67.4750 37.9250
L63.7750 34.6750
" />
<path d="M18.4750 50.2750
L18.4750 75.8750
" />
<path d="M66.8250 23.4250
L63.5750 27.1250
" />
</g>
<g style="fill:#FFFFFF; fill-opacity:0.0; 
stroke:#FFFFFF; stroke-width:0.4500; stroke-opacity:1; 
stroke-linecap:round; stroke-linejoin:round;">
<text x="81.6750" y="84.4750"
textLength="21.5557" font-size="3.2000" lengthAdjust="spacingAndGlyphs"
text-anchor="middle" opacity="0">COLOR_TWO</text>
<g class="stroked-text"><desc>COLOR_TWO</desc>
<path d="M73.2750 84.1333
L73.1607 84.2476
" />
<path d="M73.1607 84.2476
L72.8179 84.3619
" />
<path d="M72.8179 84.3619
L72.5893 84.3619
" />
<path d="M72.5893 84.3619
L72.2464 84.2476
" />
<path d="M72.2464 84.2476
L72.0179 84.0190
" />
<path d="M72.0179 84.0190
L71.9036 83.7905
" />
<path d="M71.9036 83.7905
L71.7893 83.3333
" />
<path d="M71.7893 83.3333
L71.7893 82.9905
" />
<path d="M71.7893 82.9905
L71.9036 82.5333
" />
<path d="M71.9036 82.5333
L72.0179 82.3047
" />
<path d="M72.0179 82.3047
L72.2464 82.0762
" />
<path d="M72.2464 82.0762
L72.5893 81.9619
" />
<path d="M72.5893 81.9619
L72.8179 81.9619
" />
<path d="M72.8179 81.9619
L73.1607 82.0762
" />
<path d="M73.1607 82.0762
L73.2750 82.1905
" />
<path d="M74.7607 81.9619
L75.2179 81.9619
" />
<path d="M75.2179 81.9619
L75.4464 82.0762
" />
<path d="M75.4464 82.0762
L75.6750 82.3047
" />
<path d="M75.6750 82.3047
L75.7893 82.7619
" />
<path d="M75.7893 82.7619
L75.7893 83.5619
" />
<path d="M75.7893 83.5619
L75.6750 84.0190
" />
<path d="M75.6750 84.0190
L75.4464 84.2476
" />
<path d="M75.4464 84.2476
L75.2179 84.3619
" />
<path d="M75.2179 84.3619
L74.7607 84.3619
" />
<path d="M74.7607 84.3619
L74.5321 84.2476
" />
<path d="M74.5321 84.2476
L74.3036 84.0190
" />
<path d="M74.3036 84.0190
L74.1893 83.5619
" />
<path d="M74.1893 83.5619
L74.1893 82.7619
" />
<path d="M74.1893 82.7619
L74.3036 82.3047
" />
<path d="M74.3036 82.3047
L74.5321 82.0762
" />
<path d="M74.5321 82.0762
L74.7607 81.9619
" />
<path d="M77.9607 84.3619
L76.8179 84.3619
" />
<path d="M76.8179 84.3619
L76.8179 81.9619
" />
<path d="M79.2179 81.9619
L79.6750 81.9619
" />
<path d="M79.6750 81.9619
L79.9036 82.0762
" />
<path d="M79.9036 82.0762
L80.1321 82.3047
" />
<path d="M80.1321 82.3047
L80.2464 82.7619
" />
<path d="M80.2464 82.7619
L80.2464 83.5619
" />
<path d="M80.2464 83.5619
L80.1321 84.0190
" />
<path d="M80.1321 84.0190
L79.9036 84.2476
" />
<path d="M79.9036 84.2476
L79.6750 84.3619
" />
<path d="M79.6750 84.3619
L79.2179 84.3619
" />
<path d="M79.2179 84.3619
L78.9893 84.2476
" />
<path d="M78.9893 84.2476
L78.7607 84.0190
" />
<path d="M78.7607 84.0190
L78.6464 83.5619
" />
<path d="M78.6464 83.5619
L78.6464 82.7619
" />
<path d="M78.6464 82.7619
L78.7607 82.3047
" />
<path d="M78.7607 82.3047
L78.9893 82.0762
" />
<path d="M78.9893 82.0762
L79.2179 81.9619
" />
<path d="M82.6464 84.3619
L81.8464 83.2190
" />
<path d="M81.2750 84.3619
L81.2750 81.9619
" />
<path d="M81.2750 81.9619
L82.1893 81.9619
" />
<path d="M82.1893 81.9619
L82.4179 82.0762
" />
<path d="M82.4179 82.0762
L82.5321 82.1905
" />
<path d="M82.5321 82.1905
L82.6464 82.4190
" />
<path d="M82.6464 82.4190
L82.6464 82.7619
" />
<path d="M82.6464 82.7619
L82.5321 82.9905
" />
<path d="M82.5321 82.9905
L82.4179 83.1047
" />
<path d="M82.4179 83.1047
L82.1893 83.2190
" />
<path d="M82.1893 83.2190
L81.2750 83.2190
" />
<path d="M83.1036 84.5905
L84.9321 84.5905
" />
<path d="M85.1607 81.9619
L86.5321 81.9619
" />
<path d="M85.8464 84.3619
L85.8464 81.9619
" />
<path d="M87.1036 81.9619
L87.6750 84.3619
" />
<path d="M87.6750 84.3619
L88.1321 82.6476
" />
<path d="M88.1321 82.6476
L88.5893 84.3619
" />
<path d="M88.5893 84.3619
L89.1607 81.9619
" />
<path d="M90.5321 81.9619
L90.9893 81.9619
" />
<path d="M90.9893 81.9619
L91.2179 82.0762
" />
<path d="M91.2179 82.0762
L91.4464 82.3047
" />
<path d="M91.4464 82.3047
L91.5607 82.7619
" />
<path d="M91.5607 82.7619
L91.5607 83.5619
" />
<path d="M91.5607 83.5619
L91.4464 84.0190
" />
<path d="M91.4464 84.0190
L91.2179 84.2476
" />
<path d="M91.2179 84.2476
L90.9893 84.3619
" />
<path d="M90.9893 84.3619
L90.5321 84.3619
" />
<path d="M90.5321 84.3619
L90.3036 84.2476
" />
<path d="M90.3036 84.2476
L90.0750 84.0190
" />
<path d="M90.0750 84.0190
L89.9607 83.5619
" />
<path d="M89.9607 83.5619
L89.9607 82.7619
" />
<path d="M89.9607 82.7619
L90.0750 82.3047
" />
<path d="M90.0750 82.3047
L90.3036 82.0762
" />
<path d="M90.3036 82.0762
L90.5321 81.9619
" />
</g></g>
<g style="fill:#FFFFFF; fill-opacity:0.0; 
stroke:#FFFFFF; stroke-width:0.2000; stroke-opacity:1; 
stroke-linecap:round; stroke-linejoin:round;">
<text x="97.0750" y="72.3750"
textLength="2.4952" font-size="1.3333" lengthAdjust="spacingAndGlyphs"
text-anchor="middle" opacity="0">ON</text>
<g class="stroked-text"><desc>ON</desc>
<path d="M96.4560 71.3272
L96.6464 71.3272
" />
<path d="M96.6464 71.3272
L96.7417 71.3748
" />
<path d="M96.7417 71.3748
L96.8369 71.4701
" />
<path d="M96.8369 71.4701
L96.8845 71.6606
" />
<path d="M96.8845 71.6606
L96.8845 71.9939
" />
<path d="M96.8845 71.9939
L96.8369 72.1844
" />
<path d="M96.8369 72.1844
L96.7417 72.2796
" />
<path d="M96.7417 72.2796
L96.6464 72.3272
" />
<path d="M96.6464 72.3272
L96.4560 72.3272
" />
<path d="M96.4560 72.3272
L96.3607 72.2796
" />
<path d="M96.3607 72.2796
L96.2655 72.1844
" />
<path d="M96.2655 72.1844
L96.2179 71.9939
" />
<path d="M96.2179 71.9939
L96.2179 71.6606
" />
<path d="M96.2179 71.6606
L96.2655 71.4701
" />
<path d="M96.2655 71.4701
L96.3607 71.3748
" />
<path d="M96.3607 71.3748
L96.4560 71.3272
" />
<path d="M97.3131 72.3272
L97.3131 71.3272
" />
<path d="M97.3131 71.3272
L97.8845 72.3272
" />
<path d="M97.8845 72.3272
L97.8845 71.3272
" />
</g></g>
<g style="fill:#FFFFFF; fill-opacity:0.0; 
stroke:#FFFFFF; stroke-width:0.5000; stroke-opacity:1; 
stroke-linecap:round; stroke-linejoin:round;">
<text x="48.6750" y="32.7250"
textLength="29.6333" font-size="4.6667" lengthAdjust="spacingAndGlyphs"
text-anchor="middle" opacity="0">COLORIZER</text>
<g class="stroked-text"><desc>COLORIZER</desc>
<path d="M37.0917 32.2348
L36.9250 32.4015
" />
<path d="M36.9250 32.4015
L36.4250 32.5682
" />
<path d="M36.4250 32.5682
L36.0917 32.5682
" />
<path d="M36.0917 32.5682
L35.5917 32.4015
" />
<path d="M35.5917 32.4015
L35.2583 32.0682
" />
<path d="M35.2583 32.0682
L35.0917 31.7348
" />
<path d="M35.0917 31.7348
L34.9250 31.0682
" />
<path d="M34.9250 31.0682
L34.9250 30.5682
" />
<path d="M34.9250 30.5682
L35.0917 29.9015
" />
<path d="M35.0917 29.9015
L35.2583 29.5682
" />
<path d="M35.2583 29.5682
L35.5917 29.2348
" />
<path d="M35.5917 29.2348
L36.0917 29.0682
" />
<path d="M36.0917 29.0682
L36.4250 29.0682
" />
<path d="M36.4250 29.0682
L36.9250 29.2348
" />
<path d="M36.9250 29.2348
L37.0917 29.4015
" />
<path d="M39.2583 29.0682
L39.9250 29.0682
" />
<path d="M39.9250 29.0682
L40.2583 29.2348
" />
<path d="M40.2583 29.2348
L40.5917 29.5682
" />
<path d="M40.5917 29.5682
L40.7583 30.2348
" />
<path d="M40.7583 30.2348
L40.7583 31.4015
" />
<path d="M40.7583 31.4015
L40.5917 32.0682
" />
<path d="M40.5917 32.0682
L40.2583 32.4015
" />
<path d="M40.2583 32.4015
L39.9250 32.5682
" />
<path d="M39.9250 32.5682
L39.2583 32.5682
" />
<path d="M39.2583 32.5682
L38.9250 32.4015
" />
<path d="M38.9250 32.4015
L38.5917 32.0682
" />
<path d="M38.5917 32.0682
L38.4250 31.4015
" />
<path d="M38.4250 31.4015
L38.4250 30.2348
" />
<path d="M38.4250 30.2348
L38.5917 29.5682
" />
<path d="M38.5917 29.5682
L38.9250 29.2348
" />
<path d="M38.9250 29.2348
L39.2583 29.0682
" />
<path d="M43.9250 32.5682
L42.2583 32.5682
" />
<path d="M42.2583 32.5682
L42.2583 29.0682
" />
<path d="M45.7583 29.0682
L46.4250 29.0682
" />
<path d="M46.4250 29.0682
L46.7583 29.2348
" />
<path d="M46.7583 29.2348
L47.0917 29.5682
" />
<path d="M47.0917 29.5682
L47.2583 30.2348
" />
<path d="M47.2583 30.2348
L47.2583 31.4015
" />
<path d="M47.2583 31.4015
L47.0917 32.0682
" />
<path d="M47.0917 32.0682
L46.7583 32.4015
" />
<path d="M46.7583 32.4015
L46.4250 32.5682
" />
<path d="M46.4250 32.5682
L45.7583 32.5682
" />
<path d="M45.7583 32.5682
L45.4250 32.4015
" />
<path d="M45.4250 32.4015
L45.0917 32.0682
" />
<path d="M45.0917 32.0682
L44.9250 31.4015
" />
<path d="M44.9250 31.4015
L44.9250 30.2348
" />
<path d="M44.9250 30.2348
L45.0917 29.5682
" />
<path d="M45.0917 29.5682
L45.4250 29.2348
" />
<path d="M45.4250 29.2348
L45.7583 29.0682
" />
<path d="M50.7583 32.5682
L49.5917 30.9015
" />
<path d="M48.7583 32.5682
L48.7583 29.0682
" />
<path d="M48.7583 29.0682
L50.0917 29.0682
" />
<path d="M50.0917 29.0682
L50.4250 29.2348
" />
<path d="M50.4250 29.2348
L50.5917 29.4015
" />
<path d="M50.5917 29.4015
L50.7583 29.7348
" />
<path d="M50.7583 29.7348
L50.7583 30.2348
" />
<path d="M50.7583 30.2348
L50.5917 30.5682
" />
<path d="M50.5917 30.5682
L50.4250 30.7348
" />
<path d="M50.4250 30.7348
L50.0917 30.9015
" />
<path d="M50.0917 30.9015
L48.7583 30.9015
" />
<path d="M52.2583 32.5682
L52.2583 29.0682
" />
<path d="M53.5917 29.0682
L55.9250 29.0682
" />
<path d="M55.9250 29.0682
L53.5917 32.5682
" />
<path d="M53.5917 32.5682
L55.9250 32.5682
" />
<path d="M57.2583 30.7348
L58.4250 30.7348
" />
<path d="M58.9250 32.5682
L57.2583 32.5682
" />
<path d="M57.2583 32.5682
L57.2583 29.0682
" />
<path d="M57.2583 29.0682
L58.9250 29.0682
" />
<path d="M62.4250 32.5682
L61.2583 30.9015
" />
<path d="M60.4250 32.5682
L60.4250 29.0682
" />
<path d="M60.4250 29.0682
L61.7583 29.0682
" />
<path d="M61.7583 29.0682
L62.0917 29.2348
" />
<path d="M62.0917 29.2348
L62.2583 29.4015
" />
<path d="M62.2583 29.4015
L62.4250 29.7348
" />
<path d="M62.4250 29.7348
L62.4250 30.2348
" />
<path d="M62.4250 30.2348
L62.2583 30.5682
" />
<path d="M62.2583 30.5682
L62.0917 30.7348
" />
<path d="M62.0917 30.7348
L61.7583 30.9015
" />
<path d="M61.7583 30.9015
L60.4250 30.9015
" />
</g></g>
<g style="fill:#FFFFFF; fill-opacity:0.0; 
stroke:#FFFFFF; stroke-width:0.2000; stroke-opacity:1; 
stroke-linecap:round; stroke-linejoin:round;">
<text x="3.8750" y="56.4750"
textLength="4.1619" font-size="1.3333" lengthAdjust="spacingAndGlyphs"
text-anchor="middle" opacity="0">NTSC</text>
<g class="stroked-text"><desc>NTSC</desc>
<path d="M2.2321 56.4272
L2.2321 55.4272
" />
<path d="M2.2321 55.4272
L2.8036 56.4272
" />
<path d="M2.8036 56.4272
L2.8036 55.4272
" />
<path d="M3.1369 55.4272
L3.7083 55.4272
" />
<path d="M3.4226 56.4272
L3.4226 55.4272
" />
<path d="M3.9940 56.3796
L4.1369 56.4272
" />
<path d="M4.1369 56.4272
L4.3750 56.4272
" />
<path d="M4.3750 56.4272
L4.4702 56.3796
" />
<path d="M4.4702 56.3796
L4.5179 56.3320
" />
<path d="M4.5179 56.3320
L4.5655 56.2367
" />
<path d="M4.5655 56.2367
L4.5655 56.1415
" />
<path d="M4.5655 56.1415
L4.5179 56.0463
" />
<path d="M4.5179 56.0463
L4.4702 55.9986
" />
<path d="M4.4702 55.9986
L4.3750 55.9510
" />
<path d="M4.3750 55.9510
L4.1845 55.9034
" />
<path d="M4.1845 55.9034
L4.0893 55.8558
" />
<path d="M4.0893 55.8558
L4.0417 55.8082
" />
<path d="M4.0417 55.8082
L3.9940 55.7129
" />
<path d="M3.9940 55.7129
L3.9940 55.6177
" />
<path d="M3.9940 55.6177
L4.0417 55.5225
" />
<path d="M4.0417 55.5225
L4.0893 55.4748
" />
<path d="M4.0893 55.4748
L4.1845 55.4272
" />
<path d="M4.1845 55.4272
L4.4226 55.4272
" />
<path d="M4.4226 55.4272
L4.5655 55.4748
" />
<path d="M5.5655 56.3320
L5.5179 56.3796
" />
<path d="M5.5179 56.3796
L5.3750 56.4272
" />
<path d="M5.3750 56.4272
L5.2798 56.4272
" />
<path d="M5.2798 56.4272
L5.1369 56.3796
" />
<path d="M5.1369 56.3796
L5.0417 56.2844
" />
<path d="M5.0417 56.2844
L4.9940 56.1891
" />
<path d="M4.9940 56.1891
L4.9464 55.9986
" />
<path d="M4.9464 55.9986
L4.9464 55.8558
" />
<path d="M4.9464 55.8558
L4.9940 55.6653
" />
<path d="M4.9940 55.6653
L5.0417 55.5701
" />
<path d="M5.0417 55.5701
L5.1369 55.4748
" />
<path d="M5.1369 55.4748
L5.2798 55.4272
" />
<path d="M5.2798 55.4272
L5.3750 55.4272
" />
<path d="M5.3750 55.4272
L5.5179 55.4748
" />
<path d="M5.5179 55.4748
L5.5655 55.5225
" />
</g></g>
<g style="fill:#FFFFFF; fill-opacity:0.0; 
stroke:#FFFFFF; stroke-width:0.3500; stroke-opacity:1; 
stroke-linecap:round; stroke-linejoin:round;">
<text x="18.4750" y="47.3250"
textLength="12.8214" font-size="2.0000" lengthAdjust="spacingAndGlyphs"
text-anchor="middle" opacity="0">LEVEL_ONE</text>
<g class="stroked-text"><desc>LEVEL_ONE</desc>
<path d="M13.5107 47.2507
L12.7964 47.2507
" />
<path d="M12.7964 47.2507
L12.7964 45.7507
" />
<path d="M14.0107 46.4650
L14.5107 46.4650
" />
<path d="M14.7250 47.2507
L14.0107 47.2507
" />
<path d="M14.0107 47.2507
L14.0107 45.7507
" />
<path d="M14.0107 45.7507
L14.7250 45.7507
" />
<path d="M15.1536 45.7507
L15.6536 47.2507
" />
<path d="M15.6536 47.2507
L16.1536 45.7507
" />
<path d="M16.6536 46.4650
L17.1536 46.4650
" />
<path d="M17.3679 47.2507
L16.6536 47.2507
" />
<path d="M16.6536 47.2507
L16.6536 45.7507
" />
<path d="M16.6536 45.7507
L17.3679 45.7507
" />
<path d="M18.7250 47.2507
L18.0107 47.2507
" />
<path d="M18.0107 47.2507
L18.0107 45.7507
" />
<path d="M18.8679 47.3936
L20.0107 47.3936
" />
<path d="M20.6536 45.7507
L20.9393 45.7507
" />
<path d="M20.9393 45.7507
L21.0821 45.8222
" />
<path d="M21.0821 45.8222
L21.2250 45.9650
" />
<path d="M21.2250 45.9650
L21.2964 46.2507
" />
<path d="M21.2964 46.2507
L21.2964 46.7507
" />
<path d="M21.2964 46.7507
L21.2250 47.0364
" />
<path d="M21.2250 47.0364
L21.0821 47.1793
" />
<path d="M21.0821 47.1793
L20.9393 47.2507
" />
<path d="M20.9393 47.2507
L20.6536 47.2507
" />
<path d="M20.6536 47.2507
L20.5107 47.1793
" />
<path d="M20.5107 47.1793
L20.3679 47.0364
" />
<path d="M20.3679 47.0364
L20.2964 46.7507
" />
<path d="M20.2964 46.7507
L20.2964 46.2507
" />
<path d="M20.2964 46.2507
L20.3679 45.9650
" />
<path d="M20.3679 45.9650
L20.5107 45.8222
" />
<path d="M20.5107 45.8222
L20.6536 45.7507
" />
<path d="M21.9393 47.2507
L21.9393 45.7507
" />
<path d="M21.9393 45.7507
L22.7964 47.2507
" />
<path d="M22.7964 47.2507
L22.7964 45.7507
" />
<path d="M23.5107 46.4650
L24.0107 46.4650
" />
<path d="M24.2250 47.2507
L23.5107 47.2507
" />
<path d="M23.5107 47.2507
L23.5107 45.7507
" />
<path d="M23.5107 45.7507
L24.2250 45.7507
" />
</g></g>
<g style="fill:#FFFFFF; fill-opacity:0.0; 
stroke:#FFFFFF; stroke-width:0.4500; stroke-opacity:1; 
stroke-linecap:round; stroke-linejoin:round;">
<text x="18.4750" y="84.5750"
textLength="21.6700" font-size="3.2000" lengthAdjust="spacingAndGlyphs"
text-anchor="middle" opacity="0">COLOR_ONE</text>
<g class="stroked-text"><desc>COLOR_ONE</desc>
<path d="M10.0179 84.2333
L9.9036 84.3476
" />
<path d="M9.9036 84.3476
L9.5607 84.4619
" />
<path d="M9.5607 84.4619
L9.3321 84.4619
" />
<path d="M9.3321 84.4619
L8.9893 84.3476
" />
<path d="M8.9893 84.3476
L8.7607 84.1190
" />
<path d="M8.7607 84.1190
L8.6464 83.8905
" />
<path d="M8.6464 83.8905
L8.5321 83.4333
" />
<path d="M8.5321 83.4333
L8.5321 83.0905
" />
<path d="M8.5321 83.0905
L8.6464 82.6333
" />
<path d="M8.6464 82.6333
L8.7607 82.4047
" />
<path d="M8.7607 82.4047
L8.9893 82.1762
" />
<path d="M8.9893 82.1762
L9.3321 82.0619
" />
<path d="M9.3321 82.0619
L9.5607 82.0619
" />
<path d="M9.5607 82.0619
L9.9036 82.1762
" />
<path d="M9.9036 82.1762
L10.0179 82.2905
" />
<path d="M11.5036 82.0619
L11.9607 82.0619
" />
<path d="M11.9607 82.0619
L12.1893 82.1762
" />
<path d="M12.1893 82.1762
L12.4179 82.4047
" />
<path d="M12.4179 82.4047
L12.5321 82.8619
" />
<path d="M12.5321 82.8619
L12.5321 83.6619
" />
<path d="M12.5321 83.6619
L12.4179 84.1190
" />
<path d="M12.4179 84.1190
L12.1893 84.3476
" />
<path d="M12.1893 84.3476
L11.9607 84.4619
" />
<path d="M11.9607 84.4619
L11.5036 84.4619
" />
<path d="M11.5036 84.4619
L11.2750 84.3476
" />
<path d="M11.2750 84.3476
L11.0464 84.1190
" />
<path d="M11.0464 84.1190
L10.9321 83.6619
" />
<path d="M10.9321 83.6619
L10.9321 82.8619
" />
<path d="M10.9321 82.8619
L11.0464 82.4047
" />
<path d="M11.0464 82.4047
L11.2750 82.1762
" />
<path d="M11.2750 82.1762
L11.5036 82.0619
" />
<path d="M14.7036 84.4619
L13.5607 84.4619
" />
<path d="M13.5607 84.4619
L13.5607 82.0619
" />
<path d="M15.9607 82.0619
L16.4179 82.0619
" />
<path d="M16.4179 82.0619
L16.6464 82.1762
" />
<path d="M16.6464 82.1762
L16.8750 82.4047
" />
<path d="M16.8750 82.4047
L16.9893 82.8619
" />
<path d="M16.9893 82.8619
L16.9893 83.6619
" />
<path d="M16.9893 83.6619
L16.8750 84.1190
" />
<path d="M16.8750 84.1190
L16.6464 84.3476
" />
<path d="M16.6464 84.3476
L16.4179 84.4619
" />
<path d="M16.4179 84.4619
L15.9607 84.4619
" />
<path d="M15.9607 84.4619
L15.7321 84.3476
" />
<path d="M15.7321 84.3476
L15.5036 84.1190
" />
<path d="M15.5036 84.1190
L15.3893 83.6619
" />
<path d="M15.3893 83.6619
L15.3893 82.8619
" />
<path d="M15.3893 82.8619
L15.5036 82.4047
" />
<path d="M15.5036 82.4047
L15.7321 82.1762
" />
<path d="M15.7321 82.1762
L15.9607 82.0619
" />
<path d="M19.3893 84.4619
L18.5893 83.3190
" />
<path d="M18.0179 84.4619
L18.0179 82.0619
" />
<path d="M18.0179 82.0619
L18.9321 82.0619
" />
<path d="M18.9321 82.0619
L19.1607 82.1762
" />
<path d="M19.1607 82.1762
L19.2750 82.2905
" />
<path d="M19.2750 82.2905
L19.3893 82.5190
" />
<path d="M19.3893 82.5190
L19.3893 82.8619
" />
<path d="M19.3893 82.8619
L19.2750 83.0905
" />
<path d="M19.2750 83.0905
L19.1607 83.2047
" />
<path d="M19.1607 83.2047
L18.9321 83.3190
" />
<path d="M18.9321 83.3190
L18.0179 83.3190
" />
<path d="M19.8464 84.6905
L21.6750 84.6905
" />
<path d="M22.7036 82.0619
L23.1607 82.0619
" />
<path d="M23.1607 82.0619
L23.3893 82.1762
" />
<path d="M23.3893 82.1762
L23.6179 82.4047
" />
<path d="M23.6179 82.4047
L23.7321 82.8619
" />
<path d="M23.7321 82.8619
L23.7321 83.6619
" />
<path d="M23.7321 83.6619
L23.6179 84.1190
" />
<path d="M23.6179 84.1190
L23.3893 84.3476
" />
<path d="M23.3893 84.3476
L23.1607 84.4619
" />
<path d="M23.1607 84.4619
L22.7036 84.4619
" />
<path d="M22.7036 84.4619
L22.4750 84.3476
" />
<path d="M22.4750 84.3476
L22.2464 84.1190
" />
<path d="M22.2464 84.1190
L22.1321 83.6619
" />
<path d="M22.1321 83.6619
L22.1321 82.8619
" />
<path d="M22.1321 82.8619
L22.2464 82.4047
" />
<path d="M22.2464 82.4047
L22.4750 82.1762
" />
<path d="M22.4750 82.1762
L22.7036 82.0619
" />
<path d="M24.7607 84.4619
L24.7607 82.0619
" />
<path d="M24.7607 82.0619
L26.1321 84.4619
" />
<path d="M26.1321 84.4619
L26.1321 82.0619
" />
<path d="M27.2750 83.2047
L28.0750 83.2047
" />
<path d="M28.4179 84.4619
L27.2750 84.4619
" />
<path d="M27.2750 84.4619
L27.2750 82.0619
" />
<path d="M27.2750 82.0619
L28.4179 82.0619
" />
</g></g>
<g style="fill:#FFFFFF; fill-opacity:0.0; 
stroke:#FFFFFF; stroke-width:0.2000; stroke-opacity:1; 
stroke-linecap:round; stroke-linejoin:round;">
<text x="3.8750" y="72.6750"
textLength="3.0667" font-size="1.3333" lengthAdjust="spacingAndGlyphs"
text-anchor="middle" opacity="0">PAL</text>
<g class="stroked-text"><desc>PAL</desc>
<path d="M2.7798 72.6272
L2.7798 71.6272
" />
<path d="M2.7798 71.6272
L3.1607 71.6272
" />
<path d="M3.1607 71.6272
L3.2560 71.6748
" />
<path d="M3.2560 71.6748
L3.3036 71.7225
" />
<path d="M3.3036 71.7225
L3.3512 71.8177
" />
<path d="M3.3512 71.8177
L3.3512 71.9606
" />
<path d="M3.3512 71.9606
L3.3036 72.0558
" />
<path d="M3.3036 72.0558
L3.2560 72.1034
" />
<path d="M3.2560 72.1034
L3.1607 72.1510
" />
<path d="M3.1607 72.1510
L2.7798 72.1510
" />
<path d="M3.7321 72.3415
L4.2083 72.3415
" />
<path d="M3.6369 72.6272
L3.9702 71.6272
" />
<path d="M3.9702 71.6272
L4.3036 72.6272
" />
<path d="M5.1131 72.6272
L4.6369 72.6272
" />
<path d="M4.6369 72.6272
L4.6369 71.6272
" />
</g></g>
<g style="fill:#FFFFFF; fill-opacity:0.0; 
stroke:#FFFFFF; stroke-width:0.3500; stroke-opacity:1; 
stroke-linecap:round; stroke-linejoin:round;">
<text x="81.6750" y="47.2250"
textLength="12.7500" font-size="2.0000" lengthAdjust="spacingAndGlyphs"
text-anchor="middle" opacity="0">LEVEL_TWO</text>
<g class="stroked-text"><desc>LEVEL_TWO</desc>
<path d="M76.7464 47.1507
L76.0321 47.1507
" />
<path d="M76.0321 47.1507
L76.0321 45.6507
" />
<path d="M77.2464 46.3650
L77.7464 46.3650
" />
<path d="M77.9607 47.1507
L77.2464 47.1507
" />
<path d="M77.2464 47.1507
L77.2464 45.6507
" />
<path d="M77.2464 45.6507
L77.9607 45.6507
" />
<path d="M78.3893 45.6507
L78.8893 47.1507
" />
<path d="M78.8893 47.1507
L79.3893 45.6507
" />
<path d="M79.8893 46.3650
L80.3893 46.3650
" />
<path d="M80.6036 47.1507
L79.8893 47.1507
" />
<path d="M79.8893 47.1507
L79.8893 45.6507
" />
<path d="M79.8893 45.6507
L80.6036 45.6507
" />
<path d="M81.9607 47.1507
L81.2464 47.1507
" />
<path d="M81.2464 47.1507
L81.2464 45.6507
" />
<path d="M82.1036 47.2936
L83.2464 47.2936
" />
<path d="M83.3893 45.6507
L84.2464 45.6507
" />
<path d="M83.8179 47.1507
L83.8179 45.6507
" />
<path d="M84.6036 45.6507
L84.9607 47.1507
" />
<path d="M84.9607 47.1507
L85.2464 46.0793
" />
<path d="M85.2464 46.0793
L85.5321 47.1507
" />
<path d="M85.5321 47.1507
L85.8893 45.6507
" />
<path d="M86.7464 45.6507
L87.0321 45.6507
" />
<path d="M87.0321 45.6507
L87.1750 45.7222
" />
<path d="M87.1750 45.7222
L87.3179 45.8650
" />
<path d="M87.3179 45.8650
L87.3893 46.1507
" />
<path d="M87.3893 46.1507
L87.3893 46.6507
" />
<path d="M87.3893 46.6507
L87.3179 46.9364
" />
<path d="M87.3179 46.9364
L87.1750 47.0793
" />
<path d="M87.1750 47.0793
L87.0321 47.1507
" />
<path d="M87.0321 47.1507
L86.7464 47.1507
" />
<path d="M86.7464 47.1507
L86.6036 47.0793
" />
<path d="M86.6036 47.0793
L86.4607 46.9364
" />
<path d="M86.4607 46.9364
L86.3893 46.6507
" />
<path d="M86.3893 46.6507
L86.3893 46.1507
" />
<path d="M86.3893 46.1507
L86.4607 45.8650
" />
<path d="M86.4607 45.8650
L86.6036 45.7222
" />
<path d="M86.6036 45.7222
L86.7464 45.6507
" />
</g><text x="33.2750" y="2.8250"
textLength="9.1786" font-size="2.0000" lengthAdjust="spacingAndGlyphs"
text-anchor="middle" opacity="0">BYPASS</text>
<g class="stroked-text"><desc>BYPASS</desc>
<path d="M29.9179 1.9650
L30.1321 2.0364
" />
<path d="M30.1321 2.0364
L30.2036 2.1079
" />
<path d="M30.2036 2.1079
L30.2750 2.2507
" />
<path d="M30.2750 2.2507
L30.2750 2.4650
" />
<path d="M30.2750 2.4650
L30.2036 2.6079
" />
<path d="M30.2036 2.6079
L30.1321 2.6793
" />
<path d="M30.1321 2.6793
L29.9893 2.7507
" />
<path d="M29.9893 2.7507
L29.4179 2.7507
" />
<path d="M29.4179 2.7507
L29.4179 1.2507
" />
<path d="M29.4179 1.2507
L29.9179 1.2507
" />
<path d="M29.9179 1.2507
L30.0607 1.3222
" />
<path d="M30.0607 1.3222
L30.1321 1.3936
" />
<path d="M30.1321 1.3936
L30.2036 1.5364
" />
<path d="M30.2036 1.5364
L30.2036 1.6793
" />
<path d="M30.2036 1.6793
L30.1321 1.8222
" />
<path d="M30.1321 1.8222
L30.0607 1.8936
" />
<path d="M30.0607 1.8936
L29.9179 1.9650
" />
<path d="M29.9179 1.9650
L29.4179 1.9650
" />
<path d="M31.2036 2.0364
L31.2036 2.7507
" />
<path d="M30.7036 1.2507
L31.2036 2.0364
" />
<path d="M31.2036 2.0364
L31.7036 1.2507
" />
<path d="M32.2036 2.7507
L32.2036 1.2507
" />
<path d="M32.2036 1.2507
L32.7750 1.2507
" />
<path d="M32.7750 1.2507
L32.9179 1.3222
" />
<path d="M32.9179 1.3222
L32.9893 1.3936
" />
<path d="M32.9893 1.3936
L33.0607 1.5364
" />
<path d="M33.0607 1.5364
L33.0607 1.7507
" />
<path d="M33.0607 1.7507
L32.9893 1.8936
" />
<path d="M32.9893 1.8936
L32.9179 1.9650
" />
<path d="M32.9179 1.9650
L32.7750 2.0364
" />
<path d="M32.7750 2.0364
L32.2036 2.0364
" />
<path d="M33.6321 2.3222
L34.3464 2.3222
" />
<path d="M33.4893 2.7507
L33.9893 1.2507
" />
<path d="M33.9893 1.2507
L34.4893 2.7507
" />
<path d="M34.9179 2.6793
L35.1321 2.7507
" />
<path d="M35.1321 2.7507
L35.4893 2.7507
" />
<path d="M35.4893 2.7507
L35.6321 2.6793
" />
<path d="M35.6321 2.6793
L35.7036 2.6079
" />
<path d="M35.7036 2.6079
L35.7750 2.4650
" />
<path d="M35.7750 2.4650
L35.7750 2.3222
" />
<path d="M35.7750 2.3222
L35.7036 2.1793
" />
<path d="M35.7036 2.1793
L35.6321 2.1079
" />
<path d="M35.6321 2.1079
L35.4893 2.0364
" />
<path d="M35.4893 2.0364
L35.2036 1.9650
" />
<path d="M35.2036 1.9650
L35.0607 1.8936
" />
<path d="M35.0607 1.8936
L34.9893 1.8222
" />
<path d="M34.9893 1.8222
L34.9179 1.6793
" />
<path d="M34.9179 1.6793
L34.9179 1.5364
" />
<path d="M34.9179 1.5364
L34.9893 1.3936
" />
<path d="M34.9893 1.3936
L35.0607 1.3222
" />
<path d="M35.0607 1.3222
L35.2036 1.2507
" />
<path d="M35.2036 1.2507
L35.5607 1.2507
" />
<path d="M35.5607 1.2507
L35.7750 1.3222
" />
<path d="M36.3464 2.6793
L36.5607 2.7507
" />
<path d="M36.5607 2.7507
L36.9179 2.7507
" />
<path d="M36.9179 2.7507
L37.0607 2.6793
" />
<path d="M37.0607 2.6793
L37.1321 2.6079
" />
<path d="M37.1321 2.6079
L37.2036 2.4650
" />
<path d="M37.2036 2.4650
L37.2036 2.3222
" />
<path d="M37.2036 2.3222
L37.1321 2.1793
" />
<path d="M37.1321 2.1793
L37.0607 2.1079
" />
<path d="M37.0607 2.1079
L36.9179 2.0364
" />
<path d="M36.9179 2.0364
L36.6321 1.9650
" />
<path d="M36.6321 1.9650
L36.4893 1.8936
" />
<path d="M36.4893 1.8936
L36.4179 1.8222
" />
<path d="M36.4179 1.8222
L36.3464 1.6793
" />
<path d="M36.3464 1.6793
L36.3464 1.5364
" />
<path d="M36.3464 1.5364
L36.4179 1.3936
" />
<path d="M36.4179 1.3936
L36.4893 1.3222
" />
<path d="M36.4893 1.3222
L36.6321 1.2507
" />
<path d="M36.6321 1.2507
L36.9893 1.2507
" />
<path d="M36.9893 1.2507
L37.2036 1.3222
" />
</g></g>
<g style="fill:#FFFFFF; fill-opacity:0.0; 
stroke:#FFFFFF; stroke-width:0.4500; stroke-opacity:1; 
stroke-linecap:round; stroke-linejoin:round;">
<text x="50.0750" y="3.9250"
textLength="5.1357" font-size="3.3333" lengthAdjust="spacingAndGlyphs"
text-anchor="middle" opacity="0">5v</text>
<g class="stroked-text"><desc>5v</desc>
<path d="M49.7179 1.3081
L48.5274 1.3081
" />
<path d="M48.5274 1.3081
L48.4083 2.4986
" />
<path d="M48.4083 2.4986
L48.5274 2.3796
" />
<path d="M48.5274 2.3796
L48.7655 2.2605
" />
<path d="M48.7655 2.2605
L49.3607 2.2605
" />
<path d="M49.3607 2.2605
L49.5988 2.3796
" />
<path d="M49.5988 2.3796
L49.7179 2.4986
" />
<path d="M49.7179 2.4986
L49.8369 2.7367
" />
<path d="M49.8369 2.7367
L49.8369 3.3320
" />
<path d="M49.8369 3.3320
L49.7179 3.5701
" />
<path d="M49.7179 3.5701
L49.5988 3.6891
" />
<path d="M49.5988 3.6891
L49.3607 3.8081
" />
<path d="M49.3607 3.8081
L48.7655 3.8081
" />
<path d="M48.7655 3.8081
L48.5274 3.6891
" />
<path d="M48.5274 3.6891
L48.4083 3.5701
" />
<path d="M50.6702 2.1415
L51.2655 3.8081
" />
<path d="M51.2655 3.8081
L51.8607 2.1415
" />
</g></g>
<g style="fill:#FFFFFF; fill-opacity:0.0; 
stroke:#FFFFFF; stroke-width:0.3000; stroke-opacity:1; 
stroke-linecap:round; stroke-linejoin:round;">
<text x="48.6750" y="27.0250"
textLength="18.3143" font-size="2.0000" lengthAdjust="spacingAndGlyphs"
text-anchor="middle" opacity="0">TWO_POINT_ONE</text>
<g class="stroked-text"><desc>TWO_POINT_ONE</desc>
<path d="M39.9607 25.4533
L40.8179 25.4533
" />
<path d="M40.3893 26.9533
L40.3893 25.4533
" />
<path d="M41.1750 25.4533
L41.5321 26.9533
" />
<path d="M41.5321 26.9533
L41.8179 25.8819
" />
<path d="M41.8179 25.8819
L42.1036 26.9533
" />
<path d="M42.1036 26.9533
L42.4607 25.4533
" />
<path d="M43.3179 25.4533
L43.6036 25.4533
" />
<path d="M43.6036 25.4533
L43.7464 25.5248
" />
<path d="M43.7464 25.5248
L43.8893 25.6676
" />
<path d="M43.8893 25.6676
L43.9607 25.9533
" />
<path d="M43.9607 25.9533
L43.9607 26.4533
" />
<path d="M43.9607 26.4533
L43.8893 26.7390
" />
<path d="M43.8893 26.7390
L43.7464 26.8819
" />
<path d="M43.7464 26.8819
L43.6036 26.9533
" />
<path d="M43.6036 26.9533
L43.3179 26.9533
" />
<path d="M43.3179 26.9533
L43.1750 26.8819
" />
<path d="M43.1750 26.8819
L43.0321 26.7390
" />
<path d="M43.0321 26.7390
L42.9607 26.4533
" />
<path d="M42.9607 26.4533
L42.9607 25.9533
" />
<path d="M42.9607 25.9533
L43.0321 25.6676
" />
<path d="M43.0321 25.6676
L43.1750 25.5248
" />
<path d="M43.1750 25.5248
L43.3179 25.4533
" />
<path d="M44.2464 27.0962
L45.3893 27.0962
" />
<path d="M45.7464 26.9533
L45.7464 25.4533
" />
<path d="M45.7464 25.4533
L46.3179 25.4533
" />
<path d="M46.3179 25.4533
L46.4607 25.5248
" />
<path d="M46.4607 25.5248
L46.5321 25.5962
" />
<path d="M46.5321 25.5962
L46.6036 25.7390
" />
<path d="M46.6036 25.7390
L46.6036 25.9533
" />
<path d="M46.6036 25.9533
L46.5321 26.0962
" />
<path d="M46.5321 26.0962
L46.4607 26.1676
" />
<path d="M46.4607 26.1676
L46.3179 26.2390
" />
<path d="M46.3179 26.2390
L45.7464 26.2390
" />
<path d="M47.5321 25.4533
L47.8179 25.4533
" />
<path d="M47.8179 25.4533
L47.9607 25.5248
" />
<path d="M47.9607 25.5248
L48.1036 25.6676
" />
<path d="M48.1036 25.6676
L48.1750 25.9533
" />
<path d="M48.1750 25.9533
L48.1750 26.4533
" />
<path d="M48.1750 26.4533
L48.1036 26.7390
" />
<path d="M48.1036 26.7390
L47.9607 26.8819
" />
<path d="M47.9607 26.8819
L47.8179 26.9533
" />
<path d="M47.8179 26.9533
L47.5321 26.9533
" />
<path d="M47.5321 26.9533
L47.3893 26.8819
" />
<path d="M47.3893 26.8819
L47.2464 26.7390
" />
<path d="M47.2464 26.7390
L47.1750 26.4533
" />
<path d="M47.1750 26.4533
L47.1750 25.9533
" />
<path d="M47.1750 25.9533
L47.2464 25.6676
" />
<path d="M47.2464 25.6676
L47.3893 25.5248
" />
<path d="M47.3893 25.5248
L47.5321 25.4533
" />
<path d="M48.8179 26.9533
L48.8179 25.4533
" />
<path d="M49.5321 26.9533
L49.5321 25.4533
" />
<path d="M49.5321 25.4533
L50.3893 26.9533
" />
<path d="M50.3893 26.9533
L50.3893 25.4533
" />
<path d="M50.8893 25.4533
L51.7464 25.4533
" />
<path d="M51.3179 26.9533
L51.3179 25.4533
" />
<path d="M51.8893 27.0962
L53.0321 27.0962
" />
<path d="M53.6750 25.4533
L53.9607 25.4533
" />
<path d="M53.9607 25.4533
L54.1036 25.5248
" />
<path d="M54.1036 25.5248
L54.2464 25.6676
" />
<path d="M54.2464 25.6676
L54.3179 25.9533
" />
<path d="M54.3179 25.9533
L54.3179 26.4533
" />
<path d="M54.3179 26.4533
L54.2464 26.7390
" />
<path d="M54.2464 26.7390
L54.1036 26.8819
" />
<path d="M54.1036 26.8819
L53.9607 26.9533
" />
<path d="M53.9607 26.9533
L53.6750 26.9533
" />
<path d="M53.6750 26.9533
L53.5321 26.8819
" />
<path d="M53.5321 26.8819
L53.3893 26.7390
" />
<path d="M53.3893 26.7390
L53.3179 26.4533
" />
<path d="M53.3179 26.4533
L53.3179 25.9533
" />
<path d="M53.3179 25.9533
L53.3893 25.6676
" />
<path d="M53.3893 25.6676
L53.5321 25.5248
" />
<path d="M53.5321 25.5248
L53.6750 25.4533
" />
<path d="M54.9607 26.9533
L54.9607 25.4533
" />
<path d="M54.9607 25.4533
L55.8179 26.9533
" />
<path d="M55.8179 26.9533
L55.8179 25.4533
" />
<path d="M56.5321 26.1676
L57.0321 26.1676
" />
<path d="M57.2464 26.9533
L56.5321 26.9533
" />
<path d="M56.5321 26.9533
L56.5321 25.4533
" />
<path d="M56.5321 25.4533
L57.2464 25.4533
" />
</g></g>
<g style="fill:#FFFFFF; fill-opacity:0.0; 
stroke:#FFFFFF; stroke-width:0.4500; stroke-opacity:1; 
stroke-linecap:round; stroke-linejoin:round;">
<text x="21.3750" y="17.4750"
textLength="16.6414" font-size="3.2000" lengthAdjust="spacingAndGlyphs"
text-anchor="middle" opacity="0">VIDEO_IN</text>
<g class="stroked-text"><desc>VIDEO_IN</desc>
<path d="M13.7179 14.9619
L14.5179 17.3619
" />
<path d="M14.5179 17.3619
L15.3179 14.9619
" />
<path d="M16.1179 17.3619
L16.1179 14.9619
" />
<path d="M17.2607 17.3619
L17.2607 14.9619
" />
<path d="M17.2607 14.9619
L17.8321 14.9619
" />
<path d="M17.8321 14.9619
L18.1750 15.0762
" />
<path d="M18.1750 15.0762
L18.4036 15.3047
" />
<path d="M18.4036 15.3047
L18.5179 15.5333
" />
<path d="M18.5179 15.5333
L18.6321 15.9905
" />
<path d="M18.6321 15.9905
L18.6321 16.3333
" />
<path d="M18.6321 16.3333
L18.5179 16.7905
" />
<path d="M18.5179 16.7905
L18.4036 17.0190
" />
<path d="M18.4036 17.0190
L18.1750 17.2476
" />
<path d="M18.1750 17.2476
L17.8321 17.3619
" />
<path d="M17.8321 17.3619
L17.2607 17.3619
" />
<path d="M19.6607 16.1047
L20.4607 16.1047
" />
<path d="M20.8036 17.3619
L19.6607 17.3619
" />
<path d="M19.6607 17.3619
L19.6607 14.9619
" />
<path d="M19.6607 14.9619
L20.8036 14.9619
" />
<path d="M22.2893 14.9619
L22.7464 14.9619
" />
<path d="M22.7464 14.9619
L22.9750 15.0762
" />
<path d="M22.9750 15.0762
L23.2036 15.3047
" />
<path d="M23.2036 15.3047
L23.3179 15.7619
" />
<path d="M23.3179 15.7619
L23.3179 16.5619
" />
<path d="M23.3179 16.5619
L23.2036 17.0190
" />
<path d="M23.2036 17.0190
L22.9750 17.2476
" />
<path d="M22.9750 17.2476
L22.7464 17.3619
" />
<path d="M22.7464 17.3619
L22.2893 17.3619
" />
<path d="M22.2893 17.3619
L22.0607 17.2476
" />
<path d="M22.0607 17.2476
L21.8321 17.0190
" />
<path d="M21.8321 17.0190
L21.7179 16.5619
" />
<path d="M21.7179 16.5619
L21.7179 15.7619
" />
<path d="M21.7179 15.7619
L21.8321 15.3047
" />
<path d="M21.8321 15.3047
L22.0607 15.0762
" />
<path d="M22.0607 15.0762
L22.2893 14.9619
" />
<path d="M23.7750 17.5905
L25.6036 17.5905
" />
<path d="M26.1750 17.3619
L26.1750 14.9619
" />
<path d="M27.3179 17.3619
L27.3179 14.9619
" />
<path d="M27.3179 14.9619
L28.6893 17.3619
" />
<path d="M28.6893 17.3619
L28.6893 14.9619
" />
</g></g>
<g style="fill:#FFFFFF; fill-opacity:0.0; 
stroke:#FFFFFF; stroke-width:0.2000; stroke-opacity:1; 
stroke-linecap:round; stroke-linejoin:round;">
<g transform="rotate(-90.000000 8.1250 64.2250)">
<text x="8.1250" y="64.7250"
textLength="6.0667" font-size="1.3333" lengthAdjust="spacingAndGlyphs"
text-anchor="middle" opacity="0">FORMAT</text>
</g>
<g class="stroked-text"><desc>FORMAT</desc>
<path d="M8.0534 66.4869
L8.0534 66.8202
" />
<path d="M8.5772 66.8202
L7.5772 66.8202
" />
<path d="M7.5772 66.8202
L7.5772 66.3440
" />
<path d="M7.5772 65.7726
L7.5772 65.5821
" />
<path d="M7.5772 65.5821
L7.6248 65.4869
" />
<path d="M7.6248 65.4869
L7.7201 65.3917
" />
<path d="M7.7201 65.3917
L7.9106 65.3440
" />
<path d="M7.9106 65.3440
L8.2439 65.3440
" />
<path d="M8.2439 65.3440
L8.4344 65.3917
" />
<path d="M8.4344 65.3917
L8.5296 65.4869
" />
<path d="M8.5296 65.4869
L8.5772 65.5821
" />
<path d="M8.5772 65.5821
L8.5772 65.7726
" />
<path d="M8.5772 65.7726
L8.5296 65.8679
" />
<path d="M8.5296 65.8679
L8.4344 65.9631
" />
<path d="M8.4344 65.9631
L8.2439 66.0107
" />
<path d="M8.2439 66.0107
L7.9106 66.0107
" />
<path d="M7.9106 66.0107
L7.7201 65.9631
" />
<path d="M7.7201 65.9631
L7.6248 65.8679
" />
<path d="M7.6248 65.8679
L7.5772 65.7726
" />
<path d="M8.5772 64.3440
L8.1010 64.6774
" />
<path d="M8.5772 64.9155
L7.5772 64.9155
" />
<path d="M7.5772 64.9155
L7.5772 64.5345
" />
<path d="M7.5772 64.5345
L7.6248 64.4393
" />
<path d="M7.6248 64.4393
L7.6725 64.3917
" />
<path d="M7.6725 64.3917
L7.7677 64.3440
" />
<path d="M7.7677 64.3440
L7.9106 64.3440
" />
<path d="M7.9106 64.3440
L8.0058 64.3917
" />
<path d="M8.0058 64.3917
L8.0534 64.4393
" />
<path d="M8.0534 64.4393
L8.1010 64.5345
" />
<path d="M8.1010 64.5345
L8.1010 64.9155
" />
<path d="M8.5772 63.9155
L7.5772 63.9155
" />
<path d="M7.5772 63.9155
L8.2915 63.5821
" />
<path d="M8.2915 63.5821
L7.5772 63.2488
" />
<path d="M7.5772 63.2488
L8.5772 63.2488
" />
<path d="M8.2915 62.8202
L8.2915 62.3440
" />
<path d="M8.5772 62.9155
L7.5772 62.5821
" />
<path d="M7.5772 62.5821
L8.5772 62.2488
" />
<path d="M7.5772 62.0583
L7.5772 61.4869
" />
<path d="M8.5772 61.7726
L7.5772 61.7726
" />
</g></g>
<g style="fill:#FFFFFF; fill-opacity:0.0; 
stroke:#FFFFFF; stroke-width:0.3500; stroke-opacity:1; 
stroke-linecap:round; stroke-linejoin:round;">
<text x="50.3750" y="98.3250"
textLength="15.0357" font-size="2.0000" lengthAdjust="spacingAndGlyphs"
text-anchor="middle" opacity="0">COLOR_BOTH</text>
<g class="stroked-text"><desc>COLOR_BOTH</desc>
<path d="M44.4464 98.1079
L44.3750 98.1793
" />
<path d="M44.3750 98.1793
L44.1607 98.2507
" />
<path d="M44.1607 98.2507
L44.0179 98.2507
" />
<path d="M44.0179 98.2507
L43.8036 98.1793
" />
<path d="M43.8036 98.1793
L43.6607 98.0364
" />
<path d="M43.6607 98.0364
L43.5893 97.8936
" />
<path d="M43.5893 97.8936
L43.5179 97.6079
" />
<path d="M43.5179 97.6079
L43.5179 97.3936
" />
<path d="M43.5179 97.3936
L43.5893 97.1079
" />
<path d="M43.5893 97.1079
L43.6607 96.9650
" />
<path d="M43.6607 96.9650
L43.8036 96.8222
" />
<path d="M43.8036 96.8222
L44.0179 96.7507
" />
<path d="M44.0179 96.7507
L44.1607 96.7507
" />
<path d="M44.1607 96.7507
L44.3750 96.8222
" />
<path d="M44.3750 96.8222
L44.4464 96.8936
" />
<path d="M45.3750 96.7507
L45.6607 96.7507
" />
<path d="M45.6607 96.7507
L45.8036 96.8222
" />
<path d="M45.8036 96.8222
L45.9464 96.9650
" />
<path d="M45.9464 96.9650
L46.0179 97.2507
" />
<path d="M46.0179 97.2507
L46.0179 97.7507
" />
<path d="M46.0179 97.7507
L45.9464 98.0364
" />
<path d="M45.9464 98.0364
L45.8036 98.1793
" />
<path d="M45.8036 98.1793
L45.6607 98.2507
" />
<path d="M45.6607 98.2507
L45.3750 98.2507
" />
<path d="M45.3750 98.2507
L45.2321 98.1793
" />
<path d="M45.2321 98.1793
L45.0893 98.0364
" />
<path d="M45.0893 98.0364
L45.0179 97.7507
" />
<path d="M45.0179 97.7507
L45.0179 97.2507
" />
<path d="M45.0179 97.2507
L45.0893 96.9650
" />
<path d="M45.0893 96.9650
L45.2321 96.8222
" />
<path d="M45.2321 96.8222
L45.3750 96.7507
" />
<path d="M47.3750 98.2507
L46.6607 98.2507
" />
<path d="M46.6607 98.2507
L46.6607 96.7507
" />
<path d="M48.1607 96.7507
L48.4464 96.7507
" />
<path d="M48.4464 96.7507
L48.5893 96.8222
" />
<path d="M48.5893 96.8222
L48.7321 96.9650
" />
<path d="M48.7321 96.9650
L48.8036 97.2507
" />
<path d="M48.8036 97.2507
L48.8036 97.7507
" />
<path d="M48.8036 97.7507
L48.7321 98.0364
" />
<path d="M48.7321 98.0364
L48.5893 98.1793
" />
<path d="M48.5893 98.1793
L48.4464 98.2507
" />
<path d="M48.4464 98.2507
L48.1607 98.2507
" />
<path d="M48.1607 98.2507
L48.0179 98.1793
" />
<path d="M48.0179 98.1793
L47.8750 98.0364
" />
<path d="M47.8750 98.0364
L47.8036 97.7507
" />
<path d="M47.8036 97.7507
L47.8036 97.2507
" />
<path d="M47.8036 97.2507
L47.8750 96.9650
" />
<path d="M47.8750 96.9650
L48.0179 96.8222
" />
<path d="M48.0179 96.8222
L48.1607 96.7507
" />
<path d="M50.3036 98.2507
L49.8036 97.5364
" />
<path d="M49.4464 98.2507
L49.4464 96.7507
" />
<path d="M49.4464 96.7507
L50.0179 96.7507
" />
<path d="M50.0179 96.7507
L50.1607 96.8222
" />
<path d="M50.1607 96.8222
L50.2321 96.8936
" />
<path d="M50.2321 96.8936
L50.3036 97.0364
" />
<path d="M50.3036 97.0364
L50.3036 97.2507
" />
<path d="M50.3036 97.2507
L50.2321 97.3936
" />
<path d="M50.2321 97.3936
L50.1607 97.4650
" />
<path d="M50.1607 97.4650
L50.0179 97.5364
" />
<path d="M50.0179 97.5364
L49.4464 97.5364
" />
<path d="M50.5893 98.3936
L51.7321 98.3936
" />
<path d="M52.5893 97.4650
L52.8036 97.5364
" />
<path d="M52.8036 97.5364
L52.8750 97.6079
" />
<path d="M52.8750 97.6079
L52.9464 97.7507
" />
<path d="M52.9464 97.7507
L52.9464 97.9650
" />
<path d="M52.9464 97.9650
L52.8750 98.1079
" />
<path d="M52.8750 98.1079
L52.8036 98.1793
" />
<path d="M52.8036 98.1793
L52.6607 98.2507
" />
<path d="M52.6607 98.2507
L52.0893 98.2507
" />
<path d="M52.0893 98.2507
L52.0893 96.7507
" />
<path d="M52.0893 96.7507
L52.5893 96.7507
" />
<path d="M52.5893 96.7507
L52.7321 96.8222
" />
<path d="M52.7321 96.8222
L52.8036 96.8936
" />
<path d="M52.8036 96.8936
L52.8750 97.0364
" />
<path d="M52.8750 97.0364
L52.8750 97.1793
" />
<path d="M52.8750 97.1793
L52.8036 97.3222
" />
<path d="M52.8036 97.3222
L52.7321 97.3936
" />
<path d="M52.7321 97.3936
L52.5893 97.4650
" />
<path d="M52.5893 97.4650
L52.0893 97.4650
" />
<path d="M53.8750 96.7507
L54.1607 96.7507
" />
<path d="M54.1607 96.7507
L54.3036 96.8222
" />
<path d="M54.3036 96.8222
L54.4464 96.9650
" />
<path d="M54.4464 96.9650
L54.5179 97.2507
" />
<path d="M54.5179 97.2507
L54.5179 97.7507
" />
<path d="M54.5179 97.7507
L54.4464 98.0364
" />
<path d="M54.4464 98.0364
L54.3036 98.1793
" />
<path d="M54.3036 98.1793
L54.1607 98.2507
" />
<path d="M54.1607 98.2507
L53.8750 98.2507
" />
<path d="M53.8750 98.2507
L53.7321 98.1793
" />
<path d="M53.7321 98.1793
L53.5893 98.0364
" />
<path d="M53.5893 98.0364
L53.5179 97.7507
" />
<path d="M53.5179 97.7507
L53.5179 97.2507
" />
<path d="M53.5179 97.2507
L53.5893 96.9650
" />
<path d="M53.5893 96.9650
L53.7321 96.8222
" />
<path d="M53.7321 96.8222
L53.8750 96.7507
" />
<path d="M54.9464 96.7507
L55.8036 96.7507
" />
<path d="M55.3750 98.2507
L55.3750 96.7507
" />
<path d="M56.3036 98.2507
L56.3036 96.7507
" />
<path d="M56.3036 97.4650
L57.1607 97.4650
" />
<path d="M57.1607 98.2507
L57.1607 96.7507
" />
</g></g>
<g style="fill:#FFFFFF; fill-opacity:0.0; 
stroke:#FFFFFF; stroke-width:0.4500; stroke-opacity:1; 
stroke-linecap:round; stroke-linejoin:round;">
<text x="77.2750" y="17.4750"
textLength="19.8414" font-size="3.2000" lengthAdjust="spacingAndGlyphs"
text-anchor="middle" opacity="0">VIDEO_OUT</text>
<g class="stroked-text"><desc>VIDEO_OUT</desc>
<path d="M68.0179 14.9619
L68.8179 17.3619
" />
<path d="M68.8179 17.3619
L69.6179 14.9619
" />
<path d="M70.4179 17.3619
L70.4179 14.9619
" />
<path d="M71.5607 17.3619
L71.5607 14.9619
" />
<path d="M71.5607 14.9619
L72.1321 14.9619
" />
<path d="M72.1321 14.9619
L72.4750 15.0762
" />
<path d="M72.4750 15.0762
L72.7036 15.3047
" />
<path d="M72.7036 15.3047
L72.8179 15.5333
" />
<path d="M72.8179 15.5333
L72.9321 15.9905
" />
<path d="M72.9321 15.9905
L72.9321 16.3333
" />
<path d="M72.9321 16.3333
L72.8179 16.7905
" />
<path d="M72.8179 16.7905
L72.7036 17.0190
" />
<path d="M72.7036 17.0190
L72.4750 17.2476
" />
<path d="M72.4750 17.2476
L72.1321 17.3619
" />
<path d="M72.1321 17.3619
L71.5607 17.3619
" />
<path d="M73.9607 16.1047
L74.7607 16.1047
" />
<path d="M75.1036 17.3619
L73.9607 17.3619
" />
<path d="M73.9607 17.3619
L73.9607 14.9619
" />
<path d="M73.9607 14.9619
L75.1036 14.9619
" />
<path d="M76.5893 14.9619
L77.0464 14.9619
" />
<path d="M77.0464 14.9619
L77.2750 15.0762
" />
<path d="M77.2750 15.0762
L77.5036 15.3047
" />
<path d="M77.5036 15.3047
L77.6179 15.7619
" />
<path d="M77.6179 15.7619
L77.6179 16.5619
" />
<path d="M77.6179 16.5619
L77.5036 17.0190
" />
<path d="M77.5036 17.0190
L77.2750 17.2476
" />
<path d="M77.2750 17.2476
L77.0464 17.3619
" />
<path d="M77.0464 17.3619
L76.5893 17.3619
" />
<path d="M76.5893 17.3619
L76.3607 17.2476
" />
<path d="M76.3607 17.2476
L76.1321 17.0190
" />
<path d="M76.1321 17.0190
L76.0179 16.5619
" />
<path d="M76.0179 16.5619
L76.0179 15.7619
" />
<path d="M76.0179 15.7619
L76.1321 15.3047
" />
<path d="M76.1321 15.3047
L76.3607 15.0762
" />
<path d="M76.3607 15.0762
L76.5893 14.9619
" />
<path d="M78.0750 17.5905
L79.9036 17.5905
" />
<path d="M80.9321 14.9619
L81.3893 14.9619
" />
<path d="M81.3893 14.9619
L81.6179 15.0762
" />
<path d="M81.6179 15.0762
L81.8464 15.3047
" />
<path d="M81.8464 15.3047
L81.9607 15.7619
" />
<path d="M81.9607 15.7619
L81.9607 16.5619
" />
<path d="M81.9607 16.5619
L81.8464 17.0190
" />
<path d="M81.8464 17.0190
L81.6179 17.2476
" />
<path d="M81.6179 17.2476
L81.3893 17.3619
" />
<path d="M81.3893 17.3619
L80.9321 17.3619
" />
<path d="M80.9321 17.3619
L80.7036 17.2476
" />
<path d="M80.7036 17.2476
L80.4750 17.0190
" />
<path d="M80.4750 17.0190
L80.3607 16.5619
" />
<path d="M80.3607 16.5619
L80.3607 15.7619
" />
<path d="M80.3607 15.7619
L80.4750 15.3047
" />
<path d="M80.4750 15.3047
L80.7036 15.0762
" />
<path d="M80.7036 15.0762
L80.9321 14.9619
" />
<path d="M82.9893 14.9619
L82.9893 16.9047
" />
<path d="M82.9893 16.9047
L83.1036 17.1333
" />
<path d="M83.1036 17.1333
L83.2179 17.2476
" />
<path d="M83.2179 17.2476
L83.4464 17.3619
" />
<path d="M83.4464 17.3619
L83.9036 17.3619
" />
<path d="M83.9036 17.3619
L84.1321 17.2476
" />
<path d="M84.1321 17.2476
L84.2464 17.1333
" />
<path d="M84.2464 17.1333
L84.3607 16.9047
" />
<path d="M84.3607 16.9047
L84.3607 14.9619
" />
<path d="M85.1607 14.9619
L86.5321 14.9619
" />
<path d="M85.8464 17.3619
L85.8464 14.9619
" />
</g></g>
<g style="fill:#FFFFFF; fill-opacity:0.0; 
stroke:#FFFFFF; stroke-width:0.2000; stroke-opacity:1; 
stroke-linecap:round; stroke-linejoin:round;">
<g transform="rotate(-90.000000 92.7750 63.8750)">
<text x="92.7750" y="64.3750"
textLength="13.2571" font-size="1.3333" lengthAdjust="spacingAndGlyphs"
text-anchor="middle" opacity="0">ALTERNATE LINES</text>
</g>
<g class="stroked-text"><desc>ALTERNATE LINES</desc>
<path d="M92.9415 70.1131
L92.9415 69.6369
" />
<path d="M93.2272 70.2083
L92.2272 69.8750
" />
<path d="M92.2272 69.8750
L93.2272 69.5417
" />
<path d="M93.2272 68.7321
L93.2272 69.2083
" />
<path d="M93.2272 69.2083
L92.2272 69.2083
" />
<path d="M92.2272 68.5417
L92.2272 67.9702
" />
<path d="M93.2272 68.2560
L92.2272 68.2560
" />
<path d="M92.7034 67.6369
L92.7034 67.3036
" />
<path d="M93.2272 67.1607
L93.2272 67.6369
" />
<path d="M93.2272 67.6369
L92.2272 67.6369
" />
<path d="M92.2272 67.6369
L92.2272 67.1607
" />
<path d="M93.2272 66.1607
L92.7510 66.4940
" />
<path d="M93.2272 66.7321
L92.2272 66.7321
" />
<path d="M92.2272 66.7321
L92.2272 66.3512
" />
<path d="M92.2272 66.3512
L92.2748 66.2560
" />
<path d="M92.2748 66.2560
L92.3225 66.2083
" />
<path d="M92.3225 66.2083
L92.4177 66.1607
" />
<path d="M92.4177 66.1607
L92.5606 66.1607
" />
<path d="M92.5606 66.1607
L92.6558 66.2083
" />
<path d="M92.6558 66.2083
L92.7034 66.2560
" />
<path d="M92.7034 66.2560
L92.7510 66.3512
" />
<path d="M92.7510 66.3512
L92.7510 66.7321
" />
<path d="M93.2272 65.7321
L92.2272 65.7321
" />
<path d="M92.2272 65.7321
L93.2272 65.1607
" />
<path d="M93.2272 65.1607
L92.2272 65.1607
" />
<path d="M92.9415 64.7321
L92.9415 64.2560
" />
<path d="M93.2272 64.8274
L92.2272 64.4940
" />
<path d="M92.2272 64.4940
L93.2272 64.1607
" />
<path d="M92.2272 63.9702
L92.2272 63.3988
" />
<path d="M93.2272 63.6845
L92.2272 63.6845
" />
<path d="M92.7034 63.0655
L92.7034 62.7321
" />
<path d="M93.2272 62.5893
L93.2272 63.0655
" />
<path d="M93.2272 63.0655
L92.2272 63.0655
" />
<path d="M92.2272 63.0655
L92.2272 62.5893
" />
<path d="M93.2272 60.9226
L93.2272 61.3988
" />
<path d="M93.2272 61.3988
L92.2272 61.3988
" />
<path d="M93.2272 60.5893
L92.2272 60.5893
" />
<path d="M93.2272 60.1131
L92.2272 60.1131
" />
<path d="M92.2272 60.1131
L93.2272 59.5417
" />
<path d="M93.2272 59.5417
L92.2272 59.5417
" />
<path d="M92.7034 59.0655
L92.7034 58.7321
" />
<path d="M93.2272 58.5893
L93.2272 59.0655
" />
<path d="M93.2272 59.0655
L92.2272 59.0655
" />
<path d="M92.2272 59.0655
L92.2272 58.5893
" />
<path d="M93.1796 58.2083
L93.2272 58.0655
" />
<path d="M93.2272 58.0655
L93.2272 57.8274
" />
<path d="M93.2272 57.8274
L93.1796 57.7321
" />
<path d="M93.1796 57.7321
L93.1320 57.6845
" />
<path d="M93.1320 57.6845
L93.0367 57.6369
" />
<path d="M93.0367 57.6369
L92.9415 57.6369
" />
<path d="M92.9415 57.6369
L92.8463 57.6845
" />
<path d="M92.8463 57.6845
L92.7986 57.7321
" />
<path d="M92.7986 57.7321
L92.7510 57.8274
" />
<path d="M92.7510 57.8274
L92.7034 58.0179
" />
<path d="M92.7034 58.0179
L92.6558 58.1131
" />
<path d="M92.6558 58.1131
L92.6082 58.1607
" />
<path d="M92.6082 58.1607
L92.5129 58.2083
" />
<path d="M92.5129 58.2083
L92.4177 58.2083
" />
<path d="M92.4177 58.2083
L92.3225 58.1607
" />
<path d="M92.3225 58.1607
L92.2748 58.1131
" />
<path d="M92.2748 58.1131
L92.2272 58.0179
" />
<path d="M92.2272 58.0179
L92.2272 57.7798
" />
<path d="M92.2272 57.7798
L92.2748 57.6369
" />
</g><text x="96.9750" y="56.5750"
textLength="3.1619" font-size="1.3333" lengthAdjust="spacingAndGlyphs"
text-anchor="middle" opacity="0">OFF</text>
<g class="stroked-text"><desc>OFF</desc>
<path d="M96.0226 55.5272
L96.2131 55.5272
" />
<path d="M96.2131 55.5272
L96.3083 55.5748
" />
<path d="M96.3083 55.5748
L96.4036 55.6701
" />
<path d="M96.4036 55.6701
L96.4512 55.8606
" />
<path d="M96.4512 55.8606
L96.4512 56.1939
" />
<path d="M96.4512 56.1939
L96.4036 56.3844
" />
<path d="M96.4036 56.3844
L96.3083 56.4796
" />
<path d="M96.3083 56.4796
L96.2131 56.5272
" />
<path d="M96.2131 56.5272
L96.0226 56.5272
" />
<path d="M96.0226 56.5272
L95.9274 56.4796
" />
<path d="M95.9274 56.4796
L95.8321 56.3844
" />
<path d="M95.8321 56.3844
L95.7845 56.1939
" />
<path d="M95.7845 56.1939
L95.7845 55.8606
" />
<path d="M95.7845 55.8606
L95.8321 55.6701
" />
<path d="M95.8321 55.6701
L95.9274 55.5748
" />
<path d="M95.9274 55.5748
L96.0226 55.5272
" />
<path d="M97.2131 56.0034
L96.8798 56.0034
" />
<path d="M96.8798 56.5272
L96.8798 55.5272
" />
<path d="M96.8798 55.5272
L97.3560 55.5272
" />
<path d="M98.0702 56.0034
L97.7369 56.0034
" />
<path d="M97.7369 56.5272
L97.7369 55.5272
" />
<path d="M97.7369 55.5272
L98.2131 55.5272
" />
</g><g >
</g>
<g >
</g>
<g >
</g>
</g> 
</svg>
