  0
SECTION
  2
HEADER
  9
$ACADVER
  1
AC1014
  9
$HANDSEED
  5
FFFF
  9
$INSUNITS
 70
     5
  9
$MEASUREMENT
 70
     1
  0
ENDSEC
  0
SECTION
  2
TABLES
  0
TABLE
  2
VPORT
  5
8
330
0
100
AcDbSymbolTable
 70
     4
  0
VPORT
  5
2E
330
8
100
AcDbSymbolTableRecord
100
AcDbViewportTableRecord
  2
*ACTIVE
 70
     0
 10
0.0
 20
0.0
 11
1.0
 21
1.0
 12
210.0
 22
148.5
 13
0.0
 23
0.0
 14
10.0
 24
10.0
 15
10.0
 25
10.0
 16
0.0
 26
0.0
 36
1.0
 17
0.0
 27
0.0
 37
0.0
 40
341.0
 41
1.24
 42
50.0
 43
0.0
 44
0.0
 50
0.0
 51
0.0
 71
     0
 72
   100
 73
     1
 74
     3
 75
     0
 76
     0
 77
     0
 78
     0
  0
ENDTAB
  0
TABLE
  2
LTYPE
  5
5
330
0
100
AcDbSymbolTable
 70
     1
  0
LTYPE
  5
14
330
5
100
AcDbSymbolTableRecord
100
AcDbLinetypeTableRecord
  2
BYBLOCK
 70
     0
  3

 72
    65
 73
     0
 40
0.0
  0
LTYPE
  5
15
330
5
100
AcDbSymbolTableRecord
100
AcDbLinetypeTableRecord
  2
BYLAYER
 70
     0
  3

 72
    65
 73
     0
 40
0.0
  0
LTYPE
  5
16
330
5
100
AcDbSymbolTableRecord
100
AcDbLinetypeTableRecord
  2
CONTINUOUS
 70
     0
  3
Solid line
 72
    65
 73
     0
 40
0.0
  0
ENDTAB
  0
TABLE
  2
LAYER
  5
2
100
AcDbSymbolTable
 70
1
  0
LAYER
  5
50
100
AcDbSymbolTableRecord
100
AcDbLayerTableRecord
  2
0
 70
0
  6
CONTINUOUS
  0
ENDTAB
  0
TABLE
  2
STYLE
  5
3
330
0
100
AcDbSymbolTable
 70
     1
  0
STYLE
  5
11
330
3
100
AcDbSymbolTableRecord
100
AcDbTextStyleTableRecord
  2
STANDARD
 70
     0
 40
0.0
 41
1.0
 50
0.0
 71
     0
 42
2.5
  3
txt
  4

  0
ENDTAB
  0
TABLE
  2
VIEW
  5
6
330
0
100
AcDbSymbolTable
 70
     0
  0
ENDTAB
  0
TABLE
  2
UCS
  5
7
330
0
100
AcDbSymbolTable
 70
     0
  0
ENDTAB
  0
TABLE
  2
APPID
  5
9
330
0
100
AcDbSymbolTable
 70
     2
  0
APPID
  5
12
330
9
100
AcDbSymbolTableRecord
100
AcDbRegAppTableRecord
  2
ACAD
 70
     0
  0
ENDTAB
  0
TABLE
  2
DIMSTYLE
  5
A
330
0
100
AcDbSymbolTable
 70
     1
  0
DIMSTYLE
105
27
330
A
100
AcDbSymbolTableRecord
100
AcDbDimStyleTableRecord
  2
ISO-25
 70
     0
  3

  4

  5

  6

  7

 40
1.0
 41
2.5
 42
0.625
 43
3.75
 44
1.25
 45
0.0
 46
0.0
 47
0.0
 48
0.0
140
2.5
141
2.5
142
0.0
143
0.03937007874016
144
1.0
145
0.0
146
1.0
147
0.625
 71
     0
 72
     0
 73
     0
 74
     0
 75
     0
 76
     0
 77
     1
 78
     8
170
     0
171
     3
172
     1
173
     0
174
     0
175
     0
176
     0
177
     0
178
     0
270
     2
271
     2
272
     2
273
     2
274
     3
340
11
275
     0
280
     0
281
     0
282
     0
283
     0
284
     8
285
     0
286
     0
287
     3
288
     0
  0
ENDTAB
  0
TABLE
  2
BLOCK_RECORD
  5
1
330
0
100
AcDbSymbolTable
 70
     1
  0
BLOCK_RECORD
  5
1F
330
1
100
AcDbSymbolTableRecord
100
AcDbBlockTableRecord
  2
*MODEL_SPACE
  0
BLOCK_RECORD
  5
1B
330
1
100
AcDbSymbolTableRecord
100
AcDbBlockTableRecord
  2
*PAPER_SPACE
  0
ENDTAB
  0
ENDSEC
  0
SECTION
  2
BLOCKS
  0
BLOCK
  5
20
330
1F
100
AcDbEntity
  8
0
100
AcDbBlockBegin
  2
*MODEL_SPACE
 70
     0
 10
0.0
 20
0.0
 30
0.0
  3
*MODEL_SPACE
  1

  0
ENDBLK
  5
21
330
1F
100
AcDbEntity
  8
0
100
AcDbBlockEnd
  0
BLOCK
  5
1C
330
1B
100
AcDbEntity
 67
     1
  8
0
100
AcDbBlockBegin
  2
*PAPER_SPACE
  1

  0
ENDBLK
  5
1D
330
1B
100
AcDbEntity
 67
     1
  8
0
100
AcDbBlockEnd
  0
ENDSEC
  0
SECTION
  2
ENTITIES
  0
LWPOLYLINE
  5
100
100
AcDbEntity
  8
0
 62
7
100
AcDbPolyline
 90
2
 70
0
 10
2.592500
 20
1.155180
 30
0.0
 10
2.402500
 20
1.375180
 30
0.0
  0
LWPOLYLINE
  5
101
100
AcDbEntity
  8
0
 62
7
100
AcDbPolyline
 90
2
 70
0
 10
3.412500
 20
6.547680
 30
0.0
 10
3.042500
 20
6.222680
 30
0.0
  0
LWPOLYLINE
  5
102
100
AcDbEntity
  8
0
 62
7
100
AcDbPolyline
 90
2
 70
0
 10
3.377500
 20
7.295180
 30
0.0
 10
3.052500
 20
7.665180
 30
0.0
  0
LWPOLYLINE
  5
103
100
AcDbEntity
  8
0
 62
7
100
AcDbPolyline
 90
2
 70
0
 10
7.477500
 20
1.105180
 30
0.0
 10
7.707500
 20
1.425180
 30
0.0
  0
LWPOLYLINE
  5
104
100
AcDbEntity
  8
0
 62
7
100
AcDbPolyline
 90
2
 70
0
 10
8.167500
 20
4.995180
 30
0.0
 10
8.167500
 20
2.435180
 30
0.0
  0
LWPOLYLINE
  5
105
100
AcDbEntity
  8
0
 62
7
100
AcDbPolyline
 90
2
 70
0
 10
6.747500
 20
6.220180
 30
0.0
 10
6.377500
 20
6.545180
 30
0.0
  0
LWPOLYLINE
  5
106
100
AcDbEntity
  8
0
 62
7
100
AcDbPolyline
 90
2
 70
0
 10
1.847500
 20
4.985180
 30
0.0
 10
1.847500
 20
2.425180
 30
0.0
  0
LWPOLYLINE
  5
107
100
AcDbEntity
  8
0
 62
7
100
AcDbPolyline
 90
2
 70
0
 10
6.682500
 20
7.670180
 30
0.0
 10
6.357500
 20
7.300180
 30
0.0
  0
LWPOLYLINE
  5
108
100
AcDbEntity
  8
0
 62
7
100
AcDbPolyline
 90
16
 70
0
 10
7.327500
 20
1.599466
 30
0.0
 10
7.316071
 20
1.588037
 30
0.0
 10
7.281786
 20
1.576609
 30
0.0
 10
7.258928
 20
1.576609
 30
0.0
 10
7.224643
 20
1.588037
 30
0.0
 10
7.201786
 20
1.610894
 30
0.0
 10
7.190357
 20
1.633752
 30
0.0
 10
7.178928
 20
1.679466
 30
0.0
 10
7.178928
 20
1.713752
 30
0.0
 10
7.190357
 20
1.759466
 30
0.0
 10
7.201786
 20
1.782323
 30
0.0
 10
7.224643
 20
1.805180
 30
0.0
 10
7.258928
 20
1.816609
 30
0.0
 10
7.281786
 20
1.816609
 30
0.0
 10
7.316071
 20
1.805180
 30
0.0
 10
7.327500
 20
1.793752
 30
0.0
  0
LWPOLYLINE
  5
109
100
AcDbEntity
  8
0
 62
7
100
AcDbPolyline
 90
16
 70
1
 10
7.476071
 20
1.816609
 30
0.0
 10
7.521786
 20
1.816609
 30
0.0
 10
7.544643
 20
1.805180
 30
0.0
 10
7.567500
 20
1.782323
 30
0.0
 10
7.578928
 20
1.736609
 30
0.0
 10
7.578928
 20
1.656609
 30
0.0
 10
7.567500
 20
1.610894
 30
0.0
 10
7.544643
 20
1.588037
 30
0.0
 10
7.521786
 20
1.576609
 30
0.0
 10
7.476071
 20
1.576609
 30
0.0
 10
7.453214
 20
1.588037
 30
0.0
 10
7.430357
 20
1.610894
 30
0.0
 10
7.418928
 20
1.656609
 30
0.0
 10
7.418928
 20
1.736609
 30
0.0
 10
7.430357
 20
1.782323
 30
0.0
 10
7.453214
 20
1.805180
 30
0.0
  0
LWPOLYLINE
  5
10a
100
AcDbEntity
  8
0
 62
7
100
AcDbPolyline
 90
3
 70
0
 10
7.796071
 20
1.576609
 30
0.0
 10
7.681786
 20
1.576609
 30
0.0
 10
7.681786
 20
1.816609
 30
0.0
  0
LWPOLYLINE
  5
10b
100
AcDbEntity
  8
0
 62
7
100
AcDbPolyline
 90
16
 70
1
 10
7.921786
 20
1.816609
 30
0.0
 10
7.967500
 20
1.816609
 30
0.0
 10
7.990357
 20
1.805180
 30
0.0
 10
8.013214
 20
1.782323
 30
0.0
 10
8.024643
 20
1.736609
 30
0.0
 10
8.024643
 20
1.656609
 30
0.0
 10
8.013214
 20
1.610894
 30
0.0
 10
7.990357
 20
1.588037
 30
0.0
 10
7.967500
 20
1.576609
 30
0.0
 10
7.921786
 20
1.576609
 30
0.0
 10
7.898928
 20
1.588037
 30
0.0
 10
7.876071
 20
1.610894
 30
0.0
 10
7.864643
 20
1.656609
 30
0.0
 10
7.864643
 20
1.736609
 30
0.0
 10
7.876071
 20
1.782323
 30
0.0
 10
7.898928
 20
1.805180
 30
0.0
  0
LWPOLYLINE
  5
10c
100
AcDbEntity
  8
0
 62
7
100
AcDbPolyline
 90
2
 70
0
 10
8.264643
 20
1.576609
 30
0.0
 10
8.184643
 20
1.690894
 30
0.0
  0
LWPOLYLINE
  5
10d
100
AcDbEntity
  8
0
 62
7
100
AcDbPolyline
 90
11
 70
0
 10
8.127500
 20
1.576609
 30
0.0
 10
8.127500
 20
1.816609
 30
0.0
 10
8.218928
 20
1.816609
 30
0.0
 10
8.241786
 20
1.805180
 30
0.0
 10
8.253214
 20
1.793752
 30
0.0
 10
8.264643
 20
1.770894
 30
0.0
 10
8.264643
 20
1.736609
 30
0.0
 10
8.253214
 20
1.713752
 30
0.0
 10
8.241786
 20
1.702323
 30
0.0
 10
8.218928
 20
1.690894
 30
0.0
 10
8.127500
 20
1.690894
 30
0.0
  0
LWPOLYLINE
  5
10e
100
AcDbEntity
  8
0
 62
7
100
AcDbPolyline
 90
2
 70
0
 10
8.310357
 20
1.553752
 30
0.0
 10
8.493214
 20
1.553752
 30
0.0
  0
LWPOLYLINE
  5
10f
100
AcDbEntity
  8
0
 62
7
100
AcDbPolyline
 90
2
 70
0
 10
8.516071
 20
1.816609
 30
0.0
 10
8.653214
 20
1.816609
 30
0.0
  0
LWPOLYLINE
  5
110
100
AcDbEntity
  8
0
 62
7
100
AcDbPolyline
 90
2
 70
0
 10
8.584643
 20
1.576609
 30
0.0
 10
8.584643
 20
1.816609
 30
0.0
  0
LWPOLYLINE
  5
111
100
AcDbEntity
  8
0
 62
7
100
AcDbPolyline
 90
5
 70
0
 10
8.710357
 20
1.816609
 30
0.0
 10
8.767500
 20
1.576609
 30
0.0
 10
8.813214
 20
1.748037
 30
0.0
 10
8.858928
 20
1.576609
 30
0.0
 10
8.916071
 20
1.816609
 30
0.0
  0
LWPOLYLINE
  5
112
100
AcDbEntity
  8
0
 62
7
100
AcDbPolyline
 90
16
 70
1
 10
9.053214
 20
1.816609
 30
0.0
 10
9.098928
 20
1.816609
 30
0.0
 10
9.121786
 20
1.805180
 30
0.0
 10
9.144643
 20
1.782323
 30
0.0
 10
9.156071
 20
1.736609
 30
0.0
 10
9.156071
 20
1.656609
 30
0.0
 10
9.144643
 20
1.610894
 30
0.0
 10
9.121786
 20
1.588037
 30
0.0
 10
9.098928
 20
1.576609
 30
0.0
 10
9.053214
 20
1.576609
 30
0.0
 10
9.030357
 20
1.588037
 30
0.0
 10
9.007500
 20
1.610894
 30
0.0
 10
8.996071
 20
1.656609
 30
0.0
 10
8.996071
 20
1.736609
 30
0.0
 10
9.007500
 20
1.782323
 30
0.0
 10
9.030357
 20
1.805180
 30
0.0
  0
LWPOLYLINE
  5
113
100
AcDbEntity
  8
0
 62
7
100
AcDbPolyline
 90
16
 70
1
 10
9.645595
 20
2.879942
 30
0.0
 10
9.664643
 20
2.879942
 30
0.0
 10
9.674167
 20
2.875180
 30
0.0
 10
9.683690
 20
2.865656
 30
0.0
 10
9.688452
 20
2.846609
 30
0.0
 10
9.688452
 20
2.813275
 30
0.0
 10
9.683690
 20
2.794228
 30
0.0
 10
9.674167
 20
2.784704
 30
0.0
 10
9.664643
 20
2.779942
 30
0.0
 10
9.645595
 20
2.779942
 30
0.0
 10
9.636071
 20
2.784704
 30
0.0
 10
9.626548
 20
2.794228
 30
0.0
 10
9.621786
 20
2.813275
 30
0.0
 10
9.621786
 20
2.846609
 30
0.0
 10
9.626548
 20
2.865656
 30
0.0
 10
9.636071
 20
2.875180
 30
0.0
  0
LWPOLYLINE
  5
114
100
AcDbEntity
  8
0
 62
7
100
AcDbPolyline
 90
4
 70
0
 10
9.731310
 20
2.779942
 30
0.0
 10
9.731310
 20
2.879942
 30
0.0
 10
9.788452
 20
2.779942
 30
0.0
 10
9.788452
 20
2.879942
 30
0.0
  0
LWPOLYLINE
  5
115
100
AcDbEntity
  8
0
 62
7
100
AcDbPolyline
 90
16
 70
0
 10
3.709167
 20
6.790180
 30
0.0
 10
3.692500
 20
6.773513
 30
0.0
 10
3.642500
 20
6.756847
 30
0.0
 10
3.609167
 20
6.756847
 30
0.0
 10
3.559167
 20
6.773513
 30
0.0
 10
3.525833
 20
6.806847
 30
0.0
 10
3.509167
 20
6.840180
 30
0.0
 10
3.492500
 20
6.906847
 30
0.0
 10
3.492500
 20
6.956847
 30
0.0
 10
3.509167
 20
7.023513
 30
0.0
 10
3.525833
 20
7.056847
 30
0.0
 10
3.559167
 20
7.090180
 30
0.0
 10
3.609167
 20
7.106847
 30
0.0
 10
3.642500
 20
7.106847
 30
0.0
 10
3.692500
 20
7.090180
 30
0.0
 10
3.709167
 20
7.073513
 30
0.0
  0
LWPOLYLINE
  5
116
100
AcDbEntity
  8
0
 62
7
100
AcDbPolyline
 90
16
 70
1
 10
3.925833
 20
7.106847
 30
0.0
 10
3.992500
 20
7.106847
 30
0.0
 10
4.025833
 20
7.090180
 30
0.0
 10
4.059167
 20
7.056847
 30
0.0
 10
4.075833
 20
6.990180
 30
0.0
 10
4.075833
 20
6.873513
 30
0.0
 10
4.059167
 20
6.806847
 30
0.0
 10
4.025833
 20
6.773513
 30
0.0
 10
3.992500
 20
6.756847
 30
0.0
 10
3.925833
 20
6.756847
 30
0.0
 10
3.892500
 20
6.773513
 30
0.0
 10
3.859167
 20
6.806847
 30
0.0
 10
3.842500
 20
6.873513
 30
0.0
 10
3.842500
 20
6.990180
 30
0.0
 10
3.859167
 20
7.056847
 30
0.0
 10
3.892500
 20
7.090180
 30
0.0
  0
LWPOLYLINE
  5
117
100
AcDbEntity
  8
0
 62
7
100
AcDbPolyline
 90
3
 70
0
 10
4.392500
 20
6.756847
 30
0.0
 10
4.225833
 20
6.756847
 30
0.0
 10
4.225833
 20
7.106847
 30
0.0
  0
LWPOLYLINE
  5
118
100
AcDbEntity
  8
0
 62
7
100
AcDbPolyline
 90
16
 70
1
 10
4.575833
 20
7.106847
 30
0.0
 10
4.642500
 20
7.106847
 30
0.0
 10
4.675833
 20
7.090180
 30
0.0
 10
4.709167
 20
7.056847
 30
0.0
 10
4.725833
 20
6.990180
 30
0.0
 10
4.725833
 20
6.873513
 30
0.0
 10
4.709167
 20
6.806847
 30
0.0
 10
4.675833
 20
6.773513
 30
0.0
 10
4.642500
 20
6.756847
 30
0.0
 10
4.575833
 20
6.756847
 30
0.0
 10
4.542500
 20
6.773513
 30
0.0
 10
4.509167
 20
6.806847
 30
0.0
 10
4.492500
 20
6.873513
 30
0.0
 10
4.492500
 20
6.990180
 30
0.0
 10
4.509167
 20
7.056847
 30
0.0
 10
4.542500
 20
7.090180
 30
0.0
  0
LWPOLYLINE
  5
119
100
AcDbEntity
  8
0
 62
7
100
AcDbPolyline
 90
2
 70
0
 10
5.075833
 20
6.756847
 30
0.0
 10
4.959167
 20
6.923513
 30
0.0
  0
LWPOLYLINE
  5
11a
100
AcDbEntity
  8
0
 62
7
100
AcDbPolyline
 90
11
 70
0
 10
4.875833
 20
6.756847
 30
0.0
 10
4.875833
 20
7.106847
 30
0.0
 10
5.009167
 20
7.106847
 30
0.0
 10
5.042500
 20
7.090180
 30
0.0
 10
5.059167
 20
7.073513
 30
0.0
 10
5.075833
 20
7.040180
 30
0.0
 10
5.075833
 20
6.990180
 30
0.0
 10
5.059167
 20
6.956847
 30
0.0
 10
5.042500
 20
6.940180
 30
0.0
 10
5.009167
 20
6.923513
 30
0.0
 10
4.875833
 20
6.923513
 30
0.0
  0
LWPOLYLINE
  5
11b
100
AcDbEntity
  8
0
 62
7
100
AcDbPolyline
 90
2
 70
0
 10
5.225833
 20
6.756847
 30
0.0
 10
5.225833
 20
7.106847
 30
0.0
  0
LWPOLYLINE
  5
11c
100
AcDbEntity
  8
0
 62
7
100
AcDbPolyline
 90
4
 70
0
 10
5.359167
 20
7.106847
 30
0.0
 10
5.592500
 20
7.106847
 30
0.0
 10
5.359167
 20
6.756847
 30
0.0
 10
5.592500
 20
6.756847
 30
0.0
  0
LWPOLYLINE
  5
11d
100
AcDbEntity
  8
0
 62
7
100
AcDbPolyline
 90
2
 70
0
 10
5.725833
 20
6.940180
 30
0.0
 10
5.842500
 20
6.940180
 30
0.0
  0
LWPOLYLINE
  5
11e
100
AcDbEntity
  8
0
 62
7
100
AcDbPolyline
 90
4
 70
0
 10
5.892500
 20
6.756847
 30
0.0
 10
5.725833
 20
6.756847
 30
0.0
 10
5.725833
 20
7.106847
 30
0.0
 10
5.892500
 20
7.106847
 30
0.0
  0
LWPOLYLINE
  5
11f
100
AcDbEntity
  8
0
 62
7
100
AcDbPolyline
 90
2
 70
0
 10
6.242500
 20
6.756847
 30
0.0
 10
6.125833
 20
6.923513
 30
0.0
  0
LWPOLYLINE
  5
120
100
AcDbEntity
  8
0
 62
7
100
AcDbPolyline
 90
11
 70
0
 10
6.042500
 20
6.756847
 30
0.0
 10
6.042500
 20
7.106847
 30
0.0
 10
6.175833
 20
7.106847
 30
0.0
 10
6.209167
 20
7.090180
 30
0.0
 10
6.225833
 20
7.073513
 30
0.0
 10
6.242500
 20
7.040180
 30
0.0
 10
6.242500
 20
6.990180
 30
0.0
 10
6.225833
 20
6.956847
 30
0.0
 10
6.209167
 20
6.940180
 30
0.0
 10
6.175833
 20
6.923513
 30
0.0
 10
6.042500
 20
6.923513
 30
0.0
  0
LWPOLYLINE
  5
121
100
AcDbEntity
  8
0
 62
7
100
AcDbPolyline
 90
4
 70
0
 10
0.223214
 20
4.369942
 30
0.0
 10
0.223214
 20
4.469942
 30
0.0
 10
0.280357
 20
4.369942
 30
0.0
 10
0.280357
 20
4.469942
 30
0.0
  0
LWPOLYLINE
  5
122
100
AcDbEntity
  8
0
 62
7
100
AcDbPolyline
 90
2
 70
0
 10
0.313690
 20
4.469942
 30
0.0
 10
0.370833
 20
4.469942
 30
0.0
  0
LWPOLYLINE
  5
123
100
AcDbEntity
  8
0
 62
7
100
AcDbPolyline
 90
2
 70
0
 10
0.342262
 20
4.369942
 30
0.0
 10
0.342262
 20
4.469942
 30
0.0
  0
LWPOLYLINE
  5
124
100
AcDbEntity
  8
0
 62
7
100
AcDbPolyline
 90
20
 70
0
 10
0.399405
 20
4.374704
 30
0.0
 10
0.413690
 20
4.369942
 30
0.0
 10
0.437500
 20
4.369942
 30
0.0
 10
0.447024
 20
4.374704
 30
0.0
 10
0.451786
 20
4.379466
 30
0.0
 10
0.456548
 20
4.388990
 30
0.0
 10
0.456548
 20
4.398513
 30
0.0
 10
0.451786
 20
4.408037
 30
0.0
 10
0.447024
 20
4.412799
 30
0.0
 10
0.437500
 20
4.417561
 30
0.0
 10
0.418452
 20
4.422323
 30
0.0
 10
0.408928
 20
4.427085
 30
0.0
 10
0.404167
 20
4.431847
 30
0.0
 10
0.399405
 20
4.441370
 30
0.0
 10
0.399405
 20
4.450894
 30
0.0
 10
0.404167
 20
4.460418
 30
0.0
 10
0.408928
 20
4.465180
 30
0.0
 10
0.418452
 20
4.469942
 30
0.0
 10
0.442262
 20
4.469942
 30
0.0
 10
0.456548
 20
4.465180
 30
0.0
  0
LWPOLYLINE
  5
125
100
AcDbEntity
  8
0
 62
7
100
AcDbPolyline
 90
16
 70
0
 10
0.556548
 20
4.379466
 30
0.0
 10
0.551786
 20
4.374704
 30
0.0
 10
0.537500
 20
4.369942
 30
0.0
 10
0.527976
 20
4.369942
 30
0.0
 10
0.513690
 20
4.374704
 30
0.0
 10
0.504167
 20
4.384228
 30
0.0
 10
0.499405
 20
4.393751
 30
0.0
 10
0.494643
 20
4.412799
 30
0.0
 10
0.494643
 20
4.427085
 30
0.0
 10
0.499405
 20
4.446132
 30
0.0
 10
0.504167
 20
4.455656
 30
0.0
 10
0.513690
 20
4.465180
 30
0.0
 10
0.527976
 20
4.469942
 30
0.0
 10
0.537500
 20
4.469942
 30
0.0
 10
0.551786
 20
4.465180
 30
0.0
 10
0.556548
 20
4.460418
 30
0.0
  0
LWPOLYLINE
  5
126
100
AcDbEntity
  8
0
 62
7
100
AcDbPolyline
 90
3
 70
0
 10
1.351071
 20
5.287323
 30
0.0
 10
1.279643
 20
5.287323
 30
0.0
 10
1.279643
 20
5.437323
 30
0.0
  0
LWPOLYLINE
  5
127
100
AcDbEntity
  8
0
 62
7
100
AcDbPolyline
 90
2
 70
0
 10
1.401071
 20
5.365894
 30
0.0
 10
1.451071
 20
5.365894
 30
0.0
  0
LWPOLYLINE
  5
128
100
AcDbEntity
  8
0
 62
7
100
AcDbPolyline
 90
4
 70
0
 10
1.472500
 20
5.287323
 30
0.0
 10
1.401071
 20
5.287323
 30
0.0
 10
1.401071
 20
5.437323
 30
0.0
 10
1.472500
 20
5.437323
 30
0.0
  0
LWPOLYLINE
  5
129
100
AcDbEntity
  8
0
 62
7
100
AcDbPolyline
 90
3
 70
0
 10
1.515357
 20
5.437323
 30
0.0
 10
1.565357
 20
5.287323
 30
0.0
 10
1.615357
 20
5.437323
 30
0.0
  0
LWPOLYLINE
  5
12a
100
AcDbEntity
  8
0
 62
7
100
AcDbPolyline
 90
2
 70
0
 10
1.665357
 20
5.365894
 30
0.0
 10
1.715357
 20
5.365894
 30
0.0
  0
LWPOLYLINE
  5
12b
100
AcDbEntity
  8
0
 62
7
100
AcDbPolyline
 90
4
 70
0
 10
1.736786
 20
5.287323
 30
0.0
 10
1.665357
 20
5.287323
 30
0.0
 10
1.665357
 20
5.437323
 30
0.0
 10
1.736786
 20
5.437323
 30
0.0
  0
LWPOLYLINE
  5
12c
100
AcDbEntity
  8
0
 62
7
100
AcDbPolyline
 90
3
 70
0
 10
1.872500
 20
5.287323
 30
0.0
 10
1.801071
 20
5.287323
 30
0.0
 10
1.801071
 20
5.437323
 30
0.0
  0
LWPOLYLINE
  5
12d
100
AcDbEntity
  8
0
 62
7
100
AcDbPolyline
 90
2
 70
0
 10
1.886786
 20
5.273037
 30
0.0
 10
2.001071
 20
5.273037
 30
0.0
  0
LWPOLYLINE
  5
12e
100
AcDbEntity
  8
0
 62
7
100
AcDbPolyline
 90
16
 70
1
 10
2.065357
 20
5.437323
 30
0.0
 10
2.093929
 20
5.437323
 30
0.0
 10
2.108214
 20
5.430180
 30
0.0
 10
2.122500
 20
5.415894
 30
0.0
 10
2.129643
 20
5.387323
 30
0.0
 10
2.129643
 20
5.337323
 30
0.0
 10
2.122500
 20
5.308751
 30
0.0
 10
2.108214
 20
5.294466
 30
0.0
 10
2.093929
 20
5.287323
 30
0.0
 10
2.065357
 20
5.287323
 30
0.0
 10
2.051071
 20
5.294466
 30
0.0
 10
2.036786
 20
5.308751
 30
0.0
 10
2.029643
 20
5.337323
 30
0.0
 10
2.029643
 20
5.387323
 30
0.0
 10
2.036786
 20
5.415894
 30
0.0
 10
2.051071
 20
5.430180
 30
0.0
  0
LWPOLYLINE
  5
12f
100
AcDbEntity
  8
0
 62
7
100
AcDbPolyline
 90
4
 70
0
 10
2.193928
 20
5.287323
 30
0.0
 10
2.193928
 20
5.437323
 30
0.0
 10
2.279643
 20
5.287323
 30
0.0
 10
2.279643
 20
5.437323
 30
0.0
  0
LWPOLYLINE
  5
130
100
AcDbEntity
  8
0
 62
7
100
AcDbPolyline
 90
2
 70
0
 10
2.351071
 20
5.365894
 30
0.0
 10
2.401071
 20
5.365894
 30
0.0
  0
LWPOLYLINE
  5
131
100
AcDbEntity
  8
0
 62
7
100
AcDbPolyline
 90
4
 70
0
 10
2.422500
 20
5.287323
 30
0.0
 10
2.351071
 20
5.287323
 30
0.0
 10
2.351071
 20
5.437323
 30
0.0
 10
2.422500
 20
5.437323
 30
0.0
  0
LWPOLYLINE
  5
132
100
AcDbEntity
  8
0
 62
7
100
AcDbPolyline
 90
16
 70
0
 10
1.001786
 20
1.589466
 30
0.0
 10
0.990357
 20
1.578037
 30
0.0
 10
0.956071
 20
1.566609
 30
0.0
 10
0.933214
 20
1.566609
 30
0.0
 10
0.898928
 20
1.578037
 30
0.0
 10
0.876071
 20
1.600894
 30
0.0
 10
0.864643
 20
1.623751
 30
0.0
 10
0.853214
 20
1.669466
 30
0.0
 10
0.853214
 20
1.703751
 30
0.0
 10
0.864643
 20
1.749466
 30
0.0
 10
0.876071
 20
1.772323
 30
0.0
 10
0.898928
 20
1.795180
 30
0.0
 10
0.933214
 20
1.806609
 30
0.0
 10
0.956071
 20
1.806609
 30
0.0
 10
0.990357
 20
1.795180
 30
0.0
 10
1.001786
 20
1.783751
 30
0.0
  0
LWPOLYLINE
  5
133
100
AcDbEntity
  8
0
 62
7
100
AcDbPolyline
 90
16
 70
1
 10
1.150357
 20
1.806609
 30
0.0
 10
1.196071
 20
1.806609
 30
0.0
 10
1.218928
 20
1.795180
 30
0.0
 10
1.241786
 20
1.772323
 30
0.0
 10
1.253214
 20
1.726609
 30
0.0
 10
1.253214
 20
1.646609
 30
0.0
 10
1.241786
 20
1.600894
 30
0.0
 10
1.218928
 20
1.578037
 30
0.0
 10
1.196071
 20
1.566609
 30
0.0
 10
1.150357
 20
1.566609
 30
0.0
 10
1.127500
 20
1.578037
 30
0.0
 10
1.104643
 20
1.600894
 30
0.0
 10
1.093214
 20
1.646609
 30
0.0
 10
1.093214
 20
1.726609
 30
0.0
 10
1.104643
 20
1.772323
 30
0.0
 10
1.127500
 20
1.795180
 30
0.0
  0
LWPOLYLINE
  5
134
100
AcDbEntity
  8
0
 62
7
100
AcDbPolyline
 90
3
 70
0
 10
1.470357
 20
1.566609
 30
0.0
 10
1.356071
 20
1.566609
 30
0.0
 10
1.356071
 20
1.806609
 30
0.0
  0
LWPOLYLINE
  5
135
100
AcDbEntity
  8
0
 62
7
100
AcDbPolyline
 90
16
 70
1
 10
1.596071
 20
1.806609
 30
0.0
 10
1.641786
 20
1.806609
 30
0.0
 10
1.664643
 20
1.795180
 30
0.0
 10
1.687500
 20
1.772323
 30
0.0
 10
1.698928
 20
1.726609
 30
0.0
 10
1.698928
 20
1.646609
 30
0.0
 10
1.687500
 20
1.600894
 30
0.0
 10
1.664643
 20
1.578037
 30
0.0
 10
1.641786
 20
1.566609
 30
0.0
 10
1.596071
 20
1.566609
 30
0.0
 10
1.573214
 20
1.578037
 30
0.0
 10
1.550357
 20
1.600894
 30
0.0
 10
1.538928
 20
1.646609
 30
0.0
 10
1.538928
 20
1.726609
 30
0.0
 10
1.550357
 20
1.772323
 30
0.0
 10
1.573214
 20
1.795180
 30
0.0
  0
LWPOLYLINE
  5
136
100
AcDbEntity
  8
0
 62
7
100
AcDbPolyline
 90
2
 70
0
 10
1.938928
 20
1.566609
 30
0.0
 10
1.858928
 20
1.680894
 30
0.0
  0
LWPOLYLINE
  5
137
100
AcDbEntity
  8
0
 62
7
100
AcDbPolyline
 90
11
 70
0
 10
1.801786
 20
1.566609
 30
0.0
 10
1.801786
 20
1.806609
 30
0.0
 10
1.893214
 20
1.806609
 30
0.0
 10
1.916071
 20
1.795180
 30
0.0
 10
1.927500
 20
1.783751
 30
0.0
 10
1.938928
 20
1.760894
 30
0.0
 10
1.938928
 20
1.726609
 30
0.0
 10
1.927500
 20
1.703751
 30
0.0
 10
1.916071
 20
1.692323
 30
0.0
 10
1.893214
 20
1.680894
 30
0.0
 10
1.801786
 20
1.680894
 30
0.0
  0
LWPOLYLINE
  5
138
100
AcDbEntity
  8
0
 62
7
100
AcDbPolyline
 90
2
 70
0
 10
1.984643
 20
1.543752
 30
0.0
 10
2.167500
 20
1.543752
 30
0.0
  0
LWPOLYLINE
  5
139
100
AcDbEntity
  8
0
 62
7
100
AcDbPolyline
 90
16
 70
1
 10
2.270357
 20
1.806609
 30
0.0
 10
2.316071
 20
1.806609
 30
0.0
 10
2.338928
 20
1.795180
 30
0.0
 10
2.361786
 20
1.772323
 30
0.0
 10
2.373214
 20
1.726609
 30
0.0
 10
2.373214
 20
1.646609
 30
0.0
 10
2.361786
 20
1.600894
 30
0.0
 10
2.338928
 20
1.578037
 30
0.0
 10
2.316071
 20
1.566609
 30
0.0
 10
2.270357
 20
1.566609
 30
0.0
 10
2.247500
 20
1.578037
 30
0.0
 10
2.224643
 20
1.600894
 30
0.0
 10
2.213214
 20
1.646609
 30
0.0
 10
2.213214
 20
1.726609
 30
0.0
 10
2.224643
 20
1.772323
 30
0.0
 10
2.247500
 20
1.795180
 30
0.0
  0
LWPOLYLINE
  5
13a
100
AcDbEntity
  8
0
 62
7
100
AcDbPolyline
 90
4
 70
0
 10
2.476071
 20
1.566609
 30
0.0
 10
2.476071
 20
1.806609
 30
0.0
 10
2.613214
 20
1.566609
 30
0.0
 10
2.613214
 20
1.806609
 30
0.0
  0
LWPOLYLINE
  5
13b
100
AcDbEntity
  8
0
 62
7
100
AcDbPolyline
 90
2
 70
0
 10
2.727500
 20
1.692323
 30
0.0
 10
2.807500
 20
1.692323
 30
0.0
  0
LWPOLYLINE
  5
13c
100
AcDbEntity
  8
0
 62
7
100
AcDbPolyline
 90
4
 70
0
 10
2.841786
 20
1.566609
 30
0.0
 10
2.727500
 20
1.566609
 30
0.0
 10
2.727500
 20
1.806609
 30
0.0
 10
2.841786
 20
1.806609
 30
0.0
  0
LWPOLYLINE
  5
13d
100
AcDbEntity
  8
0
 62
7
100
AcDbPolyline
 90
11
 70
0
 10
0.277976
 20
2.749942
 30
0.0
 10
0.277976
 20
2.849942
 30
0.0
 10
0.316071
 20
2.849942
 30
0.0
 10
0.325595
 20
2.845180
 30
0.0
 10
0.330357
 20
2.840418
 30
0.0
 10
0.335119
 20
2.830894
 30
0.0
 10
0.335119
 20
2.816609
 30
0.0
 10
0.330357
 20
2.807085
 30
0.0
 10
0.325595
 20
2.802323
 30
0.0
 10
0.316071
 20
2.797561
 30
0.0
 10
0.277976
 20
2.797561
 30
0.0
  0
LWPOLYLINE
  5
13e
100
AcDbEntity
  8
0
 62
7
100
AcDbPolyline
 90
2
 70
0
 10
0.373214
 20
2.778513
 30
0.0
 10
0.420833
 20
2.778513
 30
0.0
  0
LWPOLYLINE
  5
13f
100
AcDbEntity
  8
0
 62
7
100
AcDbPolyline
 90
3
 70
0
 10
0.363690
 20
2.749942
 30
0.0
 10
0.397024
 20
2.849942
 30
0.0
 10
0.430357
 20
2.749942
 30
0.0
  0
LWPOLYLINE
  5
140
100
AcDbEntity
  8
0
 62
7
100
AcDbPolyline
 90
3
 70
0
 10
0.511309
 20
2.749942
 30
0.0
 10
0.463690
 20
2.749942
 30
0.0
 10
0.463690
 20
2.849942
 30
0.0
  0
LWPOLYLINE
  5
141
100
AcDbEntity
  8
0
 62
7
100
AcDbPolyline
 90
3
 70
0
 10
7.674643
 20
5.297323
 30
0.0
 10
7.603214
 20
5.297323
 30
0.0
 10
7.603214
 20
5.447323
 30
0.0
  0
LWPOLYLINE
  5
142
100
AcDbEntity
  8
0
 62
7
100
AcDbPolyline
 90
2
 70
0
 10
7.724643
 20
5.375894
 30
0.0
 10
7.774643
 20
5.375894
 30
0.0
  0
LWPOLYLINE
  5
143
100
AcDbEntity
  8
0
 62
7
100
AcDbPolyline
 90
4
 70
0
 10
7.796071
 20
5.297323
 30
0.0
 10
7.724643
 20
5.297323
 30
0.0
 10
7.724643
 20
5.447323
 30
0.0
 10
7.796071
 20
5.447323
 30
0.0
  0
LWPOLYLINE
  5
144
100
AcDbEntity
  8
0
 62
7
100
AcDbPolyline
 90
3
 70
0
 10
7.838928
 20
5.447323
 30
0.0
 10
7.888928
 20
5.297323
 30
0.0
 10
7.938928
 20
5.447323
 30
0.0
  0
LWPOLYLINE
  5
145
100
AcDbEntity
  8
0
 62
7
100
AcDbPolyline
 90
2
 70
0
 10
7.988928
 20
5.375894
 30
0.0
 10
8.038928
 20
5.375894
 30
0.0
  0
LWPOLYLINE
  5
146
100
AcDbEntity
  8
0
 62
7
100
AcDbPolyline
 90
4
 70
0
 10
8.060357
 20
5.297323
 30
0.0
 10
7.988928
 20
5.297323
 30
0.0
 10
7.988928
 20
5.447323
 30
0.0
 10
8.060357
 20
5.447323
 30
0.0
  0
LWPOLYLINE
  5
147
100
AcDbEntity
  8
0
 62
7
100
AcDbPolyline
 90
3
 70
0
 10
8.196071
 20
5.297323
 30
0.0
 10
8.124643
 20
5.297323
 30
0.0
 10
8.124643
 20
5.447323
 30
0.0
  0
LWPOLYLINE
  5
148
100
AcDbEntity
  8
0
 62
7
100
AcDbPolyline
 90
2
 70
0
 10
8.210357
 20
5.283037
 30
0.0
 10
8.324643
 20
5.283037
 30
0.0
  0
LWPOLYLINE
  5
149
100
AcDbEntity
  8
0
 62
7
100
AcDbPolyline
 90
2
 70
0
 10
8.338928
 20
5.447323
 30
0.0
 10
8.424643
 20
5.447323
 30
0.0
  0
LWPOLYLINE
  5
14a
100
AcDbEntity
  8
0
 62
7
100
AcDbPolyline
 90
2
 70
0
 10
8.381786
 20
5.297323
 30
0.0
 10
8.381786
 20
5.447323
 30
0.0
  0
LWPOLYLINE
  5
14b
100
AcDbEntity
  8
0
 62
7
100
AcDbPolyline
 90
5
 70
0
 10
8.460357
 20
5.447323
 30
0.0
 10
8.496071
 20
5.297323
 30
0.0
 10
8.524643
 20
5.404466
 30
0.0
 10
8.553214
 20
5.297323
 30
0.0
 10
8.588928
 20
5.447323
 30
0.0
  0
LWPOLYLINE
  5
14c
100
AcDbEntity
  8
0
 62
7
100
AcDbPolyline
 90
16
 70
1
 10
8.674643
 20
5.447323
 30
0.0
 10
8.703214
 20
5.447323
 30
0.0
 10
8.717500
 20
5.440180
 30
0.0
 10
8.731786
 20
5.425894
 30
0.0
 10
8.738929
 20
5.397323
 30
0.0
 10
8.738929
 20
5.347323
 30
0.0
 10
8.731786
 20
5.318751
 30
0.0
 10
8.717500
 20
5.304466
 30
0.0
 10
8.703214
 20
5.297323
 30
0.0
 10
8.674643
 20
5.297323
 30
0.0
 10
8.660357
 20
5.304466
 30
0.0
 10
8.646071
 20
5.318751
 30
0.0
 10
8.638929
 20
5.347323
 30
0.0
 10
8.638929
 20
5.397323
 30
0.0
 10
8.646071
 20
5.425894
 30
0.0
 10
8.660357
 20
5.440180
 30
0.0
  0
LWPOLYLINE
  5
14d
100
AcDbEntity
  8
0
 62
7
100
AcDbPolyline
 90
19
 70
0
 10
2.991786
 20
9.815894
 30
0.0
 10
3.013214
 20
9.808751
 30
0.0
 10
3.020357
 20
9.801609
 30
0.0
 10
3.027500
 20
9.787323
 30
0.0
 10
3.027500
 20
9.765894
 30
0.0
 10
3.020357
 20
9.751609
 30
0.0
 10
3.013214
 20
9.744466
 30
0.0
 10
2.998928
 20
9.737323
 30
0.0
 10
2.941786
 20
9.737323
 30
0.0
 10
2.941786
 20
9.887323
 30
0.0
 10
2.991786
 20
9.887323
 30
0.0
 10
3.006071
 20
9.880180
 30
0.0
 10
3.013214
 20
9.873037
 30
0.0
 10
3.020357
 20
9.858752
 30
0.0
 10
3.020357
 20
9.844466
 30
0.0
 10
3.013214
 20
9.830180
 30
0.0
 10
3.006071
 20
9.823037
 30
0.0
 10
2.991786
 20
9.815894
 30
0.0
 10
2.941786
 20
9.815894
 30
0.0
  0
LWPOLYLINE
  5
14e
100
AcDbEntity
  8
0
 62
7
100
AcDbPolyline
 90
2
 70
0
 10
3.120357
 20
9.808751
 30
0.0
 10
3.120357
 20
9.737323
 30
0.0
  0
LWPOLYLINE
  5
14f
100
AcDbEntity
  8
0
 62
7
100
AcDbPolyline
 90
3
 70
0
 10
3.070357
 20
9.887323
 30
0.0
 10
3.120357
 20
9.808751
 30
0.0
 10
3.170357
 20
9.887323
 30
0.0
  0
LWPOLYLINE
  5
150
100
AcDbEntity
  8
0
 62
7
100
AcDbPolyline
 90
11
 70
0
 10
3.220357
 20
9.737323
 30
0.0
 10
3.220357
 20
9.887323
 30
0.0
 10
3.277500
 20
9.887323
 30
0.0
 10
3.291786
 20
9.880180
 30
0.0
 10
3.298928
 20
9.873037
 30
0.0
 10
3.306071
 20
9.858752
 30
0.0
 10
3.306071
 20
9.837323
 30
0.0
 10
3.298928
 20
9.823037
 30
0.0
 10
3.291786
 20
9.815894
 30
0.0
 10
3.277500
 20
9.808751
 30
0.0
 10
3.220357
 20
9.808751
 30
0.0
  0
LWPOLYLINE
  5
151
100
AcDbEntity
  8
0
 62
7
100
AcDbPolyline
 90
2
 70
0
 10
3.363214
 20
9.780180
 30
0.0
 10
3.434643
 20
9.780180
 30
0.0
  0
LWPOLYLINE
  5
152
100
AcDbEntity
  8
0
 62
7
100
AcDbPolyline
 90
3
 70
0
 10
3.348928
 20
9.737323
 30
0.0
 10
3.398928
 20
9.887323
 30
0.0
 10
3.448929
 20
9.737323
 30
0.0
  0
LWPOLYLINE
  5
153
100
AcDbEntity
  8
0
 62
7
100
AcDbPolyline
 90
20
 70
0
 10
3.491786
 20
9.744466
 30
0.0
 10
3.513214
 20
9.737323
 30
0.0
 10
3.548928
 20
9.737323
 30
0.0
 10
3.563214
 20
9.744466
 30
0.0
 10
3.570357
 20
9.751609
 30
0.0
 10
3.577500
 20
9.765894
 30
0.0
 10
3.577500
 20
9.780180
 30
0.0
 10
3.570357
 20
9.794466
 30
0.0
 10
3.563214
 20
9.801609
 30
0.0
 10
3.548928
 20
9.808751
 30
0.0
 10
3.520357
 20
9.815894
 30
0.0
 10
3.506071
 20
9.823037
 30
0.0
 10
3.498928
 20
9.830180
 30
0.0
 10
3.491786
 20
9.844466
 30
0.0
 10
3.491786
 20
9.858752
 30
0.0
 10
3.498928
 20
9.873037
 30
0.0
 10
3.506071
 20
9.880180
 30
0.0
 10
3.520357
 20
9.887323
 30
0.0
 10
3.556071
 20
9.887323
 30
0.0
 10
3.577500
 20
9.880180
 30
0.0
  0
LWPOLYLINE
  5
154
100
AcDbEntity
  8
0
 62
7
100
AcDbPolyline
 90
20
 70
0
 10
3.634643
 20
9.744466
 30
0.0
 10
3.656071
 20
9.737323
 30
0.0
 10
3.691786
 20
9.737323
 30
0.0
 10
3.706071
 20
9.744466
 30
0.0
 10
3.713214
 20
9.751609
 30
0.0
 10
3.720357
 20
9.765894
 30
0.0
 10
3.720357
 20
9.780180
 30
0.0
 10
3.713214
 20
9.794466
 30
0.0
 10
3.706071
 20
9.801609
 30
0.0
 10
3.691786
 20
9.808751
 30
0.0
 10
3.663214
 20
9.815894
 30
0.0
 10
3.648928
 20
9.823037
 30
0.0
 10
3.641786
 20
9.830180
 30
0.0
 10
3.634643
 20
9.844466
 30
0.0
 10
3.634643
 20
9.858752
 30
0.0
 10
3.641786
 20
9.873037
 30
0.0
 10
3.648928
 20
9.880180
 30
0.0
 10
3.663214
 20
9.887323
 30
0.0
 10
3.698928
 20
9.887323
 30
0.0
 10
3.720357
 20
9.880180
 30
0.0
  0
LWPOLYLINE
  5
155
100
AcDbEntity
  8
0
 62
7
100
AcDbPolyline
 90
16
 70
0
 10
4.971786
 20
9.882085
 30
0.0
 10
4.852738
 20
9.882085
 30
0.0
 10
4.840833
 20
9.763037
 30
0.0
 10
4.852738
 20
9.774942
 30
0.0
 10
4.876548
 20
9.786847
 30
0.0
 10
4.936071
 20
9.786847
 30
0.0
 10
4.959881
 20
9.774942
 30
0.0
 10
4.971786
 20
9.763037
 30
0.0
 10
4.983690
 20
9.739228
 30
0.0
 10
4.983690
 20
9.679704
 30
0.0
 10
4.971786
 20
9.655894
 30
0.0
 10
4.959881
 20
9.643990
 30
0.0
 10
4.936071
 20
9.632085
 30
0.0
 10
4.876548
 20
9.632085
 30
0.0
 10
4.852738
 20
9.643990
 30
0.0
 10
4.840833
 20
9.655894
 30
0.0
  0
LWPOLYLINE
  5
156
100
AcDbEntity
  8
0
 62
7
100
AcDbPolyline
 90
3
 70
0
 10
5.067024
 20
9.798751
 30
0.0
 10
5.126548
 20
9.632085
 30
0.0
 10
5.186071
 20
9.798751
 30
0.0
  0
LWPOLYLINE
  5
157
100
AcDbEntity
  8
0
 62
7
100
AcDbPolyline
 90
2
 70
0
 10
3.996071
 20
7.467323
 30
0.0
 10
4.081786
 20
7.467323
 30
0.0
  0
LWPOLYLINE
  5
158
100
AcDbEntity
  8
0
 62
7
100
AcDbPolyline
 90
2
 70
0
 10
4.038928
 20
7.317323
 30
0.0
 10
4.038928
 20
7.467323
 30
0.0
  0
LWPOLYLINE
  5
159
100
AcDbEntity
  8
0
 62
7
100
AcDbPolyline
 90
5
 70
0
 10
4.117500
 20
7.467323
 30
0.0
 10
4.153214
 20
7.317323
 30
0.0
 10
4.181786
 20
7.424466
 30
0.0
 10
4.210357
 20
7.317323
 30
0.0
 10
4.246071
 20
7.467323
 30
0.0
  0
LWPOLYLINE
  5
15a
100
AcDbEntity
  8
0
 62
7
100
AcDbPolyline
 90
16
 70
1
 10
4.331786
 20
7.467323
 30
0.0
 10
4.360357
 20
7.467323
 30
0.0
 10
4.374643
 20
7.460180
 30
0.0
 10
4.388928
 20
7.445894
 30
0.0
 10
4.396071
 20
7.417323
 30
0.0
 10
4.396071
 20
7.367323
 30
0.0
 10
4.388928
 20
7.338751
 30
0.0
 10
4.374643
 20
7.324466
 30
0.0
 10
4.360357
 20
7.317323
 30
0.0
 10
4.331786
 20
7.317323
 30
0.0
 10
4.317500
 20
7.324466
 30
0.0
 10
4.303214
 20
7.338751
 30
0.0
 10
4.296071
 20
7.367323
 30
0.0
 10
4.296071
 20
7.417323
 30
0.0
 10
4.303214
 20
7.445894
 30
0.0
 10
4.317500
 20
7.460180
 30
0.0
  0
LWPOLYLINE
  5
15b
100
AcDbEntity
  8
0
 62
7
100
AcDbPolyline
 90
2
 70
0
 10
4.424643
 20
7.303037
 30
0.0
 10
4.538928
 20
7.303037
 30
0.0
  0
LWPOLYLINE
  5
15c
100
AcDbEntity
  8
0
 62
7
100
AcDbPolyline
 90
11
 70
0
 10
4.574643
 20
7.317323
 30
0.0
 10
4.574643
 20
7.467323
 30
0.0
 10
4.631786
 20
7.467323
 30
0.0
 10
4.646071
 20
7.460180
 30
0.0
 10
4.653214
 20
7.453037
 30
0.0
 10
4.660357
 20
7.438751
 30
0.0
 10
4.660357
 20
7.417323
 30
0.0
 10
4.653214
 20
7.403037
 30
0.0
 10
4.646071
 20
7.395894
 30
0.0
 10
4.631786
 20
7.388751
 30
0.0
 10
4.574643
 20
7.388751
 30
0.0
  0
LWPOLYLINE
  5
15d
100
AcDbEntity
  8
0
 62
7
100
AcDbPolyline
 90
16
 70
1
 10
4.753214
 20
7.467323
 30
0.0
 10
4.781786
 20
7.467323
 30
0.0
 10
4.796071
 20
7.460180
 30
0.0
 10
4.810357
 20
7.445894
 30
0.0
 10
4.817500
 20
7.417323
 30
0.0
 10
4.817500
 20
7.367323
 30
0.0
 10
4.810357
 20
7.338751
 30
0.0
 10
4.796071
 20
7.324466
 30
0.0
 10
4.781786
 20
7.317323
 30
0.0
 10
4.753214
 20
7.317323
 30
0.0
 10
4.738929
 20
7.324466
 30
0.0
 10
4.724643
 20
7.338751
 30
0.0
 10
4.717500
 20
7.367323
 30
0.0
 10
4.717500
 20
7.417323
 30
0.0
 10
4.724643
 20
7.445894
 30
0.0
 10
4.738929
 20
7.460180
 30
0.0
  0
LWPOLYLINE
  5
15e
100
AcDbEntity
  8
0
 62
7
100
AcDbPolyline
 90
2
 70
0
 10
4.881786
 20
7.317323
 30
0.0
 10
4.881786
 20
7.467323
 30
0.0
  0
LWPOLYLINE
  5
15f
100
AcDbEntity
  8
0
 62
7
100
AcDbPolyline
 90
4
 70
0
 10
4.953214
 20
7.317323
 30
0.0
 10
4.953214
 20
7.467323
 30
0.0
 10
5.038928
 20
7.317323
 30
0.0
 10
5.038928
 20
7.467323
 30
0.0
  0
LWPOLYLINE
  5
160
100
AcDbEntity
  8
0
 62
7
100
AcDbPolyline
 90
2
 70
0
 10
5.088928
 20
7.467323
 30
0.0
 10
5.174643
 20
7.467323
 30
0.0
  0
LWPOLYLINE
  5
161
100
AcDbEntity
  8
0
 62
7
100
AcDbPolyline
 90
2
 70
0
 10
5.131786
 20
7.317323
 30
0.0
 10
5.131786
 20
7.467323
 30
0.0
  0
LWPOLYLINE
  5
162
100
AcDbEntity
  8
0
 62
7
100
AcDbPolyline
 90
2
 70
0
 10
5.188928
 20
7.303037
 30
0.0
 10
5.303214
 20
7.303037
 30
0.0
  0
LWPOLYLINE
  5
163
100
AcDbEntity
  8
0
 62
7
100
AcDbPolyline
 90
16
 70
1
 10
5.367500
 20
7.467323
 30
0.0
 10
5.396071
 20
7.467323
 30
0.0
 10
5.410357
 20
7.460180
 30
0.0
 10
5.424643
 20
7.445894
 30
0.0
 10
5.431786
 20
7.417323
 30
0.0
 10
5.431786
 20
7.367323
 30
0.0
 10
5.424643
 20
7.338751
 30
0.0
 10
5.410357
 20
7.324466
 30
0.0
 10
5.396071
 20
7.317323
 30
0.0
 10
5.367500
 20
7.317323
 30
0.0
 10
5.353214
 20
7.324466
 30
0.0
 10
5.338928
 20
7.338751
 30
0.0
 10
5.331786
 20
7.367323
 30
0.0
 10
5.331786
 20
7.417323
 30
0.0
 10
5.338928
 20
7.445894
 30
0.0
 10
5.353214
 20
7.460180
 30
0.0
  0
LWPOLYLINE
  5
164
100
AcDbEntity
  8
0
 62
7
100
AcDbPolyline
 90
4
 70
0
 10
5.496071
 20
7.317323
 30
0.0
 10
5.496071
 20
7.467323
 30
0.0
 10
5.581786
 20
7.317323
 30
0.0
 10
5.581786
 20
7.467323
 30
0.0
  0
LWPOLYLINE
  5
165
100
AcDbEntity
  8
0
 62
7
100
AcDbPolyline
 90
2
 70
0
 10
5.653214
 20
7.395894
 30
0.0
 10
5.703214
 20
7.395894
 30
0.0
  0
LWPOLYLINE
  5
166
100
AcDbEntity
  8
0
 62
7
100
AcDbPolyline
 90
4
 70
0
 10
5.724643
 20
7.317323
 30
0.0
 10
5.653214
 20
7.317323
 30
0.0
 10
5.653214
 20
7.467323
 30
0.0
 10
5.724643
 20
7.467323
 30
0.0
  0
LWPOLYLINE
  5
167
100
AcDbEntity
  8
0
 62
7
100
AcDbPolyline
 90
3
 70
0
 10
1.371786
 20
8.516609
 30
0.0
 10
1.451786
 20
8.276609
 30
0.0
 10
1.531786
 20
8.516609
 30
0.0
  0
LWPOLYLINE
  5
168
100
AcDbEntity
  8
0
 62
7
100
AcDbPolyline
 90
2
 70
0
 10
1.611786
 20
8.276609
 30
0.0
 10
1.611786
 20
8.516609
 30
0.0
  0
LWPOLYLINE
  5
169
100
AcDbEntity
  8
0
 62
7
100
AcDbPolyline
 90
12
 70
1
 10
1.726071
 20
8.276609
 30
0.0
 10
1.726071
 20
8.516609
 30
0.0
 10
1.783214
 20
8.516609
 30
0.0
 10
1.817500
 20
8.505180
 30
0.0
 10
1.840357
 20
8.482323
 30
0.0
 10
1.851786
 20
8.459466
 30
0.0
 10
1.863214
 20
8.413752
 30
0.0
 10
1.863214
 20
8.379466
 30
0.0
 10
1.851786
 20
8.333751
 30
0.0
 10
1.840357
 20
8.310894
 30
0.0
 10
1.817500
 20
8.288037
 30
0.0
 10
1.783214
 20
8.276609
 30
0.0
  0
LWPOLYLINE
  5
16a
100
AcDbEntity
  8
0
 62
7
100
AcDbPolyline
 90
2
 70
0
 10
1.966071
 20
8.402323
 30
0.0
 10
2.046071
 20
8.402323
 30
0.0
  0
LWPOLYLINE
  5
16b
100
AcDbEntity
  8
0
 62
7
100
AcDbPolyline
 90
4
 70
0
 10
2.080357
 20
8.276609
 30
0.0
 10
1.966071
 20
8.276609
 30
0.0
 10
1.966071
 20
8.516609
 30
0.0
 10
2.080357
 20
8.516609
 30
0.0
  0
LWPOLYLINE
  5
16c
100
AcDbEntity
  8
0
 62
7
100
AcDbPolyline
 90
16
 70
1
 10
2.228928
 20
8.516609
 30
0.0
 10
2.274643
 20
8.516609
 30
0.0
 10
2.297500
 20
8.505180
 30
0.0
 10
2.320357
 20
8.482323
 30
0.0
 10
2.331786
 20
8.436609
 30
0.0
 10
2.331786
 20
8.356609
 30
0.0
 10
2.320357
 20
8.310894
 30
0.0
 10
2.297500
 20
8.288037
 30
0.0
 10
2.274643
 20
8.276609
 30
0.0
 10
2.228928
 20
8.276609
 30
0.0
 10
2.206071
 20
8.288037
 30
0.0
 10
2.183214
 20
8.310894
 30
0.0
 10
2.171786
 20
8.356609
 30
0.0
 10
2.171786
 20
8.436609
 30
0.0
 10
2.183214
 20
8.482323
 30
0.0
 10
2.206071
 20
8.505180
 30
0.0
  0
LWPOLYLINE
  5
16d
100
AcDbEntity
  8
0
 62
7
100
AcDbPolyline
 90
2
 70
0
 10
2.377500
 20
8.253751
 30
0.0
 10
2.560357
 20
8.253751
 30
0.0
  0
LWPOLYLINE
  5
16e
100
AcDbEntity
  8
0
 62
7
100
AcDbPolyline
 90
2
 70
0
 10
2.617500
 20
8.276609
 30
0.0
 10
2.617500
 20
8.516609
 30
0.0
  0
LWPOLYLINE
  5
16f
100
AcDbEntity
  8
0
 62
7
100
AcDbPolyline
 90
4
 70
0
 10
2.731786
 20
8.276609
 30
0.0
 10
2.731786
 20
8.516609
 30
0.0
 10
2.868928
 20
8.276609
 30
0.0
 10
2.868928
 20
8.516609
 30
0.0
  0
LWPOLYLINE
  5
170
100
AcDbEntity
  8
0
 62
7
100
AcDbPolyline
 90
2
 70
0
 10
0.805357
 20
3.363990
 30
0.0
 10
0.805357
 20
3.330656
 30
0.0
  0
LWPOLYLINE
  5
171
100
AcDbEntity
  8
0
 62
7
100
AcDbPolyline
 90
3
 70
0
 10
0.857738
 20
3.330656
 30
0.0
 10
0.757738
 20
3.330656
 30
0.0
 10
0.757738
 20
3.378275
 30
0.0
  0
LWPOLYLINE
  5
172
100
AcDbEntity
  8
0
 62
7
100
AcDbPolyline
 90
16
 70
1
 10
0.757738
 20
3.435418
 30
0.0
 10
0.757738
 20
3.454466
 30
0.0
 10
0.762500
 20
3.463990
 30
0.0
 10
0.772024
 20
3.473513
 30
0.0
 10
0.791071
 20
3.478275
 30
0.0
 10
0.824405
 20
3.478275
 30
0.0
 10
0.843452
 20
3.473513
 30
0.0
 10
0.852976
 20
3.463990
 30
0.0
 10
0.857738
 20
3.454466
 30
0.0
 10
0.857738
 20
3.435418
 30
0.0
 10
0.852976
 20
3.425894
 30
0.0
 10
0.843452
 20
3.416371
 30
0.0
 10
0.824405
 20
3.411609
 30
0.0
 10
0.791071
 20
3.411609
 30
0.0
 10
0.772024
 20
3.416371
 30
0.0
 10
0.762500
 20
3.425894
 30
0.0
  0
LWPOLYLINE
  5
173
100
AcDbEntity
  8
0
 62
7
100
AcDbPolyline
 90
2
 70
0
 10
0.857738
 20
3.578275
 30
0.0
 10
0.810119
 20
3.544942
 30
0.0
  0
LWPOLYLINE
  5
174
100
AcDbEntity
  8
0
 62
7
100
AcDbPolyline
 90
11
 70
0
 10
0.857738
 20
3.521132
 30
0.0
 10
0.757738
 20
3.521132
 30
0.0
 10
0.757738
 20
3.559228
 30
0.0
 10
0.762500
 20
3.568752
 30
0.0
 10
0.767262
 20
3.573513
 30
0.0
 10
0.776786
 20
3.578275
 30
0.0
 10
0.791071
 20
3.578275
 30
0.0
 10
0.800595
 20
3.573513
 30
0.0
 10
0.805357
 20
3.568752
 30
0.0
 10
0.810119
 20
3.559228
 30
0.0
 10
0.810119
 20
3.521132
 30
0.0
  0
LWPOLYLINE
  5
175
100
AcDbEntity
  8
0
 62
7
100
AcDbPolyline
 90
5
 70
0
 10
0.857738
 20
3.621132
 30
0.0
 10
0.757738
 20
3.621132
 30
0.0
 10
0.829167
 20
3.654466
 30
0.0
 10
0.757738
 20
3.687799
 30
0.0
 10
0.857738
 20
3.687799
 30
0.0
  0
LWPOLYLINE
  5
176
100
AcDbEntity
  8
0
 62
7
100
AcDbPolyline
 90
2
 70
0
 10
0.829167
 20
3.730656
 30
0.0
 10
0.829167
 20
3.778275
 30
0.0
  0
LWPOLYLINE
  5
177
100
AcDbEntity
  8
0
 62
7
100
AcDbPolyline
 90
3
 70
0
 10
0.857738
 20
3.721132
 30
0.0
 10
0.757738
 20
3.754466
 30
0.0
 10
0.857738
 20
3.787799
 30
0.0
  0
LWPOLYLINE
  5
178
100
AcDbEntity
  8
0
 62
7
100
AcDbPolyline
 90
2
 70
0
 10
0.757738
 20
3.806847
 30
0.0
 10
0.757738
 20
3.863990
 30
0.0
  0
LWPOLYLINE
  5
179
100
AcDbEntity
  8
0
 62
7
100
AcDbPolyline
 90
2
 70
0
 10
0.857738
 20
3.835418
 30
0.0
 10
0.757738
 20
3.835418
 30
0.0
  0
LWPOLYLINE
  5
17a
100
AcDbEntity
  8
0
 62
7
100
AcDbPolyline
 90
16
 70
0
 10
4.444643
 20
0.201609
 30
0.0
 10
4.437500
 20
0.194466
 30
0.0
 10
4.416071
 20
0.187323
 30
0.0
 10
4.401786
 20
0.187323
 30
0.0
 10
4.380357
 20
0.194466
 30
0.0
 10
4.366071
 20
0.208751
 30
0.0
 10
4.358929
 20
0.223037
 30
0.0
 10
4.351786
 20
0.251609
 30
0.0
 10
4.351786
 20
0.273037
 30
0.0
 10
4.358929
 20
0.301609
 30
0.0
 10
4.366071
 20
0.315894
 30
0.0
 10
4.380357
 20
0.330180
 30
0.0
 10
4.401786
 20
0.337323
 30
0.0
 10
4.416071
 20
0.337323
 30
0.0
 10
4.437500
 20
0.330180
 30
0.0
 10
4.444643
 20
0.323037
 30
0.0
  0
LWPOLYLINE
  5
17b
100
AcDbEntity
  8
0
 62
7
100
AcDbPolyline
 90
16
 70
1
 10
4.537500
 20
0.337323
 30
0.0
 10
4.566071
 20
0.337323
 30
0.0
 10
4.580357
 20
0.330180
 30
0.0
 10
4.594643
 20
0.315894
 30
0.0
 10
4.601786
 20
0.287323
 30
0.0
 10
4.601786
 20
0.237323
 30
0.0
 10
4.594643
 20
0.208751
 30
0.0
 10
4.580357
 20
0.194466
 30
0.0
 10
4.566071
 20
0.187323
 30
0.0
 10
4.537500
 20
0.187323
 30
0.0
 10
4.523214
 20
0.194466
 30
0.0
 10
4.508928
 20
0.208751
 30
0.0
 10
4.501786
 20
0.237323
 30
0.0
 10
4.501786
 20
0.287323
 30
0.0
 10
4.508928
 20
0.315894
 30
0.0
 10
4.523214
 20
0.330180
 30
0.0
  0
LWPOLYLINE
  5
17c
100
AcDbEntity
  8
0
 62
7
100
AcDbPolyline
 90
3
 70
0
 10
4.737500
 20
0.187323
 30
0.0
 10
4.666071
 20
0.187323
 30
0.0
 10
4.666071
 20
0.337323
 30
0.0
  0
LWPOLYLINE
  5
17d
100
AcDbEntity
  8
0
 62
7
100
AcDbPolyline
 90
16
 70
1
 10
4.816071
 20
0.337323
 30
0.0
 10
4.844643
 20
0.337323
 30
0.0
 10
4.858929
 20
0.330180
 30
0.0
 10
4.873214
 20
0.315894
 30
0.0
 10
4.880357
 20
0.287323
 30
0.0
 10
4.880357
 20
0.237323
 30
0.0
 10
4.873214
 20
0.208751
 30
0.0
 10
4.858929
 20
0.194466
 30
0.0
 10
4.844643
 20
0.187323
 30
0.0
 10
4.816071
 20
0.187323
 30
0.0
 10
4.801786
 20
0.194466
 30
0.0
 10
4.787500
 20
0.208751
 30
0.0
 10
4.780357
 20
0.237323
 30
0.0
 10
4.780357
 20
0.287323
 30
0.0
 10
4.787500
 20
0.315894
 30
0.0
 10
4.801786
 20
0.330180
 30
0.0
  0
LWPOLYLINE
  5
17e
100
AcDbEntity
  8
0
 62
7
100
AcDbPolyline
 90
2
 70
0
 10
5.030357
 20
0.187323
 30
0.0
 10
4.980357
 20
0.258752
 30
0.0
  0
LWPOLYLINE
  5
17f
100
AcDbEntity
  8
0
 62
7
100
AcDbPolyline
 90
11
 70
0
 10
4.944643
 20
0.187323
 30
0.0
 10
4.944643
 20
0.337323
 30
0.0
 10
5.001786
 20
0.337323
 30
0.0
 10
5.016071
 20
0.330180
 30
0.0
 10
5.023214
 20
0.323037
 30
0.0
 10
5.030357
 20
0.308751
 30
0.0
 10
5.030357
 20
0.287323
 30
0.0
 10
5.023214
 20
0.273037
 30
0.0
 10
5.016071
 20
0.265894
 30
0.0
 10
5.001786
 20
0.258752
 30
0.0
 10
4.944643
 20
0.258752
 30
0.0
  0
LWPOLYLINE
  5
180
100
AcDbEntity
  8
0
 62
7
100
AcDbPolyline
 90
2
 70
0
 10
5.058928
 20
0.173037
 30
0.0
 10
5.173214
 20
0.173037
 30
0.0
  0
LWPOLYLINE
  5
181
100
AcDbEntity
  8
0
 62
7
100
AcDbPolyline
 90
19
 70
0
 10
5.258928
 20
0.265894
 30
0.0
 10
5.280357
 20
0.258752
 30
0.0
 10
5.287500
 20
0.251609
 30
0.0
 10
5.294643
 20
0.237323
 30
0.0
 10
5.294643
 20
0.215894
 30
0.0
 10
5.287500
 20
0.201609
 30
0.0
 10
5.280357
 20
0.194466
 30
0.0
 10
5.266071
 20
0.187323
 30
0.0
 10
5.208928
 20
0.187323
 30
0.0
 10
5.208928
 20
0.337323
 30
0.0
 10
5.258928
 20
0.337323
 30
0.0
 10
5.273214
 20
0.330180
 30
0.0
 10
5.280357
 20
0.323037
 30
0.0
 10
5.287500
 20
0.308751
 30
0.0
 10
5.287500
 20
0.294466
 30
0.0
 10
5.280357
 20
0.280180
 30
0.0
 10
5.273214
 20
0.273037
 30
0.0
 10
5.258928
 20
0.265894
 30
0.0
 10
5.208928
 20
0.265894
 30
0.0
  0
LWPOLYLINE
  5
182
100
AcDbEntity
  8
0
 62
7
100
AcDbPolyline
 90
16
 70
1
 10
5.387500
 20
0.337323
 30
0.0
 10
5.416071
 20
0.337323
 30
0.0
 10
5.430357
 20
0.330180
 30
0.0
 10
5.444643
 20
0.315894
 30
0.0
 10
5.451786
 20
0.287323
 30
0.0
 10
5.451786
 20
0.237323
 30
0.0
 10
5.444643
 20
0.208751
 30
0.0
 10
5.430357
 20
0.194466
 30
0.0
 10
5.416071
 20
0.187323
 30
0.0
 10
5.387500
 20
0.187323
 30
0.0
 10
5.373214
 20
0.194466
 30
0.0
 10
5.358928
 20
0.208751
 30
0.0
 10
5.351786
 20
0.237323
 30
0.0
 10
5.351786
 20
0.287323
 30
0.0
 10
5.358928
 20
0.315894
 30
0.0
 10
5.373214
 20
0.330180
 30
0.0
  0
LWPOLYLINE
  5
183
100
AcDbEntity
  8
0
 62
7
100
AcDbPolyline
 90
2
 70
0
 10
5.494643
 20
0.337323
 30
0.0
 10
5.580357
 20
0.337323
 30
0.0
  0
LWPOLYLINE
  5
184
100
AcDbEntity
  8
0
 62
7
100
AcDbPolyline
 90
2
 70
0
 10
5.537500
 20
0.187323
 30
0.0
 10
5.537500
 20
0.337323
 30
0.0
  0
LWPOLYLINE
  5
185
100
AcDbEntity
  8
0
 62
7
100
AcDbPolyline
 90
2
 70
0
 10
5.630357
 20
0.187323
 30
0.0
 10
5.630357
 20
0.337323
 30
0.0
  0
LWPOLYLINE
  5
186
100
AcDbEntity
  8
0
 62
7
100
AcDbPolyline
 90
2
 70
0
 10
5.630357
 20
0.265894
 30
0.0
 10
5.716071
 20
0.265894
 30
0.0
  0
LWPOLYLINE
  5
187
100
AcDbEntity
  8
0
 62
7
100
AcDbPolyline
 90
2
 70
0
 10
5.716071
 20
0.187323
 30
0.0
 10
5.716071
 20
0.337323
 30
0.0
  0
LWPOLYLINE
  5
188
100
AcDbEntity
  8
0
 62
7
100
AcDbPolyline
 90
3
 70
0
 10
6.801786
 20
8.516609
 30
0.0
 10
6.881786
 20
8.276609
 30
0.0
 10
6.961786
 20
8.516609
 30
0.0
  0
LWPOLYLINE
  5
189
100
AcDbEntity
  8
0
 62
7
100
AcDbPolyline
 90
2
 70
0
 10
7.041786
 20
8.276609
 30
0.0
 10
7.041786
 20
8.516609
 30
0.0
  0
LWPOLYLINE
  5
18a
100
AcDbEntity
  8
0
 62
7
100
AcDbPolyline
 90
12
 70
1
 10
7.156071
 20
8.276609
 30
0.0
 10
7.156071
 20
8.516609
 30
0.0
 10
7.213214
 20
8.516609
 30
0.0
 10
7.247500
 20
8.505180
 30
0.0
 10
7.270357
 20
8.482323
 30
0.0
 10
7.281786
 20
8.459466
 30
0.0
 10
7.293214
 20
8.413752
 30
0.0
 10
7.293214
 20
8.379466
 30
0.0
 10
7.281786
 20
8.333751
 30
0.0
 10
7.270357
 20
8.310894
 30
0.0
 10
7.247500
 20
8.288037
 30
0.0
 10
7.213214
 20
8.276609
 30
0.0
  0
LWPOLYLINE
  5
18b
100
AcDbEntity
  8
0
 62
7
100
AcDbPolyline
 90
2
 70
0
 10
7.396071
 20
8.402323
 30
0.0
 10
7.476071
 20
8.402323
 30
0.0
  0
LWPOLYLINE
  5
18c
100
AcDbEntity
  8
0
 62
7
100
AcDbPolyline
 90
4
 70
0
 10
7.510357
 20
8.276609
 30
0.0
 10
7.396071
 20
8.276609
 30
0.0
 10
7.396071
 20
8.516609
 30
0.0
 10
7.510357
 20
8.516609
 30
0.0
  0
LWPOLYLINE
  5
18d
100
AcDbEntity
  8
0
 62
7
100
AcDbPolyline
 90
16
 70
1
 10
7.658929
 20
8.516609
 30
0.0
 10
7.704643
 20
8.516609
 30
0.0
 10
7.727500
 20
8.505180
 30
0.0
 10
7.750357
 20
8.482323
 30
0.0
 10
7.761786
 20
8.436609
 30
0.0
 10
7.761786
 20
8.356609
 30
0.0
 10
7.750357
 20
8.310894
 30
0.0
 10
7.727500
 20
8.288037
 30
0.0
 10
7.704643
 20
8.276609
 30
0.0
 10
7.658929
 20
8.276609
 30
0.0
 10
7.636071
 20
8.288037
 30
0.0
 10
7.613214
 20
8.310894
 30
0.0
 10
7.601786
 20
8.356609
 30
0.0
 10
7.601786
 20
8.436609
 30
0.0
 10
7.613214
 20
8.482323
 30
0.0
 10
7.636071
 20
8.505180
 30
0.0
  0
LWPOLYLINE
  5
18e
100
AcDbEntity
  8
0
 62
7
100
AcDbPolyline
 90
2
 70
0
 10
7.807500
 20
8.253751
 30
0.0
 10
7.990357
 20
8.253751
 30
0.0
  0
LWPOLYLINE
  5
18f
100
AcDbEntity
  8
0
 62
7
100
AcDbPolyline
 90
16
 70
1
 10
8.093214
 20
8.516609
 30
0.0
 10
8.138929
 20
8.516609
 30
0.0
 10
8.161786
 20
8.505180
 30
0.0
 10
8.184643
 20
8.482323
 30
0.0
 10
8.196071
 20
8.436609
 30
0.0
 10
8.196071
 20
8.356609
 30
0.0
 10
8.184643
 20
8.310894
 30
0.0
 10
8.161786
 20
8.288037
 30
0.0
 10
8.138929
 20
8.276609
 30
0.0
 10
8.093214
 20
8.276609
 30
0.0
 10
8.070357
 20
8.288037
 30
0.0
 10
8.047500
 20
8.310894
 30
0.0
 10
8.036071
 20
8.356609
 30
0.0
 10
8.036071
 20
8.436609
 30
0.0
 10
8.047500
 20
8.482323
 30
0.0
 10
8.070357
 20
8.505180
 30
0.0
  0
LWPOLYLINE
  5
190
100
AcDbEntity
  8
0
 62
7
100
AcDbPolyline
 90
10
 70
0
 10
8.298928
 20
8.516609
 30
0.0
 10
8.298928
 20
8.322323
 30
0.0
 10
8.310357
 20
8.299466
 30
0.0
 10
8.321786
 20
8.288037
 30
0.0
 10
8.344643
 20
8.276609
 30
0.0
 10
8.390357
 20
8.276609
 30
0.0
 10
8.413214
 20
8.288037
 30
0.0
 10
8.424643
 20
8.299466
 30
0.0
 10
8.436071
 20
8.322323
 30
0.0
 10
8.436071
 20
8.516609
 30
0.0
  0
LWPOLYLINE
  5
191
100
AcDbEntity
  8
0
 62
7
100
AcDbPolyline
 90
2
 70
0
 10
8.516071
 20
8.516609
 30
0.0
 10
8.653214
 20
8.516609
 30
0.0
  0
LWPOLYLINE
  5
192
100
AcDbEntity
  8
0
 62
7
100
AcDbPolyline
 90
2
 70
0
 10
8.584643
 20
8.276609
 30
0.0
 10
8.584643
 20
8.516609
 30
0.0
  0
LWPOLYLINE
  5
193
100
AcDbEntity
  8
0
 62
7
100
AcDbPolyline
 90
2
 70
0
 10
9.294167
 20
3.001371
 30
0.0
 10
9.294167
 20
3.048990
 30
0.0
  0
LWPOLYLINE
  5
194
100
AcDbEntity
  8
0
 62
7
100
AcDbPolyline
 90
3
 70
0
 10
9.322738
 20
2.991847
 30
0.0
 10
9.222738
 20
3.025180
 30
0.0
 10
9.322738
 20
3.058513
 30
0.0
  0
LWPOLYLINE
  5
195
100
AcDbEntity
  8
0
 62
7
100
AcDbPolyline
 90
3
 70
0
 10
9.322738
 20
3.139466
 30
0.0
 10
9.322738
 20
3.091847
 30
0.0
 10
9.222738
 20
3.091847
 30
0.0
  0
LWPOLYLINE
  5
196
100
AcDbEntity
  8
0
 62
7
100
AcDbPolyline
 90
2
 70
0
 10
9.222738
 20
3.158513
 30
0.0
 10
9.222738
 20
3.215656
 30
0.0
  0
LWPOLYLINE
  5
197
100
AcDbEntity
  8
0
 62
7
100
AcDbPolyline
 90
2
 70
0
 10
9.322738
 20
3.187085
 30
0.0
 10
9.222738
 20
3.187085
 30
0.0
  0
LWPOLYLINE
  5
198
100
AcDbEntity
  8
0
 62
7
100
AcDbPolyline
 90
2
 70
0
 10
9.270357
 20
3.248990
 30
0.0
 10
9.270357
 20
3.282323
 30
0.0
  0
LWPOLYLINE
  5
199
100
AcDbEntity
  8
0
 62
7
100
AcDbPolyline
 90
4
 70
0
 10
9.322738
 20
3.296609
 30
0.0
 10
9.322738
 20
3.248990
 30
0.0
 10
9.222738
 20
3.248990
 30
0.0
 10
9.222738
 20
3.296609
 30
0.0
  0
LWPOLYLINE
  5
19a
100
AcDbEntity
  8
0
 62
7
100
AcDbPolyline
 90
2
 70
0
 10
9.322738
 20
3.396609
 30
0.0
 10
9.275119
 20
3.363275
 30
0.0
  0
LWPOLYLINE
  5
19b
100
AcDbEntity
  8
0
 62
7
100
AcDbPolyline
 90
11
 70
0
 10
9.322738
 20
3.339466
 30
0.0
 10
9.222738
 20
3.339466
 30
0.0
 10
9.222738
 20
3.377561
 30
0.0
 10
9.227500
 20
3.387085
 30
0.0
 10
9.232262
 20
3.391847
 30
0.0
 10
9.241786
 20
3.396609
 30
0.0
 10
9.256071
 20
3.396609
 30
0.0
 10
9.265595
 20
3.391847
 30
0.0
 10
9.270357
 20
3.387085
 30
0.0
 10
9.275119
 20
3.377561
 30
0.0
 10
9.275119
 20
3.339466
 30
0.0
  0
LWPOLYLINE
  5
19c
100
AcDbEntity
  8
0
 62
7
100
AcDbPolyline
 90
4
 70
0
 10
9.322738
 20
3.439466
 30
0.0
 10
9.222738
 20
3.439466
 30
0.0
 10
9.322738
 20
3.496609
 30
0.0
 10
9.222738
 20
3.496609
 30
0.0
  0
LWPOLYLINE
  5
19d
100
AcDbEntity
  8
0
 62
7
100
AcDbPolyline
 90
2
 70
0
 10
9.294167
 20
3.539466
 30
0.0
 10
9.294167
 20
3.587085
 30
0.0
  0
LWPOLYLINE
  5
19e
100
AcDbEntity
  8
0
 62
7
100
AcDbPolyline
 90
3
 70
0
 10
9.322738
 20
3.529942
 30
0.0
 10
9.222738
 20
3.563275
 30
0.0
 10
9.322738
 20
3.596609
 30
0.0
  0
LWPOLYLINE
  5
19f
100
AcDbEntity
  8
0
 62
7
100
AcDbPolyline
 90
2
 70
0
 10
9.222738
 20
3.615656
 30
0.0
 10
9.222738
 20
3.672799
 30
0.0
  0
LWPOLYLINE
  5
1a0
100
AcDbEntity
  8
0
 62
7
100
AcDbPolyline
 90
2
 70
0
 10
9.322738
 20
3.644228
 30
0.0
 10
9.222738
 20
3.644228
 30
0.0
  0
LWPOLYLINE
  5
1a1
100
AcDbEntity
  8
0
 62
7
100
AcDbPolyline
 90
2
 70
0
 10
9.270357
 20
3.706132
 30
0.0
 10
9.270357
 20
3.739466
 30
0.0
  0
LWPOLYLINE
  5
1a2
100
AcDbEntity
  8
0
 62
7
100
AcDbPolyline
 90
4
 70
0
 10
9.322738
 20
3.753751
 30
0.0
 10
9.322738
 20
3.706132
 30
0.0
 10
9.222738
 20
3.706132
 30
0.0
 10
9.222738
 20
3.753751
 30
0.0
  0
LWPOLYLINE
  5
1a3
100
AcDbEntity
  8
0
 62
7
100
AcDbPolyline
 90
3
 70
0
 10
9.322738
 20
3.920418
 30
0.0
 10
9.322738
 20
3.872799
 30
0.0
 10
9.222738
 20
3.872799
 30
0.0
  0
LWPOLYLINE
  5
1a4
100
AcDbEntity
  8
0
 62
7
100
AcDbPolyline
 90
2
 70
0
 10
9.322738
 20
3.953752
 30
0.0
 10
9.222738
 20
3.953752
 30
0.0
  0
LWPOLYLINE
  5
1a5
100
AcDbEntity
  8
0
 62
7
100
AcDbPolyline
 90
4
 70
0
 10
9.322738
 20
4.001371
 30
0.0
 10
9.222738
 20
4.001371
 30
0.0
 10
9.322738
 20
4.058513
 30
0.0
 10
9.222738
 20
4.058513
 30
0.0
  0
LWPOLYLINE
  5
1a6
100
AcDbEntity
  8
0
 62
7
100
AcDbPolyline
 90
2
 70
0
 10
9.270357
 20
4.106132
 30
0.0
 10
9.270357
 20
4.139466
 30
0.0
  0
LWPOLYLINE
  5
1a7
100
AcDbEntity
  8
0
 62
7
100
AcDbPolyline
 90
4
 70
0
 10
9.322738
 20
4.153752
 30
0.0
 10
9.322738
 20
4.106132
 30
0.0
 10
9.222738
 20
4.106132
 30
0.0
 10
9.222738
 20
4.153752
 30
0.0
  0
LWPOLYLINE
  5
1a8
100
AcDbEntity
  8
0
 62
7
100
AcDbPolyline
 90
20
 70
0
 10
9.317976
 20
4.191847
 30
0.0
 10
9.322738
 20
4.206132
 30
0.0
 10
9.322738
 20
4.229942
 30
0.0
 10
9.317976
 20
4.239466
 30
0.0
 10
9.313214
 20
4.244228
 30
0.0
 10
9.303690
 20
4.248990
 30
0.0
 10
9.294167
 20
4.248990
 30
0.0
 10
9.284643
 20
4.244228
 30
0.0
 10
9.279881
 20
4.239466
 30
0.0
 10
9.275119
 20
4.229942
 30
0.0
 10
9.270357
 20
4.210894
 30
0.0
 10
9.265595
 20
4.201370
 30
0.0
 10
9.260833
 20
4.196609
 30
0.0
 10
9.251309
 20
4.191847
 30
0.0
 10
9.241786
 20
4.191847
 30
0.0
 10
9.232262
 20
4.196609
 30
0.0
 10
9.227500
 20
4.201370
 30
0.0
 10
9.222738
 20
4.210894
 30
0.0
 10
9.222738
 20
4.234704
 30
0.0
 10
9.227500
 20
4.248990
 30
0.0
  0
LWPOLYLINE
  5
1a9
100
AcDbEntity
  8
0
 62
7
100
AcDbPolyline
 90
16
 70
1
 10
9.602262
 20
4.459942
 30
0.0
 10
9.621309
 20
4.459942
 30
0.0
 10
9.630833
 20
4.455180
 30
0.0
 10
9.640357
 20
4.445656
 30
0.0
 10
9.645119
 20
4.426609
 30
0.0
 10
9.645119
 20
4.393275
 30
0.0
 10
9.640357
 20
4.374228
 30
0.0
 10
9.630833
 20
4.364704
 30
0.0
 10
9.621309
 20
4.359942
 30
0.0
 10
9.602262
 20
4.359942
 30
0.0
 10
9.592738
 20
4.364704
 30
0.0
 10
9.583214
 20
4.374228
 30
0.0
 10
9.578452
 20
4.393275
 30
0.0
 10
9.578452
 20
4.426609
 30
0.0
 10
9.583214
 20
4.445656
 30
0.0
 10
9.592738
 20
4.455180
 30
0.0
  0
LWPOLYLINE
  5
1aa
100
AcDbEntity
  8
0
 62
7
100
AcDbPolyline
 90
2
 70
0
 10
9.721310
 20
4.412323
 30
0.0
 10
9.687976
 20
4.412323
 30
0.0
  0
LWPOLYLINE
  5
1ab
100
AcDbEntity
  8
0
 62
7
100
AcDbPolyline
 90
3
 70
0
 10
9.687976
 20
4.359942
 30
0.0
 10
9.687976
 20
4.459942
 30
0.0
 10
9.735595
 20
4.459942
 30
0.0
  0
LWPOLYLINE
  5
1ac
100
AcDbEntity
  8
0
 62
7
100
AcDbPolyline
 90
2
 70
0
 10
9.807024
 20
4.412323
 30
0.0
 10
9.773690
 20
4.412323
 30
0.0
  0
LWPOLYLINE
  5
1ad
100
AcDbEntity
  8
0
 62
7
100
AcDbPolyline
 90
3
 70
0
 10
9.773690
 20
4.359942
 30
0.0
 10
9.773690
 20
4.459942
 30
0.0
 10
9.821309
 20
4.459942
 30
0.0
  0
ENDSEC
  0
SECTION
  2
OBJECTS
  0
DICTIONARY
  5
C
330
0
100
AcDbDictionary
  3
ACAD_GROUP
350
D
  3
ACAD_MLINESTYLE
350
17
  0
DICTIONARY
  5
D
330
C
100
AcDbDictionary
  0
DICTIONARY
  5
1A
330
C
100
AcDbDictionary
  0
DICTIONARY
  5
17
330
C
100
AcDbDictionary
  3
STANDARD
350
18
  0
DICTIONARY
  5
19
330
C
100
AcDbDictionary
  0
ENDSEC
  0
EOF
