<?xml version="1.0" standalone="no"?>
 <!DOCTYPE svg PUBLIC "-//W3C//DTD SVG 1.1//EN" 
 "http://www.w3.org/Graphics/SVG/1.1/DTD/svg11.dtd"> 
<svg
  xmlns:svg="http://www.w3.org/2000/svg"
  xmlns="http://www.w3.org/2000/svg"
  xmlns:xlink="http://www.w3.org/1999/xlink"
  version="1.1"
  width="10.177780cm" height="12.862560cm" viewBox="0 0 101777800 128625600">
<title>SVG Picture created as eurorack_panel-Edge_Cuts.svg date 2023/07/12 17:10:34 </title>
  <desc>Picture generated by PCBNEW </desc>
<g style="fill:#000000; fill-opacity:1.000000;stroke:#000000; stroke-opacity:1.000000;
stroke-linecap:round; stroke-linejoin:round;"
 transform="translate(0 0) scale(1 1)">
</g>
<g style="fill:#000000; fill-opacity:0.0; 
stroke:#000000; stroke-width:0.000000; stroke-opacity:1; 
stroke-linecap:round; stroke-linejoin:round;">
</g>
<g style="fill:#000000; fill-opacity:0.0; 
stroke:#000000; stroke-width:50000.000000; stroke-opacity:1; 
stroke-linecap:round; stroke-linejoin:round;">
<path d="M8250000 126650000
L5950000 126650000
" />
<path d="M8250000 123450000
L5950000 123450000
" />
<path d="M95900000 126700000
L93600000 126700000
" />
<path d="M5950000.000000 1900000.000000 A1600000.000000 1600000.000000 0.0 0 0 5950000.000000 5100000.000000" />
<path d="M8250000 1900000
L5950000 1900000
" />
</g>
<g style="fill:#000000; fill-opacity:0.0; 
stroke:#000000; stroke-width:100000.000000; stroke-opacity:1; 
stroke-linecap:round; stroke-linejoin:round;">
<circle cx="29850000.000000" cy="106750000.000000" r="4000000.000000" /> 
</g>
<g style="fill:#000000; fill-opacity:0.0; 
stroke:#000000; stroke-width:50000.000000; stroke-opacity:1; 
stroke-linecap:round; stroke-linejoin:round;">
<path d="M101750000 71450000
L101750000 32234
" />
<path d="M95900000 5150000
L93600000 5150000
" />
</g>
<g style="fill:#000000; fill-opacity:0.0; 
stroke:#000000; stroke-width:100000.000000; stroke-opacity:1; 
stroke-linecap:round; stroke-linejoin:round;">
<circle cx="74050000.000000" cy="90650000.000000" r="4000000.000000" /> 
<circle cx="8450000.000000" cy="91150000.000000" r="4000000.000000" /> 
<circle cx="50950000.000000" cy="105250000.000000" r="4000000.000000" /> 
<circle cx="4450000.000000" cy="110850000.000000" r="1800000.000000" /> 
<circle cx="83850000.000000" cy="105250000.000000" r="4000000.000000" /> 
<circle cx="93650000.000000" cy="90650000.000000" r="4000000.000000" /> 
<path d="M95200000 71450000
L95200000 84750000
" />
<circle cx="72450000.000000" cy="107050000.000000" r="4000000.000000" /> 
<circle cx="19150000.000000" cy="53350000.000000" r="4000000.000000" /> 
<path d="M101750000 84750000
L101750000 128600000
" />
<circle cx="18750000.000000" cy="105250000.000000" r="4000000.000000" /> 
<circle cx="97450000.000000" cy="110850000.000000" r="1800000.000000" /> 
<circle cx="29350000.000000" cy="91150000.000000" r="4000000.000000" /> 
<path d="M50000 84850000
L100000 128600000
" />
<path d="M7350000 71550000
L7350000 84850000
" />
<path d="M50000 71550000
L7350000 71550000
" />
</g>
<g style="fill:#000000; fill-opacity:0.0; 
stroke:#000000; stroke-width:50000.000000; stroke-opacity:1; 
stroke-linecap:round; stroke-linejoin:round;">
<path d="M95900000.000000 5150000.000000 A1600000.000000 1600000.000000 0.0 0 0 95900000.000000 1950000.000000" />
<path d="M100000 25000
L101750000 32234
" />
</g>
<g style="fill:#000000; fill-opacity:0.0; 
stroke:#000000; stroke-width:100000.000000; stroke-opacity:1; 
stroke-linecap:round; stroke-linejoin:round;">
<circle cx="97450000.000000" cy="17850000.000000" r="1800000.000000" /> 
</g>
<g style="fill:#000000; fill-opacity:0.0; 
stroke:#000000; stroke-width:50000.000000; stroke-opacity:1; 
stroke-linecap:round; stroke-linejoin:round;">
<path d="M8250000.000000 5100000.000000 A1600000.000000 1600000.000000 0.0 0 0 8250000.000000 1900000.000000" />
</g>
<g style="fill:#000000; fill-opacity:0.0; 
stroke:#000000; stroke-width:100000.000000; stroke-opacity:1; 
stroke-linecap:round; stroke-linejoin:round;">
<path d="M101750000 71450000
L95200000 71450000
" />
<circle cx="82650000.000000" cy="53050000.000000" r="4000000.000000" /> 
<circle cx="34150000.000000" cy="21150000.000000" r="4000000.000000" /> 
<circle cx="4450000.000000" cy="17850000.000000" r="1800000.000000" /> 
<path d="M7350000 84850000
L50000 84850000
" />
</g>
<g style="fill:#000000; fill-opacity:0.0; 
stroke:#000000; stroke-width:50000.000000; stroke-opacity:1; 
stroke-linecap:round; stroke-linejoin:round;">
<path d="M8250000 5100000
L5950000 5100000
" />
<path d="M8250000.000000 126650000.000000 A1600000.000000 1600000.000000 0.0 0 0 8250000.000000 123450000.000000" />
</g>
<g style="fill:#000000; fill-opacity:0.0; 
stroke:#000000; stroke-width:100000.000000; stroke-opacity:1; 
stroke-linecap:round; stroke-linejoin:round;">
<path d="M95200000 84750000
L101750000 84750000
" />
</g>
<g style="fill:#000000; fill-opacity:0.0; 
stroke:#000000; stroke-width:50000.000000; stroke-opacity:1; 
stroke-linecap:round; stroke-linejoin:round;">
<path d="M95900000.000000 126700000.000000 A1600000.000000 1600000.000000 0.0 0 0 95900000.000000 123500000.000000" />
<path d="M5950000.000000 123450000.000000 A1600000.000000 1600000.000000 0.0 0 0 5950000.000000 126650000.000000" />
</g>
<g style="fill:#000000; fill-opacity:1.0; 
stroke:#000000; stroke-width:1.000000; stroke-opacity:1; 
stroke-linecap:round; stroke-linejoin:round;">
<circle cx="5150000.000000" cy="29850000.000000" r="25001.000000" /> 
</g>
<g style="fill:#000000; fill-opacity:1.0; 
stroke:#000000; stroke-width:50000.000000; stroke-opacity:1; 
stroke-linecap:round; stroke-linejoin:round;">
</g>
<g style="fill:#000000; fill-opacity:0.0; 
stroke:#000000; stroke-width:50000.000000; stroke-opacity:1; 
stroke-linecap:round; stroke-linejoin:round;">
<path d="M50000 71550000
L100000 25000
" />
<path d="M101750000 128600000
L100000 128600000
" />
</g>
<g style="fill:#000000; fill-opacity:0.0; 
stroke:#000000; stroke-width:100000.000000; stroke-opacity:1; 
stroke-linecap:round; stroke-linejoin:round;">
<circle cx="7950000.000000" cy="25750000.000000" r="6500000.000000" /> 
<circle cx="93950000.000000" cy="25850000.000000" r="6500000.000000" /> 
</g>
<g style="fill:#000000; fill-opacity:0.0; 
stroke:#000000; stroke-width:50000.000000; stroke-opacity:1; 
stroke-linecap:round; stroke-linejoin:round;">
<path d="M95900000 123500000
L93600000 123500000
" />
<path d="M93600000.000000 123500000.000000 A1600000.000000 1600000.000000 0.0 0 0 93600000.000000 126700000.000000" />
<path d="M95900000 1950000
L93600000 1950000
" />
<path d="M93600000.000000 1950000.000000 A1600000.000000 1600000.000000 0.0 0 0 93600000.000000 5150000.000000" />
<g >
</g>
<g >
</g>
<g >
</g>
</g> 
</svg>
