<?xml version="1.0" standalone="no"?>
 <!DOCTYPE svg PUBLIC "-//W3C//DTD SVG 1.1//EN" 
 "http://www.w3.org/Graphics/SVG/1.1/DTD/svg11.dtd"> 
<svg
  xmlns:svg="http://www.w3.org/2000/svg"
  xmlns="http://www.w3.org/2000/svg"
  xmlns:xlink="http://www.w3.org/1999/xlink"
  version="1.1"
  width="10.177780cm" height="12.862560cm" viewBox="0 0 101777800 128625600">
<title>SVG Picture created as eurorack_panel-F_Silkscreen.svg date 2023/07/12 17:10:34 </title>
  <desc>Picture generated by PCBNEW </desc>
<g style="fill:#000000; fill-opacity:1.000000;stroke:#000000; stroke-opacity:1.000000;
stroke-linecap:round; stroke-linejoin:round;"
 transform="translate(0 0) scale(1 1)">
</g>
<g style="fill:#000000; fill-opacity:0.0; 
stroke:#000000; stroke-width:0.000000; stroke-opacity:1; 
stroke-linecap:round; stroke-linejoin:round;">
</g>
<g style="fill:#000000; fill-opacity:0.0; 
stroke:#000000; stroke-width:350000.000000; stroke-opacity:1; 
stroke-linecap:round; stroke-linejoin:round;">
<path d="M26800000 102850000
L24900000 100650000
" />
<path d="M35000000 48925000
L31300000 52175000
" />
<path d="M34650000 41450000
L31400000 37750000
" />
</g>
<g style="fill:#000000; fill-opacity:0.0; 
stroke:#000000; stroke-width:50000.000000; stroke-opacity:1; 
stroke-linecap:round; stroke-linejoin:round;">
<circle cx="7100000.000000" cy="125050000.000000" r="1600000.000000" /> 
<circle cx="7100000.000000" cy="3500000.000000" r="1600000.000000" /> 
<circle cx="94750000.000000" cy="125100000.000000" r="1600000.000000" /> 
</g>
<g style="fill:#000000; fill-opacity:0.0; 
stroke:#000000; stroke-width:350000.000000; stroke-opacity:1; 
stroke-linecap:round; stroke-linejoin:round;">
<path d="M75650000 103350000
L77950000 100150000
" />
<path d="M82550000 64450000
L82550000 90050000
" />
<path d="M68350000 52200000
L64650000 48950000
" />
</g>
<g style="fill:#000000; fill-opacity:0.0; 
stroke:#000000; stroke-width:50000.000000; stroke-opacity:1; 
stroke-linecap:round; stroke-linejoin:round;">
<circle cx="94750000.000000" cy="3550000.000000" r="1600000.000000" /> 
</g>
<g style="fill:#000000; fill-opacity:0.0; 
stroke:#000000; stroke-width:350000.000000; stroke-opacity:1; 
stroke-linecap:round; stroke-linejoin:round;">
<path d="M19350000 64550000
L19350000 90150000
" />
<path d="M67700000 37700000
L64450000 41400000
" />
</g>
<g style="fill:#000000; fill-opacity:0.0; 
stroke:#000000; stroke-width:450000.000000; stroke-opacity:1; 
stroke-linecap:round; stroke-linejoin:round;">
<text x="82550000.000000" y="98750000.000000"
textLength="20945714.000000" font-size="3200000.000000" lengthAdjust="spacingAndGlyphs"
text-anchor="middle" opacity="0">COLOR_TWO</text>
<g class="stroked-text"><desc>COLOR_TWO</desc>
<path d="M74150000 98407142
L74035714 98521428
L73692857 98635714
L73464285 98635714
L73121428 98521428
L72892857 98292857
L72778571 98064285
L72664285 97607142
L72664285 97264285
L72778571 96807142
L72892857 96578571
L73121428 96350000
L73464285 96235714
L73692857 96235714
L74035714 96350000
L74150000 96464285
" />
<path d="M75635714 96235714
L76092857 96235714
L76321428 96350000
L76550000 96578571
L76664285 97035714
L76664285 97835714
L76550000 98292857
L76321428 98521428
L76092857 98635714
L75635714 98635714
L75407142 98521428
L75178571 98292857
L75064285 97835714
L75064285 97035714
L75178571 96578571
L75407142 96350000
L75635714 96235714
" />
<path d="M78835714 98635714
L77692857 98635714
L77692857 96235714
" />
<path d="M80092857 96235714
L80550000 96235714
L80778571 96350000
L81007142 96578571
L81121428 97035714
L81121428 97835714
L81007142 98292857
L80778571 98521428
L80550000 98635714
L80092857 98635714
L79864285 98521428
L79635714 98292857
L79521428 97835714
L79521428 97035714
L79635714 96578571
L79864285 96350000
L80092857 96235714
" />
<path d="M83521428 98635714
L82721428 97492857
" />
<path d="M82150000 98635714
L82150000 96235714
L83064285 96235714
L83292857 96350000
L83407142 96464285
L83521428 96692857
L83521428 97035714
L83407142 97264285
L83292857 97378571
L83064285 97492857
L82150000 97492857
" />
<path d="M83978571 98864285
L85807142 98864285
" />
<path d="M86035714 96235714
L87407142 96235714
" />
<path d="M86721428 98635714
L86721428 96235714
" />
<path d="M87978571 96235714
L88550000 98635714
L89007142 96921428
L89464285 98635714
L90035714 96235714
" />
<path d="M91407142 96235714
L91864285 96235714
L92092857 96350000
L92321428 96578571
L92435714 97035714
L92435714 97835714
L92321428 98292857
L92092857 98521428
L91864285 98635714
L91407142 98635714
L91178571 98521428
L90950000 98292857
L90835714 97835714
L90835714 97035714
L90950000 96578571
L91178571 96350000
L91407142 96235714
" />
</g></g>
<g style="fill:#000000; fill-opacity:0.0; 
stroke:#000000; stroke-width:200000.000000; stroke-opacity:1; 
stroke-linecap:round; stroke-linejoin:round;">
<text x="97950000.000000" y="86650000.000000"
textLength="2680238.000000" font-size="1333333.000000" lengthAdjust="spacingAndGlyphs"
text-anchor="middle" opacity="0">ON</text>
<g class="stroked-text"><desc>ON</desc>
<path d="M97330952 85602380
L97521428 85602380
L97616666 85650000
L97711904 85745238
L97759523 85935714
L97759523 86269047
L97711904 86459523
L97616666 86554761
L97521428 86602380
L97330952 86602380
L97235714 86554761
L97140476 86459523
L97092857 86269047
L97092857 85935714
L97140476 85745238
L97235714 85650000
L97330952 85602380
" />
<path d="M98188095 86602380
L98188095 85602380
L98759523 86602380
L98759523 85602380
" />
</g></g>
<g style="fill:#000000; fill-opacity:0.0; 
stroke:#000000; stroke-width:400000.000000; stroke-opacity:1; 
stroke-linecap:round; stroke-linejoin:round;">
<text x="49550000.000000" y="46750000.000000"
textLength="24974286.000000" font-size="4000000.000000" lengthAdjust="spacingAndGlyphs"
text-anchor="middle" opacity="0">COLORIZER</text>
<g class="stroked-text"><desc>COLORIZER</desc>
<path d="M39621428 46321428
L39478571 46464285
L39050000 46607142
L38764285 46607142
L38335714 46464285
L38050000 46178571
L37907142 45892857
L37764285 45321428
L37764285 44892857
L37907142 44321428
L38050000 44035714
L38335714 43750000
L38764285 43607142
L39050000 43607142
L39478571 43750000
L39621428 43892857
" />
<path d="M41478571 43607142
L42050000 43607142
L42335714 43750000
L42621428 44035714
L42764285 44607142
L42764285 45607142
L42621428 46178571
L42335714 46464285
L42050000 46607142
L41478571 46607142
L41192857 46464285
L40907142 46178571
L40764285 45607142
L40764285 44607142
L40907142 44035714
L41192857 43750000
L41478571 43607142
" />
<path d="M45478571 46607142
L44050000 46607142
L44050000 43607142
" />
<path d="M47050000 43607142
L47621428 43607142
L47907142 43750000
L48192857 44035714
L48335714 44607142
L48335714 45607142
L48192857 46178571
L47907142 46464285
L47621428 46607142
L47050000 46607142
L46764285 46464285
L46478571 46178571
L46335714 45607142
L46335714 44607142
L46478571 44035714
L46764285 43750000
L47050000 43607142
" />
<path d="M51335714 46607142
L50335714 45178571
" />
<path d="M49621428 46607142
L49621428 43607142
L50764285 43607142
L51050000 43750000
L51192857 43892857
L51335714 44178571
L51335714 44607142
L51192857 44892857
L51050000 45035714
L50764285 45178571
L49621428 45178571
" />
<path d="M52621428 46607142
L52621428 43607142
" />
<path d="M53764285 43607142
L55764285 43607142
L53764285 46607142
L55764285 46607142
" />
<path d="M56907142 45035714
L57907142 45035714
" />
<path d="M58335714 46607142
L56907142 46607142
L56907142 43607142
L58335714 43607142
" />
<path d="M61335714 46607142
L60335714 45178571
" />
<path d="M59621428 46607142
L59621428 43607142
L60764285 43607142
L61050000 43750000
L61192857 43892857
L61335714 44178571
L61335714 44607142
L61192857 44892857
L61050000 45035714
L60764285 45178571
L59621428 45178571
" />
</g></g>
<g style="fill:#000000; fill-opacity:0.0; 
stroke:#000000; stroke-width:200000.000000; stroke-opacity:1; 
stroke-linecap:round; stroke-linejoin:round;">
<text x="4750000.000000" y="70750000.000000"
textLength="4281905.000000" font-size="1333333.000000" lengthAdjust="spacingAndGlyphs"
text-anchor="middle" opacity="0">NTSC</text>
<g class="stroked-text"><desc>NTSC</desc>
<path d="M3107142 70702380
L3107142 69702380
L3678571 70702380
L3678571 69702380
" />
<path d="M4011904 69702380
L4583333 69702380
" />
<path d="M4297619 70702380
L4297619 69702380
" />
<path d="M4869047 70654761
L5011904 70702380
L5250000 70702380
L5345238 70654761
L5392857 70607142
L5440476 70511904
L5440476 70416666
L5392857 70321428
L5345238 70273809
L5250000 70226190
L5059523 70178571
L4964285 70130952
L4916666 70083333
L4869047 69988095
L4869047 69892857
L4916666 69797619
L4964285 69750000
L5059523 69702380
L5297619 69702380
L5440476 69750000
" />
<path d="M6440476 70607142
L6392857 70654761
L6250000 70702380
L6154761 70702380
L6011904 70654761
L5916666 70559523
L5869047 70464285
L5821428 70273809
L5821428 70130952
L5869047 69940476
L5916666 69845238
L6011904 69750000
L6154761 69702380
L6250000 69702380
L6392857 69750000
L6440476 69797619
" />
</g></g>
<g style="fill:#000000; fill-opacity:0.0; 
stroke:#000000; stroke-width:350000.000000; stroke-opacity:1; 
stroke-linecap:round; stroke-linejoin:round;">
<text x="19350000.000000" y="61600000.000000"
textLength="12331429.000000" font-size="2000000.000000" lengthAdjust="spacingAndGlyphs"
text-anchor="middle" opacity="0">LEVEL_ONE</text>
<g class="stroked-text"><desc>LEVEL_ONE</desc>
<path d="M14385714 61528571
L13671428 61528571
L13671428 60028571
" />
<path d="M14885714 60742857
L15385714 60742857
" />
<path d="M15600000 61528571
L14885714 61528571
L14885714 60028571
L15600000 60028571
" />
<path d="M16028571 60028571
L16528571 61528571
L17028571 60028571
" />
<path d="M17528571 60742857
L18028571 60742857
" />
<path d="M18242857 61528571
L17528571 61528571
L17528571 60028571
L18242857 60028571
" />
<path d="M19600000 61528571
L18885714 61528571
L18885714 60028571
" />
<path d="M19742857 61671428
L20885714 61671428
" />
<path d="M21528571 60028571
L21814285 60028571
L21957142 60100000
L22100000 60242857
L22171428 60528571
L22171428 61028571
L22100000 61314285
L21957142 61457142
L21814285 61528571
L21528571 61528571
L21385714 61457142
L21242857 61314285
L21171428 61028571
L21171428 60528571
L21242857 60242857
L21385714 60100000
L21528571 60028571
" />
<path d="M22814285 61528571
L22814285 60028571
L23671428 61528571
L23671428 60028571
" />
<path d="M24385714 60742857
L24885714 60742857
" />
<path d="M25100000 61528571
L24385714 61528571
L24385714 60028571
L25100000 60028571
" />
</g></g>
<g style="fill:#000000; fill-opacity:0.0; 
stroke:#000000; stroke-width:500000.000000; stroke-opacity:1; 
stroke-linecap:round; stroke-linejoin:round;">
<text x="50050000.000000" y="9700000.000000"
textLength="29288333.000000" font-size="4666666.000000" lengthAdjust="spacingAndGlyphs"
text-anchor="middle" opacity="0">COLORIZER</text>
<g class="stroked-text"><desc>COLORIZER</desc>
<path d="M38466666 9200000
L38300000 9366666
L37800000 9533333
L37466666 9533333
L36966666 9366666
L36633333 9033333
L36466666 8700000
L36300000 8033333
L36300000 7533333
L36466666 6866666
L36633333 6533333
L36966666 6200000
L37466666 6033333
L37800000 6033333
L38300000 6200000
L38466666 6366666
" />
<path d="M40633333 6033333
L41300000 6033333
L41633333 6200000
L41966666 6533333
L42133333 7200000
L42133333 8366666
L41966666 9033333
L41633333 9366666
L41300000 9533333
L40633333 9533333
L40300000 9366666
L39966666 9033333
L39800000 8366666
L39800000 7200000
L39966666 6533333
L40300000 6200000
L40633333 6033333
" />
<path d="M45300000 9533333
L43633333 9533333
L43633333 6033333
" />
<path d="M47133333 6033333
L47800000 6033333
L48133333 6200000
L48466666 6533333
L48633333 7200000
L48633333 8366666
L48466666 9033333
L48133333 9366666
L47800000 9533333
L47133333 9533333
L46800000 9366666
L46466666 9033333
L46300000 8366666
L46300000 7200000
L46466666 6533333
L46800000 6200000
L47133333 6033333
" />
<path d="M52133333 9533333
L50966666 7866666
" />
<path d="M50133333 9533333
L50133333 6033333
L51466666 6033333
L51800000 6200000
L51966666 6366666
L52133333 6700000
L52133333 7200000
L51966666 7533333
L51800000 7700000
L51466666 7866666
L50133333 7866666
" />
<path d="M53633333 9533333
L53633333 6033333
" />
<path d="M54966666 6033333
L57300000 6033333
L54966666 9533333
L57300000 9533333
" />
<path d="M58633333 7700000
L59800000 7700000
" />
<path d="M60300000 9533333
L58633333 9533333
L58633333 6033333
L60300000 6033333
" />
<path d="M63800000 9533333
L62633333 7866666
" />
<path d="M61800000 9533333
L61800000 6033333
L63133333 6033333
L63466666 6200000
L63633333 6366666
L63800000 6700000
L63800000 7200000
L63633333 7533333
L63466666 7700000
L63133333 7866666
L61800000 7866666
" />
</g></g>
<g style="fill:#000000; fill-opacity:0.0; 
stroke:#000000; stroke-width:600000.000000; stroke-opacity:1; 
stroke-linecap:round; stroke-linejoin:round;">
<text x="50250000.000000" y="124000000.000000"
textLength="20650000.000000" font-size="6666666.000000" lengthAdjust="spacingAndGlyphs"
text-anchor="middle" opacity="0">_^ 09</text>
<g class="stroked-text"><desc>_^ 09</desc>
<path d="M40250000 124238095
L44059523 124238095
" />
<path d="M44535714 119238095
L45488095 118523809
L46440476 119238095
" />
<path d="M52869047 118761904
L53345238 118761904
L53821428 119000000
L54059523 119238095
L54297619 119714285
L54535714 120666666
L54535714 121857142
L54297619 122809523
L54059523 123285714
L53821428 123523809
L53345238 123761904
L52869047 123761904
L52392857 123523809
L52154761 123285714
L51916666 122809523
L51678571 121857142
L51678571 120666666
L51916666 119714285
L52154761 119238095
L52392857 119000000
L52869047 118761904
" />
<path d="M56916666 123761904
L57869047 123761904
L58345238 123523809
L58583333 123285714
L59059523 122571428
L59297619 121619047
L59297619 119714285
L59059523 119238095
L58821428 119000000
L58345238 118761904
L57392857 118761904
L56916666 119000000
L56678571 119238095
L56440476 119714285
L56440476 120904761
L56678571 121380952
L56916666 121619047
L57392857 121857142
L58345238 121857142
L58821428 121619047
L59059523 121380952
L59297619 120904761
" />
</g></g>
<g style="fill:#000000; fill-opacity:0.0; 
stroke:#000000; stroke-width:450000.000000; stroke-opacity:1; 
stroke-linecap:round; stroke-linejoin:round;">
<text x="19350000.000000" y="98850000.000000"
textLength="21580000.000000" font-size="3200000.000000" lengthAdjust="spacingAndGlyphs"
text-anchor="middle" opacity="0">COLOR_ONE</text>
<g class="stroked-text"><desc>COLOR_ONE</desc>
<path d="M10892857 98507142
L10778571 98621428
L10435714 98735714
L10207142 98735714
L9864285 98621428
L9635714 98392857
L9521428 98164285
L9407142 97707142
L9407142 97364285
L9521428 96907142
L9635714 96678571
L9864285 96450000
L10207142 96335714
L10435714 96335714
L10778571 96450000
L10892857 96564285
" />
<path d="M12378571 96335714
L12835714 96335714
L13064285 96450000
L13292857 96678571
L13407142 97135714
L13407142 97935714
L13292857 98392857
L13064285 98621428
L12835714 98735714
L12378571 98735714
L12150000 98621428
L11921428 98392857
L11807142 97935714
L11807142 97135714
L11921428 96678571
L12150000 96450000
L12378571 96335714
" />
<path d="M15578571 98735714
L14435714 98735714
L14435714 96335714
" />
<path d="M16835714 96335714
L17292857 96335714
L17521428 96450000
L17750000 96678571
L17864285 97135714
L17864285 97935714
L17750000 98392857
L17521428 98621428
L17292857 98735714
L16835714 98735714
L16607142 98621428
L16378571 98392857
L16264285 97935714
L16264285 97135714
L16378571 96678571
L16607142 96450000
L16835714 96335714
" />
<path d="M20264285 98735714
L19464285 97592857
" />
<path d="M18892857 98735714
L18892857 96335714
L19807142 96335714
L20035714 96450000
L20150000 96564285
L20264285 96792857
L20264285 97135714
L20150000 97364285
L20035714 97478571
L19807142 97592857
L18892857 97592857
" />
<path d="M20721428 98964285
L22550000 98964285
" />
<path d="M23578571 96335714
L24035714 96335714
L24264285 96450000
L24492857 96678571
L24607142 97135714
L24607142 97935714
L24492857 98392857
L24264285 98621428
L24035714 98735714
L23578571 98735714
L23350000 98621428
L23121428 98392857
L23007142 97935714
L23007142 97135714
L23121428 96678571
L23350000 96450000
L23578571 96335714
" />
<path d="M25635714 98735714
L25635714 96335714
L27007142 98735714
L27007142 96335714
" />
<path d="M28150000 97478571
L28950000 97478571
" />
<path d="M29292857 98735714
L28150000 98735714
L28150000 96335714
L29292857 96335714
" />
</g></g>
<g style="fill:#000000; fill-opacity:0.0; 
stroke:#000000; stroke-width:200000.000000; stroke-opacity:1; 
stroke-linecap:round; stroke-linejoin:round;">
<text x="4750000.000000" y="86950000.000000"
textLength="3251667.000000" font-size="1333333.000000" lengthAdjust="spacingAndGlyphs"
text-anchor="middle" opacity="0">PAL</text>
<g class="stroked-text"><desc>PAL</desc>
<path d="M3654761 86902380
L3654761 85902380
L4035714 85902380
L4130952 85950000
L4178571 85997619
L4226190 86092857
L4226190 86235714
L4178571 86330952
L4130952 86378571
L4035714 86426190
L3654761 86426190
" />
<path d="M4607142 86616666
L5083333 86616666
" />
<path d="M4511904 86902380
L4845238 85902380
L5178571 86902380
" />
<path d="M5988095 86902380
L5511904 86902380
L5511904 85902380
" />
</g></g>
<g style="fill:#000000; fill-opacity:0.0; 
stroke:#000000; stroke-width:300000.000000; stroke-opacity:1; 
stroke-linecap:round; stroke-linejoin:round;">
<text x="50050000.000000" y="4000000.000000"
textLength="17974286.000000" font-size="2000000.000000" lengthAdjust="spacingAndGlyphs"
text-anchor="middle" opacity="0">TWO_POINT_ONE</text>
<g class="stroked-text"><desc>TWO_POINT_ONE</desc>
<path d="M41335714 2428571
L42192857 2428571
" />
<path d="M41764285 3928571
L41764285 2428571
" />
<path d="M42549999 2428571
L42907142 3928571
L43192857 2857142
L43478571 3928571
L43835714 2428571
" />
<path d="M44692857 2428571
L44978571 2428571
L45121428 2500000
L45264285 2642857
L45335714 2928571
L45335714 3428571
L45264285 3714285
L45121428 3857142
L44978571 3928571
L44692857 3928571
L44549999 3857142
L44407142 3714285
L44335714 3428571
L44335714 2928571
L44407142 2642857
L44549999 2500000
L44692857 2428571
" />
<path d="M45621428 4071428
L46764285 4071428
" />
<path d="M47121428 3928571
L47121428 2428571
L47692857 2428571
L47835714 2500000
L47907142 2571428
L47978571 2714285
L47978571 2928571
L47907142 3071428
L47835714 3142857
L47692857 3214285
L47121428 3214285
" />
<path d="M48907142 2428571
L49192857 2428571
L49335714 2500000
L49478571 2642857
L49549999 2928571
L49549999 3428571
L49478571 3714285
L49335714 3857142
L49192857 3928571
L48907142 3928571
L48764285 3857142
L48621428 3714285
L48549999 3428571
L48549999 2928571
L48621428 2642857
L48764285 2500000
L48907142 2428571
" />
<path d="M50192857 3928571
L50192857 2428571
" />
<path d="M50907142 3928571
L50907142 2428571
L51764285 3928571
L51764285 2428571
" />
<path d="M52264285 2428571
L53121428 2428571
" />
<path d="M52692857 3928571
L52692857 2428571
" />
<path d="M53264285 4071428
L54407142 4071428
" />
<path d="M55049999 2428571
L55335714 2428571
L55478571 2500000
L55621428 2642857
L55692857 2928571
L55692857 3428571
L55621428 3714285
L55478571 3857142
L55335714 3928571
L55049999 3928571
L54907142 3857142
L54764285 3714285
L54692857 3428571
L54692857 2928571
L54764285 2642857
L54907142 2500000
L55049999 2428571
" />
<path d="M56335714 3928571
L56335714 2428571
L57192857 3928571
L57192857 2428571
" />
<path d="M57907142 3142857
L58407142 3142857
" />
<path d="M58621428 3928571
L57907142 3928571
L57907142 2428571
L58621428 2428571
" />
</g></g>
<g style="fill:#000000; fill-opacity:0.0; 
stroke:#000000; stroke-width:350000.000000; stroke-opacity:1; 
stroke-linecap:round; stroke-linejoin:round;">
<text x="82550000.000000" y="61500000.000000"
textLength="12390000.000000" font-size="2000000.000000" lengthAdjust="spacingAndGlyphs"
text-anchor="middle" opacity="0">LEVEL_TWO</text>
<g class="stroked-text"><desc>LEVEL_TWO</desc>
<path d="M77621428 61428571
L76907142 61428571
L76907142 59928571
" />
<path d="M78121428 60642857
L78621428 60642857
" />
<path d="M78835714 61428571
L78121428 61428571
L78121428 59928571
L78835714 59928571
" />
<path d="M79264285 59928571
L79764285 61428571
L80264285 59928571
" />
<path d="M80764285 60642857
L81264285 60642857
" />
<path d="M81478571 61428571
L80764285 61428571
L80764285 59928571
L81478571 59928571
" />
<path d="M82835714 61428571
L82121428 61428571
L82121428 59928571
" />
<path d="M82978571 61571428
L84121428 61571428
" />
<path d="M84264285 59928571
L85121428 59928571
" />
<path d="M84692857 61428571
L84692857 59928571
" />
<path d="M85478571 59928571
L85835714 61428571
L86121428 60357142
L86407142 61428571
L86764285 59928571
" />
<path d="M87621428 59928571
L87907142 59928571
L88050000 60000000
L88192857 60142857
L88264285 60428571
L88264285 60928571
L88192857 61214285
L88050000 61357142
L87907142 61428571
L87621428 61428571
L87478571 61357142
L87335714 61214285
L87264285 60928571
L87264285 60428571
L87335714 60142857
L87478571 60000000
L87621428 59928571
" />
</g><text x="34150000.000000" y="16400000.000000"
textLength="8883571.000000" font-size="2000000.000000" lengthAdjust="spacingAndGlyphs"
text-anchor="middle" opacity="0">BYPASS</text>
<g class="stroked-text"><desc>BYPASS</desc>
<path d="M30792857 15542857
L31007142 15614285
L31078571 15685714
L31150000 15828571
L31150000 16042857
L31078571 16185714
L31007142 16257142
L30864285 16328571
L30292857 16328571
L30292857 14828571
L30792857 14828571
L30935714 14900000
L31007142 14971428
L31078571 15114285
L31078571 15257142
L31007142 15400000
L30935714 15471428
L30792857 15542857
L30292857 15542857
" />
<path d="M32078571 15614285
L32078571 16328571
" />
<path d="M31578571 14828571
L32078571 15614285
L32578571 14828571
" />
<path d="M33078571 16328571
L33078571 14828571
L33650000 14828571
L33792857 14900000
L33864285 14971428
L33935714 15114285
L33935714 15328571
L33864285 15471428
L33792857 15542857
L33650000 15614285
L33078571 15614285
" />
<path d="M34507142 15900000
L35221428 15900000
" />
<path d="M34364285 16328571
L34864285 14828571
L35364285 16328571
" />
<path d="M35792857 16257142
L36007142 16328571
L36364285 16328571
L36507142 16257142
L36578571 16185714
L36650000 16042857
L36650000 15900000
L36578571 15757142
L36507142 15685714
L36364285 15614285
L36078571 15542857
L35935714 15471428
L35864285 15400000
L35792857 15257142
L35792857 15114285
L35864285 14971428
L35935714 14900000
L36078571 14828571
L36435714 14828571
L36650000 14900000
" />
<path d="M37221428 16257142
L37435714 16328571
L37792857 16328571
L37935714 16257142
L38007142 16185714
L38078571 16042857
L38078571 15900000
L38007142 15757142
L37935714 15685714
L37792857 15614285
L37507142 15542857
L37364285 15471428
L37292857 15400000
L37221428 15257142
L37221428 15114285
L37292857 14971428
L37364285 14900000
L37507142 14828571
L37864285 14828571
L38078571 14900000
" />
</g></g>
<g style="fill:#000000; fill-opacity:0.0; 
stroke:#000000; stroke-width:300000.000000; stroke-opacity:1; 
stroke-linecap:round; stroke-linejoin:round;">
<text x="50050000.000000" y="127000000.000000"
textLength="20026429.000000" font-size="2000000.000000" lengthAdjust="spacingAndGlyphs"
text-anchor="middle" opacity="0">underscores.shop</text>
<g class="stroked-text"><desc>underscores.shop</desc>
<path d="M41264285 125928571
L41264285 126928571
" />
<path d="M40621428 125928571
L40621428 126714285
L40692857 126857142
L40835714 126928571
L41050000 126928571
L41192857 126857142
L41264285 126785714
" />
<path d="M41978571 125928571
L41978571 126928571
" />
<path d="M41978571 126071428
L42050000 126000000
L42192857 125928571
L42407142 125928571
L42550000 126000000
L42621428 126142857
L42621428 126928571
" />
<path d="M43978571 126928571
L43978571 125428571
" />
<path d="M43978571 126857142
L43835714 126928571
L43550000 126928571
L43407142 126857142
L43335714 126785714
L43264285 126642857
L43264285 126214285
L43335714 126071428
L43407142 126000000
L43550000 125928571
L43835714 125928571
L43978571 126000000
" />
<path d="M45264285 126857142
L45121428 126928571
L44835714 126928571
L44692857 126857142
L44621428 126714285
L44621428 126142857
L44692857 126000000
L44835714 125928571
L45121428 125928571
L45264285 126000000
L45335714 126142857
L45335714 126285714
L44621428 126428571
" />
<path d="M45978571 126928571
L45978571 125928571
" />
<path d="M45978571 126214285
L46050000 126071428
L46121428 126000000
L46264285 125928571
L46407142 125928571
" />
<path d="M46835714 126857142
L46978571 126928571
L47264285 126928571
L47407142 126857142
L47478571 126714285
L47478571 126642857
L47407142 126500000
L47264285 126428571
L47050000 126428571
L46907142 126357142
L46835714 126214285
L46835714 126142857
L46907142 126000000
L47050000 125928571
L47264285 125928571
L47407142 126000000
" />
<path d="M48764285 126857142
L48621428 126928571
L48335714 126928571
L48192857 126857142
L48121428 126785714
L48050000 126642857
L48050000 126214285
L48121428 126071428
L48192857 126000000
L48335714 125928571
L48621428 125928571
L48764285 126000000
" />
<path d="M49621428 126928571
L49478571 126857142
L49407142 126785714
L49335714 126642857
L49335714 126214285
L49407142 126071428
L49478571 126000000
L49621428 125928571
L49835714 125928571
L49978571 126000000
L50050000 126071428
L50121428 126214285
L50121428 126642857
L50050000 126785714
L49978571 126857142
L49835714 126928571
L49621428 126928571
" />
<path d="M50764285 126928571
L50764285 125928571
" />
<path d="M50764285 126214285
L50835714 126071428
L50907142 126000000
L51050000 125928571
L51192857 125928571
" />
<path d="M52264285 126857142
L52121428 126928571
L51835714 126928571
L51692857 126857142
L51621428 126714285
L51621428 126142857
L51692857 126000000
L51835714 125928571
L52121428 125928571
L52264285 126000000
L52335714 126142857
L52335714 126285714
L51621428 126428571
" />
<path d="M52907142 126857142
L53050000 126928571
L53335714 126928571
L53478571 126857142
L53550000 126714285
L53550000 126642857
L53478571 126500000
L53335714 126428571
L53121428 126428571
L52978571 126357142
L52907142 126214285
L52907142 126142857
L52978571 126000000
L53121428 125928571
L53335714 125928571
L53478571 126000000
" />
<path d="M54192857 126785714
L54264285 126857142
L54192857 126928571
L54121428 126857142
L54192857 126785714
L54192857 126928571
" />
<path d="M54835714 126857142
L54978571 126928571
L55264285 126928571
L55407142 126857142
L55478571 126714285
L55478571 126642857
L55407142 126500000
L55264285 126428571
L55050000 126428571
L54907142 126357142
L54835714 126214285
L54835714 126142857
L54907142 126000000
L55050000 125928571
L55264285 125928571
L55407142 126000000
" />
<path d="M56121428 126928571
L56121428 125428571
" />
<path d="M56764285 126928571
L56764285 126142857
L56692857 126000000
L56550000 125928571
L56335714 125928571
L56192857 126000000
L56121428 126071428
" />
<path d="M57692857 126928571
L57550000 126857142
L57478571 126785714
L57407142 126642857
L57407142 126214285
L57478571 126071428
L57550000 126000000
L57692857 125928571
L57907142 125928571
L58050000 126000000
L58121428 126071428
L58192857 126214285
L58192857 126642857
L58121428 126785714
L58050000 126857142
L57907142 126928571
L57692857 126928571
" />
<path d="M58835714 125928571
L58835714 127428571
" />
<path d="M58835714 126000000
L58978571 125928571
L59264285 125928571
L59407142 126000000
L59478571 126071428
L59550000 126214285
L59550000 126642857
L59478571 126785714
L59407142 126857142
L59264285 126928571
L58978571 126928571
L58835714 126857142
" />
</g></g>
<g style="fill:#000000; fill-opacity:0.0; 
stroke:#000000; stroke-width:450000.000000; stroke-opacity:1; 
stroke-linecap:round; stroke-linejoin:round;">
<text x="22250000.000000" y="31750000.000000"
textLength="16161429.000000" font-size="3200000.000000" lengthAdjust="spacingAndGlyphs"
text-anchor="middle" opacity="0">VIDEO_IN</text>
<g class="stroked-text"><desc>VIDEO_IN</desc>
<path d="M14592857 29235714
L15392857 31635714
L16192857 29235714
" />
<path d="M16992857 31635714
L16992857 29235714
" />
<path d="M18135714 31635714
L18135714 29235714
L18707142 29235714
L19050000 29350000
L19278571 29578571
L19392857 29807142
L19507142 30264285
L19507142 30607142
L19392857 31064285
L19278571 31292857
L19050000 31521428
L18707142 31635714
L18135714 31635714
" />
<path d="M20535714 30378571
L21335714 30378571
" />
<path d="M21678571 31635714
L20535714 31635714
L20535714 29235714
L21678571 29235714
" />
<path d="M23164285 29235714
L23621428 29235714
L23850000 29350000
L24078571 29578571
L24192857 30035714
L24192857 30835714
L24078571 31292857
L23850000 31521428
L23621428 31635714
L23164285 31635714
L22935714 31521428
L22707142 31292857
L22592857 30835714
L22592857 30035714
L22707142 29578571
L22935714 29350000
L23164285 29235714
" />
<path d="M24650000 31864285
L26478571 31864285
" />
<path d="M27050000 31635714
L27050000 29235714
" />
<path d="M28192857 31635714
L28192857 29235714
L29564285 31635714
L29564285 29235714
" />
</g></g>
<g style="fill:#000000; fill-opacity:0.0; 
stroke:#000000; stroke-width:200000.000000; stroke-opacity:1; 
stroke-linecap:round; stroke-linejoin:round;">
<g transform="rotate(-90.000000 9000000.000000 78500000.000000)">
<text x="9000000.000000" y="79000000.000000"
textLength="6251667.000000" font-size="1333333.000000" lengthAdjust="spacingAndGlyphs"
text-anchor="middle" opacity="0">FORMAT</text>
</g>
<g class="stroked-text"><desc>FORMAT</desc>
<path d="M8928571 80761904
L8928571 81095238
" />
<path d="M9452380 81095238
L8452380 81095238
L8452380 80619047
" />
<path d="M8452380 80047619
L8452380 79857142
L8500000 79761904
L8595238 79666666
L8785714 79619047
L9119047 79619047
L9309523 79666666
L9404761 79761904
L9452380 79857142
L9452380 80047619
L9404761 80142857
L9309523 80238095
L9119047 80285714
L8785714 80285714
L8595238 80238095
L8500000 80142857
L8452380 80047619
" />
<path d="M9452380 78619047
L8976190 78952380
" />
<path d="M9452380 79190476
L8452380 79190476
L8452380 78809523
L8500000 78714285
L8547619 78666666
L8642857 78619047
L8785714 78619047
L8880952 78666666
L8928571 78714285
L8976190 78809523
L8976190 79190476
" />
<path d="M9452380 78190476
L8452380 78190476
L9166666 77857142
L8452380 77523809
L9452380 77523809
" />
<path d="M9166666 77095238
L9166666 76619047
" />
<path d="M9452380 77190476
L8452380 76857142
L9452380 76523809
" />
<path d="M8452380 76333333
L8452380 75761904
" />
<path d="M9452380 76047619
L8452380 76047619
" />
</g></g>
<g style="fill:#000000; fill-opacity:0.0; 
stroke:#000000; stroke-width:350000.000000; stroke-opacity:1; 
stroke-linecap:round; stroke-linejoin:round;">
<text x="51550000.000000" y="99700000.000000"
textLength="14545714.000000" font-size="2000000.000000" lengthAdjust="spacingAndGlyphs"
text-anchor="middle" opacity="0">COLOR_BOTH</text>
<g class="stroked-text"><desc>COLOR_BOTH</desc>
<path d="M45621428 99485714
L45550000 99557142
L45335714 99628571
L45192857 99628571
L44978571 99557142
L44835714 99414285
L44764285 99271428
L44692857 98985714
L44692857 98771428
L44764285 98485714
L44835714 98342857
L44978571 98200000
L45192857 98128571
L45335714 98128571
L45550000 98200000
L45621428 98271428
" />
<path d="M46550000 98128571
L46835714 98128571
L46978571 98200000
L47121428 98342857
L47192857 98628571
L47192857 99128571
L47121428 99414285
L46978571 99557142
L46835714 99628571
L46550000 99628571
L46407142 99557142
L46264285 99414285
L46192857 99128571
L46192857 98628571
L46264285 98342857
L46407142 98200000
L46550000 98128571
" />
<path d="M48550000 99628571
L47835714 99628571
L47835714 98128571
" />
<path d="M49335714 98128571
L49621428 98128571
L49764285 98200000
L49907142 98342857
L49978571 98628571
L49978571 99128571
L49907142 99414285
L49764285 99557142
L49621428 99628571
L49335714 99628571
L49192857 99557142
L49050000 99414285
L48978571 99128571
L48978571 98628571
L49050000 98342857
L49192857 98200000
L49335714 98128571
" />
<path d="M51478571 99628571
L50978571 98914285
" />
<path d="M50621428 99628571
L50621428 98128571
L51192857 98128571
L51335714 98200000
L51407142 98271428
L51478571 98414285
L51478571 98628571
L51407142 98771428
L51335714 98842857
L51192857 98914285
L50621428 98914285
" />
<path d="M51764285 99771428
L52907142 99771428
" />
<path d="M53764285 98842857
L53978571 98914285
L54050000 98985714
L54121428 99128571
L54121428 99342857
L54050000 99485714
L53978571 99557142
L53835714 99628571
L53264285 99628571
L53264285 98128571
L53764285 98128571
L53907142 98200000
L53978571 98271428
L54050000 98414285
L54050000 98557142
L53978571 98700000
L53907142 98771428
L53764285 98842857
L53264285 98842857
" />
<path d="M55050000 98128571
L55335714 98128571
L55478571 98200000
L55621428 98342857
L55692857 98628571
L55692857 99128571
L55621428 99414285
L55478571 99557142
L55335714 99628571
L55050000 99628571
L54907142 99557142
L54764285 99414285
L54692857 99128571
L54692857 98628571
L54764285 98342857
L54907142 98200000
L55050000 98128571
" />
<path d="M56121428 98128571
L56978571 98128571
" />
<path d="M56550000 99628571
L56550000 98128571
" />
<path d="M57478571 99628571
L57478571 98128571
" />
<path d="M57478571 98842857
L58335714 98842857
" />
<path d="M58335714 99628571
L58335714 98128571
" />
</g></g>
<g style="fill:#000000; fill-opacity:0.0; 
stroke:#000000; stroke-width:450000.000000; stroke-opacity:1; 
stroke-linecap:round; stroke-linejoin:round;">
<text x="78150000.000000" y="31750000.000000"
textLength="19426429.000000" font-size="3200000.000000" lengthAdjust="spacingAndGlyphs"
text-anchor="middle" opacity="0">VIDEO_OUT</text>
<g class="stroked-text"><desc>VIDEO_OUT</desc>
<path d="M68892857 29235714
L69692857 31635714
L70492857 29235714
" />
<path d="M71292857 31635714
L71292857 29235714
" />
<path d="M72435714 31635714
L72435714 29235714
L73007142 29235714
L73350000 29350000
L73578571 29578571
L73692857 29807142
L73807142 30264285
L73807142 30607142
L73692857 31064285
L73578571 31292857
L73350000 31521428
L73007142 31635714
L72435714 31635714
" />
<path d="M74835714 30378571
L75635714 30378571
" />
<path d="M75978571 31635714
L74835714 31635714
L74835714 29235714
L75978571 29235714
" />
<path d="M77464285 29235714
L77921428 29235714
L78150000 29350000
L78378571 29578571
L78492857 30035714
L78492857 30835714
L78378571 31292857
L78150000 31521428
L77921428 31635714
L77464285 31635714
L77235714 31521428
L77007142 31292857
L76892857 30835714
L76892857 30035714
L77007142 29578571
L77235714 29350000
L77464285 29235714
" />
<path d="M78950000 31864285
L80778571 31864285
" />
<path d="M81807142 29235714
L82264285 29235714
L82492857 29350000
L82721428 29578571
L82835714 30035714
L82835714 30835714
L82721428 31292857
L82492857 31521428
L82264285 31635714
L81807142 31635714
L81578571 31521428
L81350000 31292857
L81235714 30835714
L81235714 30035714
L81350000 29578571
L81578571 29350000
L81807142 29235714
" />
<path d="M83864285 29235714
L83864285 31178571
L83978571 31407142
L84092857 31521428
L84321428 31635714
L84778571 31635714
L85007142 31521428
L85121428 31407142
L85235714 31178571
L85235714 29235714
" />
<path d="M86035714 29235714
L87407142 29235714
" />
<path d="M86721428 31635714
L86721428 29235714
" />
</g></g>
<g style="fill:#000000; fill-opacity:0.0; 
stroke:#000000; stroke-width:200000.000000; stroke-opacity:1; 
stroke-linecap:round; stroke-linejoin:round;">
<g transform="rotate(-90.000000 93650000.000000 78150000.000000)">
<text x="93650000.000000" y="78650000.000000"
textLength="13442143.000000" font-size="1333333.000000" lengthAdjust="spacingAndGlyphs"
text-anchor="middle" opacity="0">ALTERNATE LINES</text>
</g>
<g class="stroked-text"><desc>ALTERNATE LINES</desc>
<path d="M93816666 84388095
L93816666 83911904
" />
<path d="M94102380 84483333
L93102380 84150000
L94102380 83816666
" />
<path d="M94102380 83007142
L94102380 83483333
L93102380 83483333
" />
<path d="M93102380 82816666
L93102380 82245238
" />
<path d="M94102380 82530952
L93102380 82530952
" />
<path d="M93578571 81911904
L93578571 81578571
" />
<path d="M94102380 81435714
L94102380 81911904
L93102380 81911904
L93102380 81435714
" />
<path d="M94102380 80435714
L93626190 80769047
" />
<path d="M94102380 81007142
L93102380 81007142
L93102380 80626190
L93150000 80530952
L93197619 80483333
L93292857 80435714
L93435714 80435714
L93530952 80483333
L93578571 80530952
L93626190 80626190
L93626190 81007142
" />
<path d="M94102380 80007142
L93102380 80007142
L94102380 79435714
L93102380 79435714
" />
<path d="M93816666 79007142
L93816666 78530952
" />
<path d="M94102380 79102380
L93102380 78769047
L94102380 78435714
" />
<path d="M93102380 78245238
L93102380 77673809
" />
<path d="M94102380 77959523
L93102380 77959523
" />
<path d="M93578571 77340476
L93578571 77007142
" />
<path d="M94102380 76864285
L94102380 77340476
L93102380 77340476
L93102380 76864285
" />
<path d="M94102380 75197619
L94102380 75673809
L93102380 75673809
" />
<path d="M94102380 74864285
L93102380 74864285
" />
<path d="M94102380 74388095
L93102380 74388095
L94102380 73816666
L93102380 73816666
" />
<path d="M93578571 73340476
L93578571 73007142
" />
<path d="M94102380 72864285
L94102380 73340476
L93102380 73340476
L93102380 72864285
" />
<path d="M94054761 72483333
L94102380 72340476
L94102380 72102380
L94054761 72007142
L94007142 71959523
L93911904 71911904
L93816666 71911904
L93721428 71959523
L93673809 72007142
L93626190 72102380
L93578571 72292857
L93530952 72388095
L93483333 72435714
L93388095 72483333
L93292857 72483333
L93197619 72435714
L93150000 72388095
L93102380 72292857
L93102380 72054761
L93150000 71911904
" />
</g><text x="97850000.000000" y="70850000.000000"
textLength="3021905.000000" font-size="1333333.000000" lengthAdjust="spacingAndGlyphs"
text-anchor="middle" opacity="0">OFF</text>
<g class="stroked-text"><desc>OFF</desc>
<path d="M96897619 69802380
L97088095 69802380
L97183333 69850000
L97278571 69945238
L97326190 70135714
L97326190 70469047
L97278571 70659523
L97183333 70754761
L97088095 70802380
L96897619 70802380
L96802380 70754761
L96707142 70659523
L96659523 70469047
L96659523 70135714
L96707142 69945238
L96802380 69850000
L96897619 69802380
" />
<path d="M98088095 70278571
L97754761 70278571
" />
<path d="M97754761 70802380
L97754761 69802380
L98230952 69802380
" />
<path d="M98945238 70278571
L98611904 70278571
" />
<path d="M98611904 70802380
L98611904 69802380
L99088095 69802380
" />
</g><g >
</g>
<g >
</g>
<g >
</g>
</g> 
</svg>
