<?xml version="1.0" standalone="no"?>
 <!DOCTYPE svg PUBLIC "-//W3C//DTD SVG 1.1//EN" 
 "http://www.w3.org/Graphics/SVG/1.1/DTD/svg11.dtd"> 
<svg
  xmlns:svg="http://www.w3.org/2000/svg"
  xmlns="http://www.w3.org/2000/svg"
  xmlns:xlink="http://www.w3.org/1999/xlink"
  version="1.1"
  width="101.7778mm" height="128.6256mm" viewBox="0.0000 0.0000 101.7778 128.6256">
<title>SVG Image created as eurorack_panel-F_Silkscreen.svg date 2024/04/27 17:19:40 </title>
  <desc>Image generated by PCBNEW </desc>
<g style="fill:#000000; fill-opacity:1.0000;stroke:#000000; stroke-opacity:1.0000;
stroke-linecap:round; stroke-linejoin:round;"
 transform="translate(0 0) scale(1 1)">
</g>
<g style="fill:#000000; fill-opacity:0.0; 
stroke:#000000; stroke-width:0.0000; stroke-opacity:1; 
stroke-linecap:round; stroke-linejoin:round;">
</g>
<g style="fill:#000000; fill-opacity:1.0000; 
stroke:#000000; stroke-width:0.0212; stroke-opacity:1; 
stroke-linecap:round; stroke-linejoin:round;">
<rect x="-5.000000" y="-5.000000" width="111.800000" height="138.650000" rx="0.000000" />
</g>
<g style="fill:#FFFFFF; fill-opacity:1.0000; 
stroke:#FFFFFF; stroke-width:0.0212; stroke-opacity:1; 
stroke-linecap:round; stroke-linejoin:round;">
</g>
<g style="fill:#FFFFFF; fill-opacity:1.0000; 
stroke:#FFFFFF; stroke-width:0.3500; stroke-opacity:1; 
stroke-linecap:round; stroke-linejoin:round;">
</g>
<g style="fill:#FFFFFF; fill-opacity:0.0; 
stroke:#FFFFFF; stroke-width:0.3500; stroke-opacity:1; 
stroke-linecap:round; stroke-linejoin:round;">
<path d="M26.8000 102.8500
L24.9000 100.6500
" />
<path d="M35.0000 48.9250
L31.3000 52.1750
" />
<path d="M34.6500 41.4500
L31.4000 37.7500
" />
</g>
<g style="fill:#FFFFFF; fill-opacity:0.0; 
stroke:#FFFFFF; stroke-width:0.0500; stroke-opacity:1; 
stroke-linecap:round; stroke-linejoin:round;">
<circle cx="7.1000" cy="125.0500" r="1.6000" /> 
<circle cx="7.1000" cy="3.5000" r="1.6000" /> 
<circle cx="94.7500" cy="125.1000" r="1.6000" /> 
</g>
<g style="fill:#FFFFFF; fill-opacity:0.0; 
stroke:#FFFFFF; stroke-width:0.3500; stroke-opacity:1; 
stroke-linecap:round; stroke-linejoin:round;">
<path d="M75.6500 103.3500
L77.9500 100.1500
" />
<path d="M82.5500 64.4500
L82.5500 90.0500
" />
<path d="M68.3500 52.2000
L64.6500 48.9500
" />
</g>
<g style="fill:#FFFFFF; fill-opacity:0.0; 
stroke:#FFFFFF; stroke-width:0.0500; stroke-opacity:1; 
stroke-linecap:round; stroke-linejoin:round;">
<circle cx="94.7500" cy="3.5500" r="1.6000" /> 
</g>
<g style="fill:#FFFFFF; fill-opacity:0.0; 
stroke:#FFFFFF; stroke-width:0.3500; stroke-opacity:1; 
stroke-linecap:round; stroke-linejoin:round;">
<path d="M19.3500 64.5500
L19.3500 90.1500
" />
<path d="M67.7000 37.7000
L64.4500 41.4000
" />
</g>
<g style="fill:#FFFFFF; fill-opacity:0.0; 
stroke:#FFFFFF; stroke-width:0.4500; stroke-opacity:1; 
stroke-linecap:round; stroke-linejoin:round;">
<text x="82.5500" y="98.7500"
textLength="21.5557" font-size="3.2000" lengthAdjust="spacingAndGlyphs"
text-anchor="middle" opacity="0">COLOR_TWO</text>
<g class="stroked-text"><desc>COLOR_TWO</desc>
<path d="M74.1500 98.4083
L74.0357 98.5226
" />
<path d="M74.0357 98.5226
L73.6929 98.6369
" />
<path d="M73.6929 98.6369
L73.4643 98.6369
" />
<path d="M73.4643 98.6369
L73.1214 98.5226
" />
<path d="M73.1214 98.5226
L72.8929 98.2940
" />
<path d="M72.8929 98.2940
L72.7786 98.0655
" />
<path d="M72.7786 98.0655
L72.6643 97.6083
" />
<path d="M72.6643 97.6083
L72.6643 97.2655
" />
<path d="M72.6643 97.2655
L72.7786 96.8083
" />
<path d="M72.7786 96.8083
L72.8929 96.5797
" />
<path d="M72.8929 96.5797
L73.1214 96.3512
" />
<path d="M73.1214 96.3512
L73.4643 96.2369
" />
<path d="M73.4643 96.2369
L73.6929 96.2369
" />
<path d="M73.6929 96.2369
L74.0357 96.3512
" />
<path d="M74.0357 96.3512
L74.1500 96.4655
" />
<path d="M75.6357 96.2369
L76.0929 96.2369
" />
<path d="M76.0929 96.2369
L76.3214 96.3512
" />
<path d="M76.3214 96.3512
L76.5500 96.5797
" />
<path d="M76.5500 96.5797
L76.6643 97.0369
" />
<path d="M76.6643 97.0369
L76.6643 97.8369
" />
<path d="M76.6643 97.8369
L76.5500 98.2940
" />
<path d="M76.5500 98.2940
L76.3214 98.5226
" />
<path d="M76.3214 98.5226
L76.0929 98.6369
" />
<path d="M76.0929 98.6369
L75.6357 98.6369
" />
<path d="M75.6357 98.6369
L75.4071 98.5226
" />
<path d="M75.4071 98.5226
L75.1786 98.2940
" />
<path d="M75.1786 98.2940
L75.0643 97.8369
" />
<path d="M75.0643 97.8369
L75.0643 97.0369
" />
<path d="M75.0643 97.0369
L75.1786 96.5797
" />
<path d="M75.1786 96.5797
L75.4071 96.3512
" />
<path d="M75.4071 96.3512
L75.6357 96.2369
" />
<path d="M78.8357 98.6369
L77.6929 98.6369
" />
<path d="M77.6929 98.6369
L77.6929 96.2369
" />
<path d="M80.0929 96.2369
L80.5500 96.2369
" />
<path d="M80.5500 96.2369
L80.7786 96.3512
" />
<path d="M80.7786 96.3512
L81.0071 96.5797
" />
<path d="M81.0071 96.5797
L81.1214 97.0369
" />
<path d="M81.1214 97.0369
L81.1214 97.8369
" />
<path d="M81.1214 97.8369
L81.0071 98.2940
" />
<path d="M81.0071 98.2940
L80.7786 98.5226
" />
<path d="M80.7786 98.5226
L80.5500 98.6369
" />
<path d="M80.5500 98.6369
L80.0929 98.6369
" />
<path d="M80.0929 98.6369
L79.8643 98.5226
" />
<path d="M79.8643 98.5226
L79.6357 98.2940
" />
<path d="M79.6357 98.2940
L79.5214 97.8369
" />
<path d="M79.5214 97.8369
L79.5214 97.0369
" />
<path d="M79.5214 97.0369
L79.6357 96.5797
" />
<path d="M79.6357 96.5797
L79.8643 96.3512
" />
<path d="M79.8643 96.3512
L80.0929 96.2369
" />
<path d="M83.5214 98.6369
L82.7214 97.4940
" />
<path d="M82.1500 98.6369
L82.1500 96.2369
" />
<path d="M82.1500 96.2369
L83.0643 96.2369
" />
<path d="M83.0643 96.2369
L83.2929 96.3512
" />
<path d="M83.2929 96.3512
L83.4071 96.4655
" />
<path d="M83.4071 96.4655
L83.5214 96.6940
" />
<path d="M83.5214 96.6940
L83.5214 97.0369
" />
<path d="M83.5214 97.0369
L83.4071 97.2655
" />
<path d="M83.4071 97.2655
L83.2929 97.3797
" />
<path d="M83.2929 97.3797
L83.0643 97.4940
" />
<path d="M83.0643 97.4940
L82.1500 97.4940
" />
<path d="M83.9786 98.8655
L85.8071 98.8655
" />
<path d="M86.0357 96.2369
L87.4071 96.2369
" />
<path d="M86.7214 98.6369
L86.7214 96.2369
" />
<path d="M87.9786 96.2369
L88.5500 98.6369
" />
<path d="M88.5500 98.6369
L89.0071 96.9226
" />
<path d="M89.0071 96.9226
L89.4643 98.6369
" />
<path d="M89.4643 98.6369
L90.0357 96.2369
" />
<path d="M91.4071 96.2369
L91.8643 96.2369
" />
<path d="M91.8643 96.2369
L92.0929 96.3512
" />
<path d="M92.0929 96.3512
L92.3214 96.5797
" />
<path d="M92.3214 96.5797
L92.4357 97.0369
" />
<path d="M92.4357 97.0369
L92.4357 97.8369
" />
<path d="M92.4357 97.8369
L92.3214 98.2940
" />
<path d="M92.3214 98.2940
L92.0929 98.5226
" />
<path d="M92.0929 98.5226
L91.8643 98.6369
" />
<path d="M91.8643 98.6369
L91.4071 98.6369
" />
<path d="M91.4071 98.6369
L91.1786 98.5226
" />
<path d="M91.1786 98.5226
L90.9500 98.2940
" />
<path d="M90.9500 98.2940
L90.8357 97.8369
" />
<path d="M90.8357 97.8369
L90.8357 97.0369
" />
<path d="M90.8357 97.0369
L90.9500 96.5797
" />
<path d="M90.9500 96.5797
L91.1786 96.3512
" />
<path d="M91.1786 96.3512
L91.4071 96.2369
" />
</g></g>
<g style="fill:#FFFFFF; fill-opacity:0.0; 
stroke:#FFFFFF; stroke-width:0.2000; stroke-opacity:1; 
stroke-linecap:round; stroke-linejoin:round;">
<text x="97.9500" y="86.6500"
textLength="2.4952" font-size="1.3333" lengthAdjust="spacingAndGlyphs"
text-anchor="middle" opacity="0">ON</text>
<g class="stroked-text"><desc>ON</desc>
<path d="M97.3310 85.6022
L97.5214 85.6022
" />
<path d="M97.5214 85.6022
L97.6167 85.6498
" />
<path d="M97.6167 85.6498
L97.7119 85.7451
" />
<path d="M97.7119 85.7451
L97.7595 85.9356
" />
<path d="M97.7595 85.9356
L97.7595 86.2689
" />
<path d="M97.7595 86.2689
L97.7119 86.4594
" />
<path d="M97.7119 86.4594
L97.6167 86.5546
" />
<path d="M97.6167 86.5546
L97.5214 86.6022
" />
<path d="M97.5214 86.6022
L97.3310 86.6022
" />
<path d="M97.3310 86.6022
L97.2357 86.5546
" />
<path d="M97.2357 86.5546
L97.1405 86.4594
" />
<path d="M97.1405 86.4594
L97.0929 86.2689
" />
<path d="M97.0929 86.2689
L97.0929 85.9356
" />
<path d="M97.0929 85.9356
L97.1405 85.7451
" />
<path d="M97.1405 85.7451
L97.2357 85.6498
" />
<path d="M97.2357 85.6498
L97.3310 85.6022
" />
<path d="M98.1881 86.6022
L98.1881 85.6022
" />
<path d="M98.1881 85.6022
L98.7595 86.6022
" />
<path d="M98.7595 86.6022
L98.7595 85.6022
" />
</g></g>
<g style="fill:#FFFFFF; fill-opacity:0.0; 
stroke:#FFFFFF; stroke-width:0.4000; stroke-opacity:1; 
stroke-linecap:round; stroke-linejoin:round;">
<text x="49.5500" y="46.7500"
textLength="25.3143" font-size="4.0000" lengthAdjust="spacingAndGlyphs"
text-anchor="middle" opacity="0">COLORIZER</text>
<g class="stroked-text"><desc>COLORIZER</desc>
<path d="M39.6214 46.3313
L39.4786 46.4742
" />
<path d="M39.4786 46.4742
L39.0500 46.6171
" />
<path d="M39.0500 46.6171
L38.7643 46.6171
" />
<path d="M38.7643 46.6171
L38.3357 46.4742
" />
<path d="M38.3357 46.4742
L38.0500 46.1885
" />
<path d="M38.0500 46.1885
L37.9071 45.9028
" />
<path d="M37.9071 45.9028
L37.7643 45.3313
" />
<path d="M37.7643 45.3313
L37.7643 44.9028
" />
<path d="M37.7643 44.9028
L37.9071 44.3313
" />
<path d="M37.9071 44.3313
L38.0500 44.0456
" />
<path d="M38.0500 44.0456
L38.3357 43.7599
" />
<path d="M38.3357 43.7599
L38.7643 43.6171
" />
<path d="M38.7643 43.6171
L39.0500 43.6171
" />
<path d="M39.0500 43.6171
L39.4786 43.7599
" />
<path d="M39.4786 43.7599
L39.6214 43.9028
" />
<path d="M41.4786 43.6171
L42.0500 43.6171
" />
<path d="M42.0500 43.6171
L42.3357 43.7599
" />
<path d="M42.3357 43.7599
L42.6214 44.0456
" />
<path d="M42.6214 44.0456
L42.7643 44.6171
" />
<path d="M42.7643 44.6171
L42.7643 45.6171
" />
<path d="M42.7643 45.6171
L42.6214 46.1885
" />
<path d="M42.6214 46.1885
L42.3357 46.4742
" />
<path d="M42.3357 46.4742
L42.0500 46.6171
" />
<path d="M42.0500 46.6171
L41.4786 46.6171
" />
<path d="M41.4786 46.6171
L41.1929 46.4742
" />
<path d="M41.1929 46.4742
L40.9071 46.1885
" />
<path d="M40.9071 46.1885
L40.7643 45.6171
" />
<path d="M40.7643 45.6171
L40.7643 44.6171
" />
<path d="M40.7643 44.6171
L40.9071 44.0456
" />
<path d="M40.9071 44.0456
L41.1929 43.7599
" />
<path d="M41.1929 43.7599
L41.4786 43.6171
" />
<path d="M45.4786 46.6171
L44.0500 46.6171
" />
<path d="M44.0500 46.6171
L44.0500 43.6171
" />
<path d="M47.0500 43.6171
L47.6214 43.6171
" />
<path d="M47.6214 43.6171
L47.9071 43.7599
" />
<path d="M47.9071 43.7599
L48.1929 44.0456
" />
<path d="M48.1929 44.0456
L48.3357 44.6171
" />
<path d="M48.3357 44.6171
L48.3357 45.6171
" />
<path d="M48.3357 45.6171
L48.1929 46.1885
" />
<path d="M48.1929 46.1885
L47.9071 46.4742
" />
<path d="M47.9071 46.4742
L47.6214 46.6171
" />
<path d="M47.6214 46.6171
L47.0500 46.6171
" />
<path d="M47.0500 46.6171
L46.7643 46.4742
" />
<path d="M46.7643 46.4742
L46.4786 46.1885
" />
<path d="M46.4786 46.1885
L46.3357 45.6171
" />
<path d="M46.3357 45.6171
L46.3357 44.6171
" />
<path d="M46.3357 44.6171
L46.4786 44.0456
" />
<path d="M46.4786 44.0456
L46.7643 43.7599
" />
<path d="M46.7643 43.7599
L47.0500 43.6171
" />
<path d="M51.3357 46.6171
L50.3357 45.1885
" />
<path d="M49.6214 46.6171
L49.6214 43.6171
" />
<path d="M49.6214 43.6171
L50.7643 43.6171
" />
<path d="M50.7643 43.6171
L51.0500 43.7599
" />
<path d="M51.0500 43.7599
L51.1929 43.9028
" />
<path d="M51.1929 43.9028
L51.3357 44.1885
" />
<path d="M51.3357 44.1885
L51.3357 44.6171
" />
<path d="M51.3357 44.6171
L51.1929 44.9028
" />
<path d="M51.1929 44.9028
L51.0500 45.0456
" />
<path d="M51.0500 45.0456
L50.7643 45.1885
" />
<path d="M50.7643 45.1885
L49.6214 45.1885
" />
<path d="M52.6214 46.6171
L52.6214 43.6171
" />
<path d="M53.7643 43.6171
L55.7643 43.6171
" />
<path d="M55.7643 43.6171
L53.7643 46.6171
" />
<path d="M53.7643 46.6171
L55.7643 46.6171
" />
<path d="M56.9071 45.0456
L57.9071 45.0456
" />
<path d="M58.3357 46.6171
L56.9071 46.6171
" />
<path d="M56.9071 46.6171
L56.9071 43.6171
" />
<path d="M56.9071 43.6171
L58.3357 43.6171
" />
<path d="M61.3357 46.6171
L60.3357 45.1885
" />
<path d="M59.6214 46.6171
L59.6214 43.6171
" />
<path d="M59.6214 43.6171
L60.7643 43.6171
" />
<path d="M60.7643 43.6171
L61.0500 43.7599
" />
<path d="M61.0500 43.7599
L61.1929 43.9028
" />
<path d="M61.1929 43.9028
L61.3357 44.1885
" />
<path d="M61.3357 44.1885
L61.3357 44.6171
" />
<path d="M61.3357 44.6171
L61.1929 44.9028
" />
<path d="M61.1929 44.9028
L61.0500 45.0456
" />
<path d="M61.0500 45.0456
L60.7643 45.1885
" />
<path d="M60.7643 45.1885
L59.6214 45.1885
" />
</g></g>
<g style="fill:#FFFFFF; fill-opacity:0.0; 
stroke:#FFFFFF; stroke-width:0.2000; stroke-opacity:1; 
stroke-linecap:round; stroke-linejoin:round;">
<text x="4.7500" y="70.7500"
textLength="4.1619" font-size="1.3333" lengthAdjust="spacingAndGlyphs"
text-anchor="middle" opacity="0">NTSC</text>
<g class="stroked-text"><desc>NTSC</desc>
<path d="M3.1071 70.7022
L3.1071 69.7022
" />
<path d="M3.1071 69.7022
L3.6786 70.7022
" />
<path d="M3.6786 70.7022
L3.6786 69.7022
" />
<path d="M4.0119 69.7022
L4.5833 69.7022
" />
<path d="M4.2976 70.7022
L4.2976 69.7022
" />
<path d="M4.8690 70.6546
L5.0119 70.7022
" />
<path d="M5.0119 70.7022
L5.2500 70.7022
" />
<path d="M5.2500 70.7022
L5.3452 70.6546
" />
<path d="M5.3452 70.6546
L5.3929 70.6070
" />
<path d="M5.3929 70.6070
L5.4405 70.5117
" />
<path d="M5.4405 70.5117
L5.4405 70.4165
" />
<path d="M5.4405 70.4165
L5.3929 70.3213
" />
<path d="M5.3929 70.3213
L5.3452 70.2736
" />
<path d="M5.3452 70.2736
L5.2500 70.2260
" />
<path d="M5.2500 70.2260
L5.0595 70.1784
" />
<path d="M5.0595 70.1784
L4.9643 70.1308
" />
<path d="M4.9643 70.1308
L4.9167 70.0832
" />
<path d="M4.9167 70.0832
L4.8690 69.9879
" />
<path d="M4.8690 69.9879
L4.8690 69.8927
" />
<path d="M4.8690 69.8927
L4.9167 69.7975
" />
<path d="M4.9167 69.7975
L4.9643 69.7498
" />
<path d="M4.9643 69.7498
L5.0595 69.7022
" />
<path d="M5.0595 69.7022
L5.2976 69.7022
" />
<path d="M5.2976 69.7022
L5.4405 69.7498
" />
<path d="M6.4405 70.6070
L6.3929 70.6546
" />
<path d="M6.3929 70.6546
L6.2500 70.7022
" />
<path d="M6.2500 70.7022
L6.1548 70.7022
" />
<path d="M6.1548 70.7022
L6.0119 70.6546
" />
<path d="M6.0119 70.6546
L5.9167 70.5594
" />
<path d="M5.9167 70.5594
L5.8690 70.4641
" />
<path d="M5.8690 70.4641
L5.8214 70.2736
" />
<path d="M5.8214 70.2736
L5.8214 70.1308
" />
<path d="M5.8214 70.1308
L5.8690 69.9403
" />
<path d="M5.8690 69.9403
L5.9167 69.8451
" />
<path d="M5.9167 69.8451
L6.0119 69.7498
" />
<path d="M6.0119 69.7498
L6.1548 69.7022
" />
<path d="M6.1548 69.7022
L6.2500 69.7022
" />
<path d="M6.2500 69.7022
L6.3929 69.7498
" />
<path d="M6.3929 69.7498
L6.4405 69.7975
" />
</g></g>
<g style="fill:#FFFFFF; fill-opacity:0.0; 
stroke:#FFFFFF; stroke-width:0.3500; stroke-opacity:1; 
stroke-linecap:round; stroke-linejoin:round;">
<text x="19.3500" y="61.6000"
textLength="12.8214" font-size="2.0000" lengthAdjust="spacingAndGlyphs"
text-anchor="middle" opacity="0">LEVEL_ONE</text>
<g class="stroked-text"><desc>LEVEL_ONE</desc>
<path d="M14.3857 61.5257
L13.6714 61.5257
" />
<path d="M13.6714 61.5257
L13.6714 60.0257
" />
<path d="M14.8857 60.7400
L15.3857 60.7400
" />
<path d="M15.6000 61.5257
L14.8857 61.5257
" />
<path d="M14.8857 61.5257
L14.8857 60.0257
" />
<path d="M14.8857 60.0257
L15.6000 60.0257
" />
<path d="M16.0286 60.0257
L16.5286 61.5257
" />
<path d="M16.5286 61.5257
L17.0286 60.0257
" />
<path d="M17.5286 60.7400
L18.0286 60.7400
" />
<path d="M18.2429 61.5257
L17.5286 61.5257
" />
<path d="M17.5286 61.5257
L17.5286 60.0257
" />
<path d="M17.5286 60.0257
L18.2429 60.0257
" />
<path d="M19.6000 61.5257
L18.8857 61.5257
" />
<path d="M18.8857 61.5257
L18.8857 60.0257
" />
<path d="M19.7429 61.6686
L20.8857 61.6686
" />
<path d="M21.5286 60.0257
L21.8143 60.0257
" />
<path d="M21.8143 60.0257
L21.9571 60.0972
" />
<path d="M21.9571 60.0972
L22.1000 60.2400
" />
<path d="M22.1000 60.2400
L22.1714 60.5257
" />
<path d="M22.1714 60.5257
L22.1714 61.0257
" />
<path d="M22.1714 61.0257
L22.1000 61.3114
" />
<path d="M22.1000 61.3114
L21.9571 61.4543
" />
<path d="M21.9571 61.4543
L21.8143 61.5257
" />
<path d="M21.8143 61.5257
L21.5286 61.5257
" />
<path d="M21.5286 61.5257
L21.3857 61.4543
" />
<path d="M21.3857 61.4543
L21.2429 61.3114
" />
<path d="M21.2429 61.3114
L21.1714 61.0257
" />
<path d="M21.1714 61.0257
L21.1714 60.5257
" />
<path d="M21.1714 60.5257
L21.2429 60.2400
" />
<path d="M21.2429 60.2400
L21.3857 60.0972
" />
<path d="M21.3857 60.0972
L21.5286 60.0257
" />
<path d="M22.8143 61.5257
L22.8143 60.0257
" />
<path d="M22.8143 60.0257
L23.6714 61.5257
" />
<path d="M23.6714 61.5257
L23.6714 60.0257
" />
<path d="M24.3857 60.7400
L24.8857 60.7400
" />
<path d="M25.1000 61.5257
L24.3857 61.5257
" />
<path d="M24.3857 61.5257
L24.3857 60.0257
" />
<path d="M24.3857 60.0257
L25.1000 60.0257
" />
</g></g>
<g style="fill:#FFFFFF; fill-opacity:0.0; 
stroke:#FFFFFF; stroke-width:0.5000; stroke-opacity:1; 
stroke-linecap:round; stroke-linejoin:round;">
<text x="50.0500" y="9.7000"
textLength="29.6333" font-size="4.6667" lengthAdjust="spacingAndGlyphs"
text-anchor="middle" opacity="0">COLORIZER</text>
<g class="stroked-text"><desc>COLORIZER</desc>
<path d="M38.4667 9.2098
L38.3000 9.3765
" />
<path d="M38.3000 9.3765
L37.8000 9.5432
" />
<path d="M37.8000 9.5432
L37.4667 9.5432
" />
<path d="M37.4667 9.5432
L36.9667 9.3765
" />
<path d="M36.9667 9.3765
L36.6333 9.0432
" />
<path d="M36.6333 9.0432
L36.4667 8.7098
" />
<path d="M36.4667 8.7098
L36.3000 8.0432
" />
<path d="M36.3000 8.0432
L36.3000 7.5432
" />
<path d="M36.3000 7.5432
L36.4667 6.8765
" />
<path d="M36.4667 6.8765
L36.6333 6.5432
" />
<path d="M36.6333 6.5432
L36.9667 6.2098
" />
<path d="M36.9667 6.2098
L37.4667 6.0432
" />
<path d="M37.4667 6.0432
L37.8000 6.0432
" />
<path d="M37.8000 6.0432
L38.3000 6.2098
" />
<path d="M38.3000 6.2098
L38.4667 6.3765
" />
<path d="M40.6333 6.0432
L41.3000 6.0432
" />
<path d="M41.3000 6.0432
L41.6333 6.2098
" />
<path d="M41.6333 6.2098
L41.9667 6.5432
" />
<path d="M41.9667 6.5432
L42.1333 7.2098
" />
<path d="M42.1333 7.2098
L42.1333 8.3765
" />
<path d="M42.1333 8.3765
L41.9667 9.0432
" />
<path d="M41.9667 9.0432
L41.6333 9.3765
" />
<path d="M41.6333 9.3765
L41.3000 9.5432
" />
<path d="M41.3000 9.5432
L40.6333 9.5432
" />
<path d="M40.6333 9.5432
L40.3000 9.3765
" />
<path d="M40.3000 9.3765
L39.9667 9.0432
" />
<path d="M39.9667 9.0432
L39.8000 8.3765
" />
<path d="M39.8000 8.3765
L39.8000 7.2098
" />
<path d="M39.8000 7.2098
L39.9667 6.5432
" />
<path d="M39.9667 6.5432
L40.3000 6.2098
" />
<path d="M40.3000 6.2098
L40.6333 6.0432
" />
<path d="M45.3000 9.5432
L43.6333 9.5432
" />
<path d="M43.6333 9.5432
L43.6333 6.0432
" />
<path d="M47.1333 6.0432
L47.8000 6.0432
" />
<path d="M47.8000 6.0432
L48.1333 6.2098
" />
<path d="M48.1333 6.2098
L48.4667 6.5432
" />
<path d="M48.4667 6.5432
L48.6333 7.2098
" />
<path d="M48.6333 7.2098
L48.6333 8.3765
" />
<path d="M48.6333 8.3765
L48.4667 9.0432
" />
<path d="M48.4667 9.0432
L48.1333 9.3765
" />
<path d="M48.1333 9.3765
L47.8000 9.5432
" />
<path d="M47.8000 9.5432
L47.1333 9.5432
" />
<path d="M47.1333 9.5432
L46.8000 9.3765
" />
<path d="M46.8000 9.3765
L46.4667 9.0432
" />
<path d="M46.4667 9.0432
L46.3000 8.3765
" />
<path d="M46.3000 8.3765
L46.3000 7.2098
" />
<path d="M46.3000 7.2098
L46.4667 6.5432
" />
<path d="M46.4667 6.5432
L46.8000 6.2098
" />
<path d="M46.8000 6.2098
L47.1333 6.0432
" />
<path d="M52.1333 9.5432
L50.9667 7.8765
" />
<path d="M50.1333 9.5432
L50.1333 6.0432
" />
<path d="M50.1333 6.0432
L51.4667 6.0432
" />
<path d="M51.4667 6.0432
L51.8000 6.2098
" />
<path d="M51.8000 6.2098
L51.9667 6.3765
" />
<path d="M51.9667 6.3765
L52.1333 6.7098
" />
<path d="M52.1333 6.7098
L52.1333 7.2098
" />
<path d="M52.1333 7.2098
L51.9667 7.5432
" />
<path d="M51.9667 7.5432
L51.8000 7.7098
" />
<path d="M51.8000 7.7098
L51.4667 7.8765
" />
<path d="M51.4667 7.8765
L50.1333 7.8765
" />
<path d="M53.6333 9.5432
L53.6333 6.0432
" />
<path d="M54.9667 6.0432
L57.3000 6.0432
" />
<path d="M57.3000 6.0432
L54.9667 9.5432
" />
<path d="M54.9667 9.5432
L57.3000 9.5432
" />
<path d="M58.6333 7.7098
L59.8000 7.7098
" />
<path d="M60.3000 9.5432
L58.6333 9.5432
" />
<path d="M58.6333 9.5432
L58.6333 6.0432
" />
<path d="M58.6333 6.0432
L60.3000 6.0432
" />
<path d="M63.8000 9.5432
L62.6333 7.8765
" />
<path d="M61.8000 9.5432
L61.8000 6.0432
" />
<path d="M61.8000 6.0432
L63.1333 6.0432
" />
<path d="M63.1333 6.0432
L63.4667 6.2098
" />
<path d="M63.4667 6.2098
L63.6333 6.3765
" />
<path d="M63.6333 6.3765
L63.8000 6.7098
" />
<path d="M63.8000 6.7098
L63.8000 7.2098
" />
<path d="M63.8000 7.2098
L63.6333 7.5432
" />
<path d="M63.6333 7.5432
L63.4667 7.7098
" />
<path d="M63.4667 7.7098
L63.1333 7.8765
" />
<path d="M63.1333 7.8765
L61.8000 7.8765
" />
</g></g>
<g style="fill:#FFFFFF; fill-opacity:0.0; 
stroke:#FFFFFF; stroke-width:0.6000; stroke-opacity:1; 
stroke-linecap:round; stroke-linejoin:round;">
<text x="50.2500" y="124.0000"
textLength="20.8000" font-size="6.6667" lengthAdjust="spacingAndGlyphs"
text-anchor="middle" opacity="0">_^ 09</text>
<g class="stroked-text"><desc>_^ 09</desc>
<path d="M40.2500 124.2581
L44.0595 124.2581
" />
<path d="M44.5357 119.2581
L45.4881 118.5438
" />
<path d="M45.4881 118.5438
L46.4405 119.2581
" />
<path d="M52.8690 118.7819
L53.3452 118.7819
" />
<path d="M53.3452 118.7819
L53.8214 119.0200
" />
<path d="M53.8214 119.0200
L54.0595 119.2581
" />
<path d="M54.0595 119.2581
L54.2976 119.7343
" />
<path d="M54.2976 119.7343
L54.5357 120.6867
" />
<path d="M54.5357 120.6867
L54.5357 121.8771
" />
<path d="M54.5357 121.8771
L54.2976 122.8295
" />
<path d="M54.2976 122.8295
L54.0595 123.3057
" />
<path d="M54.0595 123.3057
L53.8214 123.5438
" />
<path d="M53.8214 123.5438
L53.3452 123.7819
" />
<path d="M53.3452 123.7819
L52.8690 123.7819
" />
<path d="M52.8690 123.7819
L52.3929 123.5438
" />
<path d="M52.3929 123.5438
L52.1548 123.3057
" />
<path d="M52.1548 123.3057
L51.9167 122.8295
" />
<path d="M51.9167 122.8295
L51.6786 121.8771
" />
<path d="M51.6786 121.8771
L51.6786 120.6867
" />
<path d="M51.6786 120.6867
L51.9167 119.7343
" />
<path d="M51.9167 119.7343
L52.1548 119.2581
" />
<path d="M52.1548 119.2581
L52.3929 119.0200
" />
<path d="M52.3929 119.0200
L52.8690 118.7819
" />
<path d="M56.9167 123.7819
L57.8690 123.7819
" />
<path d="M57.8690 123.7819
L58.3452 123.5438
" />
<path d="M58.3452 123.5438
L58.5833 123.3057
" />
<path d="M58.5833 123.3057
L59.0595 122.5914
" />
<path d="M59.0595 122.5914
L59.2976 121.6390
" />
<path d="M59.2976 121.6390
L59.2976 119.7343
" />
<path d="M59.2976 119.7343
L59.0595 119.2581
" />
<path d="M59.0595 119.2581
L58.8214 119.0200
" />
<path d="M58.8214 119.0200
L58.3452 118.7819
" />
<path d="M58.3452 118.7819
L57.3929 118.7819
" />
<path d="M57.3929 118.7819
L56.9167 119.0200
" />
<path d="M56.9167 119.0200
L56.6786 119.2581
" />
<path d="M56.6786 119.2581
L56.4405 119.7343
" />
<path d="M56.4405 119.7343
L56.4405 120.9248
" />
<path d="M56.4405 120.9248
L56.6786 121.4009
" />
<path d="M56.6786 121.4009
L56.9167 121.6390
" />
<path d="M56.9167 121.6390
L57.3929 121.8771
" />
<path d="M57.3929 121.8771
L58.3452 121.8771
" />
<path d="M58.3452 121.8771
L58.8214 121.6390
" />
<path d="M58.8214 121.6390
L59.0595 121.4009
" />
<path d="M59.0595 121.4009
L59.2976 120.9248
" />
</g></g>
<g style="fill:#FFFFFF; fill-opacity:0.0; 
stroke:#FFFFFF; stroke-width:0.4500; stroke-opacity:1; 
stroke-linecap:round; stroke-linejoin:round;">
<text x="19.3500" y="98.8500"
textLength="21.6700" font-size="3.2000" lengthAdjust="spacingAndGlyphs"
text-anchor="middle" opacity="0">COLOR_ONE</text>
<g class="stroked-text"><desc>COLOR_ONE</desc>
<path d="M10.8929 98.5083
L10.7786 98.6226
" />
<path d="M10.7786 98.6226
L10.4357 98.7369
" />
<path d="M10.4357 98.7369
L10.2071 98.7369
" />
<path d="M10.2071 98.7369
L9.8643 98.6226
" />
<path d="M9.8643 98.6226
L9.6357 98.3940
" />
<path d="M9.6357 98.3940
L9.5214 98.1655
" />
<path d="M9.5214 98.1655
L9.4071 97.7083
" />
<path d="M9.4071 97.7083
L9.4071 97.3655
" />
<path d="M9.4071 97.3655
L9.5214 96.9083
" />
<path d="M9.5214 96.9083
L9.6357 96.6797
" />
<path d="M9.6357 96.6797
L9.8643 96.4512
" />
<path d="M9.8643 96.4512
L10.2071 96.3369
" />
<path d="M10.2071 96.3369
L10.4357 96.3369
" />
<path d="M10.4357 96.3369
L10.7786 96.4512
" />
<path d="M10.7786 96.4512
L10.8929 96.5655
" />
<path d="M12.3786 96.3369
L12.8357 96.3369
" />
<path d="M12.8357 96.3369
L13.0643 96.4512
" />
<path d="M13.0643 96.4512
L13.2929 96.6797
" />
<path d="M13.2929 96.6797
L13.4071 97.1369
" />
<path d="M13.4071 97.1369
L13.4071 97.9369
" />
<path d="M13.4071 97.9369
L13.2929 98.3940
" />
<path d="M13.2929 98.3940
L13.0643 98.6226
" />
<path d="M13.0643 98.6226
L12.8357 98.7369
" />
<path d="M12.8357 98.7369
L12.3786 98.7369
" />
<path d="M12.3786 98.7369
L12.1500 98.6226
" />
<path d="M12.1500 98.6226
L11.9214 98.3940
" />
<path d="M11.9214 98.3940
L11.8071 97.9369
" />
<path d="M11.8071 97.9369
L11.8071 97.1369
" />
<path d="M11.8071 97.1369
L11.9214 96.6797
" />
<path d="M11.9214 96.6797
L12.1500 96.4512
" />
<path d="M12.1500 96.4512
L12.3786 96.3369
" />
<path d="M15.5786 98.7369
L14.4357 98.7369
" />
<path d="M14.4357 98.7369
L14.4357 96.3369
" />
<path d="M16.8357 96.3369
L17.2929 96.3369
" />
<path d="M17.2929 96.3369
L17.5214 96.4512
" />
<path d="M17.5214 96.4512
L17.7500 96.6797
" />
<path d="M17.7500 96.6797
L17.8643 97.1369
" />
<path d="M17.8643 97.1369
L17.8643 97.9369
" />
<path d="M17.8643 97.9369
L17.7500 98.3940
" />
<path d="M17.7500 98.3940
L17.5214 98.6226
" />
<path d="M17.5214 98.6226
L17.2929 98.7369
" />
<path d="M17.2929 98.7369
L16.8357 98.7369
" />
<path d="M16.8357 98.7369
L16.6071 98.6226
" />
<path d="M16.6071 98.6226
L16.3786 98.3940
" />
<path d="M16.3786 98.3940
L16.2643 97.9369
" />
<path d="M16.2643 97.9369
L16.2643 97.1369
" />
<path d="M16.2643 97.1369
L16.3786 96.6797
" />
<path d="M16.3786 96.6797
L16.6071 96.4512
" />
<path d="M16.6071 96.4512
L16.8357 96.3369
" />
<path d="M20.2643 98.7369
L19.4643 97.5940
" />
<path d="M18.8929 98.7369
L18.8929 96.3369
" />
<path d="M18.8929 96.3369
L19.8071 96.3369
" />
<path d="M19.8071 96.3369
L20.0357 96.4512
" />
<path d="M20.0357 96.4512
L20.1500 96.5655
" />
<path d="M20.1500 96.5655
L20.2643 96.7940
" />
<path d="M20.2643 96.7940
L20.2643 97.1369
" />
<path d="M20.2643 97.1369
L20.1500 97.3655
" />
<path d="M20.1500 97.3655
L20.0357 97.4797
" />
<path d="M20.0357 97.4797
L19.8071 97.5940
" />
<path d="M19.8071 97.5940
L18.8929 97.5940
" />
<path d="M20.7214 98.9655
L22.5500 98.9655
" />
<path d="M23.5786 96.3369
L24.0357 96.3369
" />
<path d="M24.0357 96.3369
L24.2643 96.4512
" />
<path d="M24.2643 96.4512
L24.4929 96.6797
" />
<path d="M24.4929 96.6797
L24.6071 97.1369
" />
<path d="M24.6071 97.1369
L24.6071 97.9369
" />
<path d="M24.6071 97.9369
L24.4929 98.3940
" />
<path d="M24.4929 98.3940
L24.2643 98.6226
" />
<path d="M24.2643 98.6226
L24.0357 98.7369
" />
<path d="M24.0357 98.7369
L23.5786 98.7369
" />
<path d="M23.5786 98.7369
L23.3500 98.6226
" />
<path d="M23.3500 98.6226
L23.1214 98.3940
" />
<path d="M23.1214 98.3940
L23.0071 97.9369
" />
<path d="M23.0071 97.9369
L23.0071 97.1369
" />
<path d="M23.0071 97.1369
L23.1214 96.6797
" />
<path d="M23.1214 96.6797
L23.3500 96.4512
" />
<path d="M23.3500 96.4512
L23.5786 96.3369
" />
<path d="M25.6357 98.7369
L25.6357 96.3369
" />
<path d="M25.6357 96.3369
L27.0071 98.7369
" />
<path d="M27.0071 98.7369
L27.0071 96.3369
" />
<path d="M28.1500 97.4797
L28.9500 97.4797
" />
<path d="M29.2929 98.7369
L28.1500 98.7369
" />
<path d="M28.1500 98.7369
L28.1500 96.3369
" />
<path d="M28.1500 96.3369
L29.2929 96.3369
" />
</g></g>
<g style="fill:#FFFFFF; fill-opacity:0.0; 
stroke:#FFFFFF; stroke-width:0.2000; stroke-opacity:1; 
stroke-linecap:round; stroke-linejoin:round;">
<text x="4.7500" y="86.9500"
textLength="3.0667" font-size="1.3333" lengthAdjust="spacingAndGlyphs"
text-anchor="middle" opacity="0">PAL</text>
<g class="stroked-text"><desc>PAL</desc>
<path d="M3.6548 86.9022
L3.6548 85.9022
" />
<path d="M3.6548 85.9022
L4.0357 85.9022
" />
<path d="M4.0357 85.9022
L4.1310 85.9498
" />
<path d="M4.1310 85.9498
L4.1786 85.9975
" />
<path d="M4.1786 85.9975
L4.2262 86.0927
" />
<path d="M4.2262 86.0927
L4.2262 86.2356
" />
<path d="M4.2262 86.2356
L4.1786 86.3308
" />
<path d="M4.1786 86.3308
L4.1310 86.3784
" />
<path d="M4.1310 86.3784
L4.0357 86.4260
" />
<path d="M4.0357 86.4260
L3.6548 86.4260
" />
<path d="M4.6071 86.6165
L5.0833 86.6165
" />
<path d="M4.5119 86.9022
L4.8452 85.9022
" />
<path d="M4.8452 85.9022
L5.1786 86.9022
" />
<path d="M5.9881 86.9022
L5.5119 86.9022
" />
<path d="M5.5119 86.9022
L5.5119 85.9022
" />
</g></g>
<g style="fill:#FFFFFF; fill-opacity:0.0; 
stroke:#FFFFFF; stroke-width:0.3000; stroke-opacity:1; 
stroke-linecap:round; stroke-linejoin:round;">
<text x="50.0500" y="4.0000"
textLength="18.3143" font-size="2.0000" lengthAdjust="spacingAndGlyphs"
text-anchor="middle" opacity="0">TWO_POINT_ONE</text>
<g class="stroked-text"><desc>TWO_POINT_ONE</desc>
<path d="M41.3357 2.4283
L42.1929 2.4283
" />
<path d="M41.7643 3.9283
L41.7643 2.4283
" />
<path d="M42.5500 2.4283
L42.9071 3.9283
" />
<path d="M42.9071 3.9283
L43.1929 2.8569
" />
<path d="M43.1929 2.8569
L43.4786 3.9283
" />
<path d="M43.4786 3.9283
L43.8357 2.4283
" />
<path d="M44.6929 2.4283
L44.9786 2.4283
" />
<path d="M44.9786 2.4283
L45.1214 2.4998
" />
<path d="M45.1214 2.4998
L45.2643 2.6426
" />
<path d="M45.2643 2.6426
L45.3357 2.9283
" />
<path d="M45.3357 2.9283
L45.3357 3.4283
" />
<path d="M45.3357 3.4283
L45.2643 3.7140
" />
<path d="M45.2643 3.7140
L45.1214 3.8569
" />
<path d="M45.1214 3.8569
L44.9786 3.9283
" />
<path d="M44.9786 3.9283
L44.6929 3.9283
" />
<path d="M44.6929 3.9283
L44.5500 3.8569
" />
<path d="M44.5500 3.8569
L44.4071 3.7140
" />
<path d="M44.4071 3.7140
L44.3357 3.4283
" />
<path d="M44.3357 3.4283
L44.3357 2.9283
" />
<path d="M44.3357 2.9283
L44.4071 2.6426
" />
<path d="M44.4071 2.6426
L44.5500 2.4998
" />
<path d="M44.5500 2.4998
L44.6929 2.4283
" />
<path d="M45.6214 4.0712
L46.7643 4.0712
" />
<path d="M47.1214 3.9283
L47.1214 2.4283
" />
<path d="M47.1214 2.4283
L47.6929 2.4283
" />
<path d="M47.6929 2.4283
L47.8357 2.4998
" />
<path d="M47.8357 2.4998
L47.9071 2.5712
" />
<path d="M47.9071 2.5712
L47.9786 2.7140
" />
<path d="M47.9786 2.7140
L47.9786 2.9283
" />
<path d="M47.9786 2.9283
L47.9071 3.0712
" />
<path d="M47.9071 3.0712
L47.8357 3.1426
" />
<path d="M47.8357 3.1426
L47.6929 3.2140
" />
<path d="M47.6929 3.2140
L47.1214 3.2140
" />
<path d="M48.9071 2.4283
L49.1929 2.4283
" />
<path d="M49.1929 2.4283
L49.3357 2.4998
" />
<path d="M49.3357 2.4998
L49.4786 2.6426
" />
<path d="M49.4786 2.6426
L49.5500 2.9283
" />
<path d="M49.5500 2.9283
L49.5500 3.4283
" />
<path d="M49.5500 3.4283
L49.4786 3.7140
" />
<path d="M49.4786 3.7140
L49.3357 3.8569
" />
<path d="M49.3357 3.8569
L49.1929 3.9283
" />
<path d="M49.1929 3.9283
L48.9071 3.9283
" />
<path d="M48.9071 3.9283
L48.7643 3.8569
" />
<path d="M48.7643 3.8569
L48.6214 3.7140
" />
<path d="M48.6214 3.7140
L48.5500 3.4283
" />
<path d="M48.5500 3.4283
L48.5500 2.9283
" />
<path d="M48.5500 2.9283
L48.6214 2.6426
" />
<path d="M48.6214 2.6426
L48.7643 2.4998
" />
<path d="M48.7643 2.4998
L48.9071 2.4283
" />
<path d="M50.1929 3.9283
L50.1929 2.4283
" />
<path d="M50.9071 3.9283
L50.9071 2.4283
" />
<path d="M50.9071 2.4283
L51.7643 3.9283
" />
<path d="M51.7643 3.9283
L51.7643 2.4283
" />
<path d="M52.2643 2.4283
L53.1214 2.4283
" />
<path d="M52.6929 3.9283
L52.6929 2.4283
" />
<path d="M53.2643 4.0712
L54.4071 4.0712
" />
<path d="M55.0500 2.4283
L55.3357 2.4283
" />
<path d="M55.3357 2.4283
L55.4786 2.4998
" />
<path d="M55.4786 2.4998
L55.6214 2.6426
" />
<path d="M55.6214 2.6426
L55.6929 2.9283
" />
<path d="M55.6929 2.9283
L55.6929 3.4283
" />
<path d="M55.6929 3.4283
L55.6214 3.7140
" />
<path d="M55.6214 3.7140
L55.4786 3.8569
" />
<path d="M55.4786 3.8569
L55.3357 3.9283
" />
<path d="M55.3357 3.9283
L55.0500 3.9283
" />
<path d="M55.0500 3.9283
L54.9071 3.8569
" />
<path d="M54.9071 3.8569
L54.7643 3.7140
" />
<path d="M54.7643 3.7140
L54.6929 3.4283
" />
<path d="M54.6929 3.4283
L54.6929 2.9283
" />
<path d="M54.6929 2.9283
L54.7643 2.6426
" />
<path d="M54.7643 2.6426
L54.9071 2.4998
" />
<path d="M54.9071 2.4998
L55.0500 2.4283
" />
<path d="M56.3357 3.9283
L56.3357 2.4283
" />
<path d="M56.3357 2.4283
L57.1929 3.9283
" />
<path d="M57.1929 3.9283
L57.1929 2.4283
" />
<path d="M57.9071 3.1426
L58.4071 3.1426
" />
<path d="M58.6214 3.9283
L57.9071 3.9283
" />
<path d="M57.9071 3.9283
L57.9071 2.4283
" />
<path d="M57.9071 2.4283
L58.6214 2.4283
" />
</g></g>
<g style="fill:#FFFFFF; fill-opacity:0.0; 
stroke:#FFFFFF; stroke-width:0.3500; stroke-opacity:1; 
stroke-linecap:round; stroke-linejoin:round;">
<text x="82.5500" y="61.5000"
textLength="12.7500" font-size="2.0000" lengthAdjust="spacingAndGlyphs"
text-anchor="middle" opacity="0">LEVEL_TWO</text>
<g class="stroked-text"><desc>LEVEL_TWO</desc>
<path d="M77.6214 61.4257
L76.9071 61.4257
" />
<path d="M76.9071 61.4257
L76.9071 59.9257
" />
<path d="M78.1214 60.6400
L78.6214 60.6400
" />
<path d="M78.8357 61.4257
L78.1214 61.4257
" />
<path d="M78.1214 61.4257
L78.1214 59.9257
" />
<path d="M78.1214 59.9257
L78.8357 59.9257
" />
<path d="M79.2643 59.9257
L79.7643 61.4257
" />
<path d="M79.7643 61.4257
L80.2643 59.9257
" />
<path d="M80.7643 60.6400
L81.2643 60.6400
" />
<path d="M81.4786 61.4257
L80.7643 61.4257
" />
<path d="M80.7643 61.4257
L80.7643 59.9257
" />
<path d="M80.7643 59.9257
L81.4786 59.9257
" />
<path d="M82.8357 61.4257
L82.1214 61.4257
" />
<path d="M82.1214 61.4257
L82.1214 59.9257
" />
<path d="M82.9786 61.5686
L84.1214 61.5686
" />
<path d="M84.2643 59.9257
L85.1214 59.9257
" />
<path d="M84.6929 61.4257
L84.6929 59.9257
" />
<path d="M85.4786 59.9257
L85.8357 61.4257
" />
<path d="M85.8357 61.4257
L86.1214 60.3543
" />
<path d="M86.1214 60.3543
L86.4071 61.4257
" />
<path d="M86.4071 61.4257
L86.7643 59.9257
" />
<path d="M87.6214 59.9257
L87.9071 59.9257
" />
<path d="M87.9071 59.9257
L88.0500 59.9972
" />
<path d="M88.0500 59.9972
L88.1929 60.1400
" />
<path d="M88.1929 60.1400
L88.2643 60.4257
" />
<path d="M88.2643 60.4257
L88.2643 60.9257
" />
<path d="M88.2643 60.9257
L88.1929 61.2114
" />
<path d="M88.1929 61.2114
L88.0500 61.3543
" />
<path d="M88.0500 61.3543
L87.9071 61.4257
" />
<path d="M87.9071 61.4257
L87.6214 61.4257
" />
<path d="M87.6214 61.4257
L87.4786 61.3543
" />
<path d="M87.4786 61.3543
L87.3357 61.2114
" />
<path d="M87.3357 61.2114
L87.2643 60.9257
" />
<path d="M87.2643 60.9257
L87.2643 60.4257
" />
<path d="M87.2643 60.4257
L87.3357 60.1400
" />
<path d="M87.3357 60.1400
L87.4786 59.9972
" />
<path d="M87.4786 59.9972
L87.6214 59.9257
" />
</g><text x="34.1500" y="16.4000"
textLength="9.1786" font-size="2.0000" lengthAdjust="spacingAndGlyphs"
text-anchor="middle" opacity="0">BYPASS</text>
<g class="stroked-text"><desc>BYPASS</desc>
<path d="M30.7929 15.5400
L31.0071 15.6114
" />
<path d="M31.0071 15.6114
L31.0786 15.6829
" />
<path d="M31.0786 15.6829
L31.1500 15.8257
" />
<path d="M31.1500 15.8257
L31.1500 16.0400
" />
<path d="M31.1500 16.0400
L31.0786 16.1829
" />
<path d="M31.0786 16.1829
L31.0071 16.2543
" />
<path d="M31.0071 16.2543
L30.8643 16.3257
" />
<path d="M30.8643 16.3257
L30.2929 16.3257
" />
<path d="M30.2929 16.3257
L30.2929 14.8257
" />
<path d="M30.2929 14.8257
L30.7929 14.8257
" />
<path d="M30.7929 14.8257
L30.9357 14.8972
" />
<path d="M30.9357 14.8972
L31.0071 14.9686
" />
<path d="M31.0071 14.9686
L31.0786 15.1114
" />
<path d="M31.0786 15.1114
L31.0786 15.2543
" />
<path d="M31.0786 15.2543
L31.0071 15.3972
" />
<path d="M31.0071 15.3972
L30.9357 15.4686
" />
<path d="M30.9357 15.4686
L30.7929 15.5400
" />
<path d="M30.7929 15.5400
L30.2929 15.5400
" />
<path d="M32.0786 15.6114
L32.0786 16.3257
" />
<path d="M31.5786 14.8257
L32.0786 15.6114
" />
<path d="M32.0786 15.6114
L32.5786 14.8257
" />
<path d="M33.0786 16.3257
L33.0786 14.8257
" />
<path d="M33.0786 14.8257
L33.6500 14.8257
" />
<path d="M33.6500 14.8257
L33.7929 14.8972
" />
<path d="M33.7929 14.8972
L33.8643 14.9686
" />
<path d="M33.8643 14.9686
L33.9357 15.1114
" />
<path d="M33.9357 15.1114
L33.9357 15.3257
" />
<path d="M33.9357 15.3257
L33.8643 15.4686
" />
<path d="M33.8643 15.4686
L33.7929 15.5400
" />
<path d="M33.7929 15.5400
L33.6500 15.6114
" />
<path d="M33.6500 15.6114
L33.0786 15.6114
" />
<path d="M34.5071 15.8972
L35.2214 15.8972
" />
<path d="M34.3643 16.3257
L34.8643 14.8257
" />
<path d="M34.8643 14.8257
L35.3643 16.3257
" />
<path d="M35.7929 16.2543
L36.0071 16.3257
" />
<path d="M36.0071 16.3257
L36.3643 16.3257
" />
<path d="M36.3643 16.3257
L36.5071 16.2543
" />
<path d="M36.5071 16.2543
L36.5786 16.1829
" />
<path d="M36.5786 16.1829
L36.6500 16.0400
" />
<path d="M36.6500 16.0400
L36.6500 15.8972
" />
<path d="M36.6500 15.8972
L36.5786 15.7543
" />
<path d="M36.5786 15.7543
L36.5071 15.6829
" />
<path d="M36.5071 15.6829
L36.3643 15.6114
" />
<path d="M36.3643 15.6114
L36.0786 15.5400
" />
<path d="M36.0786 15.5400
L35.9357 15.4686
" />
<path d="M35.9357 15.4686
L35.8643 15.3972
" />
<path d="M35.8643 15.3972
L35.7929 15.2543
" />
<path d="M35.7929 15.2543
L35.7929 15.1114
" />
<path d="M35.7929 15.1114
L35.8643 14.9686
" />
<path d="M35.8643 14.9686
L35.9357 14.8972
" />
<path d="M35.9357 14.8972
L36.0786 14.8257
" />
<path d="M36.0786 14.8257
L36.4357 14.8257
" />
<path d="M36.4357 14.8257
L36.6500 14.8972
" />
<path d="M37.2214 16.2543
L37.4357 16.3257
" />
<path d="M37.4357 16.3257
L37.7929 16.3257
" />
<path d="M37.7929 16.3257
L37.9357 16.2543
" />
<path d="M37.9357 16.2543
L38.0071 16.1829
" />
<path d="M38.0071 16.1829
L38.0786 16.0400
" />
<path d="M38.0786 16.0400
L38.0786 15.8972
" />
<path d="M38.0786 15.8972
L38.0071 15.7543
" />
<path d="M38.0071 15.7543
L37.9357 15.6829
" />
<path d="M37.9357 15.6829
L37.7929 15.6114
" />
<path d="M37.7929 15.6114
L37.5071 15.5400
" />
<path d="M37.5071 15.5400
L37.3643 15.4686
" />
<path d="M37.3643 15.4686
L37.2929 15.3972
" />
<path d="M37.2929 15.3972
L37.2214 15.2543
" />
<path d="M37.2214 15.2543
L37.2214 15.1114
" />
<path d="M37.2214 15.1114
L37.2929 14.9686
" />
<path d="M37.2929 14.9686
L37.3643 14.8972
" />
<path d="M37.3643 14.8972
L37.5071 14.8257
" />
<path d="M37.5071 14.8257
L37.8643 14.8257
" />
<path d="M37.8643 14.8257
L38.0786 14.8972
" />
</g></g>
<g style="fill:#FFFFFF; fill-opacity:0.0; 
stroke:#FFFFFF; stroke-width:0.3000; stroke-opacity:1; 
stroke-linecap:round; stroke-linejoin:round;">
<text x="50.0500" y="127.0000"
textLength="20.1714" font-size="2.0000" lengthAdjust="spacingAndGlyphs"
text-anchor="middle" opacity="0">underscores.shop</text>
<g class="stroked-text"><desc>underscores.shop</desc>
<path d="M41.2643 125.9283
L41.2643 126.9283
" />
<path d="M40.6214 125.9283
L40.6214 126.7140
" />
<path d="M40.6214 126.7140
L40.6929 126.8569
" />
<path d="M40.6929 126.8569
L40.8357 126.9283
" />
<path d="M40.8357 126.9283
L41.0500 126.9283
" />
<path d="M41.0500 126.9283
L41.1929 126.8569
" />
<path d="M41.1929 126.8569
L41.2643 126.7855
" />
<path d="M41.9786 125.9283
L41.9786 126.9283
" />
<path d="M41.9786 126.0712
L42.0500 125.9998
" />
<path d="M42.0500 125.9998
L42.1929 125.9283
" />
<path d="M42.1929 125.9283
L42.4071 125.9283
" />
<path d="M42.4071 125.9283
L42.5500 125.9998
" />
<path d="M42.5500 125.9998
L42.6214 126.1426
" />
<path d="M42.6214 126.1426
L42.6214 126.9283
" />
<path d="M43.9786 126.9283
L43.9786 125.4283
" />
<path d="M43.9786 126.8569
L43.8357 126.9283
" />
<path d="M43.8357 126.9283
L43.5500 126.9283
" />
<path d="M43.5500 126.9283
L43.4071 126.8569
" />
<path d="M43.4071 126.8569
L43.3357 126.7855
" />
<path d="M43.3357 126.7855
L43.2643 126.6426
" />
<path d="M43.2643 126.6426
L43.2643 126.2140
" />
<path d="M43.2643 126.2140
L43.3357 126.0712
" />
<path d="M43.3357 126.0712
L43.4071 125.9998
" />
<path d="M43.4071 125.9998
L43.5500 125.9283
" />
<path d="M43.5500 125.9283
L43.8357 125.9283
" />
<path d="M43.8357 125.9283
L43.9786 125.9998
" />
<path d="M45.2643 126.8569
L45.1214 126.9283
" />
<path d="M45.1214 126.9283
L44.8357 126.9283
" />
<path d="M44.8357 126.9283
L44.6929 126.8569
" />
<path d="M44.6929 126.8569
L44.6214 126.7140
" />
<path d="M44.6214 126.7140
L44.6214 126.1426
" />
<path d="M44.6214 126.1426
L44.6929 125.9998
" />
<path d="M44.6929 125.9998
L44.8357 125.9283
" />
<path d="M44.8357 125.9283
L45.1214 125.9283
" />
<path d="M45.1214 125.9283
L45.2643 125.9998
" />
<path d="M45.2643 125.9998
L45.3357 126.1426
" />
<path d="M45.3357 126.1426
L45.3357 126.2855
" />
<path d="M45.3357 126.2855
L44.6214 126.4283
" />
<path d="M45.9786 126.9283
L45.9786 125.9283
" />
<path d="M45.9786 126.2140
L46.0500 126.0712
" />
<path d="M46.0500 126.0712
L46.1214 125.9998
" />
<path d="M46.1214 125.9998
L46.2643 125.9283
" />
<path d="M46.2643 125.9283
L46.4071 125.9283
" />
<path d="M46.8357 126.8569
L46.9786 126.9283
" />
<path d="M46.9786 126.9283
L47.2643 126.9283
" />
<path d="M47.2643 126.9283
L47.4071 126.8569
" />
<path d="M47.4071 126.8569
L47.4786 126.7140
" />
<path d="M47.4786 126.7140
L47.4786 126.6426
" />
<path d="M47.4786 126.6426
L47.4071 126.4998
" />
<path d="M47.4071 126.4998
L47.2643 126.4283
" />
<path d="M47.2643 126.4283
L47.0500 126.4283
" />
<path d="M47.0500 126.4283
L46.9071 126.3569
" />
<path d="M46.9071 126.3569
L46.8357 126.2140
" />
<path d="M46.8357 126.2140
L46.8357 126.1426
" />
<path d="M46.8357 126.1426
L46.9071 125.9998
" />
<path d="M46.9071 125.9998
L47.0500 125.9283
" />
<path d="M47.0500 125.9283
L47.2643 125.9283
" />
<path d="M47.2643 125.9283
L47.4071 125.9998
" />
<path d="M48.7643 126.8569
L48.6214 126.9283
" />
<path d="M48.6214 126.9283
L48.3357 126.9283
" />
<path d="M48.3357 126.9283
L48.1929 126.8569
" />
<path d="M48.1929 126.8569
L48.1214 126.7855
" />
<path d="M48.1214 126.7855
L48.0500 126.6426
" />
<path d="M48.0500 126.6426
L48.0500 126.2140
" />
<path d="M48.0500 126.2140
L48.1214 126.0712
" />
<path d="M48.1214 126.0712
L48.1929 125.9998
" />
<path d="M48.1929 125.9998
L48.3357 125.9283
" />
<path d="M48.3357 125.9283
L48.6214 125.9283
" />
<path d="M48.6214 125.9283
L48.7643 125.9998
" />
<path d="M49.6214 126.9283
L49.4786 126.8569
" />
<path d="M49.4786 126.8569
L49.4071 126.7855
" />
<path d="M49.4071 126.7855
L49.3357 126.6426
" />
<path d="M49.3357 126.6426
L49.3357 126.2140
" />
<path d="M49.3357 126.2140
L49.4071 126.0712
" />
<path d="M49.4071 126.0712
L49.4786 125.9998
" />
<path d="M49.4786 125.9998
L49.6214 125.9283
" />
<path d="M49.6214 125.9283
L49.8357 125.9283
" />
<path d="M49.8357 125.9283
L49.9786 125.9998
" />
<path d="M49.9786 125.9998
L50.0500 126.0712
" />
<path d="M50.0500 126.0712
L50.1214 126.2140
" />
<path d="M50.1214 126.2140
L50.1214 126.6426
" />
<path d="M50.1214 126.6426
L50.0500 126.7855
" />
<path d="M50.0500 126.7855
L49.9786 126.8569
" />
<path d="M49.9786 126.8569
L49.8357 126.9283
" />
<path d="M49.8357 126.9283
L49.6214 126.9283
" />
<path d="M50.7643 126.9283
L50.7643 125.9283
" />
<path d="M50.7643 126.2140
L50.8357 126.0712
" />
<path d="M50.8357 126.0712
L50.9071 125.9998
" />
<path d="M50.9071 125.9998
L51.0500 125.9283
" />
<path d="M51.0500 125.9283
L51.1929 125.9283
" />
<path d="M52.2643 126.8569
L52.1214 126.9283
" />
<path d="M52.1214 126.9283
L51.8357 126.9283
" />
<path d="M51.8357 126.9283
L51.6929 126.8569
" />
<path d="M51.6929 126.8569
L51.6214 126.7140
" />
<path d="M51.6214 126.7140
L51.6214 126.1426
" />
<path d="M51.6214 126.1426
L51.6929 125.9998
" />
<path d="M51.6929 125.9998
L51.8357 125.9283
" />
<path d="M51.8357 125.9283
L52.1214 125.9283
" />
<path d="M52.1214 125.9283
L52.2643 125.9998
" />
<path d="M52.2643 125.9998
L52.3357 126.1426
" />
<path d="M52.3357 126.1426
L52.3357 126.2855
" />
<path d="M52.3357 126.2855
L51.6214 126.4283
" />
<path d="M52.9071 126.8569
L53.0500 126.9283
" />
<path d="M53.0500 126.9283
L53.3357 126.9283
" />
<path d="M53.3357 126.9283
L53.4786 126.8569
" />
<path d="M53.4786 126.8569
L53.5500 126.7140
" />
<path d="M53.5500 126.7140
L53.5500 126.6426
" />
<path d="M53.5500 126.6426
L53.4786 126.4998
" />
<path d="M53.4786 126.4998
L53.3357 126.4283
" />
<path d="M53.3357 126.4283
L53.1214 126.4283
" />
<path d="M53.1214 126.4283
L52.9786 126.3569
" />
<path d="M52.9786 126.3569
L52.9071 126.2140
" />
<path d="M52.9071 126.2140
L52.9071 126.1426
" />
<path d="M52.9071 126.1426
L52.9786 125.9998
" />
<path d="M52.9786 125.9998
L53.1214 125.9283
" />
<path d="M53.1214 125.9283
L53.3357 125.9283
" />
<path d="M53.3357 125.9283
L53.4786 125.9998
" />
<path d="M54.1929 126.7855
L54.2643 126.8569
" />
<path d="M54.2643 126.8569
L54.1929 126.9283
" />
<path d="M54.1929 126.9283
L54.1214 126.8569
" />
<path d="M54.1214 126.8569
L54.1929 126.7855
" />
<path d="M54.1929 126.7855
L54.1929 126.9283
" />
<path d="M54.8357 126.8569
L54.9786 126.9283
" />
<path d="M54.9786 126.9283
L55.2643 126.9283
" />
<path d="M55.2643 126.9283
L55.4071 126.8569
" />
<path d="M55.4071 126.8569
L55.4786 126.7140
" />
<path d="M55.4786 126.7140
L55.4786 126.6426
" />
<path d="M55.4786 126.6426
L55.4071 126.4998
" />
<path d="M55.4071 126.4998
L55.2643 126.4283
" />
<path d="M55.2643 126.4283
L55.0500 126.4283
" />
<path d="M55.0500 126.4283
L54.9071 126.3569
" />
<path d="M54.9071 126.3569
L54.8357 126.2140
" />
<path d="M54.8357 126.2140
L54.8357 126.1426
" />
<path d="M54.8357 126.1426
L54.9071 125.9998
" />
<path d="M54.9071 125.9998
L55.0500 125.9283
" />
<path d="M55.0500 125.9283
L55.2643 125.9283
" />
<path d="M55.2643 125.9283
L55.4071 125.9998
" />
<path d="M56.1214 126.9283
L56.1214 125.4283
" />
<path d="M56.7643 126.9283
L56.7643 126.1426
" />
<path d="M56.7643 126.1426
L56.6929 125.9998
" />
<path d="M56.6929 125.9998
L56.5500 125.9283
" />
<path d="M56.5500 125.9283
L56.3357 125.9283
" />
<path d="M56.3357 125.9283
L56.1929 125.9998
" />
<path d="M56.1929 125.9998
L56.1214 126.0712
" />
<path d="M57.6929 126.9283
L57.5500 126.8569
" />
<path d="M57.5500 126.8569
L57.4786 126.7855
" />
<path d="M57.4786 126.7855
L57.4071 126.6426
" />
<path d="M57.4071 126.6426
L57.4071 126.2140
" />
<path d="M57.4071 126.2140
L57.4786 126.0712
" />
<path d="M57.4786 126.0712
L57.5500 125.9998
" />
<path d="M57.5500 125.9998
L57.6929 125.9283
" />
<path d="M57.6929 125.9283
L57.9071 125.9283
" />
<path d="M57.9071 125.9283
L58.0500 125.9998
" />
<path d="M58.0500 125.9998
L58.1214 126.0712
" />
<path d="M58.1214 126.0712
L58.1929 126.2140
" />
<path d="M58.1929 126.2140
L58.1929 126.6426
" />
<path d="M58.1929 126.6426
L58.1214 126.7855
" />
<path d="M58.1214 126.7855
L58.0500 126.8569
" />
<path d="M58.0500 126.8569
L57.9071 126.9283
" />
<path d="M57.9071 126.9283
L57.6929 126.9283
" />
<path d="M58.8357 125.9283
L58.8357 127.4283
" />
<path d="M58.8357 125.9998
L58.9786 125.9283
" />
<path d="M58.9786 125.9283
L59.2643 125.9283
" />
<path d="M59.2643 125.9283
L59.4071 125.9998
" />
<path d="M59.4071 125.9998
L59.4786 126.0712
" />
<path d="M59.4786 126.0712
L59.5500 126.2140
" />
<path d="M59.5500 126.2140
L59.5500 126.6426
" />
<path d="M59.5500 126.6426
L59.4786 126.7855
" />
<path d="M59.4786 126.7855
L59.4071 126.8569
" />
<path d="M59.4071 126.8569
L59.2643 126.9283
" />
<path d="M59.2643 126.9283
L58.9786 126.9283
" />
<path d="M58.9786 126.9283
L58.8357 126.8569
" />
</g></g>
<g style="fill:#FFFFFF; fill-opacity:0.0; 
stroke:#FFFFFF; stroke-width:0.4500; stroke-opacity:1; 
stroke-linecap:round; stroke-linejoin:round;">
<text x="22.2500" y="31.7500"
textLength="16.6414" font-size="3.2000" lengthAdjust="spacingAndGlyphs"
text-anchor="middle" opacity="0">VIDEO_IN</text>
<g class="stroked-text"><desc>VIDEO_IN</desc>
<path d="M14.5929 29.2369
L15.3929 31.6369
" />
<path d="M15.3929 31.6369
L16.1929 29.2369
" />
<path d="M16.9929 31.6369
L16.9929 29.2369
" />
<path d="M18.1357 31.6369
L18.1357 29.2369
" />
<path d="M18.1357 29.2369
L18.7071 29.2369
" />
<path d="M18.7071 29.2369
L19.0500 29.3512
" />
<path d="M19.0500 29.3512
L19.2786 29.5797
" />
<path d="M19.2786 29.5797
L19.3929 29.8083
" />
<path d="M19.3929 29.8083
L19.5071 30.2655
" />
<path d="M19.5071 30.2655
L19.5071 30.6083
" />
<path d="M19.5071 30.6083
L19.3929 31.0655
" />
<path d="M19.3929 31.0655
L19.2786 31.2940
" />
<path d="M19.2786 31.2940
L19.0500 31.5226
" />
<path d="M19.0500 31.5226
L18.7071 31.6369
" />
<path d="M18.7071 31.6369
L18.1357 31.6369
" />
<path d="M20.5357 30.3797
L21.3357 30.3797
" />
<path d="M21.6786 31.6369
L20.5357 31.6369
" />
<path d="M20.5357 31.6369
L20.5357 29.2369
" />
<path d="M20.5357 29.2369
L21.6786 29.2369
" />
<path d="M23.1643 29.2369
L23.6214 29.2369
" />
<path d="M23.6214 29.2369
L23.8500 29.3512
" />
<path d="M23.8500 29.3512
L24.0786 29.5797
" />
<path d="M24.0786 29.5797
L24.1929 30.0369
" />
<path d="M24.1929 30.0369
L24.1929 30.8369
" />
<path d="M24.1929 30.8369
L24.0786 31.2940
" />
<path d="M24.0786 31.2940
L23.8500 31.5226
" />
<path d="M23.8500 31.5226
L23.6214 31.6369
" />
<path d="M23.6214 31.6369
L23.1643 31.6369
" />
<path d="M23.1643 31.6369
L22.9357 31.5226
" />
<path d="M22.9357 31.5226
L22.7071 31.2940
" />
<path d="M22.7071 31.2940
L22.5929 30.8369
" />
<path d="M22.5929 30.8369
L22.5929 30.0369
" />
<path d="M22.5929 30.0369
L22.7071 29.5797
" />
<path d="M22.7071 29.5797
L22.9357 29.3512
" />
<path d="M22.9357 29.3512
L23.1643 29.2369
" />
<path d="M24.6500 31.8655
L26.4786 31.8655
" />
<path d="M27.0500 31.6369
L27.0500 29.2369
" />
<path d="M28.1929 31.6369
L28.1929 29.2369
" />
<path d="M28.1929 29.2369
L29.5643 31.6369
" />
<path d="M29.5643 31.6369
L29.5643 29.2369
" />
</g></g>
<g style="fill:#FFFFFF; fill-opacity:0.0; 
stroke:#FFFFFF; stroke-width:0.2000; stroke-opacity:1; 
stroke-linecap:round; stroke-linejoin:round;">
<g transform="rotate(-90.000000 9.0000 78.5000)">
<text x="9.0000" y="79.0000"
textLength="6.0667" font-size="1.3333" lengthAdjust="spacingAndGlyphs"
text-anchor="middle" opacity="0">FORMAT</text>
</g>
<g class="stroked-text"><desc>FORMAT</desc>
<path d="M8.9284 80.7619
L8.9284 81.0952
" />
<path d="M9.4522 81.0952
L8.4522 81.0952
" />
<path d="M8.4522 81.0952
L8.4522 80.6190
" />
<path d="M8.4522 80.0476
L8.4522 79.8571
" />
<path d="M8.4522 79.8571
L8.4998 79.7619
" />
<path d="M8.4998 79.7619
L8.5951 79.6667
" />
<path d="M8.5951 79.6667
L8.7856 79.6190
" />
<path d="M8.7856 79.6190
L9.1189 79.6190
" />
<path d="M9.1189 79.6190
L9.3094 79.6667
" />
<path d="M9.3094 79.6667
L9.4046 79.7619
" />
<path d="M9.4046 79.7619
L9.4522 79.8571
" />
<path d="M9.4522 79.8571
L9.4522 80.0476
" />
<path d="M9.4522 80.0476
L9.4046 80.1429
" />
<path d="M9.4046 80.1429
L9.3094 80.2381
" />
<path d="M9.3094 80.2381
L9.1189 80.2857
" />
<path d="M9.1189 80.2857
L8.7856 80.2857
" />
<path d="M8.7856 80.2857
L8.5951 80.2381
" />
<path d="M8.5951 80.2381
L8.4998 80.1429
" />
<path d="M8.4998 80.1429
L8.4522 80.0476
" />
<path d="M9.4522 78.6190
L8.9760 78.9524
" />
<path d="M9.4522 79.1905
L8.4522 79.1905
" />
<path d="M8.4522 79.1905
L8.4522 78.8095
" />
<path d="M8.4522 78.8095
L8.4998 78.7143
" />
<path d="M8.4998 78.7143
L8.5475 78.6667
" />
<path d="M8.5475 78.6667
L8.6427 78.6190
" />
<path d="M8.6427 78.6190
L8.7856 78.6190
" />
<path d="M8.7856 78.6190
L8.8808 78.6667
" />
<path d="M8.8808 78.6667
L8.9284 78.7143
" />
<path d="M8.9284 78.7143
L8.9760 78.8095
" />
<path d="M8.9760 78.8095
L8.9760 79.1905
" />
<path d="M9.4522 78.1905
L8.4522 78.1905
" />
<path d="M8.4522 78.1905
L9.1665 77.8571
" />
<path d="M9.1665 77.8571
L8.4522 77.5238
" />
<path d="M8.4522 77.5238
L9.4522 77.5238
" />
<path d="M9.1665 77.0952
L9.1665 76.6190
" />
<path d="M9.4522 77.1905
L8.4522 76.8571
" />
<path d="M8.4522 76.8571
L9.4522 76.5238
" />
<path d="M8.4522 76.3333
L8.4522 75.7619
" />
<path d="M9.4522 76.0476
L8.4522 76.0476
" />
</g></g>
<g style="fill:#FFFFFF; fill-opacity:0.0; 
stroke:#FFFFFF; stroke-width:0.3500; stroke-opacity:1; 
stroke-linecap:round; stroke-linejoin:round;">
<text x="51.5500" y="99.7000"
textLength="15.0357" font-size="2.0000" lengthAdjust="spacingAndGlyphs"
text-anchor="middle" opacity="0">COLOR_BOTH</text>
<g class="stroked-text"><desc>COLOR_BOTH</desc>
<path d="M45.6214 99.4829
L45.5500 99.5543
" />
<path d="M45.5500 99.5543
L45.3357 99.6257
" />
<path d="M45.3357 99.6257
L45.1929 99.6257
" />
<path d="M45.1929 99.6257
L44.9786 99.5543
" />
<path d="M44.9786 99.5543
L44.8357 99.4114
" />
<path d="M44.8357 99.4114
L44.7643 99.2686
" />
<path d="M44.7643 99.2686
L44.6929 98.9829
" />
<path d="M44.6929 98.9829
L44.6929 98.7686
" />
<path d="M44.6929 98.7686
L44.7643 98.4829
" />
<path d="M44.7643 98.4829
L44.8357 98.3400
" />
<path d="M44.8357 98.3400
L44.9786 98.1972
" />
<path d="M44.9786 98.1972
L45.1929 98.1257
" />
<path d="M45.1929 98.1257
L45.3357 98.1257
" />
<path d="M45.3357 98.1257
L45.5500 98.1972
" />
<path d="M45.5500 98.1972
L45.6214 98.2686
" />
<path d="M46.5500 98.1257
L46.8357 98.1257
" />
<path d="M46.8357 98.1257
L46.9786 98.1972
" />
<path d="M46.9786 98.1972
L47.1214 98.3400
" />
<path d="M47.1214 98.3400
L47.1929 98.6257
" />
<path d="M47.1929 98.6257
L47.1929 99.1257
" />
<path d="M47.1929 99.1257
L47.1214 99.4114
" />
<path d="M47.1214 99.4114
L46.9786 99.5543
" />
<path d="M46.9786 99.5543
L46.8357 99.6257
" />
<path d="M46.8357 99.6257
L46.5500 99.6257
" />
<path d="M46.5500 99.6257
L46.4071 99.5543
" />
<path d="M46.4071 99.5543
L46.2643 99.4114
" />
<path d="M46.2643 99.4114
L46.1929 99.1257
" />
<path d="M46.1929 99.1257
L46.1929 98.6257
" />
<path d="M46.1929 98.6257
L46.2643 98.3400
" />
<path d="M46.2643 98.3400
L46.4071 98.1972
" />
<path d="M46.4071 98.1972
L46.5500 98.1257
" />
<path d="M48.5500 99.6257
L47.8357 99.6257
" />
<path d="M47.8357 99.6257
L47.8357 98.1257
" />
<path d="M49.3357 98.1257
L49.6214 98.1257
" />
<path d="M49.6214 98.1257
L49.7643 98.1972
" />
<path d="M49.7643 98.1972
L49.9071 98.3400
" />
<path d="M49.9071 98.3400
L49.9786 98.6257
" />
<path d="M49.9786 98.6257
L49.9786 99.1257
" />
<path d="M49.9786 99.1257
L49.9071 99.4114
" />
<path d="M49.9071 99.4114
L49.7643 99.5543
" />
<path d="M49.7643 99.5543
L49.6214 99.6257
" />
<path d="M49.6214 99.6257
L49.3357 99.6257
" />
<path d="M49.3357 99.6257
L49.1929 99.5543
" />
<path d="M49.1929 99.5543
L49.0500 99.4114
" />
<path d="M49.0500 99.4114
L48.9786 99.1257
" />
<path d="M48.9786 99.1257
L48.9786 98.6257
" />
<path d="M48.9786 98.6257
L49.0500 98.3400
" />
<path d="M49.0500 98.3400
L49.1929 98.1972
" />
<path d="M49.1929 98.1972
L49.3357 98.1257
" />
<path d="M51.4786 99.6257
L50.9786 98.9114
" />
<path d="M50.6214 99.6257
L50.6214 98.1257
" />
<path d="M50.6214 98.1257
L51.1929 98.1257
" />
<path d="M51.1929 98.1257
L51.3357 98.1972
" />
<path d="M51.3357 98.1972
L51.4071 98.2686
" />
<path d="M51.4071 98.2686
L51.4786 98.4114
" />
<path d="M51.4786 98.4114
L51.4786 98.6257
" />
<path d="M51.4786 98.6257
L51.4071 98.7686
" />
<path d="M51.4071 98.7686
L51.3357 98.8400
" />
<path d="M51.3357 98.8400
L51.1929 98.9114
" />
<path d="M51.1929 98.9114
L50.6214 98.9114
" />
<path d="M51.7643 99.7686
L52.9071 99.7686
" />
<path d="M53.7643 98.8400
L53.9786 98.9114
" />
<path d="M53.9786 98.9114
L54.0500 98.9829
" />
<path d="M54.0500 98.9829
L54.1214 99.1257
" />
<path d="M54.1214 99.1257
L54.1214 99.3400
" />
<path d="M54.1214 99.3400
L54.0500 99.4829
" />
<path d="M54.0500 99.4829
L53.9786 99.5543
" />
<path d="M53.9786 99.5543
L53.8357 99.6257
" />
<path d="M53.8357 99.6257
L53.2643 99.6257
" />
<path d="M53.2643 99.6257
L53.2643 98.1257
" />
<path d="M53.2643 98.1257
L53.7643 98.1257
" />
<path d="M53.7643 98.1257
L53.9071 98.1972
" />
<path d="M53.9071 98.1972
L53.9786 98.2686
" />
<path d="M53.9786 98.2686
L54.0500 98.4114
" />
<path d="M54.0500 98.4114
L54.0500 98.5543
" />
<path d="M54.0500 98.5543
L53.9786 98.6972
" />
<path d="M53.9786 98.6972
L53.9071 98.7686
" />
<path d="M53.9071 98.7686
L53.7643 98.8400
" />
<path d="M53.7643 98.8400
L53.2643 98.8400
" />
<path d="M55.0500 98.1257
L55.3357 98.1257
" />
<path d="M55.3357 98.1257
L55.4786 98.1972
" />
<path d="M55.4786 98.1972
L55.6214 98.3400
" />
<path d="M55.6214 98.3400
L55.6929 98.6257
" />
<path d="M55.6929 98.6257
L55.6929 99.1257
" />
<path d="M55.6929 99.1257
L55.6214 99.4114
" />
<path d="M55.6214 99.4114
L55.4786 99.5543
" />
<path d="M55.4786 99.5543
L55.3357 99.6257
" />
<path d="M55.3357 99.6257
L55.0500 99.6257
" />
<path d="M55.0500 99.6257
L54.9071 99.5543
" />
<path d="M54.9071 99.5543
L54.7643 99.4114
" />
<path d="M54.7643 99.4114
L54.6929 99.1257
" />
<path d="M54.6929 99.1257
L54.6929 98.6257
" />
<path d="M54.6929 98.6257
L54.7643 98.3400
" />
<path d="M54.7643 98.3400
L54.9071 98.1972
" />
<path d="M54.9071 98.1972
L55.0500 98.1257
" />
<path d="M56.1214 98.1257
L56.9786 98.1257
" />
<path d="M56.5500 99.6257
L56.5500 98.1257
" />
<path d="M57.4786 99.6257
L57.4786 98.1257
" />
<path d="M57.4786 98.8400
L58.3357 98.8400
" />
<path d="M58.3357 99.6257
L58.3357 98.1257
" />
</g></g>
<g style="fill:#FFFFFF; fill-opacity:0.0; 
stroke:#FFFFFF; stroke-width:0.4500; stroke-opacity:1; 
stroke-linecap:round; stroke-linejoin:round;">
<text x="78.1500" y="31.7500"
textLength="19.8414" font-size="3.2000" lengthAdjust="spacingAndGlyphs"
text-anchor="middle" opacity="0">VIDEO_OUT</text>
<g class="stroked-text"><desc>VIDEO_OUT</desc>
<path d="M68.8929 29.2369
L69.6929 31.6369
" />
<path d="M69.6929 31.6369
L70.4929 29.2369
" />
<path d="M71.2929 31.6369
L71.2929 29.2369
" />
<path d="M72.4357 31.6369
L72.4357 29.2369
" />
<path d="M72.4357 29.2369
L73.0071 29.2369
" />
<path d="M73.0071 29.2369
L73.3500 29.3512
" />
<path d="M73.3500 29.3512
L73.5786 29.5797
" />
<path d="M73.5786 29.5797
L73.6929 29.8083
" />
<path d="M73.6929 29.8083
L73.8071 30.2655
" />
<path d="M73.8071 30.2655
L73.8071 30.6083
" />
<path d="M73.8071 30.6083
L73.6929 31.0655
" />
<path d="M73.6929 31.0655
L73.5786 31.2940
" />
<path d="M73.5786 31.2940
L73.3500 31.5226
" />
<path d="M73.3500 31.5226
L73.0071 31.6369
" />
<path d="M73.0071 31.6369
L72.4357 31.6369
" />
<path d="M74.8357 30.3797
L75.6357 30.3797
" />
<path d="M75.9786 31.6369
L74.8357 31.6369
" />
<path d="M74.8357 31.6369
L74.8357 29.2369
" />
<path d="M74.8357 29.2369
L75.9786 29.2369
" />
<path d="M77.4643 29.2369
L77.9214 29.2369
" />
<path d="M77.9214 29.2369
L78.1500 29.3512
" />
<path d="M78.1500 29.3512
L78.3786 29.5797
" />
<path d="M78.3786 29.5797
L78.4929 30.0369
" />
<path d="M78.4929 30.0369
L78.4929 30.8369
" />
<path d="M78.4929 30.8369
L78.3786 31.2940
" />
<path d="M78.3786 31.2940
L78.1500 31.5226
" />
<path d="M78.1500 31.5226
L77.9214 31.6369
" />
<path d="M77.9214 31.6369
L77.4643 31.6369
" />
<path d="M77.4643 31.6369
L77.2357 31.5226
" />
<path d="M77.2357 31.5226
L77.0071 31.2940
" />
<path d="M77.0071 31.2940
L76.8929 30.8369
" />
<path d="M76.8929 30.8369
L76.8929 30.0369
" />
<path d="M76.8929 30.0369
L77.0071 29.5797
" />
<path d="M77.0071 29.5797
L77.2357 29.3512
" />
<path d="M77.2357 29.3512
L77.4643 29.2369
" />
<path d="M78.9500 31.8655
L80.7786 31.8655
" />
<path d="M81.8071 29.2369
L82.2643 29.2369
" />
<path d="M82.2643 29.2369
L82.4929 29.3512
" />
<path d="M82.4929 29.3512
L82.7214 29.5797
" />
<path d="M82.7214 29.5797
L82.8357 30.0369
" />
<path d="M82.8357 30.0369
L82.8357 30.8369
" />
<path d="M82.8357 30.8369
L82.7214 31.2940
" />
<path d="M82.7214 31.2940
L82.4929 31.5226
" />
<path d="M82.4929 31.5226
L82.2643 31.6369
" />
<path d="M82.2643 31.6369
L81.8071 31.6369
" />
<path d="M81.8071 31.6369
L81.5786 31.5226
" />
<path d="M81.5786 31.5226
L81.3500 31.2940
" />
<path d="M81.3500 31.2940
L81.2357 30.8369
" />
<path d="M81.2357 30.8369
L81.2357 30.0369
" />
<path d="M81.2357 30.0369
L81.3500 29.5797
" />
<path d="M81.3500 29.5797
L81.5786 29.3512
" />
<path d="M81.5786 29.3512
L81.8071 29.2369
" />
<path d="M83.8643 29.2369
L83.8643 31.1797
" />
<path d="M83.8643 31.1797
L83.9786 31.4083
" />
<path d="M83.9786 31.4083
L84.0929 31.5226
" />
<path d="M84.0929 31.5226
L84.3214 31.6369
" />
<path d="M84.3214 31.6369
L84.7786 31.6369
" />
<path d="M84.7786 31.6369
L85.0071 31.5226
" />
<path d="M85.0071 31.5226
L85.1214 31.4083
" />
<path d="M85.1214 31.4083
L85.2357 31.1797
" />
<path d="M85.2357 31.1797
L85.2357 29.2369
" />
<path d="M86.0357 29.2369
L87.4071 29.2369
" />
<path d="M86.7214 31.6369
L86.7214 29.2369
" />
</g></g>
<g style="fill:#FFFFFF; fill-opacity:0.0; 
stroke:#FFFFFF; stroke-width:0.2000; stroke-opacity:1; 
stroke-linecap:round; stroke-linejoin:round;">
<g transform="rotate(-90.000000 93.6500 78.1500)">
<text x="93.6500" y="78.6500"
textLength="13.2571" font-size="1.3333" lengthAdjust="spacingAndGlyphs"
text-anchor="middle" opacity="0">ALTERNATE LINES</text>
</g>
<g class="stroked-text"><desc>ALTERNATE LINES</desc>
<path d="M93.8165 84.3881
L93.8165 83.9119
" />
<path d="M94.1022 84.4833
L93.1022 84.1500
" />
<path d="M93.1022 84.1500
L94.1022 83.8167
" />
<path d="M94.1022 83.0071
L94.1022 83.4833
" />
<path d="M94.1022 83.4833
L93.1022 83.4833
" />
<path d="M93.1022 82.8167
L93.1022 82.2452
" />
<path d="M94.1022 82.5310
L93.1022 82.5310
" />
<path d="M93.5784 81.9119
L93.5784 81.5786
" />
<path d="M94.1022 81.4357
L94.1022 81.9119
" />
<path d="M94.1022 81.9119
L93.1022 81.9119
" />
<path d="M93.1022 81.9119
L93.1022 81.4357
" />
<path d="M94.1022 80.4357
L93.6260 80.7690
" />
<path d="M94.1022 81.0071
L93.1022 81.0071
" />
<path d="M93.1022 81.0071
L93.1022 80.6262
" />
<path d="M93.1022 80.6262
L93.1498 80.5310
" />
<path d="M93.1498 80.5310
L93.1975 80.4833
" />
<path d="M93.1975 80.4833
L93.2927 80.4357
" />
<path d="M93.2927 80.4357
L93.4356 80.4357
" />
<path d="M93.4356 80.4357
L93.5308 80.4833
" />
<path d="M93.5308 80.4833
L93.5784 80.5310
" />
<path d="M93.5784 80.5310
L93.6260 80.6262
" />
<path d="M93.6260 80.6262
L93.6260 81.0071
" />
<path d="M94.1022 80.0071
L93.1022 80.0071
" />
<path d="M93.1022 80.0071
L94.1022 79.4357
" />
<path d="M94.1022 79.4357
L93.1022 79.4357
" />
<path d="M93.8165 79.0071
L93.8165 78.5310
" />
<path d="M94.1022 79.1024
L93.1022 78.7690
" />
<path d="M93.1022 78.7690
L94.1022 78.4357
" />
<path d="M93.1022 78.2452
L93.1022 77.6738
" />
<path d="M94.1022 77.9595
L93.1022 77.9595
" />
<path d="M93.5784 77.3405
L93.5784 77.0071
" />
<path d="M94.1022 76.8643
L94.1022 77.3405
" />
<path d="M94.1022 77.3405
L93.1022 77.3405
" />
<path d="M93.1022 77.3405
L93.1022 76.8643
" />
<path d="M94.1022 75.1976
L94.1022 75.6738
" />
<path d="M94.1022 75.6738
L93.1022 75.6738
" />
<path d="M94.1022 74.8643
L93.1022 74.8643
" />
<path d="M94.1022 74.3881
L93.1022 74.3881
" />
<path d="M93.1022 74.3881
L94.1022 73.8167
" />
<path d="M94.1022 73.8167
L93.1022 73.8167
" />
<path d="M93.5784 73.3405
L93.5784 73.0071
" />
<path d="M94.1022 72.8643
L94.1022 73.3405
" />
<path d="M94.1022 73.3405
L93.1022 73.3405
" />
<path d="M93.1022 73.3405
L93.1022 72.8643
" />
<path d="M94.0546 72.4833
L94.1022 72.3405
" />
<path d="M94.1022 72.3405
L94.1022 72.1024
" />
<path d="M94.1022 72.1024
L94.0546 72.0071
" />
<path d="M94.0546 72.0071
L94.0070 71.9595
" />
<path d="M94.0070 71.9595
L93.9117 71.9119
" />
<path d="M93.9117 71.9119
L93.8165 71.9119
" />
<path d="M93.8165 71.9119
L93.7213 71.9595
" />
<path d="M93.7213 71.9595
L93.6736 72.0071
" />
<path d="M93.6736 72.0071
L93.6260 72.1024
" />
<path d="M93.6260 72.1024
L93.5784 72.2929
" />
<path d="M93.5784 72.2929
L93.5308 72.3881
" />
<path d="M93.5308 72.3881
L93.4832 72.4357
" />
<path d="M93.4832 72.4357
L93.3879 72.4833
" />
<path d="M93.3879 72.4833
L93.2927 72.4833
" />
<path d="M93.2927 72.4833
L93.1975 72.4357
" />
<path d="M93.1975 72.4357
L93.1498 72.3881
" />
<path d="M93.1498 72.3881
L93.1022 72.2929
" />
<path d="M93.1022 72.2929
L93.1022 72.0548
" />
<path d="M93.1022 72.0548
L93.1498 71.9119
" />
</g><text x="97.8500" y="70.8500"
textLength="3.1619" font-size="1.3333" lengthAdjust="spacingAndGlyphs"
text-anchor="middle" opacity="0">OFF</text>
<g class="stroked-text"><desc>OFF</desc>
<path d="M96.8976 69.8022
L97.0881 69.8022
" />
<path d="M97.0881 69.8022
L97.1833 69.8498
" />
<path d="M97.1833 69.8498
L97.2786 69.9451
" />
<path d="M97.2786 69.9451
L97.3262 70.1356
" />
<path d="M97.3262 70.1356
L97.3262 70.4689
" />
<path d="M97.3262 70.4689
L97.2786 70.6594
" />
<path d="M97.2786 70.6594
L97.1833 70.7546
" />
<path d="M97.1833 70.7546
L97.0881 70.8022
" />
<path d="M97.0881 70.8022
L96.8976 70.8022
" />
<path d="M96.8976 70.8022
L96.8024 70.7546
" />
<path d="M96.8024 70.7546
L96.7071 70.6594
" />
<path d="M96.7071 70.6594
L96.6595 70.4689
" />
<path d="M96.6595 70.4689
L96.6595 70.1356
" />
<path d="M96.6595 70.1356
L96.7071 69.9451
" />
<path d="M96.7071 69.9451
L96.8024 69.8498
" />
<path d="M96.8024 69.8498
L96.8976 69.8022
" />
<path d="M98.0881 70.2784
L97.7548 70.2784
" />
<path d="M97.7548 70.8022
L97.7548 69.8022
" />
<path d="M97.7548 69.8022
L98.2310 69.8022
" />
<path d="M98.9452 70.2784
L98.6119 70.2784
" />
<path d="M98.6119 70.8022
L98.6119 69.8022
" />
<path d="M98.6119 69.8022
L99.0881 69.8022
" />
</g><g >
</g>
<g >
</g>
<g >
</g>
</g> 
</svg>
