  0
SECTION
  2
HEADER
  9
$ACADVER
  1
AC1014
  9
$HANDSEED
  5
FFFF
  9
$INSUNITS
 70
     5
  9
$MEASUREMENT
 70
     1
  0
ENDSEC
  0
SECTION
  2
TABLES
  0
TABLE
  2
VPORT
  5
8
330
0
100
AcDbSymbolTable
 70
     4
  0
VPORT
  5
2E
330
8
100
AcDbSymbolTableRecord
100
AcDbViewportTableRecord
  2
*ACTIVE
 70
     0
 10
0.0
 20
0.0
 11
1.0
 21
1.0
 12
210.0
 22
148.5
 13
0.0
 23
0.0
 14
10.0
 24
10.0
 15
10.0
 25
10.0
 16
0.0
 26
0.0
 36
1.0
 17
0.0
 27
0.0
 37
0.0
 40
341.0
 41
1.24
 42
50.0
 43
0.0
 44
0.0
 50
0.0
 51
0.0
 71
     0
 72
   100
 73
     1
 74
     3
 75
     0
 76
     0
 77
     0
 78
     0
  0
ENDTAB
  0
TABLE
  2
LTYPE
  5
5
330
0
100
AcDbSymbolTable
 70
     1
  0
LTYPE
  5
14
330
5
100
AcDbSymbolTableRecord
100
AcDbLinetypeTableRecord
  2
BYBLOCK
 70
     0
  3

 72
    65
 73
     0
 40
0.0
  0
LTYPE
  5
15
330
5
100
AcDbSymbolTableRecord
100
AcDbLinetypeTableRecord
  2
BYLAYER
 70
     0
  3

 72
    65
 73
     0
 40
0.0
  0
LTYPE
  5
16
330
5
100
AcDbSymbolTableRecord
100
AcDbLinetypeTableRecord
  2
CONTINUOUS
 70
     0
  3
Solid line
 72
    65
 73
     0
 40
0.0
  0
ENDTAB
  0
TABLE
  2
LAYER
  5
2
100
AcDbSymbolTable
 70
1
  0
LAYER
  5
50
100
AcDbSymbolTableRecord
100
AcDbLayerTableRecord
  2
0
 70
0
  6
CONTINUOUS
  0
ENDTAB
  0
TABLE
  2
STYLE
  5
3
330
0
100
AcDbSymbolTable
 70
     1
  0
STYLE
  5
11
330
3
100
AcDbSymbolTableRecord
100
AcDbTextStyleTableRecord
  2
STANDARD
 70
     0
 40
0.0
 41
1.0
 50
0.0
 71
     0
 42
2.5
  3
txt
  4

  0
ENDTAB
  0
TABLE
  2
VIEW
  5
6
330
0
100
AcDbSymbolTable
 70
     0
  0
ENDTAB
  0
TABLE
  2
UCS
  5
7
330
0
100
AcDbSymbolTable
 70
     0
  0
ENDTAB
  0
TABLE
  2
APPID
  5
9
330
0
100
AcDbSymbolTable
 70
     2
  0
APPID
  5
12
330
9
100
AcDbSymbolTableRecord
100
AcDbRegAppTableRecord
  2
ACAD
 70
     0
  0
ENDTAB
  0
TABLE
  2
DIMSTYLE
  5
A
330
0
100
AcDbSymbolTable
 70
     1
  0
DIMSTYLE
105
27
330
A
100
AcDbSymbolTableRecord
100
AcDbDimStyleTableRecord
  2
ISO-25
 70
     0
  3

  4

  5

  6

  7

 40
1.0
 41
2.5
 42
0.625
 43
3.75
 44
1.25
 45
0.0
 46
0.0
 47
0.0
 48
0.0
140
2.5
141
2.5
142
0.0
143
0.03937007874016
144
1.0
145
0.0
146
1.0
147
0.625
 71
     0
 72
     0
 73
     0
 74
     0
 75
     0
 76
     0
 77
     1
 78
     8
170
     0
171
     3
172
     1
173
     0
174
     0
175
     0
176
     0
177
     0
178
     0
270
     2
271
     2
272
     2
273
     2
274
     3
340
11
275
     0
280
     0
281
     0
282
     0
283
     0
284
     8
285
     0
286
     0
287
     3
288
     0
  0
ENDTAB
  0
TABLE
  2
BLOCK_RECORD
  5
1
330
0
100
AcDbSymbolTable
 70
     1
  0
BLOCK_RECORD
  5
1F
330
1
100
AcDbSymbolTableRecord
100
AcDbBlockTableRecord
  2
*MODEL_SPACE
  0
BLOCK_RECORD
  5
1B
330
1
100
AcDbSymbolTableRecord
100
AcDbBlockTableRecord
  2
*PAPER_SPACE
  0
ENDTAB
  0
ENDSEC
  0
SECTION
  2
BLOCKS
  0
BLOCK
  5
20
330
1F
100
AcDbEntity
  8
0
100
AcDbBlockBegin
  2
*MODEL_SPACE
 70
     0
 10
0.0
 20
0.0
 30
0.0
  3
*MODEL_SPACE
  1

  0
ENDBLK
  5
21
330
1F
100
AcDbEntity
  8
0
100
AcDbBlockEnd
  0
BLOCK
  5
1C
330
1B
100
AcDbEntity
 67
     1
  8
0
100
AcDbBlockBegin
  2
*PAPER_SPACE
  1

  0
ENDBLK
  5
1D
330
1B
100
AcDbEntity
 67
     1
  8
0
100
AcDbBlockEnd
  0
ENDSEC
  0
SECTION
  2
ENTITIES
  0
LWPOLYLINE
  5
100
100
AcDbEntity
  8
0
 62
7
100
AcDbPolyline
 90
2
 70
0
 10
2.680000
 20
2.577560
 30
0.0
 10
2.490000
 20
2.797560
 30
0.0
  0
LWPOLYLINE
  5
101
100
AcDbEntity
  8
0
 62
7
100
AcDbPolyline
 90
2
 70
0
 10
3.500000
 20
7.970060
 30
0.0
 10
3.130000
 20
7.645060
 30
0.0
  0
SPLINE
  5
102
100
AcDbEntity
  8
0
 62
7
100
AcDbSpline
 70
8
 71
3
 72
8
 73
4
 74
0
 40
0
 40
0
 40
0
 40
0
 40
1
 40
1
 40
1
 40
1
 10
0.710000
 20
0.517560
 30
0.0
 10
0.645286
 20
0.517560
 30
0.0
 10
0.586944
 20
0.478577
 30
0.0
 10
0.562179
 20
0.418789
 30
0.0
  0
SPLINE
  5
103
100
AcDbEntity
  8
0
 62
7
100
AcDbSpline
 70
8
 71
3
 72
8
 73
4
 74
0
 40
0
 40
0
 40
0
 40
0
 40
1
 40
1
 40
1
 40
1
 10
0.562179
 20
0.418789
 30
0.0
 10
0.537414
 20
0.359001
 30
0.0
 10
0.551103
 20
0.290183
 30
0.0
 10
0.596863
 20
0.244423
 30
0.0
  0
SPLINE
  5
104
100
AcDbEntity
  8
0
 62
7
100
AcDbSpline
 70
8
 71
3
 72
8
 73
4
 74
0
 40
0
 40
0
 40
0
 40
0
 40
1
 40
1
 40
1
 40
1
 10
0.596863
 20
0.244423
 30
0.0
 10
0.642623
 20
0.198663
 30
0.0
 10
0.711441
 20
0.184974
 30
0.0
 10
0.771229
 20
0.209739
 30
0.0
  0
SPLINE
  5
105
100
AcDbEntity
  8
0
 62
7
100
AcDbSpline
 70
8
 71
3
 72
8
 73
4
 74
0
 40
0
 40
0
 40
0
 40
0
 40
1
 40
1
 40
1
 40
1
 10
0.771229
 20
0.209739
 30
0.0
 10
0.831017
 20
0.234504
 30
0.0
 10
0.870000
 20
0.292846
 30
0.0
 10
0.870000
 20
0.357560
 30
0.0
  0
SPLINE
  5
106
100
AcDbEntity
  8
0
 62
7
100
AcDbSpline
 70
8
 71
3
 72
8
 73
4
 74
0
 40
0
 40
0
 40
0
 40
0
 40
1
 40
1
 40
1
 40
1
 10
0.870000
 20
0.357560
 30
0.0
 10
0.870000
 20
0.399995
 30
0.0
 10
0.853143
 20
0.440691
 30
0.0
 10
0.823137
 20
0.470697
 30
0.0
  0
SPLINE
  5
107
100
AcDbEntity
  8
0
 62
7
100
AcDbSpline
 70
8
 71
3
 72
8
 73
4
 74
0
 40
0
 40
0
 40
0
 40
0
 40
1
 40
1
 40
1
 40
1
 10
0.823137
 20
0.470697
 30
0.0
 10
0.793131
 20
0.500703
 30
0.0
 10
0.752435
 20
0.517560
 30
0.0
 10
0.710000
 20
0.517560
 30
0.0
  0
LWPOLYLINE
  5
108
100
AcDbEntity
  8
0
 62
7
100
AcDbPolyline
 90
2
 70
0
 10
3.465000
 20
8.717560
 30
0.0
 10
3.140000
 20
9.087560
 30
0.0
  0
SPLINE
  5
109
100
AcDbEntity
  8
0
 62
7
100
AcDbSpline
 70
8
 71
3
 72
8
 73
4
 74
0
 40
0
 40
0
 40
0
 40
0
 40
1
 40
1
 40
1
 40
1
 10
0.710000
 20
12.672560
 30
0.0
 10
0.645286
 20
12.672560
 30
0.0
 10
0.586944
 20
12.633577
 30
0.0
 10
0.562179
 20
12.573789
 30
0.0
  0
SPLINE
  5
10a
100
AcDbEntity
  8
0
 62
7
100
AcDbSpline
 70
8
 71
3
 72
8
 73
4
 74
0
 40
0
 40
0
 40
0
 40
0
 40
1
 40
1
 40
1
 40
1
 10
0.562179
 20
12.573789
 30
0.0
 10
0.537414
 20
12.514001
 30
0.0
 10
0.551103
 20
12.445183
 30
0.0
 10
0.596863
 20
12.399423
 30
0.0
  0
SPLINE
  5
10b
100
AcDbEntity
  8
0
 62
7
100
AcDbSpline
 70
8
 71
3
 72
8
 73
4
 74
0
 40
0
 40
0
 40
0
 40
0
 40
1
 40
1
 40
1
 40
1
 10
0.596863
 20
12.399423
 30
0.0
 10
0.642623
 20
12.353663
 30
0.0
 10
0.711441
 20
12.339974
 30
0.0
 10
0.771229
 20
12.364739
 30
0.0
  0
SPLINE
  5
10c
100
AcDbEntity
  8
0
 62
7
100
AcDbSpline
 70
8
 71
3
 72
8
 73
4
 74
0
 40
0
 40
0
 40
0
 40
0
 40
1
 40
1
 40
1
 40
1
 10
0.771229
 20
12.364739
 30
0.0
 10
0.831017
 20
12.389504
 30
0.0
 10
0.870000
 20
12.447846
 30
0.0
 10
0.870000
 20
12.512560
 30
0.0
  0
SPLINE
  5
10d
100
AcDbEntity
  8
0
 62
7
100
AcDbSpline
 70
8
 71
3
 72
8
 73
4
 74
0
 40
0
 40
0
 40
0
 40
0
 40
1
 40
1
 40
1
 40
1
 10
0.870000
 20
12.512560
 30
0.0
 10
0.870000
 20
12.554995
 30
0.0
 10
0.853143
 20
12.595691
 30
0.0
 10
0.823137
 20
12.625697
 30
0.0
  0
SPLINE
  5
10e
100
AcDbEntity
  8
0
 62
7
100
AcDbSpline
 70
8
 71
3
 72
8
 73
4
 74
0
 40
0
 40
0
 40
0
 40
0
 40
1
 40
1
 40
1
 40
1
 10
0.823137
 20
12.625697
 30
0.0
 10
0.793131
 20
12.655703
 30
0.0
 10
0.752435
 20
12.672560
 30
0.0
 10
0.710000
 20
12.672560
 30
0.0
  0
LWPOLYLINE
  5
10f
100
AcDbEntity
  8
0
 62
7
100
AcDbPolyline
 90
1
 70
1
 10
0.710000
 20
0.517560
 30
0.0
  0
SPLINE
  5
110
100
AcDbEntity
  8
0
 62
7
100
AcDbSpline
 70
8
 71
3
 72
8
 73
4
 74
0
 40
0
 40
0
 40
0
 40
0
 40
1
 40
1
 40
1
 40
1
 10
9.475000
 20
0.512560
 30
0.0
 10
9.410286
 20
0.512560
 30
0.0
 10
9.351944
 20
0.473577
 30
0.0
 10
9.327179
 20
0.413789
 30
0.0
  0
SPLINE
  5
111
100
AcDbEntity
  8
0
 62
7
100
AcDbSpline
 70
8
 71
3
 72
8
 73
4
 74
0
 40
0
 40
0
 40
0
 40
0
 40
1
 40
1
 40
1
 40
1
 10
9.327179
 20
0.413789
 30
0.0
 10
9.302414
 20
0.354001
 30
0.0
 10
9.316103
 20
0.285183
 30
0.0
 10
9.361863
 20
0.239423
 30
0.0
  0
SPLINE
  5
112
100
AcDbEntity
  8
0
 62
7
100
AcDbSpline
 70
8
 71
3
 72
8
 73
4
 74
0
 40
0
 40
0
 40
0
 40
0
 40
1
 40
1
 40
1
 40
1
 10
9.361863
 20
0.239423
 30
0.0
 10
9.407623
 20
0.193663
 30
0.0
 10
9.476441
 20
0.179974
 30
0.0
 10
9.536229
 20
0.204739
 30
0.0
  0
SPLINE
  5
113
100
AcDbEntity
  8
0
 62
7
100
AcDbSpline
 70
8
 71
3
 72
8
 73
4
 74
0
 40
0
 40
0
 40
0
 40
0
 40
1
 40
1
 40
1
 40
1
 10
9.536229
 20
0.204739
 30
0.0
 10
9.596017
 20
0.229504
 30
0.0
 10
9.635000
 20
0.287846
 30
0.0
 10
9.635000
 20
0.352560
 30
0.0
  0
SPLINE
  5
114
100
AcDbEntity
  8
0
 62
7
100
AcDbSpline
 70
8
 71
3
 72
8
 73
4
 74
0
 40
0
 40
0
 40
0
 40
0
 40
1
 40
1
 40
1
 40
1
 10
9.635000
 20
0.352560
 30
0.0
 10
9.635000
 20
0.394995
 30
0.0
 10
9.618143
 20
0.435691
 30
0.0
 10
9.588137
 20
0.465697
 30
0.0
  0
SPLINE
  5
115
100
AcDbEntity
  8
0
 62
7
100
AcDbSpline
 70
8
 71
3
 72
8
 73
4
 74
0
 40
0
 40
0
 40
0
 40
0
 40
1
 40
1
 40
1
 40
1
 10
9.588137
 20
0.465697
 30
0.0
 10
9.558131
 20
0.495703
 30
0.0
 10
9.517435
 20
0.512560
 30
0.0
 10
9.475000
 20
0.512560
 30
0.0
  0
LWPOLYLINE
  5
116
100
AcDbEntity
  8
0
 62
7
100
AcDbPolyline
 90
1
 70
1
 10
0.710000
 20
12.672560
 30
0.0
  0
LWPOLYLINE
  5
117
100
AcDbEntity
  8
0
 62
7
100
AcDbPolyline
 90
1
 70
1
 10
9.475000
 20
0.512560
 30
0.0
  0
LWPOLYLINE
  5
118
100
AcDbEntity
  8
0
 62
7
100
AcDbPolyline
 90
2
 70
0
 10
7.565000
 20
2.527560
 30
0.0
 10
7.795000
 20
2.847560
 30
0.0
  0
LWPOLYLINE
  5
119
100
AcDbEntity
  8
0
 62
7
100
AcDbPolyline
 90
2
 70
0
 10
8.255000
 20
6.417560
 30
0.0
 10
8.255000
 20
3.857560
 30
0.0
  0
SPLINE
  5
11a
100
AcDbEntity
  8
0
 62
7
100
AcDbSpline
 70
8
 71
3
 72
8
 73
4
 74
0
 40
0
 40
0
 40
0
 40
0
 40
1
 40
1
 40
1
 40
1
 10
9.475000
 20
12.667560
 30
0.0
 10
9.410286
 20
12.667560
 30
0.0
 10
9.351944
 20
12.628577
 30
0.0
 10
9.327179
 20
12.568789
 30
0.0
  0
SPLINE
  5
11b
100
AcDbEntity
  8
0
 62
7
100
AcDbSpline
 70
8
 71
3
 72
8
 73
4
 74
0
 40
0
 40
0
 40
0
 40
0
 40
1
 40
1
 40
1
 40
1
 10
9.327179
 20
12.568789
 30
0.0
 10
9.302414
 20
12.509001
 30
0.0
 10
9.316103
 20
12.440183
 30
0.0
 10
9.361863
 20
12.394423
 30
0.0
  0
SPLINE
  5
11c
100
AcDbEntity
  8
0
 62
7
100
AcDbSpline
 70
8
 71
3
 72
8
 73
4
 74
0
 40
0
 40
0
 40
0
 40
0
 40
1
 40
1
 40
1
 40
1
 10
9.361863
 20
12.394423
 30
0.0
 10
9.407623
 20
12.348663
 30
0.0
 10
9.476441
 20
12.334974
 30
0.0
 10
9.536229
 20
12.359739
 30
0.0
  0
SPLINE
  5
11d
100
AcDbEntity
  8
0
 62
7
100
AcDbSpline
 70
8
 71
3
 72
8
 73
4
 74
0
 40
0
 40
0
 40
0
 40
0
 40
1
 40
1
 40
1
 40
1
 10
9.536229
 20
12.359739
 30
0.0
 10
9.596017
 20
12.384504
 30
0.0
 10
9.635000
 20
12.442846
 30
0.0
 10
9.635000
 20
12.507560
 30
0.0
  0
SPLINE
  5
11e
100
AcDbEntity
  8
0
 62
7
100
AcDbSpline
 70
8
 71
3
 72
8
 73
4
 74
0
 40
0
 40
0
 40
0
 40
0
 40
1
 40
1
 40
1
 40
1
 10
9.635000
 20
12.507560
 30
0.0
 10
9.635000
 20
12.549995
 30
0.0
 10
9.618143
 20
12.590691
 30
0.0
 10
9.588137
 20
12.620697
 30
0.0
  0
SPLINE
  5
11f
100
AcDbEntity
  8
0
 62
7
100
AcDbSpline
 70
8
 71
3
 72
8
 73
4
 74
0
 40
0
 40
0
 40
0
 40
0
 40
1
 40
1
 40
1
 40
1
 10
9.588137
 20
12.620697
 30
0.0
 10
9.558131
 20
12.650703
 30
0.0
 10
9.517435
 20
12.667560
 30
0.0
 10
9.475000
 20
12.667560
 30
0.0
  0
LWPOLYLINE
  5
120
100
AcDbEntity
  8
0
 62
7
100
AcDbPolyline
 90
2
 70
0
 10
6.835000
 20
7.642560
 30
0.0
 10
6.465000
 20
7.967560
 30
0.0
  0
LWPOLYLINE
  5
121
100
AcDbEntity
  8
0
 62
7
100
AcDbPolyline
 90
1
 70
1
 10
9.475000
 20
12.667560
 30
0.0
  0
LWPOLYLINE
  5
122
100
AcDbEntity
  8
0
 62
7
100
AcDbPolyline
 90
2
 70
0
 10
1.935000
 20
6.407560
 30
0.0
 10
1.935000
 20
3.847560
 30
0.0
  0
LWPOLYLINE
  5
123
100
AcDbEntity
  8
0
 62
7
100
AcDbPolyline
 90
2
 70
0
 10
6.770000
 20
9.092560
 30
0.0
 10
6.445000
 20
8.722560
 30
0.0
  0
LWPOLYLINE
  5
124
100
AcDbEntity
  8
0
 62
7
100
AcDbPolyline
 90
16
 70
0
 10
7.415000
 20
3.021846
 30
0.0
 10
7.403571
 20
3.010417
 30
0.0
 10
7.369286
 20
2.998989
 30
0.0
 10
7.346429
 20
2.998989
 30
0.0
 10
7.312143
 20
3.010417
 30
0.0
 10
7.289286
 20
3.033274
 30
0.0
 10
7.277857
 20
3.056132
 30
0.0
 10
7.266429
 20
3.101846
 30
0.0
 10
7.266429
 20
3.136132
 30
0.0
 10
7.277857
 20
3.181846
 30
0.0
 10
7.289286
 20
3.204703
 30
0.0
 10
7.312143
 20
3.227560
 30
0.0
 10
7.346429
 20
3.238989
 30
0.0
 10
7.369286
 20
3.238989
 30
0.0
 10
7.403571
 20
3.227560
 30
0.0
 10
7.415000
 20
3.216132
 30
0.0
  0
LWPOLYLINE
  5
125
100
AcDbEntity
  8
0
 62
7
100
AcDbPolyline
 90
16
 70
1
 10
7.563571
 20
3.238989
 30
0.0
 10
7.609286
 20
3.238989
 30
0.0
 10
7.632143
 20
3.227560
 30
0.0
 10
7.655000
 20
3.204703
 30
0.0
 10
7.666429
 20
3.158989
 30
0.0
 10
7.666429
 20
3.078989
 30
0.0
 10
7.655000
 20
3.033274
 30
0.0
 10
7.632143
 20
3.010417
 30
0.0
 10
7.609286
 20
2.998989
 30
0.0
 10
7.563571
 20
2.998989
 30
0.0
 10
7.540714
 20
3.010417
 30
0.0
 10
7.517857
 20
3.033274
 30
0.0
 10
7.506429
 20
3.078989
 30
0.0
 10
7.506429
 20
3.158989
 30
0.0
 10
7.517857
 20
3.204703
 30
0.0
 10
7.540714
 20
3.227560
 30
0.0
  0
LWPOLYLINE
  5
126
100
AcDbEntity
  8
0
 62
7
100
AcDbPolyline
 90
3
 70
0
 10
7.883571
 20
2.998989
 30
0.0
 10
7.769286
 20
2.998989
 30
0.0
 10
7.769286
 20
3.238989
 30
0.0
  0
LWPOLYLINE
  5
127
100
AcDbEntity
  8
0
 62
7
100
AcDbPolyline
 90
16
 70
1
 10
8.009286
 20
3.238989
 30
0.0
 10
8.055000
 20
3.238989
 30
0.0
 10
8.077857
 20
3.227560
 30
0.0
 10
8.100714
 20
3.204703
 30
0.0
 10
8.112143
 20
3.158989
 30
0.0
 10
8.112143
 20
3.078989
 30
0.0
 10
8.100714
 20
3.033274
 30
0.0
 10
8.077857
 20
3.010417
 30
0.0
 10
8.055000
 20
2.998989
 30
0.0
 10
8.009286
 20
2.998989
 30
0.0
 10
7.986429
 20
3.010417
 30
0.0
 10
7.963571
 20
3.033274
 30
0.0
 10
7.952143
 20
3.078989
 30
0.0
 10
7.952143
 20
3.158989
 30
0.0
 10
7.963571
 20
3.204703
 30
0.0
 10
7.986429
 20
3.227560
 30
0.0
  0
LWPOLYLINE
  5
128
100
AcDbEntity
  8
0
 62
7
100
AcDbPolyline
 90
2
 70
0
 10
8.352143
 20
2.998989
 30
0.0
 10
8.272143
 20
3.113274
 30
0.0
  0
LWPOLYLINE
  5
129
100
AcDbEntity
  8
0
 62
7
100
AcDbPolyline
 90
11
 70
0
 10
8.215000
 20
2.998989
 30
0.0
 10
8.215000
 20
3.238989
 30
0.0
 10
8.306429
 20
3.238989
 30
0.0
 10
8.329286
 20
3.227560
 30
0.0
 10
8.340714
 20
3.216132
 30
0.0
 10
8.352143
 20
3.193274
 30
0.0
 10
8.352143
 20
3.158989
 30
0.0
 10
8.340714
 20
3.136132
 30
0.0
 10
8.329286
 20
3.124703
 30
0.0
 10
8.306429
 20
3.113274
 30
0.0
 10
8.215000
 20
3.113274
 30
0.0
  0
LWPOLYLINE
  5
12a
100
AcDbEntity
  8
0
 62
7
100
AcDbPolyline
 90
2
 70
0
 10
8.397857
 20
2.976132
 30
0.0
 10
8.580714
 20
2.976132
 30
0.0
  0
LWPOLYLINE
  5
12b
100
AcDbEntity
  8
0
 62
7
100
AcDbPolyline
 90
2
 70
0
 10
8.603571
 20
3.238989
 30
0.0
 10
8.740714
 20
3.238989
 30
0.0
  0
LWPOLYLINE
  5
12c
100
AcDbEntity
  8
0
 62
7
100
AcDbPolyline
 90
2
 70
0
 10
8.672143
 20
2.998989
 30
0.0
 10
8.672143
 20
3.238989
 30
0.0
  0
LWPOLYLINE
  5
12d
100
AcDbEntity
  8
0
 62
7
100
AcDbPolyline
 90
5
 70
0
 10
8.797857
 20
3.238989
 30
0.0
 10
8.855000
 20
2.998989
 30
0.0
 10
8.900714
 20
3.170417
 30
0.0
 10
8.946429
 20
2.998989
 30
0.0
 10
9.003571
 20
3.238989
 30
0.0
  0
LWPOLYLINE
  5
12e
100
AcDbEntity
  8
0
 62
7
100
AcDbPolyline
 90
16
 70
1
 10
9.140714
 20
3.238989
 30
0.0
 10
9.186429
 20
3.238989
 30
0.0
 10
9.209286
 20
3.227560
 30
0.0
 10
9.232143
 20
3.204703
 30
0.0
 10
9.243571
 20
3.158989
 30
0.0
 10
9.243571
 20
3.078989
 30
0.0
 10
9.232143
 20
3.033274
 30
0.0
 10
9.209286
 20
3.010417
 30
0.0
 10
9.186429
 20
2.998989
 30
0.0
 10
9.140714
 20
2.998989
 30
0.0
 10
9.117857
 20
3.010417
 30
0.0
 10
9.095000
 20
3.033274
 30
0.0
 10
9.083571
 20
3.078989
 30
0.0
 10
9.083571
 20
3.158989
 30
0.0
 10
9.095000
 20
3.204703
 30
0.0
 10
9.117857
 20
3.227560
 30
0.0
  0
LWPOLYLINE
  5
12f
100
AcDbEntity
  8
0
 62
7
100
AcDbPolyline
 90
16
 70
1
 10
9.733095
 20
4.302322
 30
0.0
 10
9.752143
 20
4.302322
 30
0.0
 10
9.761667
 20
4.297560
 30
0.0
 10
9.771190
 20
4.288036
 30
0.0
 10
9.775952
 20
4.268989
 30
0.0
 10
9.775952
 20
4.235655
 30
0.0
 10
9.771190
 20
4.216608
 30
0.0
 10
9.761667
 20
4.207084
 30
0.0
 10
9.752143
 20
4.202322
 30
0.0
 10
9.733095
 20
4.202322
 30
0.0
 10
9.723571
 20
4.207084
 30
0.0
 10
9.714048
 20
4.216608
 30
0.0
 10
9.709286
 20
4.235655
 30
0.0
 10
9.709286
 20
4.268989
 30
0.0
 10
9.714048
 20
4.288036
 30
0.0
 10
9.723571
 20
4.297560
 30
0.0
  0
LWPOLYLINE
  5
130
100
AcDbEntity
  8
0
 62
7
100
AcDbPolyline
 90
4
 70
0
 10
9.818810
 20
4.202322
 30
0.0
 10
9.818810
 20
4.302322
 30
0.0
 10
9.875952
 20
4.202322
 30
0.0
 10
9.875952
 20
4.302322
 30
0.0
  0
LWPOLYLINE
  5
131
100
AcDbEntity
  8
0
 62
7
100
AcDbPolyline
 90
16
 70
0
 10
3.962143
 20
8.230417
 30
0.0
 10
3.947857
 20
8.216132
 30
0.0
 10
3.905000
 20
8.201846
 30
0.0
 10
3.876429
 20
8.201846
 30
0.0
 10
3.833571
 20
8.216132
 30
0.0
 10
3.805000
 20
8.244703
 30
0.0
 10
3.790714
 20
8.273274
 30
0.0
 10
3.776429
 20
8.330417
 30
0.0
 10
3.776429
 20
8.373274
 30
0.0
 10
3.790714
 20
8.430417
 30
0.0
 10
3.805000
 20
8.458989
 30
0.0
 10
3.833571
 20
8.487560
 30
0.0
 10
3.876429
 20
8.501846
 30
0.0
 10
3.905000
 20
8.501846
 30
0.0
 10
3.947857
 20
8.487560
 30
0.0
 10
3.962143
 20
8.473274
 30
0.0
  0
LWPOLYLINE
  5
132
100
AcDbEntity
  8
0
 62
7
100
AcDbPolyline
 90
16
 70
1
 10
4.147857
 20
8.501846
 30
0.0
 10
4.205000
 20
8.501846
 30
0.0
 10
4.233571
 20
8.487560
 30
0.0
 10
4.262143
 20
8.458989
 30
0.0
 10
4.276429
 20
8.401846
 30
0.0
 10
4.276429
 20
8.301846
 30
0.0
 10
4.262143
 20
8.244703
 30
0.0
 10
4.233571
 20
8.216132
 30
0.0
 10
4.205000
 20
8.201846
 30
0.0
 10
4.147857
 20
8.201846
 30
0.0
 10
4.119286
 20
8.216132
 30
0.0
 10
4.090714
 20
8.244703
 30
0.0
 10
4.076429
 20
8.301846
 30
0.0
 10
4.076429
 20
8.401846
 30
0.0
 10
4.090714
 20
8.458989
 30
0.0
 10
4.119286
 20
8.487560
 30
0.0
  0
LWPOLYLINE
  5
133
100
AcDbEntity
  8
0
 62
7
100
AcDbPolyline
 90
3
 70
0
 10
4.547857
 20
8.201846
 30
0.0
 10
4.405000
 20
8.201846
 30
0.0
 10
4.405000
 20
8.501846
 30
0.0
  0
LWPOLYLINE
  5
134
100
AcDbEntity
  8
0
 62
7
100
AcDbPolyline
 90
16
 70
1
 10
4.705000
 20
8.501846
 30
0.0
 10
4.762143
 20
8.501846
 30
0.0
 10
4.790714
 20
8.487560
 30
0.0
 10
4.819286
 20
8.458989
 30
0.0
 10
4.833571
 20
8.401846
 30
0.0
 10
4.833571
 20
8.301846
 30
0.0
 10
4.819286
 20
8.244703
 30
0.0
 10
4.790714
 20
8.216132
 30
0.0
 10
4.762143
 20
8.201846
 30
0.0
 10
4.705000
 20
8.201846
 30
0.0
 10
4.676429
 20
8.216132
 30
0.0
 10
4.647857
 20
8.244703
 30
0.0
 10
4.633571
 20
8.301846
 30
0.0
 10
4.633571
 20
8.401846
 30
0.0
 10
4.647857
 20
8.458989
 30
0.0
 10
4.676429
 20
8.487560
 30
0.0
  0
LWPOLYLINE
  5
135
100
AcDbEntity
  8
0
 62
7
100
AcDbPolyline
 90
2
 70
0
 10
5.133571
 20
8.201846
 30
0.0
 10
5.033571
 20
8.344703
 30
0.0
  0
LWPOLYLINE
  5
136
100
AcDbEntity
  8
0
 62
7
100
AcDbPolyline
 90
11
 70
0
 10
4.962143
 20
8.201846
 30
0.0
 10
4.962143
 20
8.501846
 30
0.0
 10
5.076429
 20
8.501846
 30
0.0
 10
5.105000
 20
8.487560
 30
0.0
 10
5.119286
 20
8.473274
 30
0.0
 10
5.133571
 20
8.444703
 30
0.0
 10
5.133571
 20
8.401846
 30
0.0
 10
5.119286
 20
8.373274
 30
0.0
 10
5.105000
 20
8.358989
 30
0.0
 10
5.076429
 20
8.344703
 30
0.0
 10
4.962143
 20
8.344703
 30
0.0
  0
LWPOLYLINE
  5
137
100
AcDbEntity
  8
0
 62
7
100
AcDbPolyline
 90
2
 70
0
 10
5.262143
 20
8.201846
 30
0.0
 10
5.262143
 20
8.501846
 30
0.0
  0
LWPOLYLINE
  5
138
100
AcDbEntity
  8
0
 62
7
100
AcDbPolyline
 90
4
 70
0
 10
5.376429
 20
8.501846
 30
0.0
 10
5.576429
 20
8.501846
 30
0.0
 10
5.376429
 20
8.201846
 30
0.0
 10
5.576429
 20
8.201846
 30
0.0
  0
LWPOLYLINE
  5
139
100
AcDbEntity
  8
0
 62
7
100
AcDbPolyline
 90
2
 70
0
 10
5.690714
 20
8.358989
 30
0.0
 10
5.790714
 20
8.358989
 30
0.0
  0
LWPOLYLINE
  5
13a
100
AcDbEntity
  8
0
 62
7
100
AcDbPolyline
 90
4
 70
0
 10
5.833571
 20
8.201846
 30
0.0
 10
5.690714
 20
8.201846
 30
0.0
 10
5.690714
 20
8.501846
 30
0.0
 10
5.833571
 20
8.501846
 30
0.0
  0
LWPOLYLINE
  5
13b
100
AcDbEntity
  8
0
 62
7
100
AcDbPolyline
 90
2
 70
0
 10
6.133571
 20
8.201846
 30
0.0
 10
6.033571
 20
8.344703
 30
0.0
  0
LWPOLYLINE
  5
13c
100
AcDbEntity
  8
0
 62
7
100
AcDbPolyline
 90
11
 70
0
 10
5.962143
 20
8.201846
 30
0.0
 10
5.962143
 20
8.501846
 30
0.0
 10
6.076429
 20
8.501846
 30
0.0
 10
6.105000
 20
8.487560
 30
0.0
 10
6.119286
 20
8.473274
 30
0.0
 10
6.133571
 20
8.444703
 30
0.0
 10
6.133571
 20
8.401846
 30
0.0
 10
6.119286
 20
8.373274
 30
0.0
 10
6.105000
 20
8.358989
 30
0.0
 10
6.076429
 20
8.344703
 30
0.0
 10
5.962143
 20
8.344703
 30
0.0
  0
LWPOLYLINE
  5
13d
100
AcDbEntity
  8
0
 62
7
100
AcDbPolyline
 90
4
 70
0
 10
0.310714
 20
5.792322
 30
0.0
 10
0.310714
 20
5.892322
 30
0.0
 10
0.367857
 20
5.792322
 30
0.0
 10
0.367857
 20
5.892322
 30
0.0
  0
LWPOLYLINE
  5
13e
100
AcDbEntity
  8
0
 62
7
100
AcDbPolyline
 90
2
 70
0
 10
0.401190
 20
5.892322
 30
0.0
 10
0.458333
 20
5.892322
 30
0.0
  0
LWPOLYLINE
  5
13f
100
AcDbEntity
  8
0
 62
7
100
AcDbPolyline
 90
2
 70
0
 10
0.429762
 20
5.792322
 30
0.0
 10
0.429762
 20
5.892322
 30
0.0
  0
LWPOLYLINE
  5
140
100
AcDbEntity
  8
0
 62
7
100
AcDbPolyline
 90
20
 70
0
 10
0.486905
 20
5.797084
 30
0.0
 10
0.501190
 20
5.792322
 30
0.0
 10
0.525000
 20
5.792322
 30
0.0
 10
0.534524
 20
5.797084
 30
0.0
 10
0.539286
 20
5.801846
 30
0.0
 10
0.544048
 20
5.811370
 30
0.0
 10
0.544048
 20
5.820893
 30
0.0
 10
0.539286
 20
5.830417
 30
0.0
 10
0.534524
 20
5.835179
 30
0.0
 10
0.525000
 20
5.839941
 30
0.0
 10
0.505952
 20
5.844703
 30
0.0
 10
0.496429
 20
5.849465
 30
0.0
 10
0.491667
 20
5.854227
 30
0.0
 10
0.486905
 20
5.863751
 30
0.0
 10
0.486905
 20
5.873274
 30
0.0
 10
0.491667
 20
5.882798
 30
0.0
 10
0.496429
 20
5.887560
 30
0.0
 10
0.505952
 20
5.892322
 30
0.0
 10
0.529762
 20
5.892322
 30
0.0
 10
0.544048
 20
5.887560
 30
0.0
  0
LWPOLYLINE
  5
141
100
AcDbEntity
  8
0
 62
7
100
AcDbPolyline
 90
16
 70
0
 10
0.644048
 20
5.801846
 30
0.0
 10
0.639286
 20
5.797084
 30
0.0
 10
0.625000
 20
5.792322
 30
0.0
 10
0.615476
 20
5.792322
 30
0.0
 10
0.601190
 20
5.797084
 30
0.0
 10
0.591667
 20
5.806608
 30
0.0
 10
0.586905
 20
5.816132
 30
0.0
 10
0.582143
 20
5.835179
 30
0.0
 10
0.582143
 20
5.849465
 30
0.0
 10
0.586905
 20
5.868512
 30
0.0
 10
0.591667
 20
5.878036
 30
0.0
 10
0.601190
 20
5.887560
 30
0.0
 10
0.615476
 20
5.892322
 30
0.0
 10
0.625000
 20
5.892322
 30
0.0
 10
0.639286
 20
5.887560
 30
0.0
 10
0.644048
 20
5.882798
 30
0.0
  0
LWPOLYLINE
  5
142
100
AcDbEntity
  8
0
 62
7
100
AcDbPolyline
 90
3
 70
0
 10
1.438571
 20
6.709703
 30
0.0
 10
1.367143
 20
6.709703
 30
0.0
 10
1.367143
 20
6.859703
 30
0.0
  0
LWPOLYLINE
  5
143
100
AcDbEntity
  8
0
 62
7
100
AcDbPolyline
 90
2
 70
0
 10
1.488571
 20
6.788274
 30
0.0
 10
1.538571
 20
6.788274
 30
0.0
  0
LWPOLYLINE
  5
144
100
AcDbEntity
  8
0
 62
7
100
AcDbPolyline
 90
4
 70
0
 10
1.560000
 20
6.709703
 30
0.0
 10
1.488571
 20
6.709703
 30
0.0
 10
1.488571
 20
6.859703
 30
0.0
 10
1.560000
 20
6.859703
 30
0.0
  0
LWPOLYLINE
  5
145
100
AcDbEntity
  8
0
 62
7
100
AcDbPolyline
 90
3
 70
0
 10
1.602857
 20
6.859703
 30
0.0
 10
1.652857
 20
6.709703
 30
0.0
 10
1.702857
 20
6.859703
 30
0.0
  0
LWPOLYLINE
  5
146
100
AcDbEntity
  8
0
 62
7
100
AcDbPolyline
 90
2
 70
0
 10
1.752857
 20
6.788274
 30
0.0
 10
1.802857
 20
6.788274
 30
0.0
  0
LWPOLYLINE
  5
147
100
AcDbEntity
  8
0
 62
7
100
AcDbPolyline
 90
4
 70
0
 10
1.824286
 20
6.709703
 30
0.0
 10
1.752857
 20
6.709703
 30
0.0
 10
1.752857
 20
6.859703
 30
0.0
 10
1.824286
 20
6.859703
 30
0.0
  0
LWPOLYLINE
  5
148
100
AcDbEntity
  8
0
 62
7
100
AcDbPolyline
 90
3
 70
0
 10
1.960000
 20
6.709703
 30
0.0
 10
1.888571
 20
6.709703
 30
0.0
 10
1.888571
 20
6.859703
 30
0.0
  0
LWPOLYLINE
  5
149
100
AcDbEntity
  8
0
 62
7
100
AcDbPolyline
 90
2
 70
0
 10
1.974286
 20
6.695417
 30
0.0
 10
2.088571
 20
6.695417
 30
0.0
  0
LWPOLYLINE
  5
14a
100
AcDbEntity
  8
0
 62
7
100
AcDbPolyline
 90
16
 70
1
 10
2.152857
 20
6.859703
 30
0.0
 10
2.181428
 20
6.859703
 30
0.0
 10
2.195714
 20
6.852560
 30
0.0
 10
2.210000
 20
6.838274
 30
0.0
 10
2.217143
 20
6.809703
 30
0.0
 10
2.217143
 20
6.759703
 30
0.0
 10
2.210000
 20
6.731132
 30
0.0
 10
2.195714
 20
6.716846
 30
0.0
 10
2.181428
 20
6.709703
 30
0.0
 10
2.152857
 20
6.709703
 30
0.0
 10
2.138571
 20
6.716846
 30
0.0
 10
2.124286
 20
6.731132
 30
0.0
 10
2.117143
 20
6.759703
 30
0.0
 10
2.117143
 20
6.809703
 30
0.0
 10
2.124286
 20
6.838274
 30
0.0
 10
2.138571
 20
6.852560
 30
0.0
  0
LWPOLYLINE
  5
14b
100
AcDbEntity
  8
0
 62
7
100
AcDbPolyline
 90
4
 70
0
 10
2.281429
 20
6.709703
 30
0.0
 10
2.281429
 20
6.859703
 30
0.0
 10
2.367143
 20
6.709703
 30
0.0
 10
2.367143
 20
6.859703
 30
0.0
  0
LWPOLYLINE
  5
14c
100
AcDbEntity
  8
0
 62
7
100
AcDbPolyline
 90
2
 70
0
 10
2.438571
 20
6.788274
 30
0.0
 10
2.488571
 20
6.788274
 30
0.0
  0
LWPOLYLINE
  5
14d
100
AcDbEntity
  8
0
 62
7
100
AcDbPolyline
 90
4
 70
0
 10
2.510000
 20
6.709703
 30
0.0
 10
2.438571
 20
6.709703
 30
0.0
 10
2.438571
 20
6.859703
 30
0.0
 10
2.510000
 20
6.859703
 30
0.0
  0
LWPOLYLINE
  5
14e
100
AcDbEntity
  8
0
 62
7
100
AcDbPolyline
 90
16
 70
0
 10
3.846667
 20
11.942560
 30
0.0
 10
3.830000
 20
11.925893
 30
0.0
 10
3.780000
 20
11.909227
 30
0.0
 10
3.746667
 20
11.909227
 30
0.0
 10
3.696667
 20
11.925893
 30
0.0
 10
3.663333
 20
11.959227
 30
0.0
 10
3.646667
 20
11.992560
 30
0.0
 10
3.630000
 20
12.059227
 30
0.0
 10
3.630000
 20
12.109227
 30
0.0
 10
3.646667
 20
12.175893
 30
0.0
 10
3.663333
 20
12.209227
 30
0.0
 10
3.696667
 20
12.242560
 30
0.0
 10
3.746667
 20
12.259227
 30
0.0
 10
3.780000
 20
12.259227
 30
0.0
 10
3.830000
 20
12.242560
 30
0.0
 10
3.846667
 20
12.225893
 30
0.0
  0
LWPOLYLINE
  5
14f
100
AcDbEntity
  8
0
 62
7
100
AcDbPolyline
 90
16
 70
1
 10
4.063333
 20
12.259227
 30
0.0
 10
4.130000
 20
12.259227
 30
0.0
 10
4.163333
 20
12.242560
 30
0.0
 10
4.196667
 20
12.209227
 30
0.0
 10
4.213333
 20
12.142560
 30
0.0
 10
4.213333
 20
12.025893
 30
0.0
 10
4.196667
 20
11.959227
 30
0.0
 10
4.163333
 20
11.925893
 30
0.0
 10
4.130000
 20
11.909227
 30
0.0
 10
4.063333
 20
11.909227
 30
0.0
 10
4.030000
 20
11.925893
 30
0.0
 10
3.996667
 20
11.959227
 30
0.0
 10
3.980000
 20
12.025893
 30
0.0
 10
3.980000
 20
12.142560
 30
0.0
 10
3.996667
 20
12.209227
 30
0.0
 10
4.030000
 20
12.242560
 30
0.0
  0
LWPOLYLINE
  5
150
100
AcDbEntity
  8
0
 62
7
100
AcDbPolyline
 90
3
 70
0
 10
4.530000
 20
11.909227
 30
0.0
 10
4.363333
 20
11.909227
 30
0.0
 10
4.363333
 20
12.259227
 30
0.0
  0
LWPOLYLINE
  5
151
100
AcDbEntity
  8
0
 62
7
100
AcDbPolyline
 90
16
 70
1
 10
4.713333
 20
12.259227
 30
0.0
 10
4.780000
 20
12.259227
 30
0.0
 10
4.813333
 20
12.242560
 30
0.0
 10
4.846667
 20
12.209227
 30
0.0
 10
4.863333
 20
12.142560
 30
0.0
 10
4.863333
 20
12.025893
 30
0.0
 10
4.846667
 20
11.959227
 30
0.0
 10
4.813333
 20
11.925893
 30
0.0
 10
4.780000
 20
11.909227
 30
0.0
 10
4.713333
 20
11.909227
 30
0.0
 10
4.680000
 20
11.925893
 30
0.0
 10
4.646667
 20
11.959227
 30
0.0
 10
4.630000
 20
12.025893
 30
0.0
 10
4.630000
 20
12.142560
 30
0.0
 10
4.646667
 20
12.209227
 30
0.0
 10
4.680000
 20
12.242560
 30
0.0
  0
LWPOLYLINE
  5
152
100
AcDbEntity
  8
0
 62
7
100
AcDbPolyline
 90
2
 70
0
 10
5.213333
 20
11.909227
 30
0.0
 10
5.096667
 20
12.075893
 30
0.0
  0
LWPOLYLINE
  5
153
100
AcDbEntity
  8
0
 62
7
100
AcDbPolyline
 90
11
 70
0
 10
5.013333
 20
11.909227
 30
0.0
 10
5.013333
 20
12.259227
 30
0.0
 10
5.146667
 20
12.259227
 30
0.0
 10
5.180000
 20
12.242560
 30
0.0
 10
5.196667
 20
12.225893
 30
0.0
 10
5.213333
 20
12.192560
 30
0.0
 10
5.213333
 20
12.142560
 30
0.0
 10
5.196667
 20
12.109227
 30
0.0
 10
5.180000
 20
12.092560
 30
0.0
 10
5.146667
 20
12.075893
 30
0.0
 10
5.013333
 20
12.075893
 30
0.0
  0
LWPOLYLINE
  5
154
100
AcDbEntity
  8
0
 62
7
100
AcDbPolyline
 90
2
 70
0
 10
5.363333
 20
11.909227
 30
0.0
 10
5.363333
 20
12.259227
 30
0.0
  0
LWPOLYLINE
  5
155
100
AcDbEntity
  8
0
 62
7
100
AcDbPolyline
 90
4
 70
0
 10
5.496667
 20
12.259227
 30
0.0
 10
5.730000
 20
12.259227
 30
0.0
 10
5.496667
 20
11.909227
 30
0.0
 10
5.730000
 20
11.909227
 30
0.0
  0
LWPOLYLINE
  5
156
100
AcDbEntity
  8
0
 62
7
100
AcDbPolyline
 90
2
 70
0
 10
5.863333
 20
12.092560
 30
0.0
 10
5.980000
 20
12.092560
 30
0.0
  0
LWPOLYLINE
  5
157
100
AcDbEntity
  8
0
 62
7
100
AcDbPolyline
 90
4
 70
0
 10
6.030000
 20
11.909227
 30
0.0
 10
5.863333
 20
11.909227
 30
0.0
 10
5.863333
 20
12.259227
 30
0.0
 10
6.030000
 20
12.259227
 30
0.0
  0
LWPOLYLINE
  5
158
100
AcDbEntity
  8
0
 62
7
100
AcDbPolyline
 90
2
 70
0
 10
6.380000
 20
11.909227
 30
0.0
 10
6.263333
 20
12.075893
 30
0.0
  0
LWPOLYLINE
  5
159
100
AcDbEntity
  8
0
 62
7
100
AcDbPolyline
 90
11
 70
0
 10
6.180000
 20
11.909227
 30
0.0
 10
6.180000
 20
12.259227
 30
0.0
 10
6.313333
 20
12.259227
 30
0.0
 10
6.346667
 20
12.242560
 30
0.0
 10
6.363333
 20
12.225893
 30
0.0
 10
6.380000
 20
12.192560
 30
0.0
 10
6.380000
 20
12.142560
 30
0.0
 10
6.363333
 20
12.109227
 30
0.0
 10
6.346667
 20
12.092560
 30
0.0
 10
6.313333
 20
12.075893
 30
0.0
 10
6.180000
 20
12.075893
 30
0.0
  0
LWPOLYLINE
  5
15a
100
AcDbEntity
  8
0
 62
7
100
AcDbPolyline
 90
2
 70
0
 10
4.025000
 20
0.438751
 30
0.0
 10
4.405952
 20
0.438751
 30
0.0
  0
LWPOLYLINE
  5
15b
100
AcDbEntity
  8
0
 62
7
100
AcDbPolyline
 90
3
 70
0
 10
4.453571
 20
0.938751
 30
0.0
 10
4.548810
 20
1.010179
 30
0.0
 10
4.644048
 20
0.938751
 30
0.0
  0
LWPOLYLINE
  5
15c
100
AcDbEntity
  8
0
 62
7
100
AcDbPolyline
 90
20
 70
1
 10
5.286905
 20
0.986370
 30
0.0
 10
5.334524
 20
0.986370
 30
0.0
 10
5.382143
 20
0.962560
 30
0.0
 10
5.405952
 20
0.938751
 30
0.0
 10
5.429762
 20
0.891132
 30
0.0
 10
5.453571
 20
0.795893
 30
0.0
 10
5.453571
 20
0.676846
 30
0.0
 10
5.429762
 20
0.581608
 30
0.0
 10
5.405952
 20
0.533989
 30
0.0
 10
5.382143
 20
0.510179
 30
0.0
 10
5.334524
 20
0.486370
 30
0.0
 10
5.286905
 20
0.486370
 30
0.0
 10
5.239286
 20
0.510179
 30
0.0
 10
5.215476
 20
0.533989
 30
0.0
 10
5.191667
 20
0.581608
 30
0.0
 10
5.167857
 20
0.676846
 30
0.0
 10
5.167857
 20
0.795893
 30
0.0
 10
5.191667
 20
0.891132
 30
0.0
 10
5.215476
 20
0.938751
 30
0.0
 10
5.239286
 20
0.962560
 30
0.0
  0
LWPOLYLINE
  5
15d
100
AcDbEntity
  8
0
 62
7
100
AcDbPolyline
 90
22
 70
0
 10
5.691667
 20
0.486370
 30
0.0
 10
5.786905
 20
0.486370
 30
0.0
 10
5.834524
 20
0.510179
 30
0.0
 10
5.858333
 20
0.533989
 30
0.0
 10
5.905952
 20
0.605417
 30
0.0
 10
5.929762
 20
0.700655
 30
0.0
 10
5.929762
 20
0.891132
 30
0.0
 10
5.905952
 20
0.938751
 30
0.0
 10
5.882143
 20
0.962560
 30
0.0
 10
5.834524
 20
0.986370
 30
0.0
 10
5.739286
 20
0.986370
 30
0.0
 10
5.691667
 20
0.962560
 30
0.0
 10
5.667857
 20
0.938751
 30
0.0
 10
5.644048
 20
0.891132
 30
0.0
 10
5.644048
 20
0.772084
 30
0.0
 10
5.667857
 20
0.724465
 30
0.0
 10
5.691667
 20
0.700655
 30
0.0
 10
5.739286
 20
0.676846
 30
0.0
 10
5.834524
 20
0.676846
 30
0.0
 10
5.882143
 20
0.700655
 30
0.0
 10
5.905952
 20
0.724465
 30
0.0
 10
5.929762
 20
0.772084
 30
0.0
  0
LWPOLYLINE
  5
15e
100
AcDbEntity
  8
0
 62
7
100
AcDbPolyline
 90
16
 70
0
 10
1.089286
 20
3.011846
 30
0.0
 10
1.077857
 20
3.000417
 30
0.0
 10
1.043571
 20
2.988989
 30
0.0
 10
1.020714
 20
2.988989
 30
0.0
 10
0.986429
 20
3.000417
 30
0.0
 10
0.963571
 20
3.023274
 30
0.0
 10
0.952143
 20
3.046132
 30
0.0
 10
0.940714
 20
3.091846
 30
0.0
 10
0.940714
 20
3.126132
 30
0.0
 10
0.952143
 20
3.171846
 30
0.0
 10
0.963571
 20
3.194703
 30
0.0
 10
0.986429
 20
3.217560
 30
0.0
 10
1.020714
 20
3.228989
 30
0.0
 10
1.043571
 20
3.228989
 30
0.0
 10
1.077857
 20
3.217560
 30
0.0
 10
1.089286
 20
3.206132
 30
0.0
  0
LWPOLYLINE
  5
15f
100
AcDbEntity
  8
0
 62
7
100
AcDbPolyline
 90
16
 70
1
 10
1.237857
 20
3.228989
 30
0.0
 10
1.283571
 20
3.228989
 30
0.0
 10
1.306429
 20
3.217560
 30
0.0
 10
1.329286
 20
3.194703
 30
0.0
 10
1.340714
 20
3.148989
 30
0.0
 10
1.340714
 20
3.068989
 30
0.0
 10
1.329286
 20
3.023274
 30
0.0
 10
1.306429
 20
3.000417
 30
0.0
 10
1.283571
 20
2.988989
 30
0.0
 10
1.237857
 20
2.988989
 30
0.0
 10
1.215000
 20
3.000417
 30
0.0
 10
1.192143
 20
3.023274
 30
0.0
 10
1.180714
 20
3.068989
 30
0.0
 10
1.180714
 20
3.148989
 30
0.0
 10
1.192143
 20
3.194703
 30
0.0
 10
1.215000
 20
3.217560
 30
0.0
  0
LWPOLYLINE
  5
160
100
AcDbEntity
  8
0
 62
7
100
AcDbPolyline
 90
3
 70
0
 10
1.557857
 20
2.988989
 30
0.0
 10
1.443571
 20
2.988989
 30
0.0
 10
1.443571
 20
3.228989
 30
0.0
  0
LWPOLYLINE
  5
161
100
AcDbEntity
  8
0
 62
7
100
AcDbPolyline
 90
16
 70
1
 10
1.683571
 20
3.228989
 30
0.0
 10
1.729286
 20
3.228989
 30
0.0
 10
1.752143
 20
3.217560
 30
0.0
 10
1.775000
 20
3.194703
 30
0.0
 10
1.786429
 20
3.148989
 30
0.0
 10
1.786429
 20
3.068989
 30
0.0
 10
1.775000
 20
3.023274
 30
0.0
 10
1.752143
 20
3.000417
 30
0.0
 10
1.729286
 20
2.988989
 30
0.0
 10
1.683571
 20
2.988989
 30
0.0
 10
1.660714
 20
3.000417
 30
0.0
 10
1.637857
 20
3.023274
 30
0.0
 10
1.626429
 20
3.068989
 30
0.0
 10
1.626429
 20
3.148989
 30
0.0
 10
1.637857
 20
3.194703
 30
0.0
 10
1.660714
 20
3.217560
 30
0.0
  0
LWPOLYLINE
  5
162
100
AcDbEntity
  8
0
 62
7
100
AcDbPolyline
 90
2
 70
0
 10
2.026429
 20
2.988989
 30
0.0
 10
1.946429
 20
3.103274
 30
0.0
  0
LWPOLYLINE
  5
163
100
AcDbEntity
  8
0
 62
7
100
AcDbPolyline
 90
11
 70
0
 10
1.889286
 20
2.988989
 30
0.0
 10
1.889286
 20
3.228989
 30
0.0
 10
1.980714
 20
3.228989
 30
0.0
 10
2.003571
 20
3.217560
 30
0.0
 10
2.015000
 20
3.206132
 30
0.0
 10
2.026429
 20
3.183274
 30
0.0
 10
2.026429
 20
3.148989
 30
0.0
 10
2.015000
 20
3.126132
 30
0.0
 10
2.003571
 20
3.114703
 30
0.0
 10
1.980714
 20
3.103274
 30
0.0
 10
1.889286
 20
3.103274
 30
0.0
  0
LWPOLYLINE
  5
164
100
AcDbEntity
  8
0
 62
7
100
AcDbPolyline
 90
2
 70
0
 10
2.072143
 20
2.966132
 30
0.0
 10
2.255000
 20
2.966132
 30
0.0
  0
LWPOLYLINE
  5
165
100
AcDbEntity
  8
0
 62
7
100
AcDbPolyline
 90
16
 70
1
 10
2.357857
 20
3.228989
 30
0.0
 10
2.403571
 20
3.228989
 30
0.0
 10
2.426429
 20
3.217560
 30
0.0
 10
2.449286
 20
3.194703
 30
0.0
 10
2.460714
 20
3.148989
 30
0.0
 10
2.460714
 20
3.068989
 30
0.0
 10
2.449286
 20
3.023274
 30
0.0
 10
2.426429
 20
3.000417
 30
0.0
 10
2.403571
 20
2.988989
 30
0.0
 10
2.357857
 20
2.988989
 30
0.0
 10
2.335000
 20
3.000417
 30
0.0
 10
2.312143
 20
3.023274
 30
0.0
 10
2.300714
 20
3.068989
 30
0.0
 10
2.300714
 20
3.148989
 30
0.0
 10
2.312143
 20
3.194703
 30
0.0
 10
2.335000
 20
3.217560
 30
0.0
  0
LWPOLYLINE
  5
166
100
AcDbEntity
  8
0
 62
7
100
AcDbPolyline
 90
4
 70
0
 10
2.563571
 20
2.988989
 30
0.0
 10
2.563571
 20
3.228989
 30
0.0
 10
2.700714
 20
2.988989
 30
0.0
 10
2.700714
 20
3.228989
 30
0.0
  0
LWPOLYLINE
  5
167
100
AcDbEntity
  8
0
 62
7
100
AcDbPolyline
 90
2
 70
0
 10
2.815000
 20
3.114703
 30
0.0
 10
2.895000
 20
3.114703
 30
0.0
  0
LWPOLYLINE
  5
168
100
AcDbEntity
  8
0
 62
7
100
AcDbPolyline
 90
4
 70
0
 10
2.929286
 20
2.988989
 30
0.0
 10
2.815000
 20
2.988989
 30
0.0
 10
2.815000
 20
3.228989
 30
0.0
 10
2.929286
 20
3.228989
 30
0.0
  0
LWPOLYLINE
  5
169
100
AcDbEntity
  8
0
 62
7
100
AcDbPolyline
 90
11
 70
0
 10
0.365476
 20
4.172322
 30
0.0
 10
0.365476
 20
4.272322
 30
0.0
 10
0.403571
 20
4.272322
 30
0.0
 10
0.413095
 20
4.267560
 30
0.0
 10
0.417857
 20
4.262798
 30
0.0
 10
0.422619
 20
4.253274
 30
0.0
 10
0.422619
 20
4.238989
 30
0.0
 10
0.417857
 20
4.229465
 30
0.0
 10
0.413095
 20
4.224703
 30
0.0
 10
0.403571
 20
4.219941
 30
0.0
 10
0.365476
 20
4.219941
 30
0.0
  0
LWPOLYLINE
  5
16a
100
AcDbEntity
  8
0
 62
7
100
AcDbPolyline
 90
2
 70
0
 10
0.460714
 20
4.200893
 30
0.0
 10
0.508333
 20
4.200893
 30
0.0
  0
LWPOLYLINE
  5
16b
100
AcDbEntity
  8
0
 62
7
100
AcDbPolyline
 90
3
 70
0
 10
0.451190
 20
4.172322
 30
0.0
 10
0.484524
 20
4.272322
 30
0.0
 10
0.517857
 20
4.172322
 30
0.0
  0
LWPOLYLINE
  5
16c
100
AcDbEntity
  8
0
 62
7
100
AcDbPolyline
 90
3
 70
0
 10
0.598810
 20
4.172322
 30
0.0
 10
0.551190
 20
4.172322
 30
0.0
 10
0.551190
 20
4.272322
 30
0.0
  0
LWPOLYLINE
  5
16d
100
AcDbEntity
  8
0
 62
7
100
AcDbPolyline
 90
2
 70
0
 10
4.133571
 20
12.619703
 30
0.0
 10
4.219286
 20
12.619703
 30
0.0
  0
LWPOLYLINE
  5
16e
100
AcDbEntity
  8
0
 62
7
100
AcDbPolyline
 90
2
 70
0
 10
4.176429
 20
12.469703
 30
0.0
 10
4.176429
 20
12.619703
 30
0.0
  0
LWPOLYLINE
  5
16f
100
AcDbEntity
  8
0
 62
7
100
AcDbPolyline
 90
5
 70
0
 10
4.255000
 20
12.619703
 30
0.0
 10
4.290714
 20
12.469703
 30
0.0
 10
4.319286
 20
12.576846
 30
0.0
 10
4.347857
 20
12.469703
 30
0.0
 10
4.383571
 20
12.619703
 30
0.0
  0
LWPOLYLINE
  5
170
100
AcDbEntity
  8
0
 62
7
100
AcDbPolyline
 90
16
 70
1
 10
4.469286
 20
12.619703
 30
0.0
 10
4.497857
 20
12.619703
 30
0.0
 10
4.512143
 20
12.612560
 30
0.0
 10
4.526429
 20
12.598274
 30
0.0
 10
4.533571
 20
12.569703
 30
0.0
 10
4.533571
 20
12.519703
 30
0.0
 10
4.526429
 20
12.491132
 30
0.0
 10
4.512143
 20
12.476846
 30
0.0
 10
4.497857
 20
12.469703
 30
0.0
 10
4.469286
 20
12.469703
 30
0.0
 10
4.455000
 20
12.476846
 30
0.0
 10
4.440714
 20
12.491132
 30
0.0
 10
4.433571
 20
12.519703
 30
0.0
 10
4.433571
 20
12.569703
 30
0.0
 10
4.440714
 20
12.598274
 30
0.0
 10
4.455000
 20
12.612560
 30
0.0
  0
LWPOLYLINE
  5
171
100
AcDbEntity
  8
0
 62
7
100
AcDbPolyline
 90
2
 70
0
 10
4.562143
 20
12.455417
 30
0.0
 10
4.676429
 20
12.455417
 30
0.0
  0
LWPOLYLINE
  5
172
100
AcDbEntity
  8
0
 62
7
100
AcDbPolyline
 90
11
 70
0
 10
4.712143
 20
12.469703
 30
0.0
 10
4.712143
 20
12.619703
 30
0.0
 10
4.769286
 20
12.619703
 30
0.0
 10
4.783571
 20
12.612560
 30
0.0
 10
4.790714
 20
12.605417
 30
0.0
 10
4.797857
 20
12.591132
 30
0.0
 10
4.797857
 20
12.569703
 30
0.0
 10
4.790714
 20
12.555417
 30
0.0
 10
4.783571
 20
12.548274
 30
0.0
 10
4.769286
 20
12.541132
 30
0.0
 10
4.712143
 20
12.541132
 30
0.0
  0
LWPOLYLINE
  5
173
100
AcDbEntity
  8
0
 62
7
100
AcDbPolyline
 90
16
 70
1
 10
4.890714
 20
12.619703
 30
0.0
 10
4.919286
 20
12.619703
 30
0.0
 10
4.933571
 20
12.612560
 30
0.0
 10
4.947857
 20
12.598274
 30
0.0
 10
4.955000
 20
12.569703
 30
0.0
 10
4.955000
 20
12.519703
 30
0.0
 10
4.947857
 20
12.491132
 30
0.0
 10
4.933571
 20
12.476846
 30
0.0
 10
4.919286
 20
12.469703
 30
0.0
 10
4.890714
 20
12.469703
 30
0.0
 10
4.876429
 20
12.476846
 30
0.0
 10
4.862143
 20
12.491132
 30
0.0
 10
4.855000
 20
12.519703
 30
0.0
 10
4.855000
 20
12.569703
 30
0.0
 10
4.862143
 20
12.598274
 30
0.0
 10
4.876429
 20
12.612560
 30
0.0
  0
LWPOLYLINE
  5
174
100
AcDbEntity
  8
0
 62
7
100
AcDbPolyline
 90
2
 70
0
 10
5.019286
 20
12.469703
 30
0.0
 10
5.019286
 20
12.619703
 30
0.0
  0
LWPOLYLINE
  5
175
100
AcDbEntity
  8
0
 62
7
100
AcDbPolyline
 90
4
 70
0
 10
5.090714
 20
12.469703
 30
0.0
 10
5.090714
 20
12.619703
 30
0.0
 10
5.176429
 20
12.469703
 30
0.0
 10
5.176429
 20
12.619703
 30
0.0
  0
LWPOLYLINE
  5
176
100
AcDbEntity
  8
0
 62
7
100
AcDbPolyline
 90
2
 70
0
 10
5.226429
 20
12.619703
 30
0.0
 10
5.312143
 20
12.619703
 30
0.0
  0
LWPOLYLINE
  5
177
100
AcDbEntity
  8
0
 62
7
100
AcDbPolyline
 90
2
 70
0
 10
5.269286
 20
12.469703
 30
0.0
 10
5.269286
 20
12.619703
 30
0.0
  0
LWPOLYLINE
  5
178
100
AcDbEntity
  8
0
 62
7
100
AcDbPolyline
 90
2
 70
0
 10
5.326429
 20
12.455417
 30
0.0
 10
5.440714
 20
12.455417
 30
0.0
  0
LWPOLYLINE
  5
179
100
AcDbEntity
  8
0
 62
7
100
AcDbPolyline
 90
16
 70
1
 10
5.505000
 20
12.619703
 30
0.0
 10
5.533571
 20
12.619703
 30
0.0
 10
5.547857
 20
12.612560
 30
0.0
 10
5.562143
 20
12.598274
 30
0.0
 10
5.569286
 20
12.569703
 30
0.0
 10
5.569286
 20
12.519703
 30
0.0
 10
5.562143
 20
12.491132
 30
0.0
 10
5.547857
 20
12.476846
 30
0.0
 10
5.533571
 20
12.469703
 30
0.0
 10
5.505000
 20
12.469703
 30
0.0
 10
5.490714
 20
12.476846
 30
0.0
 10
5.476429
 20
12.491132
 30
0.0
 10
5.469286
 20
12.519703
 30
0.0
 10
5.469286
 20
12.569703
 30
0.0
 10
5.476429
 20
12.598274
 30
0.0
 10
5.490714
 20
12.612560
 30
0.0
  0
LWPOLYLINE
  5
17a
100
AcDbEntity
  8
0
 62
7
100
AcDbPolyline
 90
4
 70
0
 10
5.633571
 20
12.469703
 30
0.0
 10
5.633571
 20
12.619703
 30
0.0
 10
5.719286
 20
12.469703
 30
0.0
 10
5.719286
 20
12.619703
 30
0.0
  0
LWPOLYLINE
  5
17b
100
AcDbEntity
  8
0
 62
7
100
AcDbPolyline
 90
2
 70
0
 10
5.790714
 20
12.548274
 30
0.0
 10
5.840714
 20
12.548274
 30
0.0
  0
LWPOLYLINE
  5
17c
100
AcDbEntity
  8
0
 62
7
100
AcDbPolyline
 90
4
 70
0
 10
5.862143
 20
12.469703
 30
0.0
 10
5.790714
 20
12.469703
 30
0.0
 10
5.790714
 20
12.619703
 30
0.0
 10
5.862143
 20
12.619703
 30
0.0
  0
LWPOLYLINE
  5
17d
100
AcDbEntity
  8
0
 62
7
100
AcDbPolyline
 90
3
 70
0
 10
7.762143
 20
6.719703
 30
0.0
 10
7.690714
 20
6.719703
 30
0.0
 10
7.690714
 20
6.869703
 30
0.0
  0
LWPOLYLINE
  5
17e
100
AcDbEntity
  8
0
 62
7
100
AcDbPolyline
 90
2
 70
0
 10
7.812143
 20
6.798274
 30
0.0
 10
7.862143
 20
6.798274
 30
0.0
  0
LWPOLYLINE
  5
17f
100
AcDbEntity
  8
0
 62
7
100
AcDbPolyline
 90
4
 70
0
 10
7.883571
 20
6.719703
 30
0.0
 10
7.812143
 20
6.719703
 30
0.0
 10
7.812143
 20
6.869703
 30
0.0
 10
7.883571
 20
6.869703
 30
0.0
  0
LWPOLYLINE
  5
180
100
AcDbEntity
  8
0
 62
7
100
AcDbPolyline
 90
3
 70
0
 10
7.926429
 20
6.869703
 30
0.0
 10
7.976429
 20
6.719703
 30
0.0
 10
8.026429
 20
6.869703
 30
0.0
  0
LWPOLYLINE
  5
181
100
AcDbEntity
  8
0
 62
7
100
AcDbPolyline
 90
2
 70
0
 10
8.076429
 20
6.798274
 30
0.0
 10
8.126429
 20
6.798274
 30
0.0
  0
LWPOLYLINE
  5
182
100
AcDbEntity
  8
0
 62
7
100
AcDbPolyline
 90
4
 70
0
 10
8.147857
 20
6.719703
 30
0.0
 10
8.076429
 20
6.719703
 30
0.0
 10
8.076429
 20
6.869703
 30
0.0
 10
8.147857
 20
6.869703
 30
0.0
  0
LWPOLYLINE
  5
183
100
AcDbEntity
  8
0
 62
7
100
AcDbPolyline
 90
3
 70
0
 10
8.283571
 20
6.719703
 30
0.0
 10
8.212143
 20
6.719703
 30
0.0
 10
8.212143
 20
6.869703
 30
0.0
  0
LWPOLYLINE
  5
184
100
AcDbEntity
  8
0
 62
7
100
AcDbPolyline
 90
2
 70
0
 10
8.297857
 20
6.705417
 30
0.0
 10
8.412143
 20
6.705417
 30
0.0
  0
LWPOLYLINE
  5
185
100
AcDbEntity
  8
0
 62
7
100
AcDbPolyline
 90
2
 70
0
 10
8.426429
 20
6.869703
 30
0.0
 10
8.512143
 20
6.869703
 30
0.0
  0
LWPOLYLINE
  5
186
100
AcDbEntity
  8
0
 62
7
100
AcDbPolyline
 90
2
 70
0
 10
8.469286
 20
6.719703
 30
0.0
 10
8.469286
 20
6.869703
 30
0.0
  0
LWPOLYLINE
  5
187
100
AcDbEntity
  8
0
 62
7
100
AcDbPolyline
 90
5
 70
0
 10
8.547857
 20
6.869703
 30
0.0
 10
8.583571
 20
6.719703
 30
0.0
 10
8.612143
 20
6.826846
 30
0.0
 10
8.640714
 20
6.719703
 30
0.0
 10
8.676429
 20
6.869703
 30
0.0
  0
LWPOLYLINE
  5
188
100
AcDbEntity
  8
0
 62
7
100
AcDbPolyline
 90
16
 70
1
 10
8.762143
 20
6.869703
 30
0.0
 10
8.790714
 20
6.869703
 30
0.0
 10
8.805000
 20
6.862560
 30
0.0
 10
8.819286
 20
6.848274
 30
0.0
 10
8.826429
 20
6.819703
 30
0.0
 10
8.826429
 20
6.769703
 30
0.0
 10
8.819286
 20
6.741132
 30
0.0
 10
8.805000
 20
6.726846
 30
0.0
 10
8.790714
 20
6.719703
 30
0.0
 10
8.762143
 20
6.719703
 30
0.0
 10
8.747857
 20
6.726846
 30
0.0
 10
8.733571
 20
6.741132
 30
0.0
 10
8.726429
 20
6.769703
 30
0.0
 10
8.726429
 20
6.819703
 30
0.0
 10
8.733571
 20
6.848274
 30
0.0
 10
8.747857
 20
6.862560
 30
0.0
  0
LWPOLYLINE
  5
189
100
AcDbEntity
  8
0
 62
7
100
AcDbPolyline
 90
19
 70
0
 10
3.079286
 20
11.308274
 30
0.0
 10
3.100714
 20
11.301132
 30
0.0
 10
3.107857
 20
11.293989
 30
0.0
 10
3.115000
 20
11.279703
 30
0.0
 10
3.115000
 20
11.258274
 30
0.0
 10
3.107857
 20
11.243989
 30
0.0
 10
3.100714
 20
11.236846
 30
0.0
 10
3.086429
 20
11.229703
 30
0.0
 10
3.029286
 20
11.229703
 30
0.0
 10
3.029286
 20
11.379703
 30
0.0
 10
3.079286
 20
11.379703
 30
0.0
 10
3.093571
 20
11.372560
 30
0.0
 10
3.100714
 20
11.365417
 30
0.0
 10
3.107857
 20
11.351132
 30
0.0
 10
3.107857
 20
11.336846
 30
0.0
 10
3.100714
 20
11.322560
 30
0.0
 10
3.093571
 20
11.315417
 30
0.0
 10
3.079286
 20
11.308274
 30
0.0
 10
3.029286
 20
11.308274
 30
0.0
  0
LWPOLYLINE
  5
18a
100
AcDbEntity
  8
0
 62
7
100
AcDbPolyline
 90
2
 70
0
 10
3.207857
 20
11.301132
 30
0.0
 10
3.207857
 20
11.229703
 30
0.0
  0
LWPOLYLINE
  5
18b
100
AcDbEntity
  8
0
 62
7
100
AcDbPolyline
 90
3
 70
0
 10
3.157857
 20
11.379703
 30
0.0
 10
3.207857
 20
11.301132
 30
0.0
 10
3.257857
 20
11.379703
 30
0.0
  0
LWPOLYLINE
  5
18c
100
AcDbEntity
  8
0
 62
7
100
AcDbPolyline
 90
11
 70
0
 10
3.307857
 20
11.229703
 30
0.0
 10
3.307857
 20
11.379703
 30
0.0
 10
3.365000
 20
11.379703
 30
0.0
 10
3.379286
 20
11.372560
 30
0.0
 10
3.386429
 20
11.365417
 30
0.0
 10
3.393571
 20
11.351132
 30
0.0
 10
3.393571
 20
11.329703
 30
0.0
 10
3.386429
 20
11.315417
 30
0.0
 10
3.379286
 20
11.308274
 30
0.0
 10
3.365000
 20
11.301132
 30
0.0
 10
3.307857
 20
11.301132
 30
0.0
  0
LWPOLYLINE
  5
18d
100
AcDbEntity
  8
0
 62
7
100
AcDbPolyline
 90
2
 70
0
 10
3.450714
 20
11.272560
 30
0.0
 10
3.522143
 20
11.272560
 30
0.0
  0
LWPOLYLINE
  5
18e
100
AcDbEntity
  8
0
 62
7
100
AcDbPolyline
 90
3
 70
0
 10
3.436429
 20
11.229703
 30
0.0
 10
3.486429
 20
11.379703
 30
0.0
 10
3.536429
 20
11.229703
 30
0.0
  0
LWPOLYLINE
  5
18f
100
AcDbEntity
  8
0
 62
7
100
AcDbPolyline
 90
20
 70
0
 10
3.579286
 20
11.236846
 30
0.0
 10
3.600714
 20
11.229703
 30
0.0
 10
3.636429
 20
11.229703
 30
0.0
 10
3.650714
 20
11.236846
 30
0.0
 10
3.657857
 20
11.243989
 30
0.0
 10
3.665000
 20
11.258274
 30
0.0
 10
3.665000
 20
11.272560
 30
0.0
 10
3.657857
 20
11.286846
 30
0.0
 10
3.650714
 20
11.293989
 30
0.0
 10
3.636429
 20
11.301132
 30
0.0
 10
3.607857
 20
11.308274
 30
0.0
 10
3.593571
 20
11.315417
 30
0.0
 10
3.586429
 20
11.322560
 30
0.0
 10
3.579286
 20
11.336846
 30
0.0
 10
3.579286
 20
11.351132
 30
0.0
 10
3.586429
 20
11.365417
 30
0.0
 10
3.593571
 20
11.372560
 30
0.0
 10
3.607857
 20
11.379703
 30
0.0
 10
3.643571
 20
11.379703
 30
0.0
 10
3.665000
 20
11.372560
 30
0.0
  0
LWPOLYLINE
  5
190
100
AcDbEntity
  8
0
 62
7
100
AcDbPolyline
 90
20
 70
0
 10
3.722143
 20
11.236846
 30
0.0
 10
3.743571
 20
11.229703
 30
0.0
 10
3.779286
 20
11.229703
 30
0.0
 10
3.793571
 20
11.236846
 30
0.0
 10
3.800714
 20
11.243989
 30
0.0
 10
3.807857
 20
11.258274
 30
0.0
 10
3.807857
 20
11.272560
 30
0.0
 10
3.800714
 20
11.286846
 30
0.0
 10
3.793571
 20
11.293989
 30
0.0
 10
3.779286
 20
11.301132
 30
0.0
 10
3.750714
 20
11.308274
 30
0.0
 10
3.736429
 20
11.315417
 30
0.0
 10
3.729286
 20
11.322560
 30
0.0
 10
3.722143
 20
11.336846
 30
0.0
 10
3.722143
 20
11.351132
 30
0.0
 10
3.729286
 20
11.365417
 30
0.0
 10
3.736429
 20
11.372560
 30
0.0
 10
3.750714
 20
11.379703
 30
0.0
 10
3.786429
 20
11.379703
 30
0.0
 10
3.807857
 20
11.372560
 30
0.0
  0
LWPOLYLINE
  5
191
100
AcDbEntity
  8
0
 62
7
100
AcDbPolyline
 90
2
 70
0
 10
4.126429
 20
0.269703
 30
0.0
 10
4.126429
 20
0.169703
 30
0.0
  0
LWPOLYLINE
  5
192
100
AcDbEntity
  8
0
 62
7
100
AcDbPolyline
 90
7
 70
0
 10
4.062143
 20
0.269703
 30
0.0
 10
4.062143
 20
0.191132
 30
0.0
 10
4.069286
 20
0.176846
 30
0.0
 10
4.083571
 20
0.169703
 30
0.0
 10
4.105000
 20
0.169703
 30
0.0
 10
4.119286
 20
0.176846
 30
0.0
 10
4.126429
 20
0.183989
 30
0.0
  0
LWPOLYLINE
  5
193
100
AcDbEntity
  8
0
 62
7
100
AcDbPolyline
 90
2
 70
0
 10
4.197857
 20
0.269703
 30
0.0
 10
4.197857
 20
0.169703
 30
0.0
  0
LWPOLYLINE
  5
194
100
AcDbEntity
  8
0
 62
7
100
AcDbPolyline
 90
7
 70
0
 10
4.197857
 20
0.255417
 30
0.0
 10
4.205000
 20
0.262560
 30
0.0
 10
4.219286
 20
0.269703
 30
0.0
 10
4.240714
 20
0.269703
 30
0.0
 10
4.255000
 20
0.262560
 30
0.0
 10
4.262143
 20
0.248274
 30
0.0
 10
4.262143
 20
0.169703
 30
0.0
  0
LWPOLYLINE
  5
195
100
AcDbEntity
  8
0
 62
7
100
AcDbPolyline
 90
2
 70
0
 10
4.397857
 20
0.169703
 30
0.0
 10
4.397857
 20
0.319703
 30
0.0
  0
LWPOLYLINE
  5
196
100
AcDbEntity
  8
0
 62
7
100
AcDbPolyline
 90
12
 70
0
 10
4.397857
 20
0.176846
 30
0.0
 10
4.383571
 20
0.169703
 30
0.0
 10
4.355000
 20
0.169703
 30
0.0
 10
4.340714
 20
0.176846
 30
0.0
 10
4.333571
 20
0.183989
 30
0.0
 10
4.326429
 20
0.198274
 30
0.0
 10
4.326429
 20
0.241132
 30
0.0
 10
4.333571
 20
0.255417
 30
0.0
 10
4.340714
 20
0.262560
 30
0.0
 10
4.355000
 20
0.269703
 30
0.0
 10
4.383571
 20
0.269703
 30
0.0
 10
4.397857
 20
0.262560
 30
0.0
  0
LWPOLYLINE
  5
197
100
AcDbEntity
  8
0
 62
7
100
AcDbPolyline
 90
13
 70
0
 10
4.526429
 20
0.176846
 30
0.0
 10
4.512143
 20
0.169703
 30
0.0
 10
4.483571
 20
0.169703
 30
0.0
 10
4.469286
 20
0.176846
 30
0.0
 10
4.462143
 20
0.191132
 30
0.0
 10
4.462143
 20
0.248274
 30
0.0
 10
4.469286
 20
0.262560
 30
0.0
 10
4.483571
 20
0.269703
 30
0.0
 10
4.512143
 20
0.269703
 30
0.0
 10
4.526429
 20
0.262560
 30
0.0
 10
4.533571
 20
0.248274
 30
0.0
 10
4.533571
 20
0.233989
 30
0.0
 10
4.462143
 20
0.219703
 30
0.0
  0
LWPOLYLINE
  5
198
100
AcDbEntity
  8
0
 62
7
100
AcDbPolyline
 90
2
 70
0
 10
4.597857
 20
0.169703
 30
0.0
 10
4.597857
 20
0.269703
 30
0.0
  0
LWPOLYLINE
  5
199
100
AcDbEntity
  8
0
 62
7
100
AcDbPolyline
 90
5
 70
0
 10
4.597857
 20
0.241132
 30
0.0
 10
4.605000
 20
0.255417
 30
0.0
 10
4.612143
 20
0.262560
 30
0.0
 10
4.626429
 20
0.269703
 30
0.0
 10
4.640714
 20
0.269703
 30
0.0
  0
LWPOLYLINE
  5
19a
100
AcDbEntity
  8
0
 62
7
100
AcDbPolyline
 90
16
 70
0
 10
4.683571
 20
0.176846
 30
0.0
 10
4.697857
 20
0.169703
 30
0.0
 10
4.726429
 20
0.169703
 30
0.0
 10
4.740714
 20
0.176846
 30
0.0
 10
4.747857
 20
0.191132
 30
0.0
 10
4.747857
 20
0.198274
 30
0.0
 10
4.740714
 20
0.212560
 30
0.0
 10
4.726429
 20
0.219703
 30
0.0
 10
4.705000
 20
0.219703
 30
0.0
 10
4.690714
 20
0.226846
 30
0.0
 10
4.683571
 20
0.241132
 30
0.0
 10
4.683571
 20
0.248274
 30
0.0
 10
4.690714
 20
0.262560
 30
0.0
 10
4.705000
 20
0.269703
 30
0.0
 10
4.726429
 20
0.269703
 30
0.0
 10
4.740714
 20
0.262560
 30
0.0
  0
LWPOLYLINE
  5
19b
100
AcDbEntity
  8
0
 62
7
100
AcDbPolyline
 90
12
 70
0
 10
4.876429
 20
0.176846
 30
0.0
 10
4.862143
 20
0.169703
 30
0.0
 10
4.833571
 20
0.169703
 30
0.0
 10
4.819286
 20
0.176846
 30
0.0
 10
4.812143
 20
0.183989
 30
0.0
 10
4.805000
 20
0.198274
 30
0.0
 10
4.805000
 20
0.241132
 30
0.0
 10
4.812143
 20
0.255417
 30
0.0
 10
4.819286
 20
0.262560
 30
0.0
 10
4.833571
 20
0.269703
 30
0.0
 10
4.862143
 20
0.269703
 30
0.0
 10
4.876429
 20
0.262560
 30
0.0
  0
LWPOLYLINE
  5
19c
100
AcDbEntity
  8
0
 62
7
100
AcDbPolyline
 90
16
 70
1
 10
4.962143
 20
0.169703
 30
0.0
 10
4.947857
 20
0.176846
 30
0.0
 10
4.940714
 20
0.183989
 30
0.0
 10
4.933571
 20
0.198274
 30
0.0
 10
4.933571
 20
0.241132
 30
0.0
 10
4.940714
 20
0.255417
 30
0.0
 10
4.947857
 20
0.262560
 30
0.0
 10
4.962143
 20
0.269703
 30
0.0
 10
4.983571
 20
0.269703
 30
0.0
 10
4.997857
 20
0.262560
 30
0.0
 10
5.005000
 20
0.255417
 30
0.0
 10
5.012143
 20
0.241132
 30
0.0
 10
5.012143
 20
0.198274
 30
0.0
 10
5.005000
 20
0.183989
 30
0.0
 10
4.997857
 20
0.176846
 30
0.0
 10
4.983571
 20
0.169703
 30
0.0
  0
LWPOLYLINE
  5
19d
100
AcDbEntity
  8
0
 62
7
100
AcDbPolyline
 90
2
 70
0
 10
5.076429
 20
0.169703
 30
0.0
 10
5.076429
 20
0.269703
 30
0.0
  0
LWPOLYLINE
  5
19e
100
AcDbEntity
  8
0
 62
7
100
AcDbPolyline
 90
5
 70
0
 10
5.076429
 20
0.241132
 30
0.0
 10
5.083571
 20
0.255417
 30
0.0
 10
5.090714
 20
0.262560
 30
0.0
 10
5.105000
 20
0.269703
 30
0.0
 10
5.119286
 20
0.269703
 30
0.0
  0
LWPOLYLINE
  5
19f
100
AcDbEntity
  8
0
 62
7
100
AcDbPolyline
 90
13
 70
0
 10
5.226429
 20
0.176846
 30
0.0
 10
5.212143
 20
0.169703
 30
0.0
 10
5.183571
 20
0.169703
 30
0.0
 10
5.169286
 20
0.176846
 30
0.0
 10
5.162143
 20
0.191132
 30
0.0
 10
5.162143
 20
0.248274
 30
0.0
 10
5.169286
 20
0.262560
 30
0.0
 10
5.183571
 20
0.269703
 30
0.0
 10
5.212143
 20
0.269703
 30
0.0
 10
5.226429
 20
0.262560
 30
0.0
 10
5.233571
 20
0.248274
 30
0.0
 10
5.233571
 20
0.233989
 30
0.0
 10
5.162143
 20
0.219703
 30
0.0
  0
LWPOLYLINE
  5
1a0
100
AcDbEntity
  8
0
 62
7
100
AcDbPolyline
 90
16
 70
0
 10
5.290714
 20
0.176846
 30
0.0
 10
5.305000
 20
0.169703
 30
0.0
 10
5.333571
 20
0.169703
 30
0.0
 10
5.347857
 20
0.176846
 30
0.0
 10
5.355000
 20
0.191132
 30
0.0
 10
5.355000
 20
0.198274
 30
0.0
 10
5.347857
 20
0.212560
 30
0.0
 10
5.333571
 20
0.219703
 30
0.0
 10
5.312143
 20
0.219703
 30
0.0
 10
5.297857
 20
0.226846
 30
0.0
 10
5.290714
 20
0.241132
 30
0.0
 10
5.290714
 20
0.248274
 30
0.0
 10
5.297857
 20
0.262560
 30
0.0
 10
5.312143
 20
0.269703
 30
0.0
 10
5.333571
 20
0.269703
 30
0.0
 10
5.347857
 20
0.262560
 30
0.0
  0
LWPOLYLINE
  5
1a1
100
AcDbEntity
  8
0
 62
7
100
AcDbPolyline
 90
6
 70
0
 10
5.419286
 20
0.183989
 30
0.0
 10
5.426429
 20
0.176846
 30
0.0
 10
5.419286
 20
0.169703
 30
0.0
 10
5.412143
 20
0.176846
 30
0.0
 10
5.419286
 20
0.183989
 30
0.0
 10
5.419286
 20
0.169703
 30
0.0
  0
LWPOLYLINE
  5
1a2
100
AcDbEntity
  8
0
 62
7
100
AcDbPolyline
 90
16
 70
0
 10
5.483571
 20
0.176846
 30
0.0
 10
5.497857
 20
0.169703
 30
0.0
 10
5.526429
 20
0.169703
 30
0.0
 10
5.540714
 20
0.176846
 30
0.0
 10
5.547857
 20
0.191132
 30
0.0
 10
5.547857
 20
0.198274
 30
0.0
 10
5.540714
 20
0.212560
 30
0.0
 10
5.526429
 20
0.219703
 30
0.0
 10
5.505000
 20
0.219703
 30
0.0
 10
5.490714
 20
0.226846
 30
0.0
 10
5.483571
 20
0.241132
 30
0.0
 10
5.483571
 20
0.248274
 30
0.0
 10
5.490714
 20
0.262560
 30
0.0
 10
5.505000
 20
0.269703
 30
0.0
 10
5.526429
 20
0.269703
 30
0.0
 10
5.540714
 20
0.262560
 30
0.0
  0
LWPOLYLINE
  5
1a3
100
AcDbEntity
  8
0
 62
7
100
AcDbPolyline
 90
2
 70
0
 10
5.612143
 20
0.169703
 30
0.0
 10
5.612143
 20
0.319703
 30
0.0
  0
LWPOLYLINE
  5
1a4
100
AcDbEntity
  8
0
 62
7
100
AcDbPolyline
 90
7
 70
0
 10
5.676429
 20
0.169703
 30
0.0
 10
5.676429
 20
0.248274
 30
0.0
 10
5.669286
 20
0.262560
 30
0.0
 10
5.655000
 20
0.269703
 30
0.0
 10
5.633571
 20
0.269703
 30
0.0
 10
5.619286
 20
0.262560
 30
0.0
 10
5.612143
 20
0.255417
 30
0.0
  0
LWPOLYLINE
  5
1a5
100
AcDbEntity
  8
0
 62
7
100
AcDbPolyline
 90
16
 70
1
 10
5.769286
 20
0.169703
 30
0.0
 10
5.755000
 20
0.176846
 30
0.0
 10
5.747857
 20
0.183989
 30
0.0
 10
5.740714
 20
0.198274
 30
0.0
 10
5.740714
 20
0.241132
 30
0.0
 10
5.747857
 20
0.255417
 30
0.0
 10
5.755000
 20
0.262560
 30
0.0
 10
5.769286
 20
0.269703
 30
0.0
 10
5.790714
 20
0.269703
 30
0.0
 10
5.805000
 20
0.262560
 30
0.0
 10
5.812143
 20
0.255417
 30
0.0
 10
5.819286
 20
0.241132
 30
0.0
 10
5.819286
 20
0.198274
 30
0.0
 10
5.812143
 20
0.183989
 30
0.0
 10
5.805000
 20
0.176846
 30
0.0
 10
5.790714
 20
0.169703
 30
0.0
  0
LWPOLYLINE
  5
1a6
100
AcDbEntity
  8
0
 62
7
100
AcDbPolyline
 90
2
 70
0
 10
5.883571
 20
0.269703
 30
0.0
 10
5.883571
 20
0.119703
 30
0.0
  0
LWPOLYLINE
  5
1a7
100
AcDbEntity
  8
0
 62
7
100
AcDbPolyline
 90
12
 70
0
 10
5.883571
 20
0.262560
 30
0.0
 10
5.897857
 20
0.269703
 30
0.0
 10
5.926429
 20
0.269703
 30
0.0
 10
5.940714
 20
0.262560
 30
0.0
 10
5.947857
 20
0.255417
 30
0.0
 10
5.955000
 20
0.241132
 30
0.0
 10
5.955000
 20
0.198274
 30
0.0
 10
5.947857
 20
0.183989
 30
0.0
 10
5.940714
 20
0.176846
 30
0.0
 10
5.926429
 20
0.169703
 30
0.0
 10
5.897857
 20
0.169703
 30
0.0
 10
5.883571
 20
0.176846
 30
0.0
  0
LWPOLYLINE
  5
1a8
100
AcDbEntity
  8
0
 62
7
100
AcDbPolyline
 90
3
 70
0
 10
1.459286
 20
9.938989
 30
0.0
 10
1.539286
 20
9.698989
 30
0.0
 10
1.619286
 20
9.938989
 30
0.0
  0
LWPOLYLINE
  5
1a9
100
AcDbEntity
  8
0
 62
7
100
AcDbPolyline
 90
2
 70
0
 10
1.699286
 20
9.698989
 30
0.0
 10
1.699286
 20
9.938989
 30
0.0
  0
LWPOLYLINE
  5
1aa
100
AcDbEntity
  8
0
 62
7
100
AcDbPolyline
 90
12
 70
1
 10
1.813571
 20
9.698989
 30
0.0
 10
1.813571
 20
9.938989
 30
0.0
 10
1.870714
 20
9.938989
 30
0.0
 10
1.905000
 20
9.927560
 30
0.0
 10
1.927857
 20
9.904703
 30
0.0
 10
1.939286
 20
9.881846
 30
0.0
 10
1.950714
 20
9.836132
 30
0.0
 10
1.950714
 20
9.801846
 30
0.0
 10
1.939286
 20
9.756132
 30
0.0
 10
1.927857
 20
9.733274
 30
0.0
 10
1.905000
 20
9.710417
 30
0.0
 10
1.870714
 20
9.698989
 30
0.0
  0
LWPOLYLINE
  5
1ab
100
AcDbEntity
  8
0
 62
7
100
AcDbPolyline
 90
2
 70
0
 10
2.053571
 20
9.824703
 30
0.0
 10
2.133571
 20
9.824703
 30
0.0
  0
LWPOLYLINE
  5
1ac
100
AcDbEntity
  8
0
 62
7
100
AcDbPolyline
 90
4
 70
0
 10
2.167857
 20
9.698989
 30
0.0
 10
2.053571
 20
9.698989
 30
0.0
 10
2.053571
 20
9.938989
 30
0.0
 10
2.167857
 20
9.938989
 30
0.0
  0
LWPOLYLINE
  5
1ad
100
AcDbEntity
  8
0
 62
7
100
AcDbPolyline
 90
16
 70
1
 10
2.316429
 20
9.938989
 30
0.0
 10
2.362143
 20
9.938989
 30
0.0
 10
2.385000
 20
9.927560
 30
0.0
 10
2.407857
 20
9.904703
 30
0.0
 10
2.419286
 20
9.858989
 30
0.0
 10
2.419286
 20
9.778989
 30
0.0
 10
2.407857
 20
9.733274
 30
0.0
 10
2.385000
 20
9.710417
 30
0.0
 10
2.362143
 20
9.698989
 30
0.0
 10
2.316429
 20
9.698989
 30
0.0
 10
2.293571
 20
9.710417
 30
0.0
 10
2.270714
 20
9.733274
 30
0.0
 10
2.259286
 20
9.778989
 30
0.0
 10
2.259286
 20
9.858989
 30
0.0
 10
2.270714
 20
9.904703
 30
0.0
 10
2.293571
 20
9.927560
 30
0.0
  0
LWPOLYLINE
  5
1ae
100
AcDbEntity
  8
0
 62
7
100
AcDbPolyline
 90
2
 70
0
 10
2.465000
 20
9.676132
 30
0.0
 10
2.647857
 20
9.676132
 30
0.0
  0
LWPOLYLINE
  5
1af
100
AcDbEntity
  8
0
 62
7
100
AcDbPolyline
 90
2
 70
0
 10
2.705000
 20
9.698989
 30
0.0
 10
2.705000
 20
9.938989
 30
0.0
  0
LWPOLYLINE
  5
1b0
100
AcDbEntity
  8
0
 62
7
100
AcDbPolyline
 90
4
 70
0
 10
2.819286
 20
9.698989
 30
0.0
 10
2.819286
 20
9.938989
 30
0.0
 10
2.956429
 20
9.698989
 30
0.0
 10
2.956429
 20
9.938989
 30
0.0
  0
LWPOLYLINE
  5
1b1
100
AcDbEntity
  8
0
 62
7
100
AcDbPolyline
 90
2
 70
0
 10
0.892857
 20
4.786370
 30
0.0
 10
0.892857
 20
4.753036
 30
0.0
  0
LWPOLYLINE
  5
1b2
100
AcDbEntity
  8
0
 62
7
100
AcDbPolyline
 90
3
 70
0
 10
0.945238
 20
4.753036
 30
0.0
 10
0.845238
 20
4.753036
 30
0.0
 10
0.845238
 20
4.800655
 30
0.0
  0
LWPOLYLINE
  5
1b3
100
AcDbEntity
  8
0
 62
7
100
AcDbPolyline
 90
16
 70
1
 10
0.845238
 20
4.857798
 30
0.0
 10
0.845238
 20
4.876846
 30
0.0
 10
0.850000
 20
4.886370
 30
0.0
 10
0.859524
 20
4.895893
 30
0.0
 10
0.878571
 20
4.900655
 30
0.0
 10
0.911905
 20
4.900655
 30
0.0
 10
0.930952
 20
4.895893
 30
0.0
 10
0.940476
 20
4.886370
 30
0.0
 10
0.945238
 20
4.876846
 30
0.0
 10
0.945238
 20
4.857798
 30
0.0
 10
0.940476
 20
4.848274
 30
0.0
 10
0.930952
 20
4.838751
 30
0.0
 10
0.911905
 20
4.833989
 30
0.0
 10
0.878571
 20
4.833989
 30
0.0
 10
0.859524
 20
4.838751
 30
0.0
 10
0.850000
 20
4.848274
 30
0.0
  0
LWPOLYLINE
  5
1b4
100
AcDbEntity
  8
0
 62
7
100
AcDbPolyline
 90
2
 70
0
 10
0.945238
 20
5.000655
 30
0.0
 10
0.897619
 20
4.967322
 30
0.0
  0
LWPOLYLINE
  5
1b5
100
AcDbEntity
  8
0
 62
7
100
AcDbPolyline
 90
11
 70
0
 10
0.945238
 20
4.943512
 30
0.0
 10
0.845238
 20
4.943512
 30
0.0
 10
0.845238
 20
4.981608
 30
0.0
 10
0.850000
 20
4.991132
 30
0.0
 10
0.854762
 20
4.995893
 30
0.0
 10
0.864286
 20
5.000655
 30
0.0
 10
0.878571
 20
5.000655
 30
0.0
 10
0.888095
 20
4.995893
 30
0.0
 10
0.892857
 20
4.991132
 30
0.0
 10
0.897619
 20
4.981608
 30
0.0
 10
0.897619
 20
4.943512
 30
0.0
  0
LWPOLYLINE
  5
1b6
100
AcDbEntity
  8
0
 62
7
100
AcDbPolyline
 90
5
 70
0
 10
0.945238
 20
5.043512
 30
0.0
 10
0.845238
 20
5.043512
 30
0.0
 10
0.916667
 20
5.076846
 30
0.0
 10
0.845238
 20
5.110179
 30
0.0
 10
0.945238
 20
5.110179
 30
0.0
  0
LWPOLYLINE
  5
1b7
100
AcDbEntity
  8
0
 62
7
100
AcDbPolyline
 90
2
 70
0
 10
0.916667
 20
5.153036
 30
0.0
 10
0.916667
 20
5.200655
 30
0.0
  0
LWPOLYLINE
  5
1b8
100
AcDbEntity
  8
0
 62
7
100
AcDbPolyline
 90
3
 70
0
 10
0.945238
 20
5.143512
 30
0.0
 10
0.845238
 20
5.176846
 30
0.0
 10
0.945238
 20
5.210179
 30
0.0
  0
LWPOLYLINE
  5
1b9
100
AcDbEntity
  8
0
 62
7
100
AcDbPolyline
 90
2
 70
0
 10
0.845238
 20
5.229227
 30
0.0
 10
0.845238
 20
5.286370
 30
0.0
  0
LWPOLYLINE
  5
1ba
100
AcDbEntity
  8
0
 62
7
100
AcDbPolyline
 90
2
 70
0
 10
0.945238
 20
5.257798
 30
0.0
 10
0.845238
 20
5.257798
 30
0.0
  0
LWPOLYLINE
  5
1bb
100
AcDbEntity
  8
0
 62
7
100
AcDbPolyline
 90
16
 70
0
 10
4.562143
 20
2.913989
 30
0.0
 10
4.555000
 20
2.906846
 30
0.0
 10
4.533571
 20
2.899703
 30
0.0
 10
4.519286
 20
2.899703
 30
0.0
 10
4.497857
 20
2.906846
 30
0.0
 10
4.483571
 20
2.921132
 30
0.0
 10
4.476429
 20
2.935417
 30
0.0
 10
4.469286
 20
2.963989
 30
0.0
 10
4.469286
 20
2.985417
 30
0.0
 10
4.476429
 20
3.013989
 30
0.0
 10
4.483571
 20
3.028274
 30
0.0
 10
4.497857
 20
3.042560
 30
0.0
 10
4.519286
 20
3.049703
 30
0.0
 10
4.533571
 20
3.049703
 30
0.0
 10
4.555000
 20
3.042560
 30
0.0
 10
4.562143
 20
3.035417
 30
0.0
  0
LWPOLYLINE
  5
1bc
100
AcDbEntity
  8
0
 62
7
100
AcDbPolyline
 90
16
 70
1
 10
4.655000
 20
3.049703
 30
0.0
 10
4.683571
 20
3.049703
 30
0.0
 10
4.697857
 20
3.042560
 30
0.0
 10
4.712143
 20
3.028274
 30
0.0
 10
4.719286
 20
2.999703
 30
0.0
 10
4.719286
 20
2.949703
 30
0.0
 10
4.712143
 20
2.921132
 30
0.0
 10
4.697857
 20
2.906846
 30
0.0
 10
4.683571
 20
2.899703
 30
0.0
 10
4.655000
 20
2.899703
 30
0.0
 10
4.640714
 20
2.906846
 30
0.0
 10
4.626429
 20
2.921132
 30
0.0
 10
4.619286
 20
2.949703
 30
0.0
 10
4.619286
 20
2.999703
 30
0.0
 10
4.626429
 20
3.028274
 30
0.0
 10
4.640714
 20
3.042560
 30
0.0
  0
LWPOLYLINE
  5
1bd
100
AcDbEntity
  8
0
 62
7
100
AcDbPolyline
 90
3
 70
0
 10
4.855000
 20
2.899703
 30
0.0
 10
4.783571
 20
2.899703
 30
0.0
 10
4.783571
 20
3.049703
 30
0.0
  0
LWPOLYLINE
  5
1be
100
AcDbEntity
  8
0
 62
7
100
AcDbPolyline
 90
16
 70
1
 10
4.933571
 20
3.049703
 30
0.0
 10
4.962143
 20
3.049703
 30
0.0
 10
4.976429
 20
3.042560
 30
0.0
 10
4.990714
 20
3.028274
 30
0.0
 10
4.997857
 20
2.999703
 30
0.0
 10
4.997857
 20
2.949703
 30
0.0
 10
4.990714
 20
2.921132
 30
0.0
 10
4.976429
 20
2.906846
 30
0.0
 10
4.962143
 20
2.899703
 30
0.0
 10
4.933571
 20
2.899703
 30
0.0
 10
4.919286
 20
2.906846
 30
0.0
 10
4.905000
 20
2.921132
 30
0.0
 10
4.897857
 20
2.949703
 30
0.0
 10
4.897857
 20
2.999703
 30
0.0
 10
4.905000
 20
3.028274
 30
0.0
 10
4.919286
 20
3.042560
 30
0.0
  0
LWPOLYLINE
  5
1bf
100
AcDbEntity
  8
0
 62
7
100
AcDbPolyline
 90
2
 70
0
 10
5.147857
 20
2.899703
 30
0.0
 10
5.097857
 20
2.971132
 30
0.0
  0
LWPOLYLINE
  5
1c0
100
AcDbEntity
  8
0
 62
7
100
AcDbPolyline
 90
11
 70
0
 10
5.062143
 20
2.899703
 30
0.0
 10
5.062143
 20
3.049703
 30
0.0
 10
5.119286
 20
3.049703
 30
0.0
 10
5.133571
 20
3.042560
 30
0.0
 10
5.140714
 20
3.035417
 30
0.0
 10
5.147857
 20
3.021132
 30
0.0
 10
5.147857
 20
2.999703
 30
0.0
 10
5.140714
 20
2.985417
 30
0.0
 10
5.133571
 20
2.978274
 30
0.0
 10
5.119286
 20
2.971132
 30
0.0
 10
5.062143
 20
2.971132
 30
0.0
  0
LWPOLYLINE
  5
1c1
100
AcDbEntity
  8
0
 62
7
100
AcDbPolyline
 90
2
 70
0
 10
5.176429
 20
2.885417
 30
0.0
 10
5.290714
 20
2.885417
 30
0.0
  0
LWPOLYLINE
  5
1c2
100
AcDbEntity
  8
0
 62
7
100
AcDbPolyline
 90
19
 70
0
 10
5.376429
 20
2.978274
 30
0.0
 10
5.397857
 20
2.971132
 30
0.0
 10
5.405000
 20
2.963989
 30
0.0
 10
5.412143
 20
2.949703
 30
0.0
 10
5.412143
 20
2.928274
 30
0.0
 10
5.405000
 20
2.913989
 30
0.0
 10
5.397857
 20
2.906846
 30
0.0
 10
5.383571
 20
2.899703
 30
0.0
 10
5.326429
 20
2.899703
 30
0.0
 10
5.326429
 20
3.049703
 30
0.0
 10
5.376429
 20
3.049703
 30
0.0
 10
5.390714
 20
3.042560
 30
0.0
 10
5.397857
 20
3.035417
 30
0.0
 10
5.405000
 20
3.021132
 30
0.0
 10
5.405000
 20
3.006846
 30
0.0
 10
5.397857
 20
2.992560
 30
0.0
 10
5.390714
 20
2.985417
 30
0.0
 10
5.376429
 20
2.978274
 30
0.0
 10
5.326429
 20
2.978274
 30
0.0
  0
LWPOLYLINE
  5
1c3
100
AcDbEntity
  8
0
 62
7
100
AcDbPolyline
 90
16
 70
1
 10
5.505000
 20
3.049703
 30
0.0
 10
5.533571
 20
3.049703
 30
0.0
 10
5.547857
 20
3.042560
 30
0.0
 10
5.562143
 20
3.028274
 30
0.0
 10
5.569286
 20
2.999703
 30
0.0
 10
5.569286
 20
2.949703
 30
0.0
 10
5.562143
 20
2.921132
 30
0.0
 10
5.547857
 20
2.906846
 30
0.0
 10
5.533571
 20
2.899703
 30
0.0
 10
5.505000
 20
2.899703
 30
0.0
 10
5.490714
 20
2.906846
 30
0.0
 10
5.476429
 20
2.921132
 30
0.0
 10
5.469286
 20
2.949703
 30
0.0
 10
5.469286
 20
2.999703
 30
0.0
 10
5.476429
 20
3.028274
 30
0.0
 10
5.490714
 20
3.042560
 30
0.0
  0
LWPOLYLINE
  5
1c4
100
AcDbEntity
  8
0
 62
7
100
AcDbPolyline
 90
2
 70
0
 10
5.612143
 20
3.049703
 30
0.0
 10
5.697857
 20
3.049703
 30
0.0
  0
LWPOLYLINE
  5
1c5
100
AcDbEntity
  8
0
 62
7
100
AcDbPolyline
 90
2
 70
0
 10
5.655000
 20
2.899703
 30
0.0
 10
5.655000
 20
3.049703
 30
0.0
  0
LWPOLYLINE
  5
1c6
100
AcDbEntity
  8
0
 62
7
100
AcDbPolyline
 90
2
 70
0
 10
5.747857
 20
2.899703
 30
0.0
 10
5.747857
 20
3.049703
 30
0.0
  0
LWPOLYLINE
  5
1c7
100
AcDbEntity
  8
0
 62
7
100
AcDbPolyline
 90
2
 70
0
 10
5.747857
 20
2.978274
 30
0.0
 10
5.833571
 20
2.978274
 30
0.0
  0
LWPOLYLINE
  5
1c8
100
AcDbEntity
  8
0
 62
7
100
AcDbPolyline
 90
2
 70
0
 10
5.833571
 20
2.899703
 30
0.0
 10
5.833571
 20
3.049703
 30
0.0
  0
LWPOLYLINE
  5
1c9
100
AcDbEntity
  8
0
 62
7
100
AcDbPolyline
 90
3
 70
0
 10
6.889286
 20
9.938989
 30
0.0
 10
6.969286
 20
9.698989
 30
0.0
 10
7.049286
 20
9.938989
 30
0.0
  0
LWPOLYLINE
  5
1ca
100
AcDbEntity
  8
0
 62
7
100
AcDbPolyline
 90
2
 70
0
 10
7.129286
 20
9.698989
 30
0.0
 10
7.129286
 20
9.938989
 30
0.0
  0
LWPOLYLINE
  5
1cb
100
AcDbEntity
  8
0
 62
7
100
AcDbPolyline
 90
12
 70
1
 10
7.243571
 20
9.698989
 30
0.0
 10
7.243571
 20
9.938989
 30
0.0
 10
7.300714
 20
9.938989
 30
0.0
 10
7.335000
 20
9.927560
 30
0.0
 10
7.357857
 20
9.904703
 30
0.0
 10
7.369286
 20
9.881846
 30
0.0
 10
7.380714
 20
9.836132
 30
0.0
 10
7.380714
 20
9.801846
 30
0.0
 10
7.369286
 20
9.756132
 30
0.0
 10
7.357857
 20
9.733274
 30
0.0
 10
7.335000
 20
9.710417
 30
0.0
 10
7.300714
 20
9.698989
 30
0.0
  0
LWPOLYLINE
  5
1cc
100
AcDbEntity
  8
0
 62
7
100
AcDbPolyline
 90
2
 70
0
 10
7.483571
 20
9.824703
 30
0.0
 10
7.563571
 20
9.824703
 30
0.0
  0
LWPOLYLINE
  5
1cd
100
AcDbEntity
  8
0
 62
7
100
AcDbPolyline
 90
4
 70
0
 10
7.597857
 20
9.698989
 30
0.0
 10
7.483571
 20
9.698989
 30
0.0
 10
7.483571
 20
9.938989
 30
0.0
 10
7.597857
 20
9.938989
 30
0.0
  0
LWPOLYLINE
  5
1ce
100
AcDbEntity
  8
0
 62
7
100
AcDbPolyline
 90
16
 70
1
 10
7.746429
 20
9.938989
 30
0.0
 10
7.792143
 20
9.938989
 30
0.0
 10
7.815000
 20
9.927560
 30
0.0
 10
7.837857
 20
9.904703
 30
0.0
 10
7.849286
 20
9.858989
 30
0.0
 10
7.849286
 20
9.778989
 30
0.0
 10
7.837857
 20
9.733274
 30
0.0
 10
7.815000
 20
9.710417
 30
0.0
 10
7.792143
 20
9.698989
 30
0.0
 10
7.746429
 20
9.698989
 30
0.0
 10
7.723571
 20
9.710417
 30
0.0
 10
7.700714
 20
9.733274
 30
0.0
 10
7.689286
 20
9.778989
 30
0.0
 10
7.689286
 20
9.858989
 30
0.0
 10
7.700714
 20
9.904703
 30
0.0
 10
7.723571
 20
9.927560
 30
0.0
  0
LWPOLYLINE
  5
1cf
100
AcDbEntity
  8
0
 62
7
100
AcDbPolyline
 90
2
 70
0
 10
7.895000
 20
9.676132
 30
0.0
 10
8.077857
 20
9.676132
 30
0.0
  0
LWPOLYLINE
  5
1d0
100
AcDbEntity
  8
0
 62
7
100
AcDbPolyline
 90
16
 70
1
 10
8.180714
 20
9.938989
 30
0.0
 10
8.226429
 20
9.938989
 30
0.0
 10
8.249286
 20
9.927560
 30
0.0
 10
8.272143
 20
9.904703
 30
0.0
 10
8.283571
 20
9.858989
 30
0.0
 10
8.283571
 20
9.778989
 30
0.0
 10
8.272143
 20
9.733274
 30
0.0
 10
8.249286
 20
9.710417
 30
0.0
 10
8.226429
 20
9.698989
 30
0.0
 10
8.180714
 20
9.698989
 30
0.0
 10
8.157857
 20
9.710417
 30
0.0
 10
8.135000
 20
9.733274
 30
0.0
 10
8.123571
 20
9.778989
 30
0.0
 10
8.123571
 20
9.858989
 30
0.0
 10
8.135000
 20
9.904703
 30
0.0
 10
8.157857
 20
9.927560
 30
0.0
  0
LWPOLYLINE
  5
1d1
100
AcDbEntity
  8
0
 62
7
100
AcDbPolyline
 90
10
 70
0
 10
8.386429
 20
9.938989
 30
0.0
 10
8.386429
 20
9.744703
 30
0.0
 10
8.397857
 20
9.721846
 30
0.0
 10
8.409286
 20
9.710417
 30
0.0
 10
8.432143
 20
9.698989
 30
0.0
 10
8.477857
 20
9.698989
 30
0.0
 10
8.500714
 20
9.710417
 30
0.0
 10
8.512143
 20
9.721846
 30
0.0
 10
8.523571
 20
9.744703
 30
0.0
 10
8.523571
 20
9.938989
 30
0.0
  0
LWPOLYLINE
  5
1d2
100
AcDbEntity
  8
0
 62
7
100
AcDbPolyline
 90
2
 70
0
 10
8.603571
 20
9.938989
 30
0.0
 10
8.740714
 20
9.938989
 30
0.0
  0
LWPOLYLINE
  5
1d3
100
AcDbEntity
  8
0
 62
7
100
AcDbPolyline
 90
2
 70
0
 10
8.672143
 20
9.698989
 30
0.0
 10
8.672143
 20
9.938989
 30
0.0
  0
LWPOLYLINE
  5
1d4
100
AcDbEntity
  8
0
 62
7
100
AcDbPolyline
 90
2
 70
0
 10
9.381667
 20
4.423751
 30
0.0
 10
9.381667
 20
4.471370
 30
0.0
  0
LWPOLYLINE
  5
1d5
100
AcDbEntity
  8
0
 62
7
100
AcDbPolyline
 90
3
 70
0
 10
9.410238
 20
4.414227
 30
0.0
 10
9.310238
 20
4.447560
 30
0.0
 10
9.410238
 20
4.480893
 30
0.0
  0
LWPOLYLINE
  5
1d6
100
AcDbEntity
  8
0
 62
7
100
AcDbPolyline
 90
3
 70
0
 10
9.410238
 20
4.561846
 30
0.0
 10
9.410238
 20
4.514227
 30
0.0
 10
9.310238
 20
4.514227
 30
0.0
  0
LWPOLYLINE
  5
1d7
100
AcDbEntity
  8
0
 62
7
100
AcDbPolyline
 90
2
 70
0
 10
9.310238
 20
4.580893
 30
0.0
 10
9.310238
 20
4.638036
 30
0.0
  0
LWPOLYLINE
  5
1d8
100
AcDbEntity
  8
0
 62
7
100
AcDbPolyline
 90
2
 70
0
 10
9.410238
 20
4.609465
 30
0.0
 10
9.310238
 20
4.609465
 30
0.0
  0
LWPOLYLINE
  5
1d9
100
AcDbEntity
  8
0
 62
7
100
AcDbPolyline
 90
2
 70
0
 10
9.357857
 20
4.671370
 30
0.0
 10
9.357857
 20
4.704703
 30
0.0
  0
LWPOLYLINE
  5
1da
100
AcDbEntity
  8
0
 62
7
100
AcDbPolyline
 90
4
 70
0
 10
9.410238
 20
4.718989
 30
0.0
 10
9.410238
 20
4.671370
 30
0.0
 10
9.310238
 20
4.671370
 30
0.0
 10
9.310238
 20
4.718989
 30
0.0
  0
LWPOLYLINE
  5
1db
100
AcDbEntity
  8
0
 62
7
100
AcDbPolyline
 90
2
 70
0
 10
9.410238
 20
4.818989
 30
0.0
 10
9.362619
 20
4.785655
 30
0.0
  0
LWPOLYLINE
  5
1dc
100
AcDbEntity
  8
0
 62
7
100
AcDbPolyline
 90
11
 70
0
 10
9.410238
 20
4.761846
 30
0.0
 10
9.310238
 20
4.761846
 30
0.0
 10
9.310238
 20
4.799941
 30
0.0
 10
9.315000
 20
4.809465
 30
0.0
 10
9.319762
 20
4.814227
 30
0.0
 10
9.329286
 20
4.818989
 30
0.0
 10
9.343571
 20
4.818989
 30
0.0
 10
9.353095
 20
4.814227
 30
0.0
 10
9.357857
 20
4.809465
 30
0.0
 10
9.362619
 20
4.799941
 30
0.0
 10
9.362619
 20
4.761846
 30
0.0
  0
LWPOLYLINE
  5
1dd
100
AcDbEntity
  8
0
 62
7
100
AcDbPolyline
 90
4
 70
0
 10
9.410238
 20
4.861846
 30
0.0
 10
9.310238
 20
4.861846
 30
0.0
 10
9.410238
 20
4.918989
 30
0.0
 10
9.310238
 20
4.918989
 30
0.0
  0
LWPOLYLINE
  5
1de
100
AcDbEntity
  8
0
 62
7
100
AcDbPolyline
 90
2
 70
0
 10
9.381667
 20
4.961846
 30
0.0
 10
9.381667
 20
5.009465
 30
0.0
  0
LWPOLYLINE
  5
1df
100
AcDbEntity
  8
0
 62
7
100
AcDbPolyline
 90
3
 70
0
 10
9.410238
 20
4.952322
 30
0.0
 10
9.310238
 20
4.985655
 30
0.0
 10
9.410238
 20
5.018989
 30
0.0
  0
LWPOLYLINE
  5
1e0
100
AcDbEntity
  8
0
 62
7
100
AcDbPolyline
 90
2
 70
0
 10
9.310238
 20
5.038036
 30
0.0
 10
9.310238
 20
5.095179
 30
0.0
  0
LWPOLYLINE
  5
1e1
100
AcDbEntity
  8
0
 62
7
100
AcDbPolyline
 90
2
 70
0
 10
9.410238
 20
5.066608
 30
0.0
 10
9.310238
 20
5.066608
 30
0.0
  0
LWPOLYLINE
  5
1e2
100
AcDbEntity
  8
0
 62
7
100
AcDbPolyline
 90
2
 70
0
 10
9.357857
 20
5.128512
 30
0.0
 10
9.357857
 20
5.161846
 30
0.0
  0
LWPOLYLINE
  5
1e3
100
AcDbEntity
  8
0
 62
7
100
AcDbPolyline
 90
4
 70
0
 10
9.410238
 20
5.176132
 30
0.0
 10
9.410238
 20
5.128512
 30
0.0
 10
9.310238
 20
5.128512
 30
0.0
 10
9.310238
 20
5.176132
 30
0.0
  0
LWPOLYLINE
  5
1e4
100
AcDbEntity
  8
0
 62
7
100
AcDbPolyline
 90
3
 70
0
 10
9.410238
 20
5.342798
 30
0.0
 10
9.410238
 20
5.295179
 30
0.0
 10
9.310238
 20
5.295179
 30
0.0
  0
LWPOLYLINE
  5
1e5
100
AcDbEntity
  8
0
 62
7
100
AcDbPolyline
 90
2
 70
0
 10
9.410238
 20
5.376132
 30
0.0
 10
9.310238
 20
5.376132
 30
0.0
  0
LWPOLYLINE
  5
1e6
100
AcDbEntity
  8
0
 62
7
100
AcDbPolyline
 90
4
 70
0
 10
9.410238
 20
5.423751
 30
0.0
 10
9.310238
 20
5.423751
 30
0.0
 10
9.410238
 20
5.480893
 30
0.0
 10
9.310238
 20
5.480893
 30
0.0
  0
LWPOLYLINE
  5
1e7
100
AcDbEntity
  8
0
 62
7
100
AcDbPolyline
 90
2
 70
0
 10
9.357857
 20
5.528512
 30
0.0
 10
9.357857
 20
5.561846
 30
0.0
  0
LWPOLYLINE
  5
1e8
100
AcDbEntity
  8
0
 62
7
100
AcDbPolyline
 90
4
 70
0
 10
9.410238
 20
5.576132
 30
0.0
 10
9.410238
 20
5.528512
 30
0.0
 10
9.310238
 20
5.528512
 30
0.0
 10
9.310238
 20
5.576132
 30
0.0
  0
LWPOLYLINE
  5
1e9
100
AcDbEntity
  8
0
 62
7
100
AcDbPolyline
 90
20
 70
0
 10
9.405476
 20
5.614227
 30
0.0
 10
9.410238
 20
5.628512
 30
0.0
 10
9.410238
 20
5.652322
 30
0.0
 10
9.405476
 20
5.661846
 30
0.0
 10
9.400714
 20
5.666608
 30
0.0
 10
9.391190
 20
5.671370
 30
0.0
 10
9.381667
 20
5.671370
 30
0.0
 10
9.372143
 20
5.666608
 30
0.0
 10
9.367381
 20
5.661846
 30
0.0
 10
9.362619
 20
5.652322
 30
0.0
 10
9.357857
 20
5.633274
 30
0.0
 10
9.353095
 20
5.623751
 30
0.0
 10
9.348333
 20
5.618989
 30
0.0
 10
9.338809
 20
5.614227
 30
0.0
 10
9.329286
 20
5.614227
 30
0.0
 10
9.319762
 20
5.618989
 30
0.0
 10
9.315000
 20
5.623751
 30
0.0
 10
9.310238
 20
5.633274
 30
0.0
 10
9.310238
 20
5.657084
 30
0.0
 10
9.315000
 20
5.671370
 30
0.0
  0
LWPOLYLINE
  5
1ea
100
AcDbEntity
  8
0
 62
7
100
AcDbPolyline
 90
16
 70
1
 10
9.689762
 20
5.882322
 30
0.0
 10
9.708810
 20
5.882322
 30
0.0
 10
9.718333
 20
5.877560
 30
0.0
 10
9.727857
 20
5.868036
 30
0.0
 10
9.732619
 20
5.848989
 30
0.0
 10
9.732619
 20
5.815655
 30
0.0
 10
9.727857
 20
5.796608
 30
0.0
 10
9.718333
 20
5.787084
 30
0.0
 10
9.708810
 20
5.782322
 30
0.0
 10
9.689762
 20
5.782322
 30
0.0
 10
9.680238
 20
5.787084
 30
0.0
 10
9.670714
 20
5.796608
 30
0.0
 10
9.665952
 20
5.815655
 30
0.0
 10
9.665952
 20
5.848989
 30
0.0
 10
9.670714
 20
5.868036
 30
0.0
 10
9.680238
 20
5.877560
 30
0.0
  0
LWPOLYLINE
  5
1eb
100
AcDbEntity
  8
0
 62
7
100
AcDbPolyline
 90
2
 70
0
 10
9.808810
 20
5.834703
 30
0.0
 10
9.775476
 20
5.834703
 30
0.0
  0
LWPOLYLINE
  5
1ec
100
AcDbEntity
  8
0
 62
7
100
AcDbPolyline
 90
3
 70
0
 10
9.775476
 20
5.782322
 30
0.0
 10
9.775476
 20
5.882322
 30
0.0
 10
9.823095
 20
5.882322
 30
0.0
  0
LWPOLYLINE
  5
1ed
100
AcDbEntity
  8
0
 62
7
100
AcDbPolyline
 90
2
 70
0
 10
9.894524
 20
5.834703
 30
0.0
 10
9.861190
 20
5.834703
 30
0.0
  0
LWPOLYLINE
  5
1ee
100
AcDbEntity
  8
0
 62
7
100
AcDbPolyline
 90
3
 70
0
 10
9.861190
 20
5.782322
 30
0.0
 10
9.861190
 20
5.882322
 30
0.0
 10
9.908810
 20
5.882322
 30
0.0
  0
ENDSEC
  0
SECTION
  2
OBJECTS
  0
DICTIONARY
  5
C
330
0
100
AcDbDictionary
  3
ACAD_GROUP
350
D
  3
ACAD_MLINESTYLE
350
17
  0
DICTIONARY
  5
D
330
C
100
AcDbDictionary
  0
DICTIONARY
  5
1A
330
C
100
AcDbDictionary
  0
DICTIONARY
  5
17
330
C
100
AcDbDictionary
  3
STANDARD
350
18
  0
DICTIONARY
  5
19
330
C
100
AcDbDictionary
  0
ENDSEC
  0
EOF
