  0
SECTION
  2
HEADER
  9
$ACADVER
  1
AC1014
  9
$HANDSEED
  5
FFFF
  9
$INSUNITS
 70
     5
  9
$MEASUREMENT
 70
     1
  0
ENDSEC
  0
SECTION
  2
TABLES
  0
TABLE
  2
VPORT
  5
8
330
0
100
AcDbSymbolTable
 70
     4
  0
VPORT
  5
2E
330
8
100
AcDbSymbolTableRecord
100
AcDbViewportTableRecord
  2
*ACTIVE
 70
     0
 10
0.0
 20
0.0
 11
1.0
 21
1.0
 12
210.0
 22
148.5
 13
0.0
 23
0.0
 14
10.0
 24
10.0
 15
10.0
 25
10.0
 16
0.0
 26
0.0
 36
1.0
 17
0.0
 27
0.0
 37
0.0
 40
341.0
 41
1.24
 42
50.0
 43
0.0
 44
0.0
 50
0.0
 51
0.0
 71
     0
 72
   100
 73
     1
 74
     3
 75
     0
 76
     0
 77
     0
 78
     0
  0
ENDTAB
  0
TABLE
  2
LTYPE
  5
5
330
0
100
AcDbSymbolTable
 70
     1
  0
LTYPE
  5
14
330
5
100
AcDbSymbolTableRecord
100
AcDbLinetypeTableRecord
  2
BYBLOCK
 70
     0
  3

 72
    65
 73
     0
 40
0.0
  0
LTYPE
  5
15
330
5
100
AcDbSymbolTableRecord
100
AcDbLinetypeTableRecord
  2
BYLAYER
 70
     0
  3

 72
    65
 73
     0
 40
0.0
  0
LTYPE
  5
16
330
5
100
AcDbSymbolTableRecord
100
AcDbLinetypeTableRecord
  2
CONTINUOUS
 70
     0
  3
Solid line
 72
    65
 73
     0
 40
0.0
  0
ENDTAB
  0
TABLE
  2
LAYER
  5
2
100
AcDbSymbolTable
 70
1
  0
LAYER
  5
50
100
AcDbSymbolTableRecord
100
AcDbLayerTableRecord
  2
0
 70
0
  6
CONTINUOUS
  0
ENDTAB
  0
TABLE
  2
STYLE
  5
3
330
0
100
AcDbSymbolTable
 70
     1
  0
STYLE
  5
11
330
3
100
AcDbSymbolTableRecord
100
AcDbTextStyleTableRecord
  2
STANDARD
 70
     0
 40
0.0
 41
1.0
 50
0.0
 71
     0
 42
2.5
  3
txt
  4

  0
ENDTAB
  0
TABLE
  2
VIEW
  5
6
330
0
100
AcDbSymbolTable
 70
     0
  0
ENDTAB
  0
TABLE
  2
UCS
  5
7
330
0
100
AcDbSymbolTable
 70
     0
  0
ENDTAB
  0
TABLE
  2
APPID
  5
9
330
0
100
AcDbSymbolTable
 70
     2
  0
APPID
  5
12
330
9
100
AcDbSymbolTableRecord
100
AcDbRegAppTableRecord
  2
ACAD
 70
     0
  0
ENDTAB
  0
TABLE
  2
DIMSTYLE
  5
A
330
0
100
AcDbSymbolTable
 70
     1
  0
DIMSTYLE
105
27
330
A
100
AcDbSymbolTableRecord
100
AcDbDimStyleTableRecord
  2
ISO-25
 70
     0
  3

  4

  5

  6

  7

 40
1.0
 41
2.5
 42
0.625
 43
3.75
 44
1.25
 45
0.0
 46
0.0
 47
0.0
 48
0.0
140
2.5
141
2.5
142
0.0
143
0.03937007874016
144
1.0
145
0.0
146
1.0
147
0.625
 71
     0
 72
     0
 73
     0
 74
     0
 75
     0
 76
     0
 77
     1
 78
     8
170
     0
171
     3
172
     1
173
     0
174
     0
175
     0
176
     0
177
     0
178
     0
270
     2
271
     2
272
     2
273
     2
274
     3
340
11
275
     0
280
     0
281
     0
282
     0
283
     0
284
     8
285
     0
286
     0
287
     3
288
     0
  0
ENDTAB
  0
TABLE
  2
BLOCK_RECORD
  5
1
330
0
100
AcDbSymbolTable
 70
     1
  0
BLOCK_RECORD
  5
1F
330
1
100
AcDbSymbolTableRecord
100
AcDbBlockTableRecord
  2
*MODEL_SPACE
  0
BLOCK_RECORD
  5
1B
330
1
100
AcDbSymbolTableRecord
100
AcDbBlockTableRecord
  2
*PAPER_SPACE
  0
ENDTAB
  0
ENDSEC
  0
SECTION
  2
BLOCKS
  0
BLOCK
  5
20
330
1F
100
AcDbEntity
  8
0
100
AcDbBlockBegin
  2
*MODEL_SPACE
 70
     0
 10
0.0
 20
0.0
 30
0.0
  3
*MODEL_SPACE
  1

  0
ENDBLK
  5
21
330
1F
100
AcDbEntity
  8
0
100
AcDbBlockEnd
  0
BLOCK
  5
1C
330
1B
100
AcDbEntity
 67
     1
  8
0
100
AcDbBlockBegin
  2
*PAPER_SPACE
  1

  0
ENDBLK
  5
1D
330
1B
100
AcDbEntity
 67
     1
  8
0
100
AcDbBlockEnd
  0
ENDSEC
  0
SECTION
  2
ENTITIES
  0
LWPOLYLINE
  5
100
100
AcDbEntity
  8
0
 62
7
100
AcDbPolyline
 90
2
 70
0
 10
0.825000
 20
0.197560
 30
0.0
 10
0.595000
 20
0.197560
 30
0.0
  0
LWPOLYLINE
  5
101
100
AcDbEntity
  8
0
 62
7
100
AcDbPolyline
 90
2
 70
0
 10
0.825000
 20
0.517560
 30
0.0
 10
0.595000
 20
0.517560
 30
0.0
  0
SPLINE
  5
102
100
AcDbEntity
  8
0
 62
7
100
AcDbSpline
 70
8
 71
3
 72
8
 73
4
 74
0
 40
0
 40
0
 40
0
 40
0
 40
1
 40
1
 40
1
 40
1
 10
0.595000
 20
12.672560
 30
0.0
 10
0.537838
 20
12.672560
 30
0.0
 10
0.485017
 20
12.642064
 30
0.0
 10
0.456436
 20
12.592560
 30
0.0
  0
SPLINE
  5
103
100
AcDbEntity
  8
0
 62
7
100
AcDbSpline
 70
8
 71
3
 72
8
 73
4
 74
0
 40
0
 40
0
 40
0
 40
0
 40
1
 40
1
 40
1
 40
1
 10
0.456436
 20
12.592560
 30
0.0
 10
0.427855
 20
12.543056
 30
0.0
 10
0.427855
 20
12.482064
 30
0.0
 10
0.456436
 20
12.432560
 30
0.0
  0
SPLINE
  5
104
100
AcDbEntity
  8
0
 62
7
100
AcDbSpline
 70
8
 71
3
 72
8
 73
4
 74
0
 40
0
 40
0
 40
0
 40
0
 40
1
 40
1
 40
1
 40
1
 10
0.456436
 20
12.432560
 30
0.0
 10
0.485017
 20
12.383056
 30
0.0
 10
0.537838
 20
12.352560
 30
0.0
 10
0.595000
 20
12.352560
 30
0.0
  0
LWPOLYLINE
  5
105
100
AcDbEntity
  8
0
 62
7
100
AcDbPolyline
 90
2
 70
0
 10
9.590000
 20
0.192560
 30
0.0
 10
9.360000
 20
0.192560
 30
0.0
  0
SPLINE
  5
106
100
AcDbEntity
  8
0
 62
7
100
AcDbSpline
 70
8
 71
3
 72
8
 73
4
 74
0
 40
0
 40
0
 40
0
 40
0
 40
1
 40
1
 40
1
 40
1
 10
2.985000
 20
2.587560
 30
0.0
 10
2.764086
 20
2.587560
 30
0.0
 10
2.585000
 20
2.408474
 30
0.0
 10
2.585000
 20
2.187560
 30
0.0
  0
SPLINE
  5
107
100
AcDbEntity
  8
0
 62
7
100
AcDbSpline
 70
8
 71
3
 72
8
 73
4
 74
0
 40
0
 40
0
 40
0
 40
0
 40
1
 40
1
 40
1
 40
1
 10
2.585000
 20
2.187560
 30
0.0
 10
2.585000
 20
1.966646
 30
0.0
 10
2.764086
 20
1.787560
 30
0.0
 10
2.985000
 20
1.787560
 30
0.0
  0
SPLINE
  5
108
100
AcDbEntity
  8
0
 62
7
100
AcDbSpline
 70
8
 71
3
 72
8
 73
4
 74
0
 40
0
 40
0
 40
0
 40
0
 40
1
 40
1
 40
1
 40
1
 10
2.985000
 20
1.787560
 30
0.0
 10
3.205914
 20
1.787560
 30
0.0
 10
3.385000
 20
1.966646
 30
0.0
 10
3.385000
 20
2.187560
 30
0.0
  0
SPLINE
  5
109
100
AcDbEntity
  8
0
 62
7
100
AcDbSpline
 70
8
 71
3
 72
8
 73
4
 74
0
 40
0
 40
0
 40
0
 40
0
 40
1
 40
1
 40
1
 40
1
 10
3.385000
 20
2.187560
 30
0.0
 10
3.385000
 20
2.293647
 30
0.0
 10
3.342857
 20
2.395388
 30
0.0
 10
3.267843
 20
2.470403
 30
0.0
  0
SPLINE
  5
10a
100
AcDbEntity
  8
0
 62
7
100
AcDbSpline
 70
8
 71
3
 72
8
 73
4
 74
0
 40
0
 40
0
 40
0
 40
0
 40
1
 40
1
 40
1
 40
1
 10
3.267843
 20
2.470403
 30
0.0
 10
3.192828
 20
2.545417
 30
0.0
 10
3.091087
 20
2.587560
 30
0.0
 10
2.985000
 20
2.587560
 30
0.0
  0
LWPOLYLINE
  5
10b
100
AcDbEntity
  8
0
 62
7
100
AcDbPolyline
 90
2
 70
0
 10
0.825000
 20
12.672560
 30
0.0
 10
0.595000
 20
12.672560
 30
0.0
  0
LWPOLYLINE
  5
10c
100
AcDbEntity
  8
0
 62
7
100
AcDbPolyline
 90
1
 70
1
 10
2.985000
 20
2.587560
 30
0.0
  0
LWPOLYLINE
  5
10d
100
AcDbEntity
  8
0
 62
7
100
AcDbPolyline
 90
2
 70
0
 10
10.175000
 20
5.717560
 30
0.0
 10
10.175000
 20
12.859337
 30
0.0
  0
SPLINE
  5
10e
100
AcDbEntity
  8
0
 62
7
100
AcDbSpline
 70
8
 71
3
 72
8
 73
4
 74
0
 40
0
 40
0
 40
0
 40
0
 40
1
 40
1
 40
1
 40
1
 10
7.405000
 20
4.197560
 30
0.0
 10
7.243215
 20
4.197560
 30
0.0
 10
7.097361
 20
4.100103
 30
0.0
 10
7.035448
 20
3.950633
 30
0.0
  0
SPLINE
  5
10f
100
AcDbEntity
  8
0
 62
7
100
AcDbSpline
 70
8
 71
3
 72
8
 73
4
 74
0
 40
0
 40
0
 40
0
 40
0
 40
1
 40
1
 40
1
 40
1
 10
7.035448
 20
3.950633
 30
0.0
 10
6.973536
 20
3.801164
 30
0.0
 10
7.007758
 20
3.629116
 30
0.0
 10
7.122157
 20
3.514717
 30
0.0
  0
SPLINE
  5
110
100
AcDbEntity
  8
0
 62
7
100
AcDbSpline
 70
8
 71
3
 72
8
 73
4
 74
0
 40
0
 40
0
 40
0
 40
0
 40
1
 40
1
 40
1
 40
1
 10
7.122157
 20
3.514717
 30
0.0
 10
7.236556
 20
3.400318
 30
0.0
 10
7.408604
 20
3.366096
 30
0.0
 10
7.558073
 20
3.428008
 30
0.0
  0
SPLINE
  5
111
100
AcDbEntity
  8
0
 62
7
100
AcDbSpline
 70
8
 71
3
 72
8
 73
4
 74
0
 40
0
 40
0
 40
0
 40
0
 40
1
 40
1
 40
1
 40
1
 10
7.558073
 20
3.428008
 30
0.0
 10
7.707543
 20
3.489921
 30
0.0
 10
7.805000
 20
3.635775
 30
0.0
 10
7.805000
 20
3.797560
 30
0.0
  0
SPLINE
  5
112
100
AcDbEntity
  8
0
 62
7
100
AcDbSpline
 70
8
 71
3
 72
8
 73
4
 74
0
 40
0
 40
0
 40
0
 40
0
 40
1
 40
1
 40
1
 40
1
 10
7.805000
 20
3.797560
 30
0.0
 10
7.805000
 20
3.903647
 30
0.0
 10
7.762857
 20
4.005388
 30
0.0
 10
7.687843
 20
4.080403
 30
0.0
  0
SPLINE
  5
113
100
AcDbEntity
  8
0
 62
7
100
AcDbSpline
 70
8
 71
3
 72
8
 73
4
 74
0
 40
0
 40
0
 40
0
 40
0
 40
1
 40
1
 40
1
 40
1
 10
7.687843
 20
4.080403
 30
0.0
 10
7.612828
 20
4.155417
 30
0.0
 10
7.511087
 20
4.197560
 30
0.0
 10
7.405000
 20
4.197560
 30
0.0
  0
LWPOLYLINE
  5
114
100
AcDbEntity
  8
0
 62
7
100
AcDbPolyline
 90
2
 70
0
 10
9.590000
 20
12.347560
 30
0.0
 10
9.360000
 20
12.347560
 30
0.0
  0
SPLINE
  5
115
100
AcDbEntity
  8
0
 62
7
100
AcDbSpline
 70
8
 71
3
 72
8
 73
4
 74
0
 40
0
 40
0
 40
0
 40
0
 40
1
 40
1
 40
1
 40
1
 10
0.845000
 20
4.147560
 30
0.0
 10
0.683215
 20
4.147560
 30
0.0
 10
0.537361
 20
4.050103
 30
0.0
 10
0.475448
 20
3.900633
 30
0.0
  0
SPLINE
  5
116
100
AcDbEntity
  8
0
 62
7
100
AcDbSpline
 70
8
 71
3
 72
8
 73
4
 74
0
 40
0
 40
0
 40
0
 40
0
 40
1
 40
1
 40
1
 40
1
 10
0.475448
 20
3.900633
 30
0.0
 10
0.413536
 20
3.751164
 30
0.0
 10
0.447758
 20
3.579116
 30
0.0
 10
0.562157
 20
3.464717
 30
0.0
  0
SPLINE
  5
117
100
AcDbEntity
  8
0
 62
7
100
AcDbSpline
 70
8
 71
3
 72
8
 73
4
 74
0
 40
0
 40
0
 40
0
 40
0
 40
1
 40
1
 40
1
 40
1
 10
0.562157
 20
3.464717
 30
0.0
 10
0.676556
 20
3.350318
 30
0.0
 10
0.848604
 20
3.316096
 30
0.0
 10
0.998073
 20
3.378008
 30
0.0
  0
SPLINE
  5
118
100
AcDbEntity
  8
0
 62
7
100
AcDbSpline
 70
8
 71
3
 72
8
 73
4
 74
0
 40
0
 40
0
 40
0
 40
0
 40
1
 40
1
 40
1
 40
1
 10
0.998073
 20
3.378008
 30
0.0
 10
1.147543
 20
3.439921
 30
0.0
 10
1.245000
 20
3.585775
 30
0.0
 10
1.245000
 20
3.747560
 30
0.0
  0
SPLINE
  5
119
100
AcDbEntity
  8
0
 62
7
100
AcDbSpline
 70
8
 71
3
 72
8
 73
4
 74
0
 40
0
 40
0
 40
0
 40
0
 40
1
 40
1
 40
1
 40
1
 10
1.245000
 20
3.747560
 30
0.0
 10
1.245000
 20
3.853647
 30
0.0
 10
1.202857
 20
3.955388
 30
0.0
 10
1.127843
 20
4.030403
 30
0.0
  0
SPLINE
  5
11a
100
AcDbEntity
  8
0
 62
7
100
AcDbSpline
 70
8
 71
3
 72
8
 73
4
 74
0
 40
0
 40
0
 40
0
 40
0
 40
1
 40
1
 40
1
 40
1
 10
1.127843
 20
4.030403
 30
0.0
 10
1.052828
 20
4.105417
 30
0.0
 10
0.951087
 20
4.147560
 30
0.0
 10
0.845000
 20
4.147560
 30
0.0
  0
LWPOLYLINE
  5
11b
100
AcDbEntity
  8
0
 62
7
100
AcDbPolyline
 90
1
 70
1
 10
7.405000
 20
4.197560
 30
0.0
  0
SPLINE
  5
11c
100
AcDbEntity
  8
0
 62
7
100
AcDbSpline
 70
8
 71
3
 72
8
 73
4
 74
0
 40
0
 40
0
 40
0
 40
0
 40
1
 40
1
 40
1
 40
1
 10
5.095000
 20
2.737560
 30
0.0
 10
4.933215
 20
2.737560
 30
0.0
 10
4.787361
 20
2.640103
 30
0.0
 10
4.725448
 20
2.490633
 30
0.0
  0
SPLINE
  5
11d
100
AcDbEntity
  8
0
 62
7
100
AcDbSpline
 70
8
 71
3
 72
8
 73
4
 74
0
 40
0
 40
0
 40
0
 40
0
 40
1
 40
1
 40
1
 40
1
 10
4.725448
 20
2.490633
 30
0.0
 10
4.663536
 20
2.341164
 30
0.0
 10
4.697758
 20
2.169116
 30
0.0
 10
4.812157
 20
2.054717
 30
0.0
  0
SPLINE
  5
11e
100
AcDbEntity
  8
0
 62
7
100
AcDbSpline
 70
8
 71
3
 72
8
 73
4
 74
0
 40
0
 40
0
 40
0
 40
0
 40
1
 40
1
 40
1
 40
1
 10
4.812157
 20
2.054717
 30
0.0
 10
4.926556
 20
1.940318
 30
0.0
 10
5.098604
 20
1.906096
 30
0.0
 10
5.248073
 20
1.968008
 30
0.0
  0
SPLINE
  5
11f
100
AcDbEntity
  8
0
 62
7
100
AcDbSpline
 70
8
 71
3
 72
8
 73
4
 74
0
 40
0
 40
0
 40
0
 40
0
 40
1
 40
1
 40
1
 40
1
 10
5.248073
 20
1.968008
 30
0.0
 10
5.397543
 20
2.029921
 30
0.0
 10
5.495000
 20
2.175775
 30
0.0
 10
5.495000
 20
2.337560
 30
0.0
  0
SPLINE
  5
120
100
AcDbEntity
  8
0
 62
7
100
AcDbSpline
 70
8
 71
3
 72
8
 73
4
 74
0
 40
0
 40
0
 40
0
 40
0
 40
1
 40
1
 40
1
 40
1
 10
5.495000
 20
2.337560
 30
0.0
 10
5.495000
 20
2.558474
 30
0.0
 10
5.315914
 20
2.737560
 30
0.0
 10
5.095000
 20
2.737560
 30
0.0
  0
LWPOLYLINE
  5
121
100
AcDbEntity
  8
0
 62
7
100
AcDbPolyline
 90
1
 70
1
 10
0.845000
 20
4.147560
 30
0.0
  0
SPLINE
  5
122
100
AcDbEntity
  8
0
 62
7
100
AcDbSpline
 70
8
 71
3
 72
8
 73
4
 74
0
 40
0
 40
0
 40
0
 40
0
 40
1
 40
1
 40
1
 40
1
 10
0.445000
 20
1.957560
 30
0.0
 10
0.372197
 20
1.957560
 30
0.0
 10
0.306562
 20
1.913704
 30
0.0
 10
0.278702
 20
1.846443
 30
0.0
  0
SPLINE
  5
123
100
AcDbEntity
  8
0
 62
7
100
AcDbSpline
 70
8
 71
3
 72
8
 73
4
 74
0
 40
0
 40
0
 40
0
 40
0
 40
1
 40
1
 40
1
 40
1
 10
0.278702
 20
1.846443
 30
0.0
 10
0.250841
 20
1.779182
 30
0.0
 10
0.266241
 20
1.701760
 30
0.0
 10
0.317721
 20
1.650281
 30
0.0
  0
SPLINE
  5
124
100
AcDbEntity
  8
0
 62
7
100
AcDbSpline
 70
8
 71
3
 72
8
 73
4
 74
0
 40
0
 40
0
 40
0
 40
0
 40
1
 40
1
 40
1
 40
1
 10
0.317721
 20
1.650281
 30
0.0
 10
0.369200
 20
1.598801
 30
0.0
 10
0.446622
 20
1.583401
 30
0.0
 10
0.513883
 20
1.611262
 30
0.0
  0
SPLINE
  5
125
100
AcDbEntity
  8
0
 62
7
100
AcDbSpline
 70
8
 71
3
 72
8
 73
4
 74
0
 40
0
 40
0
 40
0
 40
0
 40
1
 40
1
 40
1
 40
1
 10
0.513883
 20
1.611262
 30
0.0
 10
0.581144
 20
1.639122
 30
0.0
 10
0.625000
 20
1.704757
 30
0.0
 10
0.625000
 20
1.777560
 30
0.0
  0
SPLINE
  5
126
100
AcDbEntity
  8
0
 62
7
100
AcDbSpline
 70
8
 71
3
 72
8
 73
4
 74
0
 40
0
 40
0
 40
0
 40
0
 40
1
 40
1
 40
1
 40
1
 10
0.625000
 20
1.777560
 30
0.0
 10
0.625000
 20
1.876971
 30
0.0
 10
0.544411
 20
1.957560
 30
0.0
 10
0.445000
 20
1.957560
 30
0.0
  0
LWPOLYLINE
  5
127
100
AcDbEntity
  8
0
 62
7
100
AcDbPolyline
 90
1
 70
1
 10
5.095000
 20
2.737560
 30
0.0
  0
SPLINE
  5
128
100
AcDbEntity
  8
0
 62
7
100
AcDbSpline
 70
8
 71
3
 72
8
 73
4
 74
0
 40
0
 40
0
 40
0
 40
0
 40
1
 40
1
 40
1
 40
1
 10
8.385000
 20
2.737560
 30
0.0
 10
8.223215
 20
2.737560
 30
0.0
 10
8.077361
 20
2.640103
 30
0.0
 10
8.015448
 20
2.490633
 30
0.0
  0
SPLINE
  5
129
100
AcDbEntity
  8
0
 62
7
100
AcDbSpline
 70
8
 71
3
 72
8
 73
4
 74
0
 40
0
 40
0
 40
0
 40
0
 40
1
 40
1
 40
1
 40
1
 10
8.015448
 20
2.490633
 30
0.0
 10
7.953536
 20
2.341164
 30
0.0
 10
7.987758
 20
2.169116
 30
0.0
 10
8.102157
 20
2.054717
 30
0.0
  0
SPLINE
  5
12a
100
AcDbEntity
  8
0
 62
7
100
AcDbSpline
 70
8
 71
3
 72
8
 73
4
 74
0
 40
0
 40
0
 40
0
 40
0
 40
1
 40
1
 40
1
 40
1
 10
8.102157
 20
2.054717
 30
0.0
 10
8.216556
 20
1.940318
 30
0.0
 10
8.388604
 20
1.906096
 30
0.0
 10
8.538073
 20
1.968008
 30
0.0
  0
SPLINE
  5
12b
100
AcDbEntity
  8
0
 62
7
100
AcDbSpline
 70
8
 71
3
 72
8
 73
4
 74
0
 40
0
 40
0
 40
0
 40
0
 40
1
 40
1
 40
1
 40
1
 10
8.538073
 20
1.968008
 30
0.0
 10
8.687543
 20
2.029921
 30
0.0
 10
8.785000
 20
2.175775
 30
0.0
 10
8.785000
 20
2.337560
 30
0.0
  0
SPLINE
  5
12c
100
AcDbEntity
  8
0
 62
7
100
AcDbSpline
 70
8
 71
3
 72
8
 73
4
 74
0
 40
0
 40
0
 40
0
 40
0
 40
1
 40
1
 40
1
 40
1
 10
8.785000
 20
2.337560
 30
0.0
 10
8.785000
 20
2.443647
 30
0.0
 10
8.742857
 20
2.545388
 30
0.0
 10
8.667843
 20
2.620403
 30
0.0
  0
SPLINE
  5
12d
100
AcDbEntity
  8
0
 62
7
100
AcDbSpline
 70
8
 71
3
 72
8
 73
4
 74
0
 40
0
 40
0
 40
0
 40
0
 40
1
 40
1
 40
1
 40
1
 10
8.667843
 20
2.620403
 30
0.0
 10
8.592828
 20
2.695417
 30
0.0
 10
8.491087
 20
2.737560
 30
0.0
 10
8.385000
 20
2.737560
 30
0.0
  0
LWPOLYLINE
  5
12e
100
AcDbEntity
  8
0
 62
7
100
AcDbPolyline
 90
1
 70
1
 10
0.445000
 20
1.957560
 30
0.0
  0
SPLINE
  5
12f
100
AcDbEntity
  8
0
 62
7
100
AcDbSpline
 70
8
 71
3
 72
8
 73
4
 74
0
 40
0
 40
0
 40
0
 40
0
 40
1
 40
1
 40
1
 40
1
 10
9.365000
 20
4.197560
 30
0.0
 10
9.203215
 20
4.197560
 30
0.0
 10
9.057361
 20
4.100103
 30
0.0
 10
8.995448
 20
3.950633
 30
0.0
  0
SPLINE
  5
130
100
AcDbEntity
  8
0
 62
7
100
AcDbSpline
 70
8
 71
3
 72
8
 73
4
 74
0
 40
0
 40
0
 40
0
 40
0
 40
1
 40
1
 40
1
 40
1
 10
8.995448
 20
3.950633
 30
0.0
 10
8.933536
 20
3.801164
 30
0.0
 10
8.967758
 20
3.629116
 30
0.0
 10
9.082157
 20
3.514717
 30
0.0
  0
SPLINE
  5
131
100
AcDbEntity
  8
0
 62
7
100
AcDbSpline
 70
8
 71
3
 72
8
 73
4
 74
0
 40
0
 40
0
 40
0
 40
0
 40
1
 40
1
 40
1
 40
1
 10
9.082157
 20
3.514717
 30
0.0
 10
9.196556
 20
3.400318
 30
0.0
 10
9.368604
 20
3.366096
 30
0.0
 10
9.518073
 20
3.428008
 30
0.0
  0
SPLINE
  5
132
100
AcDbEntity
  8
0
 62
7
100
AcDbSpline
 70
8
 71
3
 72
8
 73
4
 74
0
 40
0
 40
0
 40
0
 40
0
 40
1
 40
1
 40
1
 40
1
 10
9.518073
 20
3.428008
 30
0.0
 10
9.667543
 20
3.489921
 30
0.0
 10
9.765000
 20
3.635775
 30
0.0
 10
9.765000
 20
3.797560
 30
0.0
  0
SPLINE
  5
133
100
AcDbEntity
  8
0
 62
7
100
AcDbSpline
 70
8
 71
3
 72
8
 73
4
 74
0
 40
0
 40
0
 40
0
 40
0
 40
1
 40
1
 40
1
 40
1
 10
9.765000
 20
3.797560
 30
0.0
 10
9.765000
 20
4.018474
 30
0.0
 10
9.585914
 20
4.197560
 30
0.0
 10
9.365000
 20
4.197560
 30
0.0
  0
LWPOLYLINE
  5
134
100
AcDbEntity
  8
0
 62
7
100
AcDbPolyline
 90
1
 70
1
 10
8.385000
 20
2.737560
 30
0.0
  0
LWPOLYLINE
  5
135
100
AcDbEntity
  8
0
 62
7
100
AcDbPolyline
 90
1
 70
1
 10
9.365000
 20
4.197560
 30
0.0
  0
SPLINE
  5
136
100
AcDbEntity
  8
0
 62
7
100
AcDbSpline
 70
8
 71
3
 72
8
 73
4
 74
0
 40
0
 40
0
 40
0
 40
0
 40
1
 40
1
 40
1
 40
1
 10
7.245000
 20
2.557560
 30
0.0
 10
7.083215
 20
2.557560
 30
0.0
 10
6.937361
 20
2.460103
 30
0.0
 10
6.875448
 20
2.310633
 30
0.0
  0
SPLINE
  5
137
100
AcDbEntity
  8
0
 62
7
100
AcDbSpline
 70
8
 71
3
 72
8
 73
4
 74
0
 40
0
 40
0
 40
0
 40
0
 40
1
 40
1
 40
1
 40
1
 10
6.875448
 20
2.310633
 30
0.0
 10
6.813536
 20
2.161164
 30
0.0
 10
6.847758
 20
1.989116
 30
0.0
 10
6.962157
 20
1.874717
 30
0.0
  0
SPLINE
  5
138
100
AcDbEntity
  8
0
 62
7
100
AcDbSpline
 70
8
 71
3
 72
8
 73
4
 74
0
 40
0
 40
0
 40
0
 40
0
 40
1
 40
1
 40
1
 40
1
 10
6.962157
 20
1.874717
 30
0.0
 10
7.076556
 20
1.760318
 30
0.0
 10
7.248604
 20
1.726096
 30
0.0
 10
7.398073
 20
1.788008
 30
0.0
  0
SPLINE
  5
139
100
AcDbEntity
  8
0
 62
7
100
AcDbSpline
 70
8
 71
3
 72
8
 73
4
 74
0
 40
0
 40
0
 40
0
 40
0
 40
1
 40
1
 40
1
 40
1
 10
7.398073
 20
1.788008
 30
0.0
 10
7.547543
 20
1.849921
 30
0.0
 10
7.645000
 20
1.995775
 30
0.0
 10
7.645000
 20
2.157560
 30
0.0
  0
SPLINE
  5
13a
100
AcDbEntity
  8
0
 62
7
100
AcDbSpline
 70
8
 71
3
 72
8
 73
4
 74
0
 40
0
 40
0
 40
0
 40
0
 40
1
 40
1
 40
1
 40
1
 10
7.645000
 20
2.157560
 30
0.0
 10
7.645000
 20
2.263647
 30
0.0
 10
7.602857
 20
2.365388
 30
0.0
 10
7.527843
 20
2.440403
 30
0.0
  0
SPLINE
  5
13b
100
AcDbEntity
  8
0
 62
7
100
AcDbSpline
 70
8
 71
3
 72
8
 73
4
 74
0
 40
0
 40
0
 40
0
 40
0
 40
1
 40
1
 40
1
 40
1
 10
7.527843
 20
2.440403
 30
0.0
 10
7.452828
 20
2.515417
 30
0.0
 10
7.351087
 20
2.557560
 30
0.0
 10
7.245000
 20
2.557560
 30
0.0
  0
LWPOLYLINE
  5
13c
100
AcDbEntity
  8
0
 62
7
100
AcDbPolyline
 90
2
 70
0
 10
9.520000
 20
5.717560
 30
0.0
 10
9.520000
 20
4.387560
 30
0.0
  0
SPLINE
  5
13d
100
AcDbEntity
  8
0
 62
7
100
AcDbSpline
 70
8
 71
3
 72
8
 73
4
 74
0
 40
0
 40
0
 40
0
 40
0
 40
1
 40
1
 40
1
 40
1
 10
1.915000
 20
7.927560
 30
0.0
 10
1.753215
 20
7.927560
 30
0.0
 10
1.607361
 20
7.830103
 30
0.0
 10
1.545448
 20
7.680633
 30
0.0
  0
SPLINE
  5
13e
100
AcDbEntity
  8
0
 62
7
100
AcDbSpline
 70
8
 71
3
 72
8
 73
4
 74
0
 40
0
 40
0
 40
0
 40
0
 40
1
 40
1
 40
1
 40
1
 10
1.545448
 20
7.680633
 30
0.0
 10
1.483536
 20
7.531164
 30
0.0
 10
1.517758
 20
7.359116
 30
0.0
 10
1.632157
 20
7.244717
 30
0.0
  0
SPLINE
  5
13f
100
AcDbEntity
  8
0
 62
7
100
AcDbSpline
 70
8
 71
3
 72
8
 73
4
 74
0
 40
0
 40
0
 40
0
 40
0
 40
1
 40
1
 40
1
 40
1
 10
1.632157
 20
7.244717
 30
0.0
 10
1.746556
 20
7.130318
 30
0.0
 10
1.918604
 20
7.096096
 30
0.0
 10
2.068073
 20
7.158008
 30
0.0
  0
SPLINE
  5
140
100
AcDbEntity
  8
0
 62
7
100
AcDbSpline
 70
8
 71
3
 72
8
 73
4
 74
0
 40
0
 40
0
 40
0
 40
0
 40
1
 40
1
 40
1
 40
1
 10
2.068073
 20
7.158008
 30
0.0
 10
2.217543
 20
7.219921
 30
0.0
 10
2.315000
 20
7.365775
 30
0.0
 10
2.315000
 20
7.527560
 30
0.0
  0
SPLINE
  5
141
100
AcDbEntity
  8
0
 62
7
100
AcDbSpline
 70
8
 71
3
 72
8
 73
4
 74
0
 40
0
 40
0
 40
0
 40
0
 40
1
 40
1
 40
1
 40
1
 10
2.315000
 20
7.527560
 30
0.0
 10
2.315000
 20
7.633647
 30
0.0
 10
2.272857
 20
7.735388
 30
0.0
 10
2.197843
 20
7.810403
 30
0.0
  0
SPLINE
  5
142
100
AcDbEntity
  8
0
 62
7
100
AcDbSpline
 70
8
 71
3
 72
8
 73
4
 74
0
 40
0
 40
0
 40
0
 40
0
 40
1
 40
1
 40
1
 40
1
 10
2.197843
 20
7.810403
 30
0.0
 10
2.122828
 20
7.885417
 30
0.0
 10
2.021087
 20
7.927560
 30
0.0
 10
1.915000
 20
7.927560
 30
0.0
  0
LWPOLYLINE
  5
143
100
AcDbEntity
  8
0
 62
7
100
AcDbPolyline
 90
1
 70
1
 10
7.245000
 20
2.557560
 30
0.0
  0
LWPOLYLINE
  5
144
100
AcDbEntity
  8
0
 62
7
100
AcDbPolyline
 90
1
 70
1
 10
1.915000
 20
7.927560
 30
0.0
  0
SPLINE
  5
145
100
AcDbEntity
  8
0
 62
7
100
AcDbSpline
 70
8
 71
3
 72
8
 73
4
 74
0
 40
0
 40
0
 40
0
 40
0
 40
1
 40
1
 40
1
 40
1
 10
1.875000
 20
2.737560
 30
0.0
 10
1.713215
 20
2.737560
 30
0.0
 10
1.567361
 20
2.640103
 30
0.0
 10
1.505448
 20
2.490633
 30
0.0
  0
SPLINE
  5
146
100
AcDbEntity
  8
0
 62
7
100
AcDbSpline
 70
8
 71
3
 72
8
 73
4
 74
0
 40
0
 40
0
 40
0
 40
0
 40
1
 40
1
 40
1
 40
1
 10
1.505448
 20
2.490633
 30
0.0
 10
1.443536
 20
2.341164
 30
0.0
 10
1.477758
 20
2.169116
 30
0.0
 10
1.592157
 20
2.054717
 30
0.0
  0
SPLINE
  5
147
100
AcDbEntity
  8
0
 62
7
100
AcDbSpline
 70
8
 71
3
 72
8
 73
4
 74
0
 40
0
 40
0
 40
0
 40
0
 40
1
 40
1
 40
1
 40
1
 10
1.592157
 20
2.054717
 30
0.0
 10
1.706556
 20
1.940318
 30
0.0
 10
1.878604
 20
1.906096
 30
0.0
 10
2.028073
 20
1.968008
 30
0.0
  0
SPLINE
  5
148
100
AcDbEntity
  8
0
 62
7
100
AcDbSpline
 70
8
 71
3
 72
8
 73
4
 74
0
 40
0
 40
0
 40
0
 40
0
 40
1
 40
1
 40
1
 40
1
 10
2.028073
 20
1.968008
 30
0.0
 10
2.177543
 20
2.029921
 30
0.0
 10
2.275000
 20
2.175775
 30
0.0
 10
2.275000
 20
2.337560
 30
0.0
  0
SPLINE
  5
149
100
AcDbEntity
  8
0
 62
7
100
AcDbSpline
 70
8
 71
3
 72
8
 73
4
 74
0
 40
0
 40
0
 40
0
 40
0
 40
1
 40
1
 40
1
 40
1
 10
2.275000
 20
2.337560
 30
0.0
 10
2.275000
 20
2.443647
 30
0.0
 10
2.232857
 20
2.545388
 30
0.0
 10
2.157843
 20
2.620403
 30
0.0
  0
SPLINE
  5
14a
100
AcDbEntity
  8
0
 62
7
100
AcDbSpline
 70
8
 71
3
 72
8
 73
4
 74
0
 40
0
 40
0
 40
0
 40
0
 40
1
 40
1
 40
1
 40
1
 10
2.157843
 20
2.620403
 30
0.0
 10
2.082828
 20
2.695417
 30
0.0
 10
1.981087
 20
2.737560
 30
0.0
 10
1.875000
 20
2.737560
 30
0.0
  0
LWPOLYLINE
  5
14b
100
AcDbEntity
  8
0
 62
7
100
AcDbPolyline
 90
2
 70
0
 10
10.175000
 20
4.387560
 30
0.0
 10
10.175000
 20
0.002560
 30
0.0
  0
SPLINE
  5
14c
100
AcDbEntity
  8
0
 62
7
100
AcDbSpline
 70
8
 71
3
 72
8
 73
4
 74
0
 40
0
 40
0
 40
0
 40
0
 40
1
 40
1
 40
1
 40
1
 10
9.745000
 20
1.957560
 30
0.0
 10
9.672197
 20
1.957560
 30
0.0
 10
9.606562
 20
1.913704
 30
0.0
 10
9.578702
 20
1.846443
 30
0.0
  0
SPLINE
  5
14d
100
AcDbEntity
  8
0
 62
7
100
AcDbSpline
 70
8
 71
3
 72
8
 73
4
 74
0
 40
0
 40
0
 40
0
 40
0
 40
1
 40
1
 40
1
 40
1
 10
9.578702
 20
1.846443
 30
0.0
 10
9.550841
 20
1.779182
 30
0.0
 10
9.566241
 20
1.701760
 30
0.0
 10
9.617721
 20
1.650281
 30
0.0
  0
SPLINE
  5
14e
100
AcDbEntity
  8
0
 62
7
100
AcDbSpline
 70
8
 71
3
 72
8
 73
4
 74
0
 40
0
 40
0
 40
0
 40
0
 40
1
 40
1
 40
1
 40
1
 10
9.617721
 20
1.650281
 30
0.0
 10
9.669200
 20
1.598801
 30
0.0
 10
9.746622
 20
1.583401
 30
0.0
 10
9.813883
 20
1.611262
 30
0.0
  0
SPLINE
  5
14f
100
AcDbEntity
  8
0
 62
7
100
AcDbSpline
 70
8
 71
3
 72
8
 73
4
 74
0
 40
0
 40
0
 40
0
 40
0
 40
1
 40
1
 40
1
 40
1
 10
9.813883
 20
1.611262
 30
0.0
 10
9.881144
 20
1.639122
 30
0.0
 10
9.925000
 20
1.704757
 30
0.0
 10
9.925000
 20
1.777560
 30
0.0
  0
SPLINE
  5
150
100
AcDbEntity
  8
0
 62
7
100
AcDbSpline
 70
8
 71
3
 72
8
 73
4
 74
0
 40
0
 40
0
 40
0
 40
0
 40
1
 40
1
 40
1
 40
1
 10
9.925000
 20
1.777560
 30
0.0
 10
9.925000
 20
1.825299
 30
0.0
 10
9.906036
 20
1.871083
 30
0.0
 10
9.872279
 20
1.904839
 30
0.0
  0
SPLINE
  5
151
100
AcDbEntity
  8
0
 62
7
100
AcDbSpline
 70
8
 71
3
 72
8
 73
4
 74
0
 40
0
 40
0
 40
0
 40
0
 40
1
 40
1
 40
1
 40
1
 10
9.872279
 20
1.904839
 30
0.0
 10
9.838523
 20
1.938596
 30
0.0
 10
9.792739
 20
1.957560
 30
0.0
 10
9.745000
 20
1.957560
 30
0.0
  0
LWPOLYLINE
  5
152
100
AcDbEntity
  8
0
 62
7
100
AcDbPolyline
 90
1
 70
1
 10
1.875000
 20
2.737560
 30
0.0
  0
SPLINE
  5
153
100
AcDbEntity
  8
0
 62
7
100
AcDbSpline
 70
8
 71
3
 72
8
 73
4
 74
0
 40
0
 40
0
 40
0
 40
0
 40
1
 40
1
 40
1
 40
1
 10
2.935000
 20
4.147560
 30
0.0
 10
2.714086
 20
4.147560
 30
0.0
 10
2.535000
 20
3.968474
 30
0.0
 10
2.535000
 20
3.747560
 30
0.0
  0
SPLINE
  5
154
100
AcDbEntity
  8
0
 62
7
100
AcDbSpline
 70
8
 71
3
 72
8
 73
4
 74
0
 40
0
 40
0
 40
0
 40
0
 40
1
 40
1
 40
1
 40
1
 10
2.535000
 20
3.747560
 30
0.0
 10
2.535000
 20
3.526646
 30
0.0
 10
2.714086
 20
3.347560
 30
0.0
 10
2.935000
 20
3.347560
 30
0.0
  0
SPLINE
  5
155
100
AcDbEntity
  8
0
 62
7
100
AcDbSpline
 70
8
 71
3
 72
8
 73
4
 74
0
 40
0
 40
0
 40
0
 40
0
 40
1
 40
1
 40
1
 40
1
 10
2.935000
 20
3.347560
 30
0.0
 10
3.155914
 20
3.347560
 30
0.0
 10
3.335000
 20
3.526646
 30
0.0
 10
3.335000
 20
3.747560
 30
0.0
  0
SPLINE
  5
156
100
AcDbEntity
  8
0
 62
7
100
AcDbSpline
 70
8
 71
3
 72
8
 73
4
 74
0
 40
0
 40
0
 40
0
 40
0
 40
1
 40
1
 40
1
 40
1
 10
3.335000
 20
3.747560
 30
0.0
 10
3.335000
 20
3.853647
 30
0.0
 10
3.292857
 20
3.955388
 30
0.0
 10
3.217843
 20
4.030403
 30
0.0
  0
SPLINE
  5
157
100
AcDbEntity
  8
0
 62
7
100
AcDbSpline
 70
8
 71
3
 72
8
 73
4
 74
0
 40
0
 40
0
 40
0
 40
0
 40
1
 40
1
 40
1
 40
1
 10
3.217843
 20
4.030403
 30
0.0
 10
3.142828
 20
4.105417
 30
0.0
 10
3.041087
 20
4.147560
 30
0.0
 10
2.935000
 20
4.147560
 30
0.0
  0
LWPOLYLINE
  5
158
100
AcDbEntity
  8
0
 62
7
100
AcDbPolyline
 90
1
 70
1
 10
9.745000
 20
1.957560
 30
0.0
  0
LWPOLYLINE
  5
159
100
AcDbEntity
  8
0
 62
7
100
AcDbPolyline
 90
1
 70
1
 10
2.935000
 20
4.147560
 30
0.0
  0
LWPOLYLINE
  5
15a
100
AcDbEntity
  8
0
 62
7
100
AcDbPolyline
 90
2
 70
0
 10
0.005000
 20
4.377560
 30
0.0
 10
0.010000
 20
0.002560
 30
0.0
  0
LWPOLYLINE
  5
15b
100
AcDbEntity
  8
0
 62
7
100
AcDbPolyline
 90
2
 70
0
 10
0.735000
 20
5.707560
 30
0.0
 10
0.735000
 20
4.377560
 30
0.0
  0
SPLINE
  5
15c
100
AcDbEntity
  8
0
 62
7
100
AcDbSpline
 70
8
 71
3
 72
8
 73
4
 74
0
 40
0
 40
0
 40
0
 40
0
 40
1
 40
1
 40
1
 40
1
 10
9.590000
 20
12.347560
 30
0.0
 10
9.647162
 20
12.347560
 30
0.0
 10
9.699983
 20
12.378056
 30
0.0
 10
9.728564
 20
12.427560
 30
0.0
  0
SPLINE
  5
15d
100
AcDbEntity
  8
0
 62
7
100
AcDbSpline
 70
8
 71
3
 72
8
 73
4
 74
0
 40
0
 40
0
 40
0
 40
0
 40
1
 40
1
 40
1
 40
1
 10
9.728564
 20
12.427560
 30
0.0
 10
9.757145
 20
12.477064
 30
0.0
 10
9.757145
 20
12.538056
 30
0.0
 10
9.728564
 20
12.587560
 30
0.0
  0
SPLINE
  5
15e
100
AcDbEntity
  8
0
 62
7
100
AcDbSpline
 70
8
 71
3
 72
8
 73
4
 74
0
 40
0
 40
0
 40
0
 40
0
 40
1
 40
1
 40
1
 40
1
 10
9.728564
 20
12.587560
 30
0.0
 10
9.699983
 20
12.637064
 30
0.0
 10
9.647162
 20
12.667560
 30
0.0
 10
9.590000
 20
12.667560
 30
0.0
  0
LWPOLYLINE
  5
15f
100
AcDbEntity
  8
0
 62
7
100
AcDbPolyline
 90
2
 70
0
 10
0.005000
 20
5.707560
 30
0.0
 10
0.735000
 20
5.707560
 30
0.0
  0
SPLINE
  5
160
100
AcDbEntity
  8
0
 62
7
100
AcDbSpline
 70
8
 71
3
 72
8
 73
4
 74
0
 40
0
 40
0
 40
0
 40
0
 40
1
 40
1
 40
1
 40
1
 10
9.745000
 20
11.257560
 30
0.0
 10
9.672197
 20
11.257560
 30
0.0
 10
9.606562
 20
11.213704
 30
0.0
 10
9.578702
 20
11.146443
 30
0.0
  0
SPLINE
  5
161
100
AcDbEntity
  8
0
 62
7
100
AcDbSpline
 70
8
 71
3
 72
8
 73
4
 74
0
 40
0
 40
0
 40
0
 40
0
 40
1
 40
1
 40
1
 40
1
 10
9.578702
 20
11.146443
 30
0.0
 10
9.550841
 20
11.079182
 30
0.0
 10
9.566241
 20
11.001760
 30
0.0
 10
9.617721
 20
10.950281
 30
0.0
  0
SPLINE
  5
162
100
AcDbEntity
  8
0
 62
7
100
AcDbSpline
 70
8
 71
3
 72
8
 73
4
 74
0
 40
0
 40
0
 40
0
 40
0
 40
1
 40
1
 40
1
 40
1
 10
9.617721
 20
10.950281
 30
0.0
 10
9.669200
 20
10.898801
 30
0.0
 10
9.746622
 20
10.883401
 30
0.0
 10
9.813883
 20
10.911262
 30
0.0
  0
SPLINE
  5
163
100
AcDbEntity
  8
0
 62
7
100
AcDbSpline
 70
8
 71
3
 72
8
 73
4
 74
0
 40
0
 40
0
 40
0
 40
0
 40
1
 40
1
 40
1
 40
1
 10
9.813883
 20
10.911262
 30
0.0
 10
9.881144
 20
10.939122
 30
0.0
 10
9.925000
 20
11.004757
 30
0.0
 10
9.925000
 20
11.077560
 30
0.0
  0
SPLINE
  5
164
100
AcDbEntity
  8
0
 62
7
100
AcDbSpline
 70
8
 71
3
 72
8
 73
4
 74
0
 40
0
 40
0
 40
0
 40
0
 40
1
 40
1
 40
1
 40
1
 10
9.925000
 20
11.077560
 30
0.0
 10
9.925000
 20
11.125299
 30
0.0
 10
9.906036
 20
11.171083
 30
0.0
 10
9.872279
 20
11.204839
 30
0.0
  0
SPLINE
  5
165
100
AcDbEntity
  8
0
 62
7
100
AcDbSpline
 70
8
 71
3
 72
8
 73
4
 74
0
 40
0
 40
0
 40
0
 40
0
 40
1
 40
1
 40
1
 40
1
 10
9.872279
 20
11.204839
 30
0.0
 10
9.838523
 20
11.238596
 30
0.0
 10
9.792739
 20
11.257560
 30
0.0
 10
9.745000
 20
11.257560
 30
0.0
  0
LWPOLYLINE
  5
166
100
AcDbEntity
  8
0
 62
7
100
AcDbPolyline
 90
2
 70
0
 10
0.010000
 20
12.860060
 30
0.0
 10
10.175000
 20
12.859337
 30
0.0
  0
SPLINE
  5
167
100
AcDbEntity
  8
0
 62
7
100
AcDbSpline
 70
8
 71
3
 72
8
 73
4
 74
0
 40
0
 40
0
 40
0
 40
0
 40
1
 40
1
 40
1
 40
1
 10
0.825000
 20
12.352560
 30
0.0
 10
0.882162
 20
12.352560
 30
0.0
 10
0.934983
 20
12.383056
 30
0.0
 10
0.963564
 20
12.432560
 30
0.0
  0
SPLINE
  5
168
100
AcDbEntity
  8
0
 62
7
100
AcDbSpline
 70
8
 71
3
 72
8
 73
4
 74
0
 40
0
 40
0
 40
0
 40
0
 40
1
 40
1
 40
1
 40
1
 10
0.963564
 20
12.432560
 30
0.0
 10
0.992145
 20
12.482064
 30
0.0
 10
0.992145
 20
12.543056
 30
0.0
 10
0.963564
 20
12.592560
 30
0.0
  0
SPLINE
  5
169
100
AcDbEntity
  8
0
 62
7
100
AcDbSpline
 70
8
 71
3
 72
8
 73
4
 74
0
 40
0
 40
0
 40
0
 40
0
 40
1
 40
1
 40
1
 40
1
 10
0.963564
 20
12.592560
 30
0.0
 10
0.934983
 20
12.642064
 30
0.0
 10
0.882162
 20
12.672560
 30
0.0
 10
0.825000
 20
12.672560
 30
0.0
  0
LWPOLYLINE
  5
16a
100
AcDbEntity
  8
0
 62
7
100
AcDbPolyline
 90
1
 70
1
 10
9.745000
 20
11.257560
 30
0.0
  0
SPLINE
  5
16b
100
AcDbEntity
  8
0
 62
7
100
AcDbSpline
 70
8
 71
3
 72
8
 73
4
 74
0
 40
0
 40
0
 40
0
 40
0
 40
1
 40
1
 40
1
 40
1
 10
8.265000
 20
7.957560
 30
0.0
 10
8.103215
 20
7.957560
 30
0.0
 10
7.957361
 20
7.860103
 30
0.0
 10
7.895448
 20
7.710633
 30
0.0
  0
SPLINE
  5
16c
100
AcDbEntity
  8
0
 62
7
100
AcDbSpline
 70
8
 71
3
 72
8
 73
4
 74
0
 40
0
 40
0
 40
0
 40
0
 40
1
 40
1
 40
1
 40
1
 10
7.895448
 20
7.710633
 30
0.0
 10
7.833536
 20
7.561164
 30
0.0
 10
7.867758
 20
7.389116
 30
0.0
 10
7.982157
 20
7.274717
 30
0.0
  0
SPLINE
  5
16d
100
AcDbEntity
  8
0
 62
7
100
AcDbSpline
 70
8
 71
3
 72
8
 73
4
 74
0
 40
0
 40
0
 40
0
 40
0
 40
1
 40
1
 40
1
 40
1
 10
7.982157
 20
7.274717
 30
0.0
 10
8.096556
 20
7.160318
 30
0.0
 10
8.268604
 20
7.126096
 30
0.0
 10
8.418073
 20
7.188008
 30
0.0
  0
SPLINE
  5
16e
100
AcDbEntity
  8
0
 62
7
100
AcDbSpline
 70
8
 71
3
 72
8
 73
4
 74
0
 40
0
 40
0
 40
0
 40
0
 40
1
 40
1
 40
1
 40
1
 10
8.418073
 20
7.188008
 30
0.0
 10
8.567543
 20
7.249921
 30
0.0
 10
8.665000
 20
7.395775
 30
0.0
 10
8.665000
 20
7.557560
 30
0.0
  0
SPLINE
  5
16f
100
AcDbEntity
  8
0
 62
7
100
AcDbSpline
 70
8
 71
3
 72
8
 73
4
 74
0
 40
0
 40
0
 40
0
 40
0
 40
1
 40
1
 40
1
 40
1
 10
8.665000
 20
7.557560
 30
0.0
 10
8.665000
 20
7.778474
 30
0.0
 10
8.485914
 20
7.957560
 30
0.0
 10
8.265000
 20
7.957560
 30
0.0
  0
LWPOLYLINE
  5
170
100
AcDbEntity
  8
0
 62
7
100
AcDbPolyline
 90
2
 70
0
 10
10.175000
 20
5.717560
 30
0.0
 10
9.520000
 20
5.717560
 30
0.0
  0
SPLINE
  5
171
100
AcDbEntity
  8
0
 62
7
100
AcDbSpline
 70
8
 71
3
 72
8
 73
4
 74
0
 40
0
 40
0
 40
0
 40
0
 40
1
 40
1
 40
1
 40
1
 10
3.415000
 20
11.147560
 30
0.0
 10
3.253215
 20
11.147560
 30
0.0
 10
3.107361
 20
11.050103
 30
0.0
 10
3.045448
 20
10.900633
 30
0.0
  0
SPLINE
  5
172
100
AcDbEntity
  8
0
 62
7
100
AcDbSpline
 70
8
 71
3
 72
8
 73
4
 74
0
 40
0
 40
0
 40
0
 40
0
 40
1
 40
1
 40
1
 40
1
 10
3.045448
 20
10.900633
 30
0.0
 10
2.983536
 20
10.751164
 30
0.0
 10
3.017758
 20
10.579116
 30
0.0
 10
3.132157
 20
10.464717
 30
0.0
  0
SPLINE
  5
173
100
AcDbEntity
  8
0
 62
7
100
AcDbSpline
 70
8
 71
3
 72
8
 73
4
 74
0
 40
0
 40
0
 40
0
 40
0
 40
1
 40
1
 40
1
 40
1
 10
3.132157
 20
10.464717
 30
0.0
 10
3.246556
 20
10.350318
 30
0.0
 10
3.418604
 20
10.316096
 30
0.0
 10
3.568073
 20
10.378008
 30
0.0
  0
SPLINE
  5
174
100
AcDbEntity
  8
0
 62
7
100
AcDbSpline
 70
8
 71
3
 72
8
 73
4
 74
0
 40
0
 40
0
 40
0
 40
0
 40
1
 40
1
 40
1
 40
1
 10
3.568073
 20
10.378008
 30
0.0
 10
3.717543
 20
10.439921
 30
0.0
 10
3.815000
 20
10.585775
 30
0.0
 10
3.815000
 20
10.747560
 30
0.0
  0
SPLINE
  5
175
100
AcDbEntity
  8
0
 62
7
100
AcDbSpline
 70
8
 71
3
 72
8
 73
4
 74
0
 40
0
 40
0
 40
0
 40
0
 40
1
 40
1
 40
1
 40
1
 10
3.815000
 20
10.747560
 30
0.0
 10
3.815000
 20
10.853647
 30
0.0
 10
3.772857
 20
10.955388
 30
0.0
 10
3.697843
 20
11.030403
 30
0.0
  0
SPLINE
  5
176
100
AcDbEntity
  8
0
 62
7
100
AcDbSpline
 70
8
 71
3
 72
8
 73
4
 74
0
 40
0
 40
0
 40
0
 40
0
 40
1
 40
1
 40
1
 40
1
 10
3.697843
 20
11.030403
 30
0.0
 10
3.622828
 20
11.105417
 30
0.0
 10
3.521087
 20
11.147560
 30
0.0
 10
3.415000
 20
11.147560
 30
0.0
  0
LWPOLYLINE
  5
177
100
AcDbEntity
  8
0
 62
7
100
AcDbPolyline
 90
1
 70
1
 10
8.265000
 20
7.957560
 30
0.0
  0
SPLINE
  5
178
100
AcDbEntity
  8
0
 62
7
100
AcDbSpline
 70
8
 71
3
 72
8
 73
4
 74
0
 40
0
 40
0
 40
0
 40
0
 40
1
 40
1
 40
1
 40
1
 10
0.445000
 20
11.257560
 30
0.0
 10
0.372197
 20
11.257560
 30
0.0
 10
0.306562
 20
11.213704
 30
0.0
 10
0.278702
 20
11.146443
 30
0.0
  0
SPLINE
  5
179
100
AcDbEntity
  8
0
 62
7
100
AcDbSpline
 70
8
 71
3
 72
8
 73
4
 74
0
 40
0
 40
0
 40
0
 40
0
 40
1
 40
1
 40
1
 40
1
 10
0.278702
 20
11.146443
 30
0.0
 10
0.250841
 20
11.079182
 30
0.0
 10
0.266241
 20
11.001760
 30
0.0
 10
0.317721
 20
10.950281
 30
0.0
  0
SPLINE
  5
17a
100
AcDbEntity
  8
0
 62
7
100
AcDbSpline
 70
8
 71
3
 72
8
 73
4
 74
0
 40
0
 40
0
 40
0
 40
0
 40
1
 40
1
 40
1
 40
1
 10
0.317721
 20
10.950281
 30
0.0
 10
0.369200
 20
10.898801
 30
0.0
 10
0.446622
 20
10.883401
 30
0.0
 10
0.513883
 20
10.911262
 30
0.0
  0
SPLINE
  5
17b
100
AcDbEntity
  8
0
 62
7
100
AcDbSpline
 70
8
 71
3
 72
8
 73
4
 74
0
 40
0
 40
0
 40
0
 40
0
 40
1
 40
1
 40
1
 40
1
 10
0.513883
 20
10.911262
 30
0.0
 10
0.581144
 20
10.939122
 30
0.0
 10
0.625000
 20
11.004757
 30
0.0
 10
0.625000
 20
11.077560
 30
0.0
  0
SPLINE
  5
17c
100
AcDbEntity
  8
0
 62
7
100
AcDbSpline
 70
8
 71
3
 72
8
 73
4
 74
0
 40
0
 40
0
 40
0
 40
0
 40
1
 40
1
 40
1
 40
1
 10
0.625000
 20
11.077560
 30
0.0
 10
0.625000
 20
11.176971
 30
0.0
 10
0.544411
 20
11.257560
 30
0.0
 10
0.445000
 20
11.257560
 30
0.0
  0
LWPOLYLINE
  5
17d
100
AcDbEntity
  8
0
 62
7
100
AcDbPolyline
 90
1
 70
1
 10
3.415000
 20
11.147560
 30
0.0
  0
LWPOLYLINE
  5
17e
100
AcDbEntity
  8
0
 62
7
100
AcDbPolyline
 90
1
 70
1
 10
0.445000
 20
11.257560
 30
0.0
  0
LWPOLYLINE
  5
17f
100
AcDbEntity
  8
0
 62
7
100
AcDbPolyline
 90
2
 70
0
 10
0.735000
 20
4.377560
 30
0.0
 10
0.005000
 20
4.377560
 30
0.0
  0
SPLINE
  5
180
100
AcDbEntity
  8
0
 62
7
100
AcDbSpline
 70
8
 71
3
 72
8
 73
4
 74
0
 40
0
 40
0
 40
0
 40
0
 40
1
 40
1
 40
1
 40
1
 10
0.825000
 20
0.197560
 30
0.0
 10
0.882162
 20
0.197560
 30
0.0
 10
0.934983
 20
0.228056
 30
0.0
 10
0.963564
 20
0.277560
 30
0.0
  0
SPLINE
  5
181
100
AcDbEntity
  8
0
 62
7
100
AcDbSpline
 70
8
 71
3
 72
8
 73
4
 74
0
 40
0
 40
0
 40
0
 40
0
 40
1
 40
1
 40
1
 40
1
 10
0.963564
 20
0.277560
 30
0.0
 10
0.992145
 20
0.327064
 30
0.0
 10
0.992145
 20
0.388056
 30
0.0
 10
0.963564
 20
0.437560
 30
0.0
  0
SPLINE
  5
182
100
AcDbEntity
  8
0
 62
7
100
AcDbSpline
 70
8
 71
3
 72
8
 73
4
 74
0
 40
0
 40
0
 40
0
 40
0
 40
1
 40
1
 40
1
 40
1
 10
0.963564
 20
0.437560
 30
0.0
 10
0.934983
 20
0.487064
 30
0.0
 10
0.882162
 20
0.517560
 30
0.0
 10
0.825000
 20
0.517560
 30
0.0
  0
LWPOLYLINE
  5
183
100
AcDbEntity
  8
0
 62
7
100
AcDbPolyline
 90
2
 70
0
 10
0.825000
 20
12.352560
 30
0.0
 10
0.595000
 20
12.352560
 30
0.0
  0
SPLINE
  5
184
100
AcDbEntity
  8
0
 62
7
100
AcDbSpline
 70
8
 71
3
 72
8
 73
4
 74
0
 40
0
 40
0
 40
0
 40
0
 40
1
 40
1
 40
1
 40
1
 10
9.590000
 20
0.192560
 30
0.0
 10
9.647162
 20
0.192560
 30
0.0
 10
9.699983
 20
0.223056
 30
0.0
 10
9.728564
 20
0.272560
 30
0.0
  0
SPLINE
  5
185
100
AcDbEntity
  8
0
 62
7
100
AcDbSpline
 70
8
 71
3
 72
8
 73
4
 74
0
 40
0
 40
0
 40
0
 40
0
 40
1
 40
1
 40
1
 40
1
 10
9.728564
 20
0.272560
 30
0.0
 10
9.757145
 20
0.322064
 30
0.0
 10
9.757145
 20
0.383056
 30
0.0
 10
9.728564
 20
0.432560
 30
0.0
  0
SPLINE
  5
186
100
AcDbEntity
  8
0
 62
7
100
AcDbSpline
 70
8
 71
3
 72
8
 73
4
 74
0
 40
0
 40
0
 40
0
 40
0
 40
1
 40
1
 40
1
 40
1
 10
9.728564
 20
0.432560
 30
0.0
 10
9.699983
 20
0.482064
 30
0.0
 10
9.647162
 20
0.512560
 30
0.0
 10
9.590000
 20
0.512560
 30
0.0
  0
SPLINE
  5
187
100
AcDbEntity
  8
0
 62
7
100
AcDbSpline
 70
8
 71
3
 72
8
 73
4
 74
0
 40
0
 40
0
 40
0
 40
0
 40
1
 40
1
 40
1
 40
1
 10
0.595000
 20
0.517560
 30
0.0
 10
0.537838
 20
0.517560
 30
0.0
 10
0.485017
 20
0.487064
 30
0.0
 10
0.456436
 20
0.437560
 30
0.0
  0
SPLINE
  5
188
100
AcDbEntity
  8
0
 62
7
100
AcDbSpline
 70
8
 71
3
 72
8
 73
4
 74
0
 40
0
 40
0
 40
0
 40
0
 40
1
 40
1
 40
1
 40
1
 10
0.456436
 20
0.437560
 30
0.0
 10
0.427855
 20
0.388056
 30
0.0
 10
0.427855
 20
0.327064
 30
0.0
 10
0.456436
 20
0.277560
 30
0.0
  0
SPLINE
  5
189
100
AcDbEntity
  8
0
 62
7
100
AcDbSpline
 70
8
 71
3
 72
8
 73
4
 74
0
 40
0
 40
0
 40
0
 40
0
 40
1
 40
1
 40
1
 40
1
 10
0.456436
 20
0.277560
 30
0.0
 10
0.485017
 20
0.228056
 30
0.0
 10
0.537838
 20
0.197560
 30
0.0
 10
0.595000
 20
0.197560
 30
0.0
  0
SPLINE
  5
18a
100
AcDbEntity
  8
0
 62
7
100
AcDbSpline
 70
8
 71
3
 72
8
 73
4
 74
0
 40
0
 40
0
 40
0
 40
0
 40
1
 40
1
 40
1
 40
1
 10
0.515000
 20
9.880060
 30
0.0
 10
0.513989
 20
9.880060
 30
0.0
 10
0.513077
 20
9.879451
 30
0.0
 10
0.512690
 20
9.878517
 30
0.0
  0
SPLINE
  5
18b
100
AcDbEntity
  8
0
 62
7
100
AcDbSpline
 70
8
 71
3
 72
8
 73
4
 74
0
 40
0
 40
0
 40
0
 40
0
 40
1
 40
1
 40
1
 40
1
 10
0.512690
 20
9.878517
 30
0.0
 10
0.512303
 20
9.877583
 30
0.0
 10
0.512517
 20
9.876507
 30
0.0
 10
0.513232
 20
9.875792
 30
0.0
  0
SPLINE
  5
18c
100
AcDbEntity
  8
0
 62
7
100
AcDbSpline
 70
8
 71
3
 72
8
 73
4
 74
0
 40
0
 40
0
 40
0
 40
0
 40
1
 40
1
 40
1
 40
1
 10
0.513232
 20
9.875792
 30
0.0
 10
0.513947
 20
9.875077
 30
0.0
 10
0.515023
 20
9.874863
 30
0.0
 10
0.515957
 20
9.875250
 30
0.0
  0
SPLINE
  5
18d
100
AcDbEntity
  8
0
 62
7
100
AcDbSpline
 70
8
 71
3
 72
8
 73
4
 74
0
 40
0
 40
0
 40
0
 40
0
 40
1
 40
1
 40
1
 40
1
 10
0.515957
 20
9.875250
 30
0.0
 10
0.516891
 20
9.875637
 30
0.0
 10
0.517500
 20
9.876549
 30
0.0
 10
0.517500
 20
9.877560
 30
0.0
  0
SPLINE
  5
18e
100
AcDbEntity
  8
0
 62
7
100
AcDbSpline
 70
8
 71
3
 72
8
 73
4
 74
0
 40
0
 40
0
 40
0
 40
0
 40
1
 40
1
 40
1
 40
1
 10
0.517500
 20
9.877560
 30
0.0
 10
0.517500
 20
9.878223
 30
0.0
 10
0.517237
 20
9.878859
 30
0.0
 10
0.516768
 20
9.879328
 30
0.0
  0
SPLINE
  5
18f
100
AcDbEntity
  8
0
 62
7
100
AcDbSpline
 70
8
 71
3
 72
8
 73
4
 74
0
 40
0
 40
0
 40
0
 40
0
 40
1
 40
1
 40
1
 40
1
 10
0.516768
 20
9.879328
 30
0.0
 10
0.516299
 20
9.879797
 30
0.0
 10
0.515663
 20
9.880060
 30
0.0
 10
0.515000
 20
9.880060
 30
0.0
  0
LWPOLYLINE
  5
190
100
AcDbEntity
  8
0
 62
7
100
AcDbPolyline
 90
2
 70
0
 10
9.520000
 20
4.387560
 30
0.0
 10
10.175000
 20
4.387560
 30
0.0
  0
LWPOLYLINE
  5
191
100
AcDbEntity
  8
0
 62
7
100
AcDbPolyline
 90
1
 70
1
 10
0.515000
 20
9.880060
 30
0.0
  0
LWPOLYLINE
  5
192
100
AcDbEntity
  8
0
 62
7
100
AcDbPolyline
 90
2
 70
0
 10
0.005000
 20
5.707560
 30
0.0
 10
0.010000
 20
12.860060
 30
0.0
  0
SPLINE
  5
193
100
AcDbEntity
  8
0
 62
7
100
AcDbSpline
 70
8
 71
3
 72
8
 73
4
 74
0
 40
0
 40
0
 40
0
 40
0
 40
1
 40
1
 40
1
 40
1
 10
0.795000
 20
10.937560
 30
0.0
 10
0.532100
 20
10.937560
 30
0.0
 10
0.295086
 20
10.779193
 30
0.0
 10
0.194478
 20
10.536304
 30
0.0
  0
SPLINE
  5
194
100
AcDbEntity
  8
0
 62
7
100
AcDbSpline
 70
8
 71
3
 72
8
 73
4
 74
0
 40
0
 40
0
 40
0
 40
0
 40
1
 40
1
 40
1
 40
1
 10
0.194478
 20
10.536304
 30
0.0
 10
0.093871
 20
10.293416
 30
0.0
 10
0.149482
 20
10.013839
 30
0.0
 10
0.335381
 20
9.827941
 30
0.0
  0
SPLINE
  5
195
100
AcDbEntity
  8
0
 62
7
100
AcDbSpline
 70
8
 71
3
 72
8
 73
4
 74
0
 40
0
 40
0
 40
0
 40
0
 40
1
 40
1
 40
1
 40
1
 10
0.335381
 20
9.827941
 30
0.0
 10
0.521279
 20
9.642042
 30
0.0
 10
0.800856
 20
9.586431
 30
0.0
 10
1.043744
 20
9.687038
 30
0.0
  0
SPLINE
  5
196
100
AcDbEntity
  8
0
 62
7
100
AcDbSpline
 70
8
 71
3
 72
8
 73
4
 74
0
 40
0
 40
0
 40
0
 40
0
 40
1
 40
1
 40
1
 40
1
 10
1.043744
 20
9.687038
 30
0.0
 10
1.286633
 20
9.787646
 30
0.0
 10
1.445000
 20
10.024660
 30
0.0
 10
1.445000
 20
10.287560
 30
0.0
  0
SPLINE
  5
197
100
AcDbEntity
  8
0
 62
7
100
AcDbSpline
 70
8
 71
3
 72
8
 73
4
 74
0
 40
0
 40
0
 40
0
 40
0
 40
1
 40
1
 40
1
 40
1
 10
1.445000
 20
10.287560
 30
0.0
 10
1.445000
 20
10.459951
 30
0.0
 10
1.376518
 20
10.625281
 30
0.0
 10
1.254619
 20
10.747179
 30
0.0
  0
SPLINE
  5
198
100
AcDbEntity
  8
0
 62
7
100
AcDbSpline
 70
8
 71
3
 72
8
 73
4
 74
0
 40
0
 40
0
 40
0
 40
0
 40
1
 40
1
 40
1
 40
1
 10
1.254619
 20
10.747179
 30
0.0
 10
1.132721
 20
10.869078
 30
0.0
 10
0.967391
 20
10.937560
 30
0.0
 10
0.795000
 20
10.937560
 30
0.0
  0
LWPOLYLINE
  5
199
100
AcDbEntity
  8
0
 62
7
100
AcDbPolyline
 90
2
 70
0
 10
10.175000
 20
0.002560
 30
0.0
 10
0.010000
 20
0.002560
 30
0.0
  0
SPLINE
  5
19a
100
AcDbEntity
  8
0
 62
7
100
AcDbSpline
 70
8
 71
3
 72
8
 73
4
 74
0
 40
0
 40
0
 40
0
 40
0
 40
1
 40
1
 40
1
 40
1
 10
9.395000
 20
10.927560
 30
0.0
 10
9.132100
 20
10.927560
 30
0.0
 10
8.895086
 20
10.769193
 30
0.0
 10
8.794478
 20
10.526304
 30
0.0
  0
SPLINE
  5
19b
100
AcDbEntity
  8
0
 62
7
100
AcDbSpline
 70
8
 71
3
 72
8
 73
4
 74
0
 40
0
 40
0
 40
0
 40
0
 40
1
 40
1
 40
1
 40
1
 10
8.794478
 20
10.526304
 30
0.0
 10
8.693871
 20
10.283416
 30
0.0
 10
8.749482
 20
10.003839
 30
0.0
 10
8.935381
 20
9.817941
 30
0.0
  0
SPLINE
  5
19c
100
AcDbEntity
  8
0
 62
7
100
AcDbSpline
 70
8
 71
3
 72
8
 73
4
 74
0
 40
0
 40
0
 40
0
 40
0
 40
1
 40
1
 40
1
 40
1
 10
8.935381
 20
9.817941
 30
0.0
 10
9.121279
 20
9.632042
 30
0.0
 10
9.400856
 20
9.576431
 30
0.0
 10
9.643744
 20
9.677038
 30
0.0
  0
SPLINE
  5
19d
100
AcDbEntity
  8
0
 62
7
100
AcDbSpline
 70
8
 71
3
 72
8
 73
4
 74
0
 40
0
 40
0
 40
0
 40
0
 40
1
 40
1
 40
1
 40
1
 10
9.643744
 20
9.677038
 30
0.0
 10
9.886633
 20
9.777646
 30
0.0
 10
10.045000
 20
10.014660
 30
0.0
 10
10.045000
 20
10.277560
 30
0.0
  0
SPLINE
  5
19e
100
AcDbEntity
  8
0
 62
7
100
AcDbSpline
 70
8
 71
3
 72
8
 73
4
 74
0
 40
0
 40
0
 40
0
 40
0
 40
1
 40
1
 40
1
 40
1
 10
10.045000
 20
10.277560
 30
0.0
 10
10.045000
 20
10.449951
 30
0.0
 10
9.976518
 20
10.615281
 30
0.0
 10
9.854619
 20
10.737179
 30
0.0
  0
SPLINE
  5
19f
100
AcDbEntity
  8
0
 62
7
100
AcDbSpline
 70
8
 71
3
 72
8
 73
4
 74
0
 40
0
 40
0
 40
0
 40
0
 40
1
 40
1
 40
1
 40
1
 10
9.854619
 20
10.737179
 30
0.0
 10
9.732721
 20
10.859078
 30
0.0
 10
9.567391
 20
10.927560
 30
0.0
 10
9.395000
 20
10.927560
 30
0.0
  0
LWPOLYLINE
  5
1a0
100
AcDbEntity
  8
0
 62
7
100
AcDbPolyline
 90
1
 70
1
 10
0.795000
 20
10.937560
 30
0.0
  0
LWPOLYLINE
  5
1a1
100
AcDbEntity
  8
0
 62
7
100
AcDbPolyline
 90
1
 70
1
 10
9.395000
 20
10.927560
 30
0.0
  0
SPLINE
  5
1a2
100
AcDbEntity
  8
0
 62
7
100
AcDbSpline
 70
8
 71
3
 72
8
 73
4
 74
0
 40
0
 40
0
 40
0
 40
0
 40
1
 40
1
 40
1
 40
1
 10
9.360000
 20
0.512560
 30
0.0
 10
9.302838
 20
0.512560
 30
0.0
 10
9.250017
 20
0.482064
 30
0.0
 10
9.221436
 20
0.432560
 30
0.0
  0
SPLINE
  5
1a3
100
AcDbEntity
  8
0
 62
7
100
AcDbSpline
 70
8
 71
3
 72
8
 73
4
 74
0
 40
0
 40
0
 40
0
 40
0
 40
1
 40
1
 40
1
 40
1
 10
9.221436
 20
0.432560
 30
0.0
 10
9.192855
 20
0.383056
 30
0.0
 10
9.192855
 20
0.322064
 30
0.0
 10
9.221436
 20
0.272560
 30
0.0
  0
SPLINE
  5
1a4
100
AcDbEntity
  8
0
 62
7
100
AcDbSpline
 70
8
 71
3
 72
8
 73
4
 74
0
 40
0
 40
0
 40
0
 40
0
 40
1
 40
1
 40
1
 40
1
 10
9.221436
 20
0.272560
 30
0.0
 10
9.250017
 20
0.223056
 30
0.0
 10
9.302838
 20
0.192560
 30
0.0
 10
9.360000
 20
0.192560
 30
0.0
  0
LWPOLYLINE
  5
1a5
100
AcDbEntity
  8
0
 62
7
100
AcDbPolyline
 90
2
 70
0
 10
9.590000
 20
0.512560
 30
0.0
 10
9.360000
 20
0.512560
 30
0.0
  0
SPLINE
  5
1a6
100
AcDbEntity
  8
0
 62
7
100
AcDbSpline
 70
8
 71
3
 72
8
 73
4
 74
0
 40
0
 40
0
 40
0
 40
0
 40
1
 40
1
 40
1
 40
1
 10
9.360000
 20
12.667560
 30
0.0
 10
9.302838
 20
12.667560
 30
0.0
 10
9.250017
 20
12.637064
 30
0.0
 10
9.221436
 20
12.587560
 30
0.0
  0
SPLINE
  5
1a7
100
AcDbEntity
  8
0
 62
7
100
AcDbSpline
 70
8
 71
3
 72
8
 73
4
 74
0
 40
0
 40
0
 40
0
 40
0
 40
1
 40
1
 40
1
 40
1
 10
9.221436
 20
12.587560
 30
0.0
 10
9.192855
 20
12.538056
 30
0.0
 10
9.192855
 20
12.477064
 30
0.0
 10
9.221436
 20
12.427560
 30
0.0
  0
SPLINE
  5
1a8
100
AcDbEntity
  8
0
 62
7
100
AcDbSpline
 70
8
 71
3
 72
8
 73
4
 74
0
 40
0
 40
0
 40
0
 40
0
 40
1
 40
1
 40
1
 40
1
 10
9.221436
 20
12.427560
 30
0.0
 10
9.250017
 20
12.378056
 30
0.0
 10
9.302838
 20
12.347560
 30
0.0
 10
9.360000
 20
12.347560
 30
0.0
  0
LWPOLYLINE
  5
1a9
100
AcDbEntity
  8
0
 62
7
100
AcDbPolyline
 90
2
 70
0
 10
9.590000
 20
12.667560
 30
0.0
 10
9.360000
 20
12.667560
 30
0.0
  0
ENDSEC
  0
SECTION
  2
OBJECTS
  0
DICTIONARY
  5
C
330
0
100
AcDbDictionary
  3
ACAD_GROUP
350
D
  3
ACAD_MLINESTYLE
350
17
  0
DICTIONARY
  5
D
330
C
100
AcDbDictionary
  0
DICTIONARY
  5
1A
330
C
100
AcDbDictionary
  0
DICTIONARY
  5
17
330
C
100
AcDbDictionary
  3
STANDARD
350
18
  0
DICTIONARY
  5
19
330
C
100
AcDbDictionary
  0
ENDSEC
  0
EOF
