<?xml version="1.0" standalone="no"?>
 <!DOCTYPE svg PUBLIC "-//W3C//DTD SVG 1.1//EN" 
 "http://www.w3.org/Graphics/SVG/1.1/DTD/svg11.dtd"> 
<svg
  xmlns:svg="http://www.w3.org/2000/svg"
  xmlns="http://www.w3.org/2000/svg"
  xmlns:xlink="http://www.w3.org/1999/xlink"
  version="1.1"
  width="101.7778mm" height="128.6256mm" viewBox="0.0000 0.0000 101.7778 128.6256">
<title>SVG Image created as eurorack_panel-Edge_Cuts.svg date 2024/04/27 17:19:40 </title>
  <desc>Image generated by PCBNEW </desc>
<g style="fill:#000000; fill-opacity:1.0000;stroke:#000000; stroke-opacity:1.0000;
stroke-linecap:round; stroke-linejoin:round;"
 transform="translate(0 0) scale(1 1)">
</g>
<g style="fill:#000000; fill-opacity:0.0; 
stroke:#000000; stroke-width:0.0000; stroke-opacity:1; 
stroke-linecap:round; stroke-linejoin:round;">
</g>
<g style="fill:#000000; fill-opacity:1.0000; 
stroke:#000000; stroke-width:0.0212; stroke-opacity:1; 
stroke-linecap:round; stroke-linejoin:round;">
<rect x="-5.000000" y="-5.000000" width="111.800000" height="138.650000" rx="0.000000" />
</g>
<g style="fill:#FFFFFF; fill-opacity:1.0000; 
stroke:#FFFFFF; stroke-width:0.0212; stroke-opacity:1; 
stroke-linecap:round; stroke-linejoin:round;">
</g>
<g style="fill:#FFFFFF; fill-opacity:1.0000; 
stroke:#FFFFFF; stroke-width:0.0500; stroke-opacity:1; 
stroke-linecap:round; stroke-linejoin:round;">
</g>
<g style="fill:#FFFFFF; fill-opacity:0.0; 
stroke:#FFFFFF; stroke-width:0.0500; stroke-opacity:1; 
stroke-linecap:round; stroke-linejoin:round;">
<path d="M8.2500 126.6500
L5.9500 126.6500
" />
<path d="M8.2500 123.4500
L5.9500 123.4500
" />
<path d="M95.9000 126.7000
L93.6000 126.7000
" />
<path d="M5.9500 1.9000 A1.6000 1.6000 0.0 0 0 5.9500 5.1000" />
<path d="M8.2500 1.9000
L5.9500 1.9000
" />
</g>
<g style="fill:#FFFFFF; fill-opacity:0.0; 
stroke:#FFFFFF; stroke-width:0.1000; stroke-opacity:1; 
stroke-linecap:round; stroke-linejoin:round;">
<circle cx="29.8500" cy="106.7500" r="4.0000" /> 
</g>
<g style="fill:#FFFFFF; fill-opacity:0.0; 
stroke:#FFFFFF; stroke-width:0.0500; stroke-opacity:1; 
stroke-linecap:round; stroke-linejoin:round;">
<path d="M101.7500 71.4500
L101.7500 0.0322
" />
<path d="M95.9000 5.1500
L93.6000 5.1500
" />
</g>
<g style="fill:#FFFFFF; fill-opacity:0.0; 
stroke:#FFFFFF; stroke-width:0.1000; stroke-opacity:1; 
stroke-linecap:round; stroke-linejoin:round;">
<circle cx="74.0500" cy="90.6500" r="4.0000" /> 
<circle cx="8.4500" cy="91.1500" r="4.0000" /> 
<circle cx="50.9500" cy="105.2500" r="4.0000" /> 
<circle cx="4.4500" cy="110.8500" r="1.8000" /> 
<circle cx="83.8500" cy="105.2500" r="4.0000" /> 
<circle cx="93.6500" cy="90.6500" r="4.0000" /> 
<path d="M95.2000 71.4500
L95.2000 84.7500
" />
<circle cx="72.4500" cy="107.0500" r="4.0000" /> 
<circle cx="19.1500" cy="53.3500" r="4.0000" /> 
<path d="M101.7500 84.7500
L101.7500 128.6000
" />
<circle cx="18.7500" cy="105.2500" r="4.0000" /> 
<circle cx="97.4500" cy="110.8500" r="1.8000" /> 
<circle cx="29.3500" cy="91.1500" r="4.0000" /> 
<path d="M0.0500 84.8500
L0.1000 128.6000
" />
<path d="M7.3500 71.5500
L7.3500 84.8500
" />
<path d="M0.0500 71.5500
L7.3500 71.5500
" />
</g>
<g style="fill:#FFFFFF; fill-opacity:0.0; 
stroke:#FFFFFF; stroke-width:0.0500; stroke-opacity:1; 
stroke-linecap:round; stroke-linejoin:round;">
<path d="M95.9000 5.1500 A1.6000 1.6000 0.0 0 0 95.9000 1.9500" />
<path d="M0.1000 0.0250
L101.7500 0.0322
" />
</g>
<g style="fill:#FFFFFF; fill-opacity:0.0; 
stroke:#FFFFFF; stroke-width:0.1000; stroke-opacity:1; 
stroke-linecap:round; stroke-linejoin:round;">
<circle cx="97.4500" cy="17.8500" r="1.8000" /> 
</g>
<g style="fill:#FFFFFF; fill-opacity:0.0; 
stroke:#FFFFFF; stroke-width:0.0500; stroke-opacity:1; 
stroke-linecap:round; stroke-linejoin:round;">
<path d="M8.2500 5.1000 A1.6000 1.6000 0.0 0 0 8.2500 1.9000" />
</g>
<g style="fill:#FFFFFF; fill-opacity:0.0; 
stroke:#FFFFFF; stroke-width:0.1000; stroke-opacity:1; 
stroke-linecap:round; stroke-linejoin:round;">
<path d="M101.7500 71.4500
L95.2000 71.4500
" />
<circle cx="82.6500" cy="53.0500" r="4.0000" /> 
<circle cx="34.1500" cy="21.1500" r="4.0000" /> 
<circle cx="4.4500" cy="17.8500" r="1.8000" /> 
<path d="M7.3500 84.8500
L0.0500 84.8500
" />
</g>
<g style="fill:#FFFFFF; fill-opacity:0.0; 
stroke:#FFFFFF; stroke-width:0.0500; stroke-opacity:1; 
stroke-linecap:round; stroke-linejoin:round;">
<path d="M8.2500 5.1000
L5.9500 5.1000
" />
<path d="M8.2500 126.6500 A1.6000 1.6000 0.0 0 0 8.2500 123.4500" />
</g>
<g style="fill:#FFFFFF; fill-opacity:0.0; 
stroke:#FFFFFF; stroke-width:0.1000; stroke-opacity:1; 
stroke-linecap:round; stroke-linejoin:round;">
<path d="M95.2000 84.7500
L101.7500 84.7500
" />
</g>
<g style="fill:#FFFFFF; fill-opacity:0.0; 
stroke:#FFFFFF; stroke-width:0.0500; stroke-opacity:1; 
stroke-linecap:round; stroke-linejoin:round;">
<path d="M95.9000 126.7000 A1.6000 1.6000 0.0 0 0 95.9000 123.5000" />
<path d="M5.9500 123.4500 A1.6000 1.6000 0.0 0 0 5.9500 126.6500" />
</g>
<g style="fill:#FFFFFF; fill-opacity:1.0000; 
stroke:#FFFFFF; stroke-width:0.0000; stroke-opacity:1; 
stroke-linecap:round; stroke-linejoin:round;">
<circle cx="5.1500" cy="29.8500" r="0.0250" /> 
</g>
<g style="fill:#FFFFFF; fill-opacity:1.0000; 
stroke:#FFFFFF; stroke-width:0.0500; stroke-opacity:1; 
stroke-linecap:round; stroke-linejoin:round;">
</g>
<g style="fill:#FFFFFF; fill-opacity:0.0; 
stroke:#FFFFFF; stroke-width:0.0500; stroke-opacity:1; 
stroke-linecap:round; stroke-linejoin:round;">
<path d="M0.0500 71.5500
L0.1000 0.0250
" />
<path d="M101.7500 128.6000
L0.1000 128.6000
" />
</g>
<g style="fill:#FFFFFF; fill-opacity:0.0; 
stroke:#FFFFFF; stroke-width:0.1000; stroke-opacity:1; 
stroke-linecap:round; stroke-linejoin:round;">
<circle cx="93.9500" cy="25.8500" r="6.5000" /> 
</g>
<g style="fill:#FFFFFF; fill-opacity:0.0; 
stroke:#FFFFFF; stroke-width:0.0500; stroke-opacity:1; 
stroke-linecap:round; stroke-linejoin:round;">
<path d="M95.9000 123.5000
L93.6000 123.5000
" />
<path d="M93.6000 123.5000 A1.6000 1.6000 0.0 0 0 93.6000 126.7000" />
<path d="M95.9000 1.9500
L93.6000 1.9500
" />
<path d="M93.6000 1.9500 A1.6000 1.6000 0.0 0 0 93.6000 5.1500" />
<g >
</g>
<g >
</g>
<g >
</g>
</g> 
</svg>
